G04 #@! TF.GenerationSoftware,KiCad,Pcbnew,(5.1.2)-2*
G04 #@! TF.CreationDate,2019-12-09T19:03:00+00:00*
G04 #@! TF.ProjectId,laser_range_PCB,6c617365-725f-4726-916e-67655f504342,rev?*
G04 #@! TF.SameCoordinates,Original*
G04 #@! TF.FileFunction,Paste,Bot*
G04 #@! TF.FilePolarity,Positive*
%FSLAX46Y46*%
G04 Gerber Fmt 4.6, Leading zero omitted, Abs format (unit mm)*
G04 Created by KiCad (PCBNEW (5.1.2)-2) date 2019-12-09 19:03:00*
%MOMM*%
%LPD*%
G04 APERTURE LIST*
%ADD10C,0.100000*%
%ADD11C,0.975000*%
G04 APERTURE END LIST*
D10*
G36*
X137805142Y-112901174D02*
G01*
X137828803Y-112904684D01*
X137852007Y-112910496D01*
X137874529Y-112918554D01*
X137896153Y-112928782D01*
X137916670Y-112941079D01*
X137935883Y-112955329D01*
X137953607Y-112971393D01*
X137969671Y-112989117D01*
X137983921Y-113008330D01*
X137996218Y-113028847D01*
X138006446Y-113050471D01*
X138014504Y-113072993D01*
X138020316Y-113096197D01*
X138023826Y-113119858D01*
X138025000Y-113143750D01*
X138025000Y-114056250D01*
X138023826Y-114080142D01*
X138020316Y-114103803D01*
X138014504Y-114127007D01*
X138006446Y-114149529D01*
X137996218Y-114171153D01*
X137983921Y-114191670D01*
X137969671Y-114210883D01*
X137953607Y-114228607D01*
X137935883Y-114244671D01*
X137916670Y-114258921D01*
X137896153Y-114271218D01*
X137874529Y-114281446D01*
X137852007Y-114289504D01*
X137828803Y-114295316D01*
X137805142Y-114298826D01*
X137781250Y-114300000D01*
X137293750Y-114300000D01*
X137269858Y-114298826D01*
X137246197Y-114295316D01*
X137222993Y-114289504D01*
X137200471Y-114281446D01*
X137178847Y-114271218D01*
X137158330Y-114258921D01*
X137139117Y-114244671D01*
X137121393Y-114228607D01*
X137105329Y-114210883D01*
X137091079Y-114191670D01*
X137078782Y-114171153D01*
X137068554Y-114149529D01*
X137060496Y-114127007D01*
X137054684Y-114103803D01*
X137051174Y-114080142D01*
X137050000Y-114056250D01*
X137050000Y-113143750D01*
X137051174Y-113119858D01*
X137054684Y-113096197D01*
X137060496Y-113072993D01*
X137068554Y-113050471D01*
X137078782Y-113028847D01*
X137091079Y-113008330D01*
X137105329Y-112989117D01*
X137121393Y-112971393D01*
X137139117Y-112955329D01*
X137158330Y-112941079D01*
X137178847Y-112928782D01*
X137200471Y-112918554D01*
X137222993Y-112910496D01*
X137246197Y-112904684D01*
X137269858Y-112901174D01*
X137293750Y-112900000D01*
X137781250Y-112900000D01*
X137805142Y-112901174D01*
X137805142Y-112901174D01*
G37*
D11*
X137537500Y-113600000D03*
D10*
G36*
X135930142Y-112901174D02*
G01*
X135953803Y-112904684D01*
X135977007Y-112910496D01*
X135999529Y-112918554D01*
X136021153Y-112928782D01*
X136041670Y-112941079D01*
X136060883Y-112955329D01*
X136078607Y-112971393D01*
X136094671Y-112989117D01*
X136108921Y-113008330D01*
X136121218Y-113028847D01*
X136131446Y-113050471D01*
X136139504Y-113072993D01*
X136145316Y-113096197D01*
X136148826Y-113119858D01*
X136150000Y-113143750D01*
X136150000Y-114056250D01*
X136148826Y-114080142D01*
X136145316Y-114103803D01*
X136139504Y-114127007D01*
X136131446Y-114149529D01*
X136121218Y-114171153D01*
X136108921Y-114191670D01*
X136094671Y-114210883D01*
X136078607Y-114228607D01*
X136060883Y-114244671D01*
X136041670Y-114258921D01*
X136021153Y-114271218D01*
X135999529Y-114281446D01*
X135977007Y-114289504D01*
X135953803Y-114295316D01*
X135930142Y-114298826D01*
X135906250Y-114300000D01*
X135418750Y-114300000D01*
X135394858Y-114298826D01*
X135371197Y-114295316D01*
X135347993Y-114289504D01*
X135325471Y-114281446D01*
X135303847Y-114271218D01*
X135283330Y-114258921D01*
X135264117Y-114244671D01*
X135246393Y-114228607D01*
X135230329Y-114210883D01*
X135216079Y-114191670D01*
X135203782Y-114171153D01*
X135193554Y-114149529D01*
X135185496Y-114127007D01*
X135179684Y-114103803D01*
X135176174Y-114080142D01*
X135175000Y-114056250D01*
X135175000Y-113143750D01*
X135176174Y-113119858D01*
X135179684Y-113096197D01*
X135185496Y-113072993D01*
X135193554Y-113050471D01*
X135203782Y-113028847D01*
X135216079Y-113008330D01*
X135230329Y-112989117D01*
X135246393Y-112971393D01*
X135264117Y-112955329D01*
X135283330Y-112941079D01*
X135303847Y-112928782D01*
X135325471Y-112918554D01*
X135347993Y-112910496D01*
X135371197Y-112904684D01*
X135394858Y-112901174D01*
X135418750Y-112900000D01*
X135906250Y-112900000D01*
X135930142Y-112901174D01*
X135930142Y-112901174D01*
G37*
D11*
X135662500Y-113600000D03*
D10*
G36*
X132605142Y-112901174D02*
G01*
X132628803Y-112904684D01*
X132652007Y-112910496D01*
X132674529Y-112918554D01*
X132696153Y-112928782D01*
X132716670Y-112941079D01*
X132735883Y-112955329D01*
X132753607Y-112971393D01*
X132769671Y-112989117D01*
X132783921Y-113008330D01*
X132796218Y-113028847D01*
X132806446Y-113050471D01*
X132814504Y-113072993D01*
X132820316Y-113096197D01*
X132823826Y-113119858D01*
X132825000Y-113143750D01*
X132825000Y-114056250D01*
X132823826Y-114080142D01*
X132820316Y-114103803D01*
X132814504Y-114127007D01*
X132806446Y-114149529D01*
X132796218Y-114171153D01*
X132783921Y-114191670D01*
X132769671Y-114210883D01*
X132753607Y-114228607D01*
X132735883Y-114244671D01*
X132716670Y-114258921D01*
X132696153Y-114271218D01*
X132674529Y-114281446D01*
X132652007Y-114289504D01*
X132628803Y-114295316D01*
X132605142Y-114298826D01*
X132581250Y-114300000D01*
X132093750Y-114300000D01*
X132069858Y-114298826D01*
X132046197Y-114295316D01*
X132022993Y-114289504D01*
X132000471Y-114281446D01*
X131978847Y-114271218D01*
X131958330Y-114258921D01*
X131939117Y-114244671D01*
X131921393Y-114228607D01*
X131905329Y-114210883D01*
X131891079Y-114191670D01*
X131878782Y-114171153D01*
X131868554Y-114149529D01*
X131860496Y-114127007D01*
X131854684Y-114103803D01*
X131851174Y-114080142D01*
X131850000Y-114056250D01*
X131850000Y-113143750D01*
X131851174Y-113119858D01*
X131854684Y-113096197D01*
X131860496Y-113072993D01*
X131868554Y-113050471D01*
X131878782Y-113028847D01*
X131891079Y-113008330D01*
X131905329Y-112989117D01*
X131921393Y-112971393D01*
X131939117Y-112955329D01*
X131958330Y-112941079D01*
X131978847Y-112928782D01*
X132000471Y-112918554D01*
X132022993Y-112910496D01*
X132046197Y-112904684D01*
X132069858Y-112901174D01*
X132093750Y-112900000D01*
X132581250Y-112900000D01*
X132605142Y-112901174D01*
X132605142Y-112901174D01*
G37*
D11*
X132337500Y-113600000D03*
D10*
G36*
X130730142Y-112901174D02*
G01*
X130753803Y-112904684D01*
X130777007Y-112910496D01*
X130799529Y-112918554D01*
X130821153Y-112928782D01*
X130841670Y-112941079D01*
X130860883Y-112955329D01*
X130878607Y-112971393D01*
X130894671Y-112989117D01*
X130908921Y-113008330D01*
X130921218Y-113028847D01*
X130931446Y-113050471D01*
X130939504Y-113072993D01*
X130945316Y-113096197D01*
X130948826Y-113119858D01*
X130950000Y-113143750D01*
X130950000Y-114056250D01*
X130948826Y-114080142D01*
X130945316Y-114103803D01*
X130939504Y-114127007D01*
X130931446Y-114149529D01*
X130921218Y-114171153D01*
X130908921Y-114191670D01*
X130894671Y-114210883D01*
X130878607Y-114228607D01*
X130860883Y-114244671D01*
X130841670Y-114258921D01*
X130821153Y-114271218D01*
X130799529Y-114281446D01*
X130777007Y-114289504D01*
X130753803Y-114295316D01*
X130730142Y-114298826D01*
X130706250Y-114300000D01*
X130218750Y-114300000D01*
X130194858Y-114298826D01*
X130171197Y-114295316D01*
X130147993Y-114289504D01*
X130125471Y-114281446D01*
X130103847Y-114271218D01*
X130083330Y-114258921D01*
X130064117Y-114244671D01*
X130046393Y-114228607D01*
X130030329Y-114210883D01*
X130016079Y-114191670D01*
X130003782Y-114171153D01*
X129993554Y-114149529D01*
X129985496Y-114127007D01*
X129979684Y-114103803D01*
X129976174Y-114080142D01*
X129975000Y-114056250D01*
X129975000Y-113143750D01*
X129976174Y-113119858D01*
X129979684Y-113096197D01*
X129985496Y-113072993D01*
X129993554Y-113050471D01*
X130003782Y-113028847D01*
X130016079Y-113008330D01*
X130030329Y-112989117D01*
X130046393Y-112971393D01*
X130064117Y-112955329D01*
X130083330Y-112941079D01*
X130103847Y-112928782D01*
X130125471Y-112918554D01*
X130147993Y-112910496D01*
X130171197Y-112904684D01*
X130194858Y-112901174D01*
X130218750Y-112900000D01*
X130706250Y-112900000D01*
X130730142Y-112901174D01*
X130730142Y-112901174D01*
G37*
D11*
X130462500Y-113600000D03*
D10*
G36*
X137805142Y-115701174D02*
G01*
X137828803Y-115704684D01*
X137852007Y-115710496D01*
X137874529Y-115718554D01*
X137896153Y-115728782D01*
X137916670Y-115741079D01*
X137935883Y-115755329D01*
X137953607Y-115771393D01*
X137969671Y-115789117D01*
X137983921Y-115808330D01*
X137996218Y-115828847D01*
X138006446Y-115850471D01*
X138014504Y-115872993D01*
X138020316Y-115896197D01*
X138023826Y-115919858D01*
X138025000Y-115943750D01*
X138025000Y-116856250D01*
X138023826Y-116880142D01*
X138020316Y-116903803D01*
X138014504Y-116927007D01*
X138006446Y-116949529D01*
X137996218Y-116971153D01*
X137983921Y-116991670D01*
X137969671Y-117010883D01*
X137953607Y-117028607D01*
X137935883Y-117044671D01*
X137916670Y-117058921D01*
X137896153Y-117071218D01*
X137874529Y-117081446D01*
X137852007Y-117089504D01*
X137828803Y-117095316D01*
X137805142Y-117098826D01*
X137781250Y-117100000D01*
X137293750Y-117100000D01*
X137269858Y-117098826D01*
X137246197Y-117095316D01*
X137222993Y-117089504D01*
X137200471Y-117081446D01*
X137178847Y-117071218D01*
X137158330Y-117058921D01*
X137139117Y-117044671D01*
X137121393Y-117028607D01*
X137105329Y-117010883D01*
X137091079Y-116991670D01*
X137078782Y-116971153D01*
X137068554Y-116949529D01*
X137060496Y-116927007D01*
X137054684Y-116903803D01*
X137051174Y-116880142D01*
X137050000Y-116856250D01*
X137050000Y-115943750D01*
X137051174Y-115919858D01*
X137054684Y-115896197D01*
X137060496Y-115872993D01*
X137068554Y-115850471D01*
X137078782Y-115828847D01*
X137091079Y-115808330D01*
X137105329Y-115789117D01*
X137121393Y-115771393D01*
X137139117Y-115755329D01*
X137158330Y-115741079D01*
X137178847Y-115728782D01*
X137200471Y-115718554D01*
X137222993Y-115710496D01*
X137246197Y-115704684D01*
X137269858Y-115701174D01*
X137293750Y-115700000D01*
X137781250Y-115700000D01*
X137805142Y-115701174D01*
X137805142Y-115701174D01*
G37*
D11*
X137537500Y-116400000D03*
D10*
G36*
X135930142Y-115701174D02*
G01*
X135953803Y-115704684D01*
X135977007Y-115710496D01*
X135999529Y-115718554D01*
X136021153Y-115728782D01*
X136041670Y-115741079D01*
X136060883Y-115755329D01*
X136078607Y-115771393D01*
X136094671Y-115789117D01*
X136108921Y-115808330D01*
X136121218Y-115828847D01*
X136131446Y-115850471D01*
X136139504Y-115872993D01*
X136145316Y-115896197D01*
X136148826Y-115919858D01*
X136150000Y-115943750D01*
X136150000Y-116856250D01*
X136148826Y-116880142D01*
X136145316Y-116903803D01*
X136139504Y-116927007D01*
X136131446Y-116949529D01*
X136121218Y-116971153D01*
X136108921Y-116991670D01*
X136094671Y-117010883D01*
X136078607Y-117028607D01*
X136060883Y-117044671D01*
X136041670Y-117058921D01*
X136021153Y-117071218D01*
X135999529Y-117081446D01*
X135977007Y-117089504D01*
X135953803Y-117095316D01*
X135930142Y-117098826D01*
X135906250Y-117100000D01*
X135418750Y-117100000D01*
X135394858Y-117098826D01*
X135371197Y-117095316D01*
X135347993Y-117089504D01*
X135325471Y-117081446D01*
X135303847Y-117071218D01*
X135283330Y-117058921D01*
X135264117Y-117044671D01*
X135246393Y-117028607D01*
X135230329Y-117010883D01*
X135216079Y-116991670D01*
X135203782Y-116971153D01*
X135193554Y-116949529D01*
X135185496Y-116927007D01*
X135179684Y-116903803D01*
X135176174Y-116880142D01*
X135175000Y-116856250D01*
X135175000Y-115943750D01*
X135176174Y-115919858D01*
X135179684Y-115896197D01*
X135185496Y-115872993D01*
X135193554Y-115850471D01*
X135203782Y-115828847D01*
X135216079Y-115808330D01*
X135230329Y-115789117D01*
X135246393Y-115771393D01*
X135264117Y-115755329D01*
X135283330Y-115741079D01*
X135303847Y-115728782D01*
X135325471Y-115718554D01*
X135347993Y-115710496D01*
X135371197Y-115704684D01*
X135394858Y-115701174D01*
X135418750Y-115700000D01*
X135906250Y-115700000D01*
X135930142Y-115701174D01*
X135930142Y-115701174D01*
G37*
D11*
X135662500Y-116400000D03*
D10*
G36*
X130730142Y-115701174D02*
G01*
X130753803Y-115704684D01*
X130777007Y-115710496D01*
X130799529Y-115718554D01*
X130821153Y-115728782D01*
X130841670Y-115741079D01*
X130860883Y-115755329D01*
X130878607Y-115771393D01*
X130894671Y-115789117D01*
X130908921Y-115808330D01*
X130921218Y-115828847D01*
X130931446Y-115850471D01*
X130939504Y-115872993D01*
X130945316Y-115896197D01*
X130948826Y-115919858D01*
X130950000Y-115943750D01*
X130950000Y-116856250D01*
X130948826Y-116880142D01*
X130945316Y-116903803D01*
X130939504Y-116927007D01*
X130931446Y-116949529D01*
X130921218Y-116971153D01*
X130908921Y-116991670D01*
X130894671Y-117010883D01*
X130878607Y-117028607D01*
X130860883Y-117044671D01*
X130841670Y-117058921D01*
X130821153Y-117071218D01*
X130799529Y-117081446D01*
X130777007Y-117089504D01*
X130753803Y-117095316D01*
X130730142Y-117098826D01*
X130706250Y-117100000D01*
X130218750Y-117100000D01*
X130194858Y-117098826D01*
X130171197Y-117095316D01*
X130147993Y-117089504D01*
X130125471Y-117081446D01*
X130103847Y-117071218D01*
X130083330Y-117058921D01*
X130064117Y-117044671D01*
X130046393Y-117028607D01*
X130030329Y-117010883D01*
X130016079Y-116991670D01*
X130003782Y-116971153D01*
X129993554Y-116949529D01*
X129985496Y-116927007D01*
X129979684Y-116903803D01*
X129976174Y-116880142D01*
X129975000Y-116856250D01*
X129975000Y-115943750D01*
X129976174Y-115919858D01*
X129979684Y-115896197D01*
X129985496Y-115872993D01*
X129993554Y-115850471D01*
X130003782Y-115828847D01*
X130016079Y-115808330D01*
X130030329Y-115789117D01*
X130046393Y-115771393D01*
X130064117Y-115755329D01*
X130083330Y-115741079D01*
X130103847Y-115728782D01*
X130125471Y-115718554D01*
X130147993Y-115710496D01*
X130171197Y-115704684D01*
X130194858Y-115701174D01*
X130218750Y-115700000D01*
X130706250Y-115700000D01*
X130730142Y-115701174D01*
X130730142Y-115701174D01*
G37*
D11*
X130462500Y-116400000D03*
D10*
G36*
X132605142Y-115701174D02*
G01*
X132628803Y-115704684D01*
X132652007Y-115710496D01*
X132674529Y-115718554D01*
X132696153Y-115728782D01*
X132716670Y-115741079D01*
X132735883Y-115755329D01*
X132753607Y-115771393D01*
X132769671Y-115789117D01*
X132783921Y-115808330D01*
X132796218Y-115828847D01*
X132806446Y-115850471D01*
X132814504Y-115872993D01*
X132820316Y-115896197D01*
X132823826Y-115919858D01*
X132825000Y-115943750D01*
X132825000Y-116856250D01*
X132823826Y-116880142D01*
X132820316Y-116903803D01*
X132814504Y-116927007D01*
X132806446Y-116949529D01*
X132796218Y-116971153D01*
X132783921Y-116991670D01*
X132769671Y-117010883D01*
X132753607Y-117028607D01*
X132735883Y-117044671D01*
X132716670Y-117058921D01*
X132696153Y-117071218D01*
X132674529Y-117081446D01*
X132652007Y-117089504D01*
X132628803Y-117095316D01*
X132605142Y-117098826D01*
X132581250Y-117100000D01*
X132093750Y-117100000D01*
X132069858Y-117098826D01*
X132046197Y-117095316D01*
X132022993Y-117089504D01*
X132000471Y-117081446D01*
X131978847Y-117071218D01*
X131958330Y-117058921D01*
X131939117Y-117044671D01*
X131921393Y-117028607D01*
X131905329Y-117010883D01*
X131891079Y-116991670D01*
X131878782Y-116971153D01*
X131868554Y-116949529D01*
X131860496Y-116927007D01*
X131854684Y-116903803D01*
X131851174Y-116880142D01*
X131850000Y-116856250D01*
X131850000Y-115943750D01*
X131851174Y-115919858D01*
X131854684Y-115896197D01*
X131860496Y-115872993D01*
X131868554Y-115850471D01*
X131878782Y-115828847D01*
X131891079Y-115808330D01*
X131905329Y-115789117D01*
X131921393Y-115771393D01*
X131939117Y-115755329D01*
X131958330Y-115741079D01*
X131978847Y-115728782D01*
X132000471Y-115718554D01*
X132022993Y-115710496D01*
X132046197Y-115704684D01*
X132069858Y-115701174D01*
X132093750Y-115700000D01*
X132581250Y-115700000D01*
X132605142Y-115701174D01*
X132605142Y-115701174D01*
G37*
D11*
X132337500Y-116400000D03*
M02*
