G04 #@! TF.GenerationSoftware,KiCad,Pcbnew,(5.1.2)-2*
G04 #@! TF.CreationDate,2019-12-09T19:03:00+00:00*
G04 #@! TF.ProjectId,laser_range_PCB,6c617365-725f-4726-916e-67655f504342,rev?*
G04 #@! TF.SameCoordinates,Original*
G04 #@! TF.FileFunction,Legend,Top*
G04 #@! TF.FilePolarity,Positive*
%FSLAX46Y46*%
G04 Gerber Fmt 4.6, Leading zero omitted, Abs format (unit mm)*
G04 Created by KiCad (PCBNEW (5.1.2)-2) date 2019-12-09 19:03:00*
%MOMM*%
%LPD*%
G04 APERTURE LIST*
%ADD10C,0.100000*%
%ADD11C,0.254000*%
G04 APERTURE END LIST*
D10*
X135600000Y-116175000D02*
G75*
G03X135700000Y-116175000I50000J0D01*
G01*
X135700000Y-116175000D02*
G75*
G03X135600000Y-116175000I-50000J0D01*
G01*
X135700000Y-116175000D02*
X135700000Y-116175000D01*
X135600000Y-116175000D02*
X135600000Y-116175000D01*
X131800000Y-115775000D02*
X131800000Y-113375000D01*
X136200000Y-115775000D02*
X131800000Y-115775000D01*
X136200000Y-113375000D02*
X136200000Y-115775000D01*
X131800000Y-113375000D02*
X136200000Y-113375000D01*
D11*
X129524761Y-117904523D02*
X129948095Y-119174523D01*
X130371428Y-117904523D01*
X131399523Y-119174523D02*
X130794761Y-119174523D01*
X130794761Y-117904523D01*
X132427619Y-117904523D02*
X131822857Y-117904523D01*
X131762380Y-118509285D01*
X131822857Y-118448809D01*
X131943809Y-118388333D01*
X132246190Y-118388333D01*
X132367142Y-118448809D01*
X132427619Y-118509285D01*
X132488095Y-118630238D01*
X132488095Y-118932619D01*
X132427619Y-119053571D01*
X132367142Y-119114047D01*
X132246190Y-119174523D01*
X131943809Y-119174523D01*
X131822857Y-119114047D01*
X131762380Y-119053571D01*
X132911428Y-117904523D02*
X133697619Y-117904523D01*
X133274285Y-118388333D01*
X133455714Y-118388333D01*
X133576666Y-118448809D01*
X133637142Y-118509285D01*
X133697619Y-118630238D01*
X133697619Y-118932619D01*
X133637142Y-119053571D01*
X133576666Y-119114047D01*
X133455714Y-119174523D01*
X133092857Y-119174523D01*
X132971904Y-119114047D01*
X132911428Y-119053571D01*
X134846666Y-119174523D02*
X134241904Y-119174523D01*
X134241904Y-117904523D01*
X135511904Y-117904523D02*
X135632857Y-117904523D01*
X135753809Y-117965000D01*
X135814285Y-118025476D01*
X135874761Y-118146428D01*
X135935238Y-118388333D01*
X135935238Y-118690714D01*
X135874761Y-118932619D01*
X135814285Y-119053571D01*
X135753809Y-119114047D01*
X135632857Y-119174523D01*
X135511904Y-119174523D01*
X135390952Y-119114047D01*
X135330476Y-119053571D01*
X135270000Y-118932619D01*
X135209523Y-118690714D01*
X135209523Y-118388333D01*
X135270000Y-118146428D01*
X135330476Y-118025476D01*
X135390952Y-117965000D01*
X135511904Y-117904523D01*
X136358571Y-117904523D02*
X137205238Y-119174523D01*
X137205238Y-117904523D02*
X136358571Y-119174523D01*
X138354285Y-119174523D02*
X137628571Y-119174523D01*
X137991428Y-119174523D02*
X137991428Y-117904523D01*
X137870476Y-118085952D01*
X137749523Y-118206904D01*
X137628571Y-118267380D01*
M02*
