G04 #@! TF.GenerationSoftware,KiCad,Pcbnew,(5.1.2)-2*
G04 #@! TF.CreationDate,2019-12-09T19:03:00+00:00*
G04 #@! TF.ProjectId,laser_range_PCB,6c617365-725f-4726-916e-67655f504342,rev?*
G04 #@! TF.SameCoordinates,Original*
G04 #@! TF.FileFunction,Legend,Bot*
G04 #@! TF.FilePolarity,Positive*
%FSLAX46Y46*%
G04 Gerber Fmt 4.6, Leading zero omitted, Abs format (unit mm)*
G04 Created by KiCad (PCBNEW (5.1.2)-2) date 2019-12-09 19:03:00*
%MOMM*%
%LPD*%
G04 APERTURE LIST*
%ADD10C,0.120000*%
%ADD11C,0.150000*%
G04 APERTURE END LIST*
D10*
X137830000Y-121000000D02*
X137830000Y-119670000D01*
X137830000Y-119670000D02*
X136500000Y-119670000D01*
X137830000Y-122270000D02*
X135230000Y-122270000D01*
X135230000Y-122270000D02*
X135230000Y-119670000D01*
X135230000Y-119670000D02*
X130090000Y-119670000D01*
X130090000Y-124870000D02*
X130090000Y-119670000D01*
X137830000Y-124870000D02*
X130090000Y-124870000D01*
X137830000Y-124870000D02*
X137830000Y-122270000D01*
X136341422Y-112890000D02*
X136858578Y-112890000D01*
X136341422Y-114310000D02*
X136858578Y-114310000D01*
X131141422Y-112890000D02*
X131658578Y-112890000D01*
X131141422Y-114310000D02*
X131658578Y-114310000D01*
X136341422Y-115690000D02*
X136858578Y-115690000D01*
X136341422Y-117110000D02*
X136858578Y-117110000D01*
X131658578Y-117110000D02*
X131141422Y-117110000D01*
X131658578Y-115690000D02*
X131141422Y-115690000D01*
D11*
X138722380Y-121936666D02*
X139436666Y-121936666D01*
X139579523Y-121889047D01*
X139674761Y-121793809D01*
X139722380Y-121650952D01*
X139722380Y-121555714D01*
X139722380Y-122936666D02*
X139722380Y-122365238D01*
X139722380Y-122650952D02*
X138722380Y-122650952D01*
X138865238Y-122555714D01*
X138960476Y-122460476D01*
X139008095Y-122365238D01*
X136766666Y-112452380D02*
X137100000Y-111976190D01*
X137338095Y-112452380D02*
X137338095Y-111452380D01*
X136957142Y-111452380D01*
X136861904Y-111500000D01*
X136814285Y-111547619D01*
X136766666Y-111642857D01*
X136766666Y-111785714D01*
X136814285Y-111880952D01*
X136861904Y-111928571D01*
X136957142Y-111976190D01*
X137338095Y-111976190D01*
X136385714Y-111547619D02*
X136338095Y-111500000D01*
X136242857Y-111452380D01*
X136004761Y-111452380D01*
X135909523Y-111500000D01*
X135861904Y-111547619D01*
X135814285Y-111642857D01*
X135814285Y-111738095D01*
X135861904Y-111880952D01*
X136433333Y-112452380D01*
X135814285Y-112452380D01*
X131566666Y-112452380D02*
X131900000Y-111976190D01*
X132138095Y-112452380D02*
X132138095Y-111452380D01*
X131757142Y-111452380D01*
X131661904Y-111500000D01*
X131614285Y-111547619D01*
X131566666Y-111642857D01*
X131566666Y-111785714D01*
X131614285Y-111880952D01*
X131661904Y-111928571D01*
X131757142Y-111976190D01*
X132138095Y-111976190D01*
X130614285Y-112452380D02*
X131185714Y-112452380D01*
X130900000Y-112452380D02*
X130900000Y-111452380D01*
X130995238Y-111595238D01*
X131090476Y-111690476D01*
X131185714Y-111738095D01*
X136766666Y-118407142D02*
X136814285Y-118454761D01*
X136957142Y-118502380D01*
X137052380Y-118502380D01*
X137195238Y-118454761D01*
X137290476Y-118359523D01*
X137338095Y-118264285D01*
X137385714Y-118073809D01*
X137385714Y-117930952D01*
X137338095Y-117740476D01*
X137290476Y-117645238D01*
X137195238Y-117550000D01*
X137052380Y-117502380D01*
X136957142Y-117502380D01*
X136814285Y-117550000D01*
X136766666Y-117597619D01*
X136385714Y-117597619D02*
X136338095Y-117550000D01*
X136242857Y-117502380D01*
X136004761Y-117502380D01*
X135909523Y-117550000D01*
X135861904Y-117597619D01*
X135814285Y-117692857D01*
X135814285Y-117788095D01*
X135861904Y-117930952D01*
X136433333Y-118502380D01*
X135814285Y-118502380D01*
X131566666Y-118357142D02*
X131614285Y-118404761D01*
X131757142Y-118452380D01*
X131852380Y-118452380D01*
X131995238Y-118404761D01*
X132090476Y-118309523D01*
X132138095Y-118214285D01*
X132185714Y-118023809D01*
X132185714Y-117880952D01*
X132138095Y-117690476D01*
X132090476Y-117595238D01*
X131995238Y-117500000D01*
X131852380Y-117452380D01*
X131757142Y-117452380D01*
X131614285Y-117500000D01*
X131566666Y-117547619D01*
X130614285Y-118452380D02*
X131185714Y-118452380D01*
X130900000Y-118452380D02*
X130900000Y-117452380D01*
X130995238Y-117595238D01*
X131090476Y-117690476D01*
X131185714Y-117738095D01*
M02*
