G04 #@! TF.GenerationSoftware,KiCad,Pcbnew,(5.1.2)-2*
G04 #@! TF.CreationDate,2019-12-09T19:03:00+00:00*
G04 #@! TF.ProjectId,laser_range_PCB,6c617365-725f-4726-916e-67655f504342,rev?*
G04 #@! TF.SameCoordinates,Original*
G04 #@! TF.FileFunction,Copper,L2,Bot*
G04 #@! TF.FilePolarity,Positive*
%FSLAX46Y46*%
G04 Gerber Fmt 4.6, Leading zero omitted, Abs format (unit mm)*
G04 Created by KiCad (PCBNEW (5.1.2)-2) date 2019-12-09 19:03:00*
%MOMM*%
%LPD*%
G04 APERTURE LIST*
%ADD10O,1.700000X1.700000*%
%ADD11R,1.700000X1.700000*%
%ADD12C,0.100000*%
%ADD13C,0.975000*%
%ADD14C,0.800000*%
%ADD15C,0.250000*%
%ADD16C,0.500000*%
%ADD17C,0.127000*%
G04 APERTURE END LIST*
D10*
X131420000Y-123540000D03*
X131420000Y-121000000D03*
X133960000Y-123540000D03*
X133960000Y-121000000D03*
X136500000Y-123540000D03*
D11*
X136500000Y-121000000D03*
D12*
G36*
X137805142Y-112901174D02*
G01*
X137828803Y-112904684D01*
X137852007Y-112910496D01*
X137874529Y-112918554D01*
X137896153Y-112928782D01*
X137916670Y-112941079D01*
X137935883Y-112955329D01*
X137953607Y-112971393D01*
X137969671Y-112989117D01*
X137983921Y-113008330D01*
X137996218Y-113028847D01*
X138006446Y-113050471D01*
X138014504Y-113072993D01*
X138020316Y-113096197D01*
X138023826Y-113119858D01*
X138025000Y-113143750D01*
X138025000Y-114056250D01*
X138023826Y-114080142D01*
X138020316Y-114103803D01*
X138014504Y-114127007D01*
X138006446Y-114149529D01*
X137996218Y-114171153D01*
X137983921Y-114191670D01*
X137969671Y-114210883D01*
X137953607Y-114228607D01*
X137935883Y-114244671D01*
X137916670Y-114258921D01*
X137896153Y-114271218D01*
X137874529Y-114281446D01*
X137852007Y-114289504D01*
X137828803Y-114295316D01*
X137805142Y-114298826D01*
X137781250Y-114300000D01*
X137293750Y-114300000D01*
X137269858Y-114298826D01*
X137246197Y-114295316D01*
X137222993Y-114289504D01*
X137200471Y-114281446D01*
X137178847Y-114271218D01*
X137158330Y-114258921D01*
X137139117Y-114244671D01*
X137121393Y-114228607D01*
X137105329Y-114210883D01*
X137091079Y-114191670D01*
X137078782Y-114171153D01*
X137068554Y-114149529D01*
X137060496Y-114127007D01*
X137054684Y-114103803D01*
X137051174Y-114080142D01*
X137050000Y-114056250D01*
X137050000Y-113143750D01*
X137051174Y-113119858D01*
X137054684Y-113096197D01*
X137060496Y-113072993D01*
X137068554Y-113050471D01*
X137078782Y-113028847D01*
X137091079Y-113008330D01*
X137105329Y-112989117D01*
X137121393Y-112971393D01*
X137139117Y-112955329D01*
X137158330Y-112941079D01*
X137178847Y-112928782D01*
X137200471Y-112918554D01*
X137222993Y-112910496D01*
X137246197Y-112904684D01*
X137269858Y-112901174D01*
X137293750Y-112900000D01*
X137781250Y-112900000D01*
X137805142Y-112901174D01*
X137805142Y-112901174D01*
G37*
D13*
X137537500Y-113600000D03*
D12*
G36*
X135930142Y-112901174D02*
G01*
X135953803Y-112904684D01*
X135977007Y-112910496D01*
X135999529Y-112918554D01*
X136021153Y-112928782D01*
X136041670Y-112941079D01*
X136060883Y-112955329D01*
X136078607Y-112971393D01*
X136094671Y-112989117D01*
X136108921Y-113008330D01*
X136121218Y-113028847D01*
X136131446Y-113050471D01*
X136139504Y-113072993D01*
X136145316Y-113096197D01*
X136148826Y-113119858D01*
X136150000Y-113143750D01*
X136150000Y-114056250D01*
X136148826Y-114080142D01*
X136145316Y-114103803D01*
X136139504Y-114127007D01*
X136131446Y-114149529D01*
X136121218Y-114171153D01*
X136108921Y-114191670D01*
X136094671Y-114210883D01*
X136078607Y-114228607D01*
X136060883Y-114244671D01*
X136041670Y-114258921D01*
X136021153Y-114271218D01*
X135999529Y-114281446D01*
X135977007Y-114289504D01*
X135953803Y-114295316D01*
X135930142Y-114298826D01*
X135906250Y-114300000D01*
X135418750Y-114300000D01*
X135394858Y-114298826D01*
X135371197Y-114295316D01*
X135347993Y-114289504D01*
X135325471Y-114281446D01*
X135303847Y-114271218D01*
X135283330Y-114258921D01*
X135264117Y-114244671D01*
X135246393Y-114228607D01*
X135230329Y-114210883D01*
X135216079Y-114191670D01*
X135203782Y-114171153D01*
X135193554Y-114149529D01*
X135185496Y-114127007D01*
X135179684Y-114103803D01*
X135176174Y-114080142D01*
X135175000Y-114056250D01*
X135175000Y-113143750D01*
X135176174Y-113119858D01*
X135179684Y-113096197D01*
X135185496Y-113072993D01*
X135193554Y-113050471D01*
X135203782Y-113028847D01*
X135216079Y-113008330D01*
X135230329Y-112989117D01*
X135246393Y-112971393D01*
X135264117Y-112955329D01*
X135283330Y-112941079D01*
X135303847Y-112928782D01*
X135325471Y-112918554D01*
X135347993Y-112910496D01*
X135371197Y-112904684D01*
X135394858Y-112901174D01*
X135418750Y-112900000D01*
X135906250Y-112900000D01*
X135930142Y-112901174D01*
X135930142Y-112901174D01*
G37*
D13*
X135662500Y-113600000D03*
D12*
G36*
X132605142Y-112901174D02*
G01*
X132628803Y-112904684D01*
X132652007Y-112910496D01*
X132674529Y-112918554D01*
X132696153Y-112928782D01*
X132716670Y-112941079D01*
X132735883Y-112955329D01*
X132753607Y-112971393D01*
X132769671Y-112989117D01*
X132783921Y-113008330D01*
X132796218Y-113028847D01*
X132806446Y-113050471D01*
X132814504Y-113072993D01*
X132820316Y-113096197D01*
X132823826Y-113119858D01*
X132825000Y-113143750D01*
X132825000Y-114056250D01*
X132823826Y-114080142D01*
X132820316Y-114103803D01*
X132814504Y-114127007D01*
X132806446Y-114149529D01*
X132796218Y-114171153D01*
X132783921Y-114191670D01*
X132769671Y-114210883D01*
X132753607Y-114228607D01*
X132735883Y-114244671D01*
X132716670Y-114258921D01*
X132696153Y-114271218D01*
X132674529Y-114281446D01*
X132652007Y-114289504D01*
X132628803Y-114295316D01*
X132605142Y-114298826D01*
X132581250Y-114300000D01*
X132093750Y-114300000D01*
X132069858Y-114298826D01*
X132046197Y-114295316D01*
X132022993Y-114289504D01*
X132000471Y-114281446D01*
X131978847Y-114271218D01*
X131958330Y-114258921D01*
X131939117Y-114244671D01*
X131921393Y-114228607D01*
X131905329Y-114210883D01*
X131891079Y-114191670D01*
X131878782Y-114171153D01*
X131868554Y-114149529D01*
X131860496Y-114127007D01*
X131854684Y-114103803D01*
X131851174Y-114080142D01*
X131850000Y-114056250D01*
X131850000Y-113143750D01*
X131851174Y-113119858D01*
X131854684Y-113096197D01*
X131860496Y-113072993D01*
X131868554Y-113050471D01*
X131878782Y-113028847D01*
X131891079Y-113008330D01*
X131905329Y-112989117D01*
X131921393Y-112971393D01*
X131939117Y-112955329D01*
X131958330Y-112941079D01*
X131978847Y-112928782D01*
X132000471Y-112918554D01*
X132022993Y-112910496D01*
X132046197Y-112904684D01*
X132069858Y-112901174D01*
X132093750Y-112900000D01*
X132581250Y-112900000D01*
X132605142Y-112901174D01*
X132605142Y-112901174D01*
G37*
D13*
X132337500Y-113600000D03*
D12*
G36*
X130730142Y-112901174D02*
G01*
X130753803Y-112904684D01*
X130777007Y-112910496D01*
X130799529Y-112918554D01*
X130821153Y-112928782D01*
X130841670Y-112941079D01*
X130860883Y-112955329D01*
X130878607Y-112971393D01*
X130894671Y-112989117D01*
X130908921Y-113008330D01*
X130921218Y-113028847D01*
X130931446Y-113050471D01*
X130939504Y-113072993D01*
X130945316Y-113096197D01*
X130948826Y-113119858D01*
X130950000Y-113143750D01*
X130950000Y-114056250D01*
X130948826Y-114080142D01*
X130945316Y-114103803D01*
X130939504Y-114127007D01*
X130931446Y-114149529D01*
X130921218Y-114171153D01*
X130908921Y-114191670D01*
X130894671Y-114210883D01*
X130878607Y-114228607D01*
X130860883Y-114244671D01*
X130841670Y-114258921D01*
X130821153Y-114271218D01*
X130799529Y-114281446D01*
X130777007Y-114289504D01*
X130753803Y-114295316D01*
X130730142Y-114298826D01*
X130706250Y-114300000D01*
X130218750Y-114300000D01*
X130194858Y-114298826D01*
X130171197Y-114295316D01*
X130147993Y-114289504D01*
X130125471Y-114281446D01*
X130103847Y-114271218D01*
X130083330Y-114258921D01*
X130064117Y-114244671D01*
X130046393Y-114228607D01*
X130030329Y-114210883D01*
X130016079Y-114191670D01*
X130003782Y-114171153D01*
X129993554Y-114149529D01*
X129985496Y-114127007D01*
X129979684Y-114103803D01*
X129976174Y-114080142D01*
X129975000Y-114056250D01*
X129975000Y-113143750D01*
X129976174Y-113119858D01*
X129979684Y-113096197D01*
X129985496Y-113072993D01*
X129993554Y-113050471D01*
X130003782Y-113028847D01*
X130016079Y-113008330D01*
X130030329Y-112989117D01*
X130046393Y-112971393D01*
X130064117Y-112955329D01*
X130083330Y-112941079D01*
X130103847Y-112928782D01*
X130125471Y-112918554D01*
X130147993Y-112910496D01*
X130171197Y-112904684D01*
X130194858Y-112901174D01*
X130218750Y-112900000D01*
X130706250Y-112900000D01*
X130730142Y-112901174D01*
X130730142Y-112901174D01*
G37*
D13*
X130462500Y-113600000D03*
D12*
G36*
X137805142Y-115701174D02*
G01*
X137828803Y-115704684D01*
X137852007Y-115710496D01*
X137874529Y-115718554D01*
X137896153Y-115728782D01*
X137916670Y-115741079D01*
X137935883Y-115755329D01*
X137953607Y-115771393D01*
X137969671Y-115789117D01*
X137983921Y-115808330D01*
X137996218Y-115828847D01*
X138006446Y-115850471D01*
X138014504Y-115872993D01*
X138020316Y-115896197D01*
X138023826Y-115919858D01*
X138025000Y-115943750D01*
X138025000Y-116856250D01*
X138023826Y-116880142D01*
X138020316Y-116903803D01*
X138014504Y-116927007D01*
X138006446Y-116949529D01*
X137996218Y-116971153D01*
X137983921Y-116991670D01*
X137969671Y-117010883D01*
X137953607Y-117028607D01*
X137935883Y-117044671D01*
X137916670Y-117058921D01*
X137896153Y-117071218D01*
X137874529Y-117081446D01*
X137852007Y-117089504D01*
X137828803Y-117095316D01*
X137805142Y-117098826D01*
X137781250Y-117100000D01*
X137293750Y-117100000D01*
X137269858Y-117098826D01*
X137246197Y-117095316D01*
X137222993Y-117089504D01*
X137200471Y-117081446D01*
X137178847Y-117071218D01*
X137158330Y-117058921D01*
X137139117Y-117044671D01*
X137121393Y-117028607D01*
X137105329Y-117010883D01*
X137091079Y-116991670D01*
X137078782Y-116971153D01*
X137068554Y-116949529D01*
X137060496Y-116927007D01*
X137054684Y-116903803D01*
X137051174Y-116880142D01*
X137050000Y-116856250D01*
X137050000Y-115943750D01*
X137051174Y-115919858D01*
X137054684Y-115896197D01*
X137060496Y-115872993D01*
X137068554Y-115850471D01*
X137078782Y-115828847D01*
X137091079Y-115808330D01*
X137105329Y-115789117D01*
X137121393Y-115771393D01*
X137139117Y-115755329D01*
X137158330Y-115741079D01*
X137178847Y-115728782D01*
X137200471Y-115718554D01*
X137222993Y-115710496D01*
X137246197Y-115704684D01*
X137269858Y-115701174D01*
X137293750Y-115700000D01*
X137781250Y-115700000D01*
X137805142Y-115701174D01*
X137805142Y-115701174D01*
G37*
D13*
X137537500Y-116400000D03*
D12*
G36*
X135930142Y-115701174D02*
G01*
X135953803Y-115704684D01*
X135977007Y-115710496D01*
X135999529Y-115718554D01*
X136021153Y-115728782D01*
X136041670Y-115741079D01*
X136060883Y-115755329D01*
X136078607Y-115771393D01*
X136094671Y-115789117D01*
X136108921Y-115808330D01*
X136121218Y-115828847D01*
X136131446Y-115850471D01*
X136139504Y-115872993D01*
X136145316Y-115896197D01*
X136148826Y-115919858D01*
X136150000Y-115943750D01*
X136150000Y-116856250D01*
X136148826Y-116880142D01*
X136145316Y-116903803D01*
X136139504Y-116927007D01*
X136131446Y-116949529D01*
X136121218Y-116971153D01*
X136108921Y-116991670D01*
X136094671Y-117010883D01*
X136078607Y-117028607D01*
X136060883Y-117044671D01*
X136041670Y-117058921D01*
X136021153Y-117071218D01*
X135999529Y-117081446D01*
X135977007Y-117089504D01*
X135953803Y-117095316D01*
X135930142Y-117098826D01*
X135906250Y-117100000D01*
X135418750Y-117100000D01*
X135394858Y-117098826D01*
X135371197Y-117095316D01*
X135347993Y-117089504D01*
X135325471Y-117081446D01*
X135303847Y-117071218D01*
X135283330Y-117058921D01*
X135264117Y-117044671D01*
X135246393Y-117028607D01*
X135230329Y-117010883D01*
X135216079Y-116991670D01*
X135203782Y-116971153D01*
X135193554Y-116949529D01*
X135185496Y-116927007D01*
X135179684Y-116903803D01*
X135176174Y-116880142D01*
X135175000Y-116856250D01*
X135175000Y-115943750D01*
X135176174Y-115919858D01*
X135179684Y-115896197D01*
X135185496Y-115872993D01*
X135193554Y-115850471D01*
X135203782Y-115828847D01*
X135216079Y-115808330D01*
X135230329Y-115789117D01*
X135246393Y-115771393D01*
X135264117Y-115755329D01*
X135283330Y-115741079D01*
X135303847Y-115728782D01*
X135325471Y-115718554D01*
X135347993Y-115710496D01*
X135371197Y-115704684D01*
X135394858Y-115701174D01*
X135418750Y-115700000D01*
X135906250Y-115700000D01*
X135930142Y-115701174D01*
X135930142Y-115701174D01*
G37*
D13*
X135662500Y-116400000D03*
D12*
G36*
X130730142Y-115701174D02*
G01*
X130753803Y-115704684D01*
X130777007Y-115710496D01*
X130799529Y-115718554D01*
X130821153Y-115728782D01*
X130841670Y-115741079D01*
X130860883Y-115755329D01*
X130878607Y-115771393D01*
X130894671Y-115789117D01*
X130908921Y-115808330D01*
X130921218Y-115828847D01*
X130931446Y-115850471D01*
X130939504Y-115872993D01*
X130945316Y-115896197D01*
X130948826Y-115919858D01*
X130950000Y-115943750D01*
X130950000Y-116856250D01*
X130948826Y-116880142D01*
X130945316Y-116903803D01*
X130939504Y-116927007D01*
X130931446Y-116949529D01*
X130921218Y-116971153D01*
X130908921Y-116991670D01*
X130894671Y-117010883D01*
X130878607Y-117028607D01*
X130860883Y-117044671D01*
X130841670Y-117058921D01*
X130821153Y-117071218D01*
X130799529Y-117081446D01*
X130777007Y-117089504D01*
X130753803Y-117095316D01*
X130730142Y-117098826D01*
X130706250Y-117100000D01*
X130218750Y-117100000D01*
X130194858Y-117098826D01*
X130171197Y-117095316D01*
X130147993Y-117089504D01*
X130125471Y-117081446D01*
X130103847Y-117071218D01*
X130083330Y-117058921D01*
X130064117Y-117044671D01*
X130046393Y-117028607D01*
X130030329Y-117010883D01*
X130016079Y-116991670D01*
X130003782Y-116971153D01*
X129993554Y-116949529D01*
X129985496Y-116927007D01*
X129979684Y-116903803D01*
X129976174Y-116880142D01*
X129975000Y-116856250D01*
X129975000Y-115943750D01*
X129976174Y-115919858D01*
X129979684Y-115896197D01*
X129985496Y-115872993D01*
X129993554Y-115850471D01*
X130003782Y-115828847D01*
X130016079Y-115808330D01*
X130030329Y-115789117D01*
X130046393Y-115771393D01*
X130064117Y-115755329D01*
X130083330Y-115741079D01*
X130103847Y-115728782D01*
X130125471Y-115718554D01*
X130147993Y-115710496D01*
X130171197Y-115704684D01*
X130194858Y-115701174D01*
X130218750Y-115700000D01*
X130706250Y-115700000D01*
X130730142Y-115701174D01*
X130730142Y-115701174D01*
G37*
D13*
X130462500Y-116400000D03*
D12*
G36*
X132605142Y-115701174D02*
G01*
X132628803Y-115704684D01*
X132652007Y-115710496D01*
X132674529Y-115718554D01*
X132696153Y-115728782D01*
X132716670Y-115741079D01*
X132735883Y-115755329D01*
X132753607Y-115771393D01*
X132769671Y-115789117D01*
X132783921Y-115808330D01*
X132796218Y-115828847D01*
X132806446Y-115850471D01*
X132814504Y-115872993D01*
X132820316Y-115896197D01*
X132823826Y-115919858D01*
X132825000Y-115943750D01*
X132825000Y-116856250D01*
X132823826Y-116880142D01*
X132820316Y-116903803D01*
X132814504Y-116927007D01*
X132806446Y-116949529D01*
X132796218Y-116971153D01*
X132783921Y-116991670D01*
X132769671Y-117010883D01*
X132753607Y-117028607D01*
X132735883Y-117044671D01*
X132716670Y-117058921D01*
X132696153Y-117071218D01*
X132674529Y-117081446D01*
X132652007Y-117089504D01*
X132628803Y-117095316D01*
X132605142Y-117098826D01*
X132581250Y-117100000D01*
X132093750Y-117100000D01*
X132069858Y-117098826D01*
X132046197Y-117095316D01*
X132022993Y-117089504D01*
X132000471Y-117081446D01*
X131978847Y-117071218D01*
X131958330Y-117058921D01*
X131939117Y-117044671D01*
X131921393Y-117028607D01*
X131905329Y-117010883D01*
X131891079Y-116991670D01*
X131878782Y-116971153D01*
X131868554Y-116949529D01*
X131860496Y-116927007D01*
X131854684Y-116903803D01*
X131851174Y-116880142D01*
X131850000Y-116856250D01*
X131850000Y-115943750D01*
X131851174Y-115919858D01*
X131854684Y-115896197D01*
X131860496Y-115872993D01*
X131868554Y-115850471D01*
X131878782Y-115828847D01*
X131891079Y-115808330D01*
X131905329Y-115789117D01*
X131921393Y-115771393D01*
X131939117Y-115755329D01*
X131958330Y-115741079D01*
X131978847Y-115728782D01*
X132000471Y-115718554D01*
X132022993Y-115710496D01*
X132046197Y-115704684D01*
X132069858Y-115701174D01*
X132093750Y-115700000D01*
X132581250Y-115700000D01*
X132605142Y-115701174D01*
X132605142Y-115701174D01*
G37*
D13*
X132337500Y-116400000D03*
D14*
X133000000Y-111400000D03*
X135100000Y-118300000D03*
X134000000Y-116600000D03*
X131400000Y-111800000D03*
D15*
X135337500Y-111400000D02*
X137537500Y-113600000D01*
X133000000Y-111400000D02*
X135337500Y-111400000D01*
X135135001Y-118335001D02*
X135100000Y-118300000D01*
X133960000Y-123540000D02*
X135135001Y-122364999D01*
X135135001Y-122364999D02*
X135135001Y-118335001D01*
D16*
X133800000Y-116400000D02*
X134000000Y-116600000D01*
X132337500Y-116400000D02*
X133800000Y-116400000D01*
X134200000Y-116400000D02*
X134000000Y-116600000D01*
X135662500Y-116400000D02*
X134200000Y-116400000D01*
X136500000Y-117237500D02*
X135662500Y-116400000D01*
X136500000Y-121000000D02*
X136500000Y-117237500D01*
X132337500Y-113600000D02*
X132337500Y-116400000D01*
X135662500Y-113600000D02*
X135662500Y-116400000D01*
D15*
X130800000Y-111800000D02*
X131400000Y-111800000D01*
X130462500Y-113600000D02*
X130462500Y-112137500D01*
X130462500Y-112137500D02*
X130800000Y-111800000D01*
D17*
G36*
X136336500Y-113024790D02*
G01*
X136336500Y-117173698D01*
X135973698Y-117536500D01*
X132026302Y-117536500D01*
X131663500Y-117173698D01*
X131663500Y-112826302D01*
X132026302Y-112463500D01*
X135775211Y-112463500D01*
X136336500Y-113024790D01*
X136336500Y-113024790D01*
G37*
X136336500Y-113024790D02*
X136336500Y-117173698D01*
X135973698Y-117536500D01*
X132026302Y-117536500D01*
X131663500Y-117173698D01*
X131663500Y-112826302D01*
X132026302Y-112463500D01*
X135775211Y-112463500D01*
X136336500Y-113024790D01*
G36*
X139057500Y-111141868D02*
G01*
X139057501Y-125458131D01*
X138458133Y-126057500D01*
X129341868Y-126057500D01*
X128742500Y-125458133D01*
X128742500Y-123540000D01*
X130246851Y-123540000D01*
X130269393Y-123768870D01*
X130336152Y-123988945D01*
X130444562Y-124191767D01*
X130590458Y-124369542D01*
X130768233Y-124515438D01*
X130971055Y-124623848D01*
X131191130Y-124690607D01*
X131362645Y-124707500D01*
X131477355Y-124707500D01*
X131648870Y-124690607D01*
X131868945Y-124623848D01*
X132071767Y-124515438D01*
X132249542Y-124369542D01*
X132395438Y-124191767D01*
X132503848Y-123988945D01*
X132570607Y-123768870D01*
X132593149Y-123540000D01*
X132570607Y-123311130D01*
X132503848Y-123091055D01*
X132395438Y-122888233D01*
X132249542Y-122710458D01*
X132071767Y-122564562D01*
X131868945Y-122456152D01*
X131648870Y-122389393D01*
X131477355Y-122372500D01*
X131362645Y-122372500D01*
X131191130Y-122389393D01*
X130971055Y-122456152D01*
X130768233Y-122564562D01*
X130590458Y-122710458D01*
X130444562Y-122888233D01*
X130336152Y-123091055D01*
X130269393Y-123311130D01*
X130246851Y-123540000D01*
X128742500Y-123540000D01*
X128742500Y-113143750D01*
X129655964Y-113143750D01*
X129655964Y-114056250D01*
X129666778Y-114166044D01*
X129698804Y-114271619D01*
X129750811Y-114368917D01*
X129820800Y-114454200D01*
X129906083Y-114524189D01*
X130003381Y-114576196D01*
X130108956Y-114608222D01*
X130218750Y-114619036D01*
X130706250Y-114619036D01*
X130736500Y-114616057D01*
X130736500Y-117600000D01*
X130737720Y-117612388D01*
X130741334Y-117624300D01*
X130747202Y-117635279D01*
X130755099Y-117644901D01*
X131555099Y-118444901D01*
X131564721Y-118452798D01*
X131575700Y-118458666D01*
X131587612Y-118462280D01*
X131600000Y-118463500D01*
X134400965Y-118463500D01*
X134410073Y-118509287D01*
X134464159Y-118639864D01*
X134542681Y-118757380D01*
X134642620Y-118857319D01*
X134692502Y-118890649D01*
X134692502Y-120090819D01*
X134611767Y-120024562D01*
X134408945Y-119916152D01*
X134188870Y-119849393D01*
X134017355Y-119832500D01*
X133902645Y-119832500D01*
X133731130Y-119849393D01*
X133511055Y-119916152D01*
X133308233Y-120024562D01*
X133130458Y-120170458D01*
X132984562Y-120348233D01*
X132876152Y-120551055D01*
X132809393Y-120771130D01*
X132786851Y-121000000D01*
X132809393Y-121228870D01*
X132876152Y-121448945D01*
X132984562Y-121651767D01*
X133130458Y-121829542D01*
X133308233Y-121975438D01*
X133511055Y-122083848D01*
X133731130Y-122150607D01*
X133902645Y-122167500D01*
X134017355Y-122167500D01*
X134188870Y-122150607D01*
X134408945Y-122083848D01*
X134611767Y-121975438D01*
X134692501Y-121909181D01*
X134692501Y-122181710D01*
X134414884Y-122459327D01*
X134408945Y-122456152D01*
X134188870Y-122389393D01*
X134017355Y-122372500D01*
X133902645Y-122372500D01*
X133731130Y-122389393D01*
X133511055Y-122456152D01*
X133308233Y-122564562D01*
X133130458Y-122710458D01*
X132984562Y-122888233D01*
X132876152Y-123091055D01*
X132809393Y-123311130D01*
X132786851Y-123540000D01*
X132809393Y-123768870D01*
X132876152Y-123988945D01*
X132984562Y-124191767D01*
X133130458Y-124369542D01*
X133308233Y-124515438D01*
X133511055Y-124623848D01*
X133731130Y-124690607D01*
X133902645Y-124707500D01*
X134017355Y-124707500D01*
X134188870Y-124690607D01*
X134408945Y-124623848D01*
X134611767Y-124515438D01*
X134789542Y-124369542D01*
X134935438Y-124191767D01*
X135043848Y-123988945D01*
X135110607Y-123768870D01*
X135133149Y-123540000D01*
X135110607Y-123311130D01*
X135043848Y-123091055D01*
X135040673Y-123085116D01*
X135432522Y-122693267D01*
X135449410Y-122679408D01*
X135504706Y-122612028D01*
X135545796Y-122535156D01*
X135571098Y-122451744D01*
X135577501Y-122386736D01*
X135577501Y-122386734D01*
X135579642Y-122365000D01*
X135577501Y-122343266D01*
X135577501Y-122159794D01*
X135587759Y-122162906D01*
X135650000Y-122169036D01*
X137350000Y-122169036D01*
X137412241Y-122162906D01*
X137472090Y-122144751D01*
X137527247Y-122115269D01*
X137575593Y-122075593D01*
X137615269Y-122027247D01*
X137644751Y-121972090D01*
X137662906Y-121912241D01*
X137669036Y-121850000D01*
X137669036Y-120150000D01*
X137662906Y-120087759D01*
X137644751Y-120027910D01*
X137615269Y-119972753D01*
X137575593Y-119924407D01*
X137527247Y-119884731D01*
X137472090Y-119855249D01*
X137412241Y-119837094D01*
X137350000Y-119830964D01*
X137067500Y-119830964D01*
X137067500Y-117822302D01*
X137244901Y-117644901D01*
X137252798Y-117635279D01*
X137258666Y-117624300D01*
X137262280Y-117612388D01*
X137263500Y-117600000D01*
X137263500Y-114616057D01*
X137293750Y-114619036D01*
X137781250Y-114619036D01*
X137891044Y-114608222D01*
X137996619Y-114576196D01*
X138093917Y-114524189D01*
X138179200Y-114454200D01*
X138249189Y-114368917D01*
X138301196Y-114271619D01*
X138333222Y-114166044D01*
X138344036Y-114056250D01*
X138344036Y-113143750D01*
X138333222Y-113033956D01*
X138301196Y-112928381D01*
X138249189Y-112831083D01*
X138179200Y-112745800D01*
X138093917Y-112675811D01*
X137996619Y-112623804D01*
X137891044Y-112591778D01*
X137781250Y-112580964D01*
X137293750Y-112580964D01*
X137263500Y-112583943D01*
X137263500Y-112400000D01*
X137262280Y-112387612D01*
X137258666Y-112375700D01*
X137252798Y-112364721D01*
X137244901Y-112355099D01*
X136444901Y-111555099D01*
X136435279Y-111547202D01*
X136424300Y-111541334D01*
X136412388Y-111537720D01*
X136400000Y-111536500D01*
X136099789Y-111536500D01*
X135665770Y-111102481D01*
X135651909Y-111085591D01*
X135584529Y-111030295D01*
X135507657Y-110989205D01*
X135424245Y-110963903D01*
X135359237Y-110957500D01*
X135359234Y-110957500D01*
X135337500Y-110955359D01*
X135315766Y-110957500D01*
X133567262Y-110957500D01*
X133557319Y-110942620D01*
X133457380Y-110842681D01*
X133339864Y-110764159D01*
X133209287Y-110710073D01*
X133070668Y-110682500D01*
X132929332Y-110682500D01*
X132790713Y-110710073D01*
X132660136Y-110764159D01*
X132542620Y-110842681D01*
X132442681Y-110942620D01*
X132364159Y-111060136D01*
X132310073Y-111190713D01*
X132282500Y-111329332D01*
X132282500Y-111470668D01*
X132295595Y-111536500D01*
X132067472Y-111536500D01*
X132035841Y-111460136D01*
X131957319Y-111342620D01*
X131857380Y-111242681D01*
X131739864Y-111164159D01*
X131609287Y-111110073D01*
X131470668Y-111082500D01*
X131329332Y-111082500D01*
X131190713Y-111110073D01*
X131060136Y-111164159D01*
X130942620Y-111242681D01*
X130842681Y-111342620D01*
X130832738Y-111357500D01*
X130821733Y-111357500D01*
X130799999Y-111355359D01*
X130778265Y-111357500D01*
X130778263Y-111357500D01*
X130713255Y-111363903D01*
X130629843Y-111389205D01*
X130552970Y-111430295D01*
X130503775Y-111470668D01*
X130485591Y-111485591D01*
X130471735Y-111502475D01*
X130164976Y-111809235D01*
X130148092Y-111823091D01*
X130134236Y-111839975D01*
X130134235Y-111839976D01*
X130092795Y-111890471D01*
X130051705Y-111967344D01*
X130026404Y-112050755D01*
X130017859Y-112137500D01*
X130020001Y-112159244D01*
X130020001Y-112618762D01*
X130003381Y-112623804D01*
X129906083Y-112675811D01*
X129820800Y-112745800D01*
X129750811Y-112831083D01*
X129698804Y-112928381D01*
X129666778Y-113033956D01*
X129655964Y-113143750D01*
X128742500Y-113143750D01*
X128742500Y-111141867D01*
X129341868Y-110542500D01*
X138458133Y-110542500D01*
X139057500Y-111141868D01*
X139057500Y-111141868D01*
G37*
X139057500Y-111141868D02*
X139057501Y-125458131D01*
X138458133Y-126057500D01*
X129341868Y-126057500D01*
X128742500Y-125458133D01*
X128742500Y-123540000D01*
X130246851Y-123540000D01*
X130269393Y-123768870D01*
X130336152Y-123988945D01*
X130444562Y-124191767D01*
X130590458Y-124369542D01*
X130768233Y-124515438D01*
X130971055Y-124623848D01*
X131191130Y-124690607D01*
X131362645Y-124707500D01*
X131477355Y-124707500D01*
X131648870Y-124690607D01*
X131868945Y-124623848D01*
X132071767Y-124515438D01*
X132249542Y-124369542D01*
X132395438Y-124191767D01*
X132503848Y-123988945D01*
X132570607Y-123768870D01*
X132593149Y-123540000D01*
X132570607Y-123311130D01*
X132503848Y-123091055D01*
X132395438Y-122888233D01*
X132249542Y-122710458D01*
X132071767Y-122564562D01*
X131868945Y-122456152D01*
X131648870Y-122389393D01*
X131477355Y-122372500D01*
X131362645Y-122372500D01*
X131191130Y-122389393D01*
X130971055Y-122456152D01*
X130768233Y-122564562D01*
X130590458Y-122710458D01*
X130444562Y-122888233D01*
X130336152Y-123091055D01*
X130269393Y-123311130D01*
X130246851Y-123540000D01*
X128742500Y-123540000D01*
X128742500Y-113143750D01*
X129655964Y-113143750D01*
X129655964Y-114056250D01*
X129666778Y-114166044D01*
X129698804Y-114271619D01*
X129750811Y-114368917D01*
X129820800Y-114454200D01*
X129906083Y-114524189D01*
X130003381Y-114576196D01*
X130108956Y-114608222D01*
X130218750Y-114619036D01*
X130706250Y-114619036D01*
X130736500Y-114616057D01*
X130736500Y-117600000D01*
X130737720Y-117612388D01*
X130741334Y-117624300D01*
X130747202Y-117635279D01*
X130755099Y-117644901D01*
X131555099Y-118444901D01*
X131564721Y-118452798D01*
X131575700Y-118458666D01*
X131587612Y-118462280D01*
X131600000Y-118463500D01*
X134400965Y-118463500D01*
X134410073Y-118509287D01*
X134464159Y-118639864D01*
X134542681Y-118757380D01*
X134642620Y-118857319D01*
X134692502Y-118890649D01*
X134692502Y-120090819D01*
X134611767Y-120024562D01*
X134408945Y-119916152D01*
X134188870Y-119849393D01*
X134017355Y-119832500D01*
X133902645Y-119832500D01*
X133731130Y-119849393D01*
X133511055Y-119916152D01*
X133308233Y-120024562D01*
X133130458Y-120170458D01*
X132984562Y-120348233D01*
X132876152Y-120551055D01*
X132809393Y-120771130D01*
X132786851Y-121000000D01*
X132809393Y-121228870D01*
X132876152Y-121448945D01*
X132984562Y-121651767D01*
X133130458Y-121829542D01*
X133308233Y-121975438D01*
X133511055Y-122083848D01*
X133731130Y-122150607D01*
X133902645Y-122167500D01*
X134017355Y-122167500D01*
X134188870Y-122150607D01*
X134408945Y-122083848D01*
X134611767Y-121975438D01*
X134692501Y-121909181D01*
X134692501Y-122181710D01*
X134414884Y-122459327D01*
X134408945Y-122456152D01*
X134188870Y-122389393D01*
X134017355Y-122372500D01*
X133902645Y-122372500D01*
X133731130Y-122389393D01*
X133511055Y-122456152D01*
X133308233Y-122564562D01*
X133130458Y-122710458D01*
X132984562Y-122888233D01*
X132876152Y-123091055D01*
X132809393Y-123311130D01*
X132786851Y-123540000D01*
X132809393Y-123768870D01*
X132876152Y-123988945D01*
X132984562Y-124191767D01*
X133130458Y-124369542D01*
X133308233Y-124515438D01*
X133511055Y-124623848D01*
X133731130Y-124690607D01*
X133902645Y-124707500D01*
X134017355Y-124707500D01*
X134188870Y-124690607D01*
X134408945Y-124623848D01*
X134611767Y-124515438D01*
X134789542Y-124369542D01*
X134935438Y-124191767D01*
X135043848Y-123988945D01*
X135110607Y-123768870D01*
X135133149Y-123540000D01*
X135110607Y-123311130D01*
X135043848Y-123091055D01*
X135040673Y-123085116D01*
X135432522Y-122693267D01*
X135449410Y-122679408D01*
X135504706Y-122612028D01*
X135545796Y-122535156D01*
X135571098Y-122451744D01*
X135577501Y-122386736D01*
X135577501Y-122386734D01*
X135579642Y-122365000D01*
X135577501Y-122343266D01*
X135577501Y-122159794D01*
X135587759Y-122162906D01*
X135650000Y-122169036D01*
X137350000Y-122169036D01*
X137412241Y-122162906D01*
X137472090Y-122144751D01*
X137527247Y-122115269D01*
X137575593Y-122075593D01*
X137615269Y-122027247D01*
X137644751Y-121972090D01*
X137662906Y-121912241D01*
X137669036Y-121850000D01*
X137669036Y-120150000D01*
X137662906Y-120087759D01*
X137644751Y-120027910D01*
X137615269Y-119972753D01*
X137575593Y-119924407D01*
X137527247Y-119884731D01*
X137472090Y-119855249D01*
X137412241Y-119837094D01*
X137350000Y-119830964D01*
X137067500Y-119830964D01*
X137067500Y-117822302D01*
X137244901Y-117644901D01*
X137252798Y-117635279D01*
X137258666Y-117624300D01*
X137262280Y-117612388D01*
X137263500Y-117600000D01*
X137263500Y-114616057D01*
X137293750Y-114619036D01*
X137781250Y-114619036D01*
X137891044Y-114608222D01*
X137996619Y-114576196D01*
X138093917Y-114524189D01*
X138179200Y-114454200D01*
X138249189Y-114368917D01*
X138301196Y-114271619D01*
X138333222Y-114166044D01*
X138344036Y-114056250D01*
X138344036Y-113143750D01*
X138333222Y-113033956D01*
X138301196Y-112928381D01*
X138249189Y-112831083D01*
X138179200Y-112745800D01*
X138093917Y-112675811D01*
X137996619Y-112623804D01*
X137891044Y-112591778D01*
X137781250Y-112580964D01*
X137293750Y-112580964D01*
X137263500Y-112583943D01*
X137263500Y-112400000D01*
X137262280Y-112387612D01*
X137258666Y-112375700D01*
X137252798Y-112364721D01*
X137244901Y-112355099D01*
X136444901Y-111555099D01*
X136435279Y-111547202D01*
X136424300Y-111541334D01*
X136412388Y-111537720D01*
X136400000Y-111536500D01*
X136099789Y-111536500D01*
X135665770Y-111102481D01*
X135651909Y-111085591D01*
X135584529Y-111030295D01*
X135507657Y-110989205D01*
X135424245Y-110963903D01*
X135359237Y-110957500D01*
X135359234Y-110957500D01*
X135337500Y-110955359D01*
X135315766Y-110957500D01*
X133567262Y-110957500D01*
X133557319Y-110942620D01*
X133457380Y-110842681D01*
X133339864Y-110764159D01*
X133209287Y-110710073D01*
X133070668Y-110682500D01*
X132929332Y-110682500D01*
X132790713Y-110710073D01*
X132660136Y-110764159D01*
X132542620Y-110842681D01*
X132442681Y-110942620D01*
X132364159Y-111060136D01*
X132310073Y-111190713D01*
X132282500Y-111329332D01*
X132282500Y-111470668D01*
X132295595Y-111536500D01*
X132067472Y-111536500D01*
X132035841Y-111460136D01*
X131957319Y-111342620D01*
X131857380Y-111242681D01*
X131739864Y-111164159D01*
X131609287Y-111110073D01*
X131470668Y-111082500D01*
X131329332Y-111082500D01*
X131190713Y-111110073D01*
X131060136Y-111164159D01*
X130942620Y-111242681D01*
X130842681Y-111342620D01*
X130832738Y-111357500D01*
X130821733Y-111357500D01*
X130799999Y-111355359D01*
X130778265Y-111357500D01*
X130778263Y-111357500D01*
X130713255Y-111363903D01*
X130629843Y-111389205D01*
X130552970Y-111430295D01*
X130503775Y-111470668D01*
X130485591Y-111485591D01*
X130471735Y-111502475D01*
X130164976Y-111809235D01*
X130148092Y-111823091D01*
X130134236Y-111839975D01*
X130134235Y-111839976D01*
X130092795Y-111890471D01*
X130051705Y-111967344D01*
X130026404Y-112050755D01*
X130017859Y-112137500D01*
X130020001Y-112159244D01*
X130020001Y-112618762D01*
X130003381Y-112623804D01*
X129906083Y-112675811D01*
X129820800Y-112745800D01*
X129750811Y-112831083D01*
X129698804Y-112928381D01*
X129666778Y-113033956D01*
X129655964Y-113143750D01*
X128742500Y-113143750D01*
X128742500Y-111141867D01*
X129341868Y-110542500D01*
X138458133Y-110542500D01*
X139057500Y-111141868D01*
M02*
