G04 #@! TF.GenerationSoftware,KiCad,Pcbnew,(5.1.2)-2*
G04 #@! TF.CreationDate,2019-12-09T19:40:43+00:00*
G04 #@! TF.ProjectId,main_pcb,6d61696e-5f70-4636-922e-6b696361645f,rev?*
G04 #@! TF.SameCoordinates,Original*
G04 #@! TF.FileFunction,Legend,Top*
G04 #@! TF.FilePolarity,Positive*
%FSLAX46Y46*%
G04 Gerber Fmt 4.6, Leading zero omitted, Abs format (unit mm)*
G04 Created by KiCad (PCBNEW (5.1.2)-2) date 2019-12-09 19:40:43*
%MOMM*%
%LPD*%
G04 APERTURE LIST*
%ADD10C,0.150000*%
%ADD11C,0.120000*%
G04 APERTURE END LIST*
D10*
X137666666Y-93819047D02*
X137666666Y-93342857D01*
X137952380Y-93914285D02*
X136952380Y-93580952D01*
X137952380Y-93247619D01*
X137904761Y-92961904D02*
X137952380Y-92819047D01*
X137952380Y-92580952D01*
X137904761Y-92485714D01*
X137857142Y-92438095D01*
X137761904Y-92390476D01*
X137666666Y-92390476D01*
X137571428Y-92438095D01*
X137523809Y-92485714D01*
X137476190Y-92580952D01*
X137428571Y-92771428D01*
X137380952Y-92866666D01*
X137333333Y-92914285D01*
X137238095Y-92961904D01*
X137142857Y-92961904D01*
X137047619Y-92914285D01*
X137000000Y-92866666D01*
X136952380Y-92771428D01*
X136952380Y-92533333D01*
X137000000Y-92390476D01*
X136952380Y-91485714D02*
X136952380Y-91961904D01*
X137428571Y-92009523D01*
X137380952Y-91961904D01*
X137333333Y-91866666D01*
X137333333Y-91628571D01*
X137380952Y-91533333D01*
X137428571Y-91485714D01*
X137523809Y-91438095D01*
X137761904Y-91438095D01*
X137857142Y-91485714D01*
X137904761Y-91533333D01*
X137952380Y-91628571D01*
X137952380Y-91866666D01*
X137904761Y-91961904D01*
X137857142Y-92009523D01*
X136952380Y-90819047D02*
X136952380Y-90723809D01*
X137000000Y-90628571D01*
X137047619Y-90580952D01*
X137142857Y-90533333D01*
X137333333Y-90485714D01*
X137571428Y-90485714D01*
X137761904Y-90533333D01*
X137857142Y-90580952D01*
X137904761Y-90628571D01*
X137952380Y-90723809D01*
X137952380Y-90819047D01*
X137904761Y-90914285D01*
X137857142Y-90961904D01*
X137761904Y-91009523D01*
X137571428Y-91057142D01*
X137333333Y-91057142D01*
X137142857Y-91009523D01*
X137047619Y-90961904D01*
X137000000Y-90914285D01*
X136952380Y-90819047D01*
X137285714Y-89628571D02*
X137952380Y-89628571D01*
X136904761Y-89866666D02*
X137619047Y-90104761D01*
X137619047Y-89485714D01*
X136952380Y-89200000D02*
X136952380Y-88533333D01*
X137952380Y-88961904D01*
X137952380Y-88152380D02*
X136952380Y-88152380D01*
X136952380Y-87771428D01*
X137000000Y-87676190D01*
X137047619Y-87628571D01*
X137142857Y-87580952D01*
X137285714Y-87580952D01*
X137380952Y-87628571D01*
X137428571Y-87676190D01*
X137476190Y-87771428D01*
X137476190Y-88152380D01*
X128733333Y-87580952D02*
X128733333Y-88057142D01*
X128447619Y-87485714D02*
X129447619Y-87819047D01*
X128447619Y-88152380D01*
X128495238Y-88438095D02*
X128447619Y-88580952D01*
X128447619Y-88819047D01*
X128495238Y-88914285D01*
X128542857Y-88961904D01*
X128638095Y-89009523D01*
X128733333Y-89009523D01*
X128828571Y-88961904D01*
X128876190Y-88914285D01*
X128923809Y-88819047D01*
X128971428Y-88628571D01*
X129019047Y-88533333D01*
X129066666Y-88485714D01*
X129161904Y-88438095D01*
X129257142Y-88438095D01*
X129352380Y-88485714D01*
X129400000Y-88533333D01*
X129447619Y-88628571D01*
X129447619Y-88866666D01*
X129400000Y-89009523D01*
X129447619Y-89914285D02*
X129447619Y-89438095D01*
X128971428Y-89390476D01*
X129019047Y-89438095D01*
X129066666Y-89533333D01*
X129066666Y-89771428D01*
X129019047Y-89866666D01*
X128971428Y-89914285D01*
X128876190Y-89961904D01*
X128638095Y-89961904D01*
X128542857Y-89914285D01*
X128495238Y-89866666D01*
X128447619Y-89771428D01*
X128447619Y-89533333D01*
X128495238Y-89438095D01*
X128542857Y-89390476D01*
X129447619Y-90580952D02*
X129447619Y-90676190D01*
X129400000Y-90771428D01*
X129352380Y-90819047D01*
X129257142Y-90866666D01*
X129066666Y-90914285D01*
X128828571Y-90914285D01*
X128638095Y-90866666D01*
X128542857Y-90819047D01*
X128495238Y-90771428D01*
X128447619Y-90676190D01*
X128447619Y-90580952D01*
X128495238Y-90485714D01*
X128542857Y-90438095D01*
X128638095Y-90390476D01*
X128828571Y-90342857D01*
X129066666Y-90342857D01*
X129257142Y-90390476D01*
X129352380Y-90438095D01*
X129400000Y-90485714D01*
X129447619Y-90580952D01*
X129114285Y-91771428D02*
X128447619Y-91771428D01*
X129495238Y-91533333D02*
X128780952Y-91295238D01*
X128780952Y-91914285D01*
X129447619Y-92200000D02*
X129447619Y-92866666D01*
X128447619Y-92438095D01*
X128447619Y-93247619D02*
X129447619Y-93247619D01*
X129447619Y-93628571D01*
X129400000Y-93723809D01*
X129352380Y-93771428D01*
X129257142Y-93819047D01*
X129114285Y-93819047D01*
X129019047Y-93771428D01*
X128971428Y-93723809D01*
X128923809Y-93628571D01*
X128923809Y-93247619D01*
X119409523Y-119852380D02*
X120028571Y-119852380D01*
X119695238Y-120233333D01*
X119838095Y-120233333D01*
X119933333Y-120280952D01*
X119980952Y-120328571D01*
X120028571Y-120423809D01*
X120028571Y-120661904D01*
X119980952Y-120757142D01*
X119933333Y-120804761D01*
X119838095Y-120852380D01*
X119552380Y-120852380D01*
X119457142Y-120804761D01*
X119409523Y-120757142D01*
X120361904Y-120185714D02*
X120600000Y-120852380D01*
X120838095Y-120185714D01*
X121647619Y-119852380D02*
X121457142Y-119852380D01*
X121361904Y-119900000D01*
X121314285Y-119947619D01*
X121219047Y-120090476D01*
X121171428Y-120280952D01*
X121171428Y-120661904D01*
X121219047Y-120757142D01*
X121266666Y-120804761D01*
X121361904Y-120852380D01*
X121552380Y-120852380D01*
X121647619Y-120804761D01*
X121695238Y-120757142D01*
X121742857Y-120661904D01*
X121742857Y-120423809D01*
X121695238Y-120328571D01*
X121647619Y-120280952D01*
X121552380Y-120233333D01*
X121361904Y-120233333D01*
X121266666Y-120280952D01*
X121219047Y-120328571D01*
X121171428Y-120423809D01*
X147752380Y-115185714D02*
X146752380Y-115185714D01*
X146752380Y-114804761D01*
X146800000Y-114709523D01*
X146847619Y-114661904D01*
X146942857Y-114614285D01*
X147085714Y-114614285D01*
X147180952Y-114661904D01*
X147228571Y-114709523D01*
X147276190Y-114804761D01*
X147276190Y-115185714D01*
X147752380Y-113614285D02*
X147276190Y-113947619D01*
X147752380Y-114185714D02*
X146752380Y-114185714D01*
X146752380Y-113804761D01*
X146800000Y-113709523D01*
X146847619Y-113661904D01*
X146942857Y-113614285D01*
X147085714Y-113614285D01*
X147180952Y-113661904D01*
X147228571Y-113709523D01*
X147276190Y-113804761D01*
X147276190Y-114185714D01*
X146752380Y-112995238D02*
X146752380Y-112804761D01*
X146800000Y-112709523D01*
X146895238Y-112614285D01*
X147085714Y-112566666D01*
X147419047Y-112566666D01*
X147609523Y-112614285D01*
X147704761Y-112709523D01*
X147752380Y-112804761D01*
X147752380Y-112995238D01*
X147704761Y-113090476D01*
X147609523Y-113185714D01*
X147419047Y-113233333D01*
X147085714Y-113233333D01*
X146895238Y-113185714D01*
X146800000Y-113090476D01*
X146752380Y-112995238D01*
X146800000Y-111614285D02*
X146752380Y-111709523D01*
X146752380Y-111852380D01*
X146800000Y-111995238D01*
X146895238Y-112090476D01*
X146990476Y-112138095D01*
X147180952Y-112185714D01*
X147323809Y-112185714D01*
X147514285Y-112138095D01*
X147609523Y-112090476D01*
X147704761Y-111995238D01*
X147752380Y-111852380D01*
X147752380Y-111757142D01*
X147704761Y-111614285D01*
X147657142Y-111566666D01*
X147323809Y-111566666D01*
X147323809Y-111757142D01*
X122047619Y-95285714D02*
X123047619Y-95285714D01*
X122333333Y-95619047D01*
X123047619Y-95952380D01*
X122047619Y-95952380D01*
X123047619Y-96285714D02*
X123047619Y-96857142D01*
X122047619Y-96571428D02*
X123047619Y-96571428D01*
X122047619Y-97761904D02*
X122523809Y-97428571D01*
X122047619Y-97190476D02*
X123047619Y-97190476D01*
X123047619Y-97571428D01*
X123000000Y-97666666D01*
X122952380Y-97714285D01*
X122857142Y-97761904D01*
X122714285Y-97761904D01*
X122619047Y-97714285D01*
X122571428Y-97666666D01*
X122523809Y-97571428D01*
X122523809Y-97190476D01*
X144452380Y-86414285D02*
X143452380Y-86414285D01*
X144166666Y-86080952D01*
X143452380Y-85747619D01*
X144452380Y-85747619D01*
X143452380Y-85414285D02*
X143452380Y-84842857D01*
X144452380Y-85128571D02*
X143452380Y-85128571D01*
X144452380Y-83938095D02*
X143976190Y-84271428D01*
X144452380Y-84509523D02*
X143452380Y-84509523D01*
X143452380Y-84128571D01*
X143500000Y-84033333D01*
X143547619Y-83985714D01*
X143642857Y-83938095D01*
X143785714Y-83938095D01*
X143880952Y-83985714D01*
X143928571Y-84033333D01*
X143976190Y-84128571D01*
X143976190Y-84509523D01*
D11*
X138365148Y-76364852D02*
X139000148Y-75265000D01*
X139465000Y-76999852D02*
X138365148Y-76364852D01*
X145349963Y-77726797D02*
X145577034Y-77333498D01*
X144691784Y-77346797D02*
X144918855Y-76953498D01*
X146619963Y-75527092D02*
X146818499Y-75183219D01*
X145961784Y-75147092D02*
X146160319Y-74803219D01*
X151148499Y-67683439D02*
X148148499Y-72879591D01*
X150490319Y-67303439D02*
X151148499Y-67683439D01*
X147490319Y-72499591D02*
X150490319Y-67303439D01*
X145389557Y-74358219D02*
X146719557Y-72054591D01*
X143150259Y-76456797D02*
X143377330Y-76063498D01*
X142492079Y-76076797D02*
X142719150Y-75683498D01*
X144420259Y-74257092D02*
X144618794Y-73913219D01*
X143762079Y-73877092D02*
X143960615Y-73533219D01*
X148948794Y-66413439D02*
X145948794Y-71609591D01*
X148290615Y-66033439D02*
X148948794Y-66413439D01*
X145290615Y-71229591D02*
X148290615Y-66033439D01*
X143189852Y-73088219D02*
X144519852Y-70784591D01*
X140984090Y-75128712D02*
X141177625Y-74793498D01*
X140325910Y-74748712D02*
X140519446Y-74413498D01*
X142220554Y-72987092D02*
X142419090Y-72643219D01*
X141562375Y-72607092D02*
X141760910Y-72263219D01*
X143662487Y-70289591D02*
X146662487Y-65093439D01*
X143558564Y-70229591D02*
X146558564Y-65033439D01*
X143454641Y-70169591D02*
X146454641Y-64973439D01*
X143350718Y-70109591D02*
X146350718Y-64913439D01*
X143246795Y-70049591D02*
X146246795Y-64853439D01*
X143142872Y-69989591D02*
X146142872Y-64793439D01*
X146749090Y-65143439D02*
X143749090Y-70339591D01*
X146090910Y-64763439D02*
X146749090Y-65143439D01*
X143090910Y-69959591D02*
X146090910Y-64763439D01*
X142268186Y-69484591D02*
X140938186Y-71788219D01*
X148971223Y-73354591D02*
X142268186Y-69484591D01*
X147641223Y-75658219D02*
X148971223Y-73354591D01*
X140938186Y-71788219D02*
X147641223Y-75658219D01*
X129430000Y-76570000D02*
X129430000Y-75300000D01*
X130700000Y-76570000D02*
X129430000Y-76570000D01*
X136160000Y-74257071D02*
X136160000Y-73802929D01*
X135400000Y-74257071D02*
X135400000Y-73802929D01*
X136160000Y-71717071D02*
X136160000Y-71320000D01*
X135400000Y-71717071D02*
X135400000Y-71320000D01*
X136160000Y-62660000D02*
X136160000Y-68660000D01*
X135400000Y-62660000D02*
X136160000Y-62660000D01*
X135400000Y-68660000D02*
X135400000Y-62660000D01*
X134510000Y-71320000D02*
X134510000Y-68660000D01*
X133620000Y-74257071D02*
X133620000Y-73802929D01*
X132860000Y-74257071D02*
X132860000Y-73802929D01*
X133620000Y-71717071D02*
X133620000Y-71320000D01*
X132860000Y-71717071D02*
X132860000Y-71320000D01*
X133620000Y-62660000D02*
X133620000Y-68660000D01*
X132860000Y-62660000D02*
X133620000Y-62660000D01*
X132860000Y-68660000D02*
X132860000Y-62660000D01*
X131970000Y-71320000D02*
X131970000Y-68660000D01*
X131080000Y-74190000D02*
X131080000Y-73802929D01*
X130320000Y-74190000D02*
X130320000Y-73802929D01*
X131080000Y-71717071D02*
X131080000Y-71320000D01*
X130320000Y-71717071D02*
X130320000Y-71320000D01*
X130980000Y-68660000D02*
X130980000Y-62660000D01*
X130860000Y-68660000D02*
X130860000Y-62660000D01*
X130740000Y-68660000D02*
X130740000Y-62660000D01*
X130620000Y-68660000D02*
X130620000Y-62660000D01*
X130500000Y-68660000D02*
X130500000Y-62660000D01*
X130380000Y-68660000D02*
X130380000Y-62660000D01*
X131080000Y-62660000D02*
X131080000Y-68660000D01*
X130320000Y-62660000D02*
X131080000Y-62660000D01*
X130320000Y-68660000D02*
X130320000Y-62660000D01*
X129370000Y-68660000D02*
X129370000Y-71320000D01*
X137110000Y-68660000D02*
X129370000Y-68660000D01*
X137110000Y-71320000D02*
X137110000Y-68660000D01*
X129370000Y-71320000D02*
X137110000Y-71320000D01*
X118858186Y-75618219D02*
X125561223Y-71748219D01*
X125561223Y-71748219D02*
X124231223Y-69444591D01*
X124231223Y-69444591D02*
X117528186Y-73314591D01*
X117528186Y-73314591D02*
X118858186Y-75618219D01*
X118350910Y-72839591D02*
X115350910Y-67643439D01*
X115350910Y-67643439D02*
X116009090Y-67263439D01*
X116009090Y-67263439D02*
X119009090Y-72459591D01*
X118402872Y-72809591D02*
X115402872Y-67613439D01*
X118506795Y-72749591D02*
X115506795Y-67553439D01*
X118610718Y-72689591D02*
X115610718Y-67493439D01*
X118714641Y-72629591D02*
X115714641Y-67433439D01*
X118818564Y-72569591D02*
X115818564Y-67373439D01*
X118922487Y-72509591D02*
X115922487Y-67313439D01*
X119879446Y-75487092D02*
X119680910Y-75143219D01*
X120537625Y-75107092D02*
X120339090Y-74763219D01*
X121115910Y-77628712D02*
X120922375Y-77293498D01*
X121774090Y-77248712D02*
X121580554Y-76913498D01*
X121109852Y-74318219D02*
X119779852Y-72014591D01*
X120550615Y-71569591D02*
X117550615Y-66373439D01*
X117550615Y-66373439D02*
X118208794Y-65993439D01*
X118208794Y-65993439D02*
X121208794Y-71189591D01*
X122079150Y-74217092D02*
X121880615Y-73873219D01*
X122737330Y-73837092D02*
X122538794Y-73493219D01*
X123349150Y-76416797D02*
X123122079Y-76023498D01*
X124007330Y-76036797D02*
X123780259Y-75643498D01*
X123309557Y-73048219D02*
X121979557Y-70744591D01*
X122750319Y-70299591D02*
X119750319Y-65103439D01*
X119750319Y-65103439D02*
X120408499Y-64723439D01*
X120408499Y-64723439D02*
X123408499Y-69919591D01*
X124278855Y-72947092D02*
X124080319Y-72603219D01*
X124937034Y-72567092D02*
X124738499Y-72223219D01*
X125548855Y-75146797D02*
X125321784Y-74753498D01*
X126207034Y-74766797D02*
X125979963Y-74373498D01*
X122635000Y-79499852D02*
X121535148Y-80134852D01*
X121535148Y-80134852D02*
X120900148Y-79035000D01*
X136415000Y-79960000D02*
X139100000Y-79960000D01*
X136415000Y-78040000D02*
X136415000Y-79960000D01*
X139100000Y-78040000D02*
X136415000Y-78040000D01*
X120140000Y-102552500D02*
X120140000Y-105237500D01*
X122060000Y-102552500D02*
X120140000Y-102552500D01*
X122060000Y-105237500D02*
X122060000Y-102552500D01*
X120140000Y-98777500D02*
X120140000Y-101462500D01*
X122060000Y-98777500D02*
X120140000Y-98777500D01*
X122060000Y-101462500D02*
X122060000Y-98777500D01*
X142320000Y-119345000D02*
X142700000Y-119345000D01*
X142320000Y-125765000D02*
X142320000Y-119345000D01*
X124080000Y-125765000D02*
X124080000Y-119345000D01*
X142320000Y-125765000D02*
X124080000Y-125765000D01*
X124080000Y-100020000D02*
X125080000Y-100020000D01*
X124080000Y-100800000D02*
X124080000Y-100020000D01*
X142320000Y-100020000D02*
X141320000Y-100020000D01*
X142320000Y-100800000D02*
X142320000Y-100020000D01*
X146530000Y-119230000D02*
X145200000Y-119230000D01*
X146530000Y-117900000D02*
X146530000Y-119230000D01*
X146530000Y-116630000D02*
X143870000Y-116630000D01*
X143870000Y-116630000D02*
X143870000Y-98790000D01*
X146530000Y-116630000D02*
X146530000Y-98790000D01*
X146530000Y-98790000D02*
X143870000Y-98790000D01*
X144705000Y-83615000D02*
X145400000Y-83615000D01*
X144705000Y-84300000D02*
X144705000Y-83615000D01*
X146008276Y-84985000D02*
X146095000Y-84985000D01*
X144705000Y-84985000D02*
X144791724Y-84985000D01*
X146095000Y-84985000D02*
X146095000Y-84860000D01*
X144705000Y-84985000D02*
X144705000Y-84860000D01*
X144705000Y-84985000D02*
X146095000Y-84985000D01*
X144705000Y-85615000D02*
X145400000Y-85615000D01*
X144705000Y-86300000D02*
X144705000Y-85615000D01*
X146008276Y-86985000D02*
X146095000Y-86985000D01*
X144705000Y-86985000D02*
X144791724Y-86985000D01*
X146095000Y-86985000D02*
X146095000Y-86860000D01*
X144705000Y-86985000D02*
X144705000Y-86860000D01*
X144705000Y-86985000D02*
X146095000Y-86985000D01*
X121795000Y-98085000D02*
X121100000Y-98085000D01*
X121795000Y-97400000D02*
X121795000Y-98085000D01*
X120491724Y-96715000D02*
X120405000Y-96715000D01*
X121795000Y-96715000D02*
X121708276Y-96715000D01*
X120405000Y-96715000D02*
X120405000Y-96840000D01*
X121795000Y-96715000D02*
X121795000Y-96840000D01*
X121795000Y-96715000D02*
X120405000Y-96715000D01*
X121795000Y-96085000D02*
X121100000Y-96085000D01*
X121795000Y-95400000D02*
X121795000Y-96085000D01*
X120491724Y-94715000D02*
X120405000Y-94715000D01*
X121795000Y-94715000D02*
X121708276Y-94715000D01*
X120405000Y-94715000D02*
X120405000Y-94840000D01*
X121795000Y-94715000D02*
X121795000Y-94840000D01*
X121795000Y-94715000D02*
X120405000Y-94715000D01*
X132978922Y-79410000D02*
X133496078Y-79410000D01*
X132978922Y-77990000D02*
X133496078Y-77990000D01*
X121810000Y-108958578D02*
X121810000Y-108441422D01*
X120390000Y-108958578D02*
X120390000Y-108441422D01*
X123210000Y-119410000D02*
X123210000Y-116910000D01*
X120710000Y-119410000D02*
X123210000Y-119410000D01*
X121410000Y-112390000D02*
X122910000Y-112390000D01*
X121410000Y-111390000D02*
X121410000Y-112390000D01*
X121410000Y-118110000D02*
X122910000Y-118110000D01*
X121410000Y-119110000D02*
X121410000Y-118110000D01*
X120600000Y-111890000D02*
X120600000Y-111390000D01*
X119390000Y-111890000D02*
X120600000Y-111890000D01*
X119390000Y-118610000D02*
X119390000Y-111890000D01*
X120600000Y-118610000D02*
X119390000Y-118610000D01*
X120600000Y-119110000D02*
X120600000Y-118610000D01*
X118890000Y-111390000D02*
X118890000Y-119110000D01*
X122910000Y-111390000D02*
X118890000Y-111390000D01*
X122910000Y-119110000D02*
X122910000Y-111390000D01*
X118890000Y-119110000D02*
X122910000Y-119110000D01*
X136500000Y-95320000D02*
X136500000Y-97720000D01*
X134100000Y-97720000D02*
X134100000Y-95320000D01*
X134100000Y-95320000D02*
X136500000Y-95320000D01*
X136500000Y-97720000D02*
X134100000Y-97720000D01*
X134100000Y-93910000D02*
X134100000Y-91510000D01*
X134100000Y-91510000D02*
X136500000Y-91510000D01*
X136500000Y-91510000D02*
X136500000Y-93910000D01*
X136500000Y-93910000D02*
X134100000Y-93910000D01*
X134100000Y-90100000D02*
X134100000Y-87700000D01*
X136500000Y-90100000D02*
X134100000Y-90100000D01*
X136500000Y-87700000D02*
X136500000Y-90100000D01*
X134100000Y-87700000D02*
X136500000Y-87700000D01*
X134100000Y-83890000D02*
X136500000Y-83890000D01*
X134100000Y-86290000D02*
X134100000Y-83890000D01*
X136500000Y-86290000D02*
X134100000Y-86290000D01*
X136500000Y-83890000D02*
X136500000Y-86290000D01*
X129900000Y-86285000D02*
X129900000Y-83885000D01*
X132300000Y-83885000D02*
X132300000Y-86285000D01*
X132300000Y-86285000D02*
X129900000Y-86285000D01*
X129900000Y-83885000D02*
X132300000Y-83885000D01*
X132300000Y-87695000D02*
X132300000Y-90095000D01*
X132300000Y-90095000D02*
X129900000Y-90095000D01*
X129900000Y-90095000D02*
X129900000Y-87695000D01*
X129900000Y-87695000D02*
X132300000Y-87695000D01*
X132300000Y-91505000D02*
X132300000Y-93905000D01*
X129900000Y-91505000D02*
X132300000Y-91505000D01*
X129900000Y-93905000D02*
X129900000Y-91505000D01*
X132300000Y-93905000D02*
X129900000Y-93905000D01*
X132300000Y-97715000D02*
X129900000Y-97715000D01*
X132300000Y-95315000D02*
X132300000Y-97715000D01*
X129900000Y-95315000D02*
X132300000Y-95315000D01*
X129900000Y-97715000D02*
X129900000Y-95315000D01*
D10*
X142921139Y-71879868D02*
X142508746Y-71641773D01*
X143008746Y-70775747D01*
X143311432Y-71775289D02*
X143723825Y-72013385D01*
X143086096Y-71975106D02*
X143874771Y-71275747D01*
X143663446Y-72308440D01*
X143934691Y-72410057D02*
X144034600Y-72522725D01*
X144240796Y-72641773D01*
X144347084Y-72648153D01*
X144412133Y-72630723D01*
X144500992Y-72572054D01*
X144548611Y-72489575D01*
X144554990Y-72383287D01*
X144537561Y-72318238D01*
X144478892Y-72229380D01*
X144337744Y-72092902D01*
X144279075Y-72004044D01*
X144261645Y-71938995D01*
X144268025Y-71832707D01*
X144315644Y-71750229D01*
X144404502Y-71691559D01*
X144469551Y-71674130D01*
X144575839Y-71680509D01*
X144782036Y-71799557D01*
X144881944Y-71912225D01*
X145038812Y-72497664D02*
X145327487Y-72664331D01*
X145189300Y-73189392D02*
X144776907Y-72951297D01*
X145276907Y-72085271D01*
X145689300Y-72323367D01*
X146055326Y-73689392D02*
X146004746Y-73110332D01*
X145560454Y-73403678D02*
X146060454Y-72537652D01*
X146390369Y-72728128D01*
X146449038Y-72816987D01*
X146466467Y-72882036D01*
X146460088Y-72988324D01*
X146388659Y-73112042D01*
X146299801Y-73170711D01*
X146234752Y-73188141D01*
X146128464Y-73181761D01*
X145798549Y-72991285D01*
X146844001Y-72990033D02*
X147380112Y-73299557D01*
X146900961Y-73462805D01*
X147024678Y-73534233D01*
X147083348Y-73623092D01*
X147100777Y-73688141D01*
X147094398Y-73794429D01*
X146975350Y-74000625D01*
X146886492Y-74059294D01*
X146821443Y-74076724D01*
X146715155Y-74070344D01*
X146467719Y-73927487D01*
X146409050Y-73838629D01*
X146391620Y-73773580D01*
X131276190Y-70552380D02*
X130800000Y-70552380D01*
X130800000Y-69552380D01*
X131561904Y-70266666D02*
X132038095Y-70266666D01*
X131466666Y-70552380D02*
X131800000Y-69552380D01*
X132133333Y-70552380D01*
X132419047Y-70504761D02*
X132561904Y-70552380D01*
X132800000Y-70552380D01*
X132895238Y-70504761D01*
X132942857Y-70457142D01*
X132990476Y-70361904D01*
X132990476Y-70266666D01*
X132942857Y-70171428D01*
X132895238Y-70123809D01*
X132800000Y-70076190D01*
X132609523Y-70028571D01*
X132514285Y-69980952D01*
X132466666Y-69933333D01*
X132419047Y-69838095D01*
X132419047Y-69742857D01*
X132466666Y-69647619D01*
X132514285Y-69600000D01*
X132609523Y-69552380D01*
X132847619Y-69552380D01*
X132990476Y-69600000D01*
X133419047Y-70028571D02*
X133752380Y-70028571D01*
X133895238Y-70552380D02*
X133419047Y-70552380D01*
X133419047Y-69552380D01*
X133895238Y-69552380D01*
X134895238Y-70552380D02*
X134561904Y-70076190D01*
X134323809Y-70552380D02*
X134323809Y-69552380D01*
X134704761Y-69552380D01*
X134800000Y-69600000D01*
X134847619Y-69647619D01*
X134895238Y-69742857D01*
X134895238Y-69885714D01*
X134847619Y-69980952D01*
X134800000Y-70028571D01*
X134704761Y-70076190D01*
X134323809Y-70076190D01*
X135276190Y-69647619D02*
X135323809Y-69600000D01*
X135419047Y-69552380D01*
X135657142Y-69552380D01*
X135752380Y-69600000D01*
X135800000Y-69647619D01*
X135847619Y-69742857D01*
X135847619Y-69838095D01*
X135800000Y-69980952D01*
X135228571Y-70552380D01*
X135847619Y-70552380D01*
X120073520Y-74003678D02*
X119661126Y-74241773D01*
X119161126Y-73375747D01*
X120178098Y-73613385D02*
X120590491Y-73375289D01*
X120238477Y-73908440D02*
X120027152Y-72875747D01*
X120815827Y-73575106D01*
X121039453Y-73391010D02*
X121186981Y-73360821D01*
X121393177Y-73241773D01*
X121451846Y-73152915D01*
X121469276Y-73087866D01*
X121462896Y-72981578D01*
X121415277Y-72899099D01*
X121326419Y-72840430D01*
X121261370Y-72823000D01*
X121155082Y-72829380D01*
X120966315Y-72883379D01*
X120860027Y-72889758D01*
X120794978Y-72872329D01*
X120706120Y-72813660D01*
X120658501Y-72731181D01*
X120652121Y-72624893D01*
X120669551Y-72559844D01*
X120728220Y-72470986D01*
X120934417Y-72351938D01*
X121081944Y-72321749D01*
X121667383Y-72478617D02*
X121956059Y-72311950D01*
X122341681Y-72694154D02*
X121929288Y-72932249D01*
X121429288Y-72066224D01*
X121841681Y-71828128D01*
X123207707Y-72194154D02*
X122680936Y-71948427D01*
X122712835Y-72479868D02*
X122212835Y-71613843D01*
X122542749Y-71423367D01*
X122649038Y-71416987D01*
X122714086Y-71434417D01*
X122802945Y-71493086D01*
X122874373Y-71616804D01*
X122880753Y-71723092D01*
X122863323Y-71788141D01*
X122804654Y-71876999D01*
X122474740Y-72067475D01*
X124032493Y-71717963D02*
X123537621Y-72003678D01*
X123785057Y-71860821D02*
X123285057Y-70994795D01*
X123274007Y-71166132D01*
X123239147Y-71296230D01*
X123180478Y-71385088D01*
X137361904Y-77802380D02*
X137361904Y-76802380D01*
X137600000Y-76802380D01*
X137742857Y-76850000D01*
X137838095Y-76945238D01*
X137885714Y-77040476D01*
X137933333Y-77230952D01*
X137933333Y-77373809D01*
X137885714Y-77564285D01*
X137838095Y-77659523D01*
X137742857Y-77754761D01*
X137600000Y-77802380D01*
X137361904Y-77802380D01*
X138266666Y-76802380D02*
X138885714Y-76802380D01*
X138552380Y-77183333D01*
X138695238Y-77183333D01*
X138790476Y-77230952D01*
X138838095Y-77278571D01*
X138885714Y-77373809D01*
X138885714Y-77611904D01*
X138838095Y-77707142D01*
X138790476Y-77754761D01*
X138695238Y-77802380D01*
X138409523Y-77802380D01*
X138314285Y-77754761D01*
X138266666Y-77707142D01*
X123202380Y-104975595D02*
X122202380Y-104975595D01*
X122202380Y-104737500D01*
X122250000Y-104594642D01*
X122345238Y-104499404D01*
X122440476Y-104451785D01*
X122630952Y-104404166D01*
X122773809Y-104404166D01*
X122964285Y-104451785D01*
X123059523Y-104499404D01*
X123154761Y-104594642D01*
X123202380Y-104737500D01*
X123202380Y-104975595D01*
X122297619Y-104023214D02*
X122250000Y-103975595D01*
X122202380Y-103880357D01*
X122202380Y-103642261D01*
X122250000Y-103547023D01*
X122297619Y-103499404D01*
X122392857Y-103451785D01*
X122488095Y-103451785D01*
X122630952Y-103499404D01*
X123202380Y-104070833D01*
X123202380Y-103451785D01*
X123202380Y-101200595D02*
X122202380Y-101200595D01*
X122202380Y-100962500D01*
X122250000Y-100819642D01*
X122345238Y-100724404D01*
X122440476Y-100676785D01*
X122630952Y-100629166D01*
X122773809Y-100629166D01*
X122964285Y-100676785D01*
X123059523Y-100724404D01*
X123154761Y-100819642D01*
X123202380Y-100962500D01*
X123202380Y-101200595D01*
X123202380Y-99676785D02*
X123202380Y-100248214D01*
X123202380Y-99962500D02*
X122202380Y-99962500D01*
X122345238Y-100057738D01*
X122440476Y-100152976D01*
X122488095Y-100248214D01*
X130957142Y-121228571D02*
X131290476Y-121228571D01*
X131433333Y-121752380D02*
X130957142Y-121752380D01*
X130957142Y-120752380D01*
X131433333Y-120752380D01*
X131814285Y-121704761D02*
X131957142Y-121752380D01*
X132195238Y-121752380D01*
X132290476Y-121704761D01*
X132338095Y-121657142D01*
X132385714Y-121561904D01*
X132385714Y-121466666D01*
X132338095Y-121371428D01*
X132290476Y-121323809D01*
X132195238Y-121276190D01*
X132004761Y-121228571D01*
X131909523Y-121180952D01*
X131861904Y-121133333D01*
X131814285Y-121038095D01*
X131814285Y-120942857D01*
X131861904Y-120847619D01*
X131909523Y-120800000D01*
X132004761Y-120752380D01*
X132242857Y-120752380D01*
X132385714Y-120800000D01*
X132814285Y-121752380D02*
X132814285Y-120752380D01*
X133195238Y-120752380D01*
X133290476Y-120800000D01*
X133338095Y-120847619D01*
X133385714Y-120942857D01*
X133385714Y-121085714D01*
X133338095Y-121180952D01*
X133290476Y-121228571D01*
X133195238Y-121276190D01*
X132814285Y-121276190D01*
X133719047Y-120752380D02*
X134338095Y-120752380D01*
X134004761Y-121133333D01*
X134147619Y-121133333D01*
X134242857Y-121180952D01*
X134290476Y-121228571D01*
X134338095Y-121323809D01*
X134338095Y-121561904D01*
X134290476Y-121657142D01*
X134242857Y-121704761D01*
X134147619Y-121752380D01*
X133861904Y-121752380D01*
X133766666Y-121704761D01*
X133719047Y-121657142D01*
X134719047Y-120847619D02*
X134766666Y-120800000D01*
X134861904Y-120752380D01*
X135100000Y-120752380D01*
X135195238Y-120800000D01*
X135242857Y-120847619D01*
X135290476Y-120942857D01*
X135290476Y-121038095D01*
X135242857Y-121180952D01*
X134671428Y-121752380D01*
X135290476Y-121752380D01*
X132594642Y-77502380D02*
X132261309Y-77026190D01*
X132023214Y-77502380D02*
X132023214Y-76502380D01*
X132404166Y-76502380D01*
X132499404Y-76550000D01*
X132547023Y-76597619D01*
X132594642Y-76692857D01*
X132594642Y-76835714D01*
X132547023Y-76930952D01*
X132499404Y-76978571D01*
X132404166Y-77026190D01*
X132023214Y-77026190D01*
X133547023Y-77502380D02*
X132975595Y-77502380D01*
X133261309Y-77502380D02*
X133261309Y-76502380D01*
X133166071Y-76645238D01*
X133070833Y-76740476D01*
X132975595Y-76788095D01*
X133927976Y-76597619D02*
X133975595Y-76550000D01*
X134070833Y-76502380D01*
X134308928Y-76502380D01*
X134404166Y-76550000D01*
X134451785Y-76597619D01*
X134499404Y-76692857D01*
X134499404Y-76788095D01*
X134451785Y-76930952D01*
X133880357Y-77502380D01*
X134499404Y-77502380D01*
X123152380Y-108966666D02*
X122676190Y-109300000D01*
X123152380Y-109538095D02*
X122152380Y-109538095D01*
X122152380Y-109157142D01*
X122200000Y-109061904D01*
X122247619Y-109014285D01*
X122342857Y-108966666D01*
X122485714Y-108966666D01*
X122580952Y-109014285D01*
X122628571Y-109061904D01*
X122676190Y-109157142D01*
X122676190Y-109538095D01*
X122580952Y-108395238D02*
X122533333Y-108490476D01*
X122485714Y-108538095D01*
X122390476Y-108585714D01*
X122342857Y-108585714D01*
X122247619Y-108538095D01*
X122200000Y-108490476D01*
X122152380Y-108395238D01*
X122152380Y-108204761D01*
X122200000Y-108109523D01*
X122247619Y-108061904D01*
X122342857Y-108014285D01*
X122390476Y-108014285D01*
X122485714Y-108061904D01*
X122533333Y-108109523D01*
X122580952Y-108204761D01*
X122580952Y-108395238D01*
X122628571Y-108490476D01*
X122676190Y-108538095D01*
X122771428Y-108585714D01*
X122961904Y-108585714D01*
X123057142Y-108538095D01*
X123104761Y-108490476D01*
X123152380Y-108395238D01*
X123152380Y-108204761D01*
X123104761Y-108109523D01*
X123057142Y-108061904D01*
X122961904Y-108014285D01*
X122771428Y-108014285D01*
X122676190Y-108061904D01*
X122628571Y-108109523D01*
X122580952Y-108204761D01*
M02*
