G04 #@! TF.GenerationSoftware,KiCad,Pcbnew,(5.1.2)-2*
G04 #@! TF.CreationDate,2019-12-09T19:40:43+00:00*
G04 #@! TF.ProjectId,main_pcb,6d61696e-5f70-4636-922e-6b696361645f,rev?*
G04 #@! TF.SameCoordinates,Original*
G04 #@! TF.FileFunction,Legend,Bot*
G04 #@! TF.FilePolarity,Positive*
%FSLAX46Y46*%
G04 Gerber Fmt 4.6, Leading zero omitted, Abs format (unit mm)*
G04 Created by KiCad (PCBNEW (5.1.2)-2) date 2019-12-09 19:40:43*
%MOMM*%
%LPD*%
G04 APERTURE LIST*
%ADD10C,0.150000*%
%ADD11C,0.120000*%
%ADD12C,0.200000*%
%ADD13C,0.250000*%
%ADD14C,0.254000*%
G04 APERTURE END LIST*
D10*
X129047619Y-93819047D02*
X129047619Y-93247619D01*
X128047619Y-93533333D02*
X129047619Y-93533333D01*
X128142857Y-92342857D02*
X128095238Y-92390476D01*
X128047619Y-92533333D01*
X128047619Y-92628571D01*
X128095238Y-92771428D01*
X128190476Y-92866666D01*
X128285714Y-92914285D01*
X128476190Y-92961904D01*
X128619047Y-92961904D01*
X128809523Y-92914285D01*
X128904761Y-92866666D01*
X129000000Y-92771428D01*
X129047619Y-92628571D01*
X129047619Y-92533333D01*
X129000000Y-92390476D01*
X128952380Y-92342857D01*
X128333333Y-91961904D02*
X128333333Y-91485714D01*
X128047619Y-92057142D02*
X129047619Y-91723809D01*
X128047619Y-91390476D01*
X128047619Y-91009523D02*
X128047619Y-90819047D01*
X128095238Y-90723809D01*
X128142857Y-90676190D01*
X128285714Y-90580952D01*
X128476190Y-90533333D01*
X128857142Y-90533333D01*
X128952380Y-90580952D01*
X129000000Y-90628571D01*
X129047619Y-90723809D01*
X129047619Y-90914285D01*
X129000000Y-91009523D01*
X128952380Y-91057142D01*
X128857142Y-91104761D01*
X128619047Y-91104761D01*
X128523809Y-91057142D01*
X128476190Y-91009523D01*
X128428571Y-90914285D01*
X128428571Y-90723809D01*
X128476190Y-90628571D01*
X128523809Y-90580952D01*
X128619047Y-90533333D01*
X129047619Y-89628571D02*
X129047619Y-90104761D01*
X128571428Y-90152380D01*
X128619047Y-90104761D01*
X128666666Y-90009523D01*
X128666666Y-89771428D01*
X128619047Y-89676190D01*
X128571428Y-89628571D01*
X128476190Y-89580952D01*
X128238095Y-89580952D01*
X128142857Y-89628571D01*
X128095238Y-89676190D01*
X128047619Y-89771428D01*
X128047619Y-90009523D01*
X128095238Y-90104761D01*
X128142857Y-90152380D01*
X128714285Y-88723809D02*
X128047619Y-88723809D01*
X129095238Y-88961904D02*
X128380952Y-89200000D01*
X128380952Y-88580952D01*
X128714285Y-87771428D02*
X128047619Y-87771428D01*
X129095238Y-88009523D02*
X128380952Y-88247619D01*
X128380952Y-87628571D01*
X128333333Y-87295238D02*
X128333333Y-86819047D01*
X128047619Y-87390476D02*
X129047619Y-87057142D01*
X128047619Y-86723809D01*
X128047619Y-86390476D02*
X129047619Y-86390476D01*
X129047619Y-86009523D01*
X129000000Y-85914285D01*
X128952380Y-85866666D01*
X128857142Y-85819047D01*
X128714285Y-85819047D01*
X128619047Y-85866666D01*
X128571428Y-85914285D01*
X128523809Y-86009523D01*
X128523809Y-86390476D01*
X129047619Y-85485714D02*
X128047619Y-85247619D01*
X128761904Y-85057142D01*
X128047619Y-84866666D01*
X129047619Y-84628571D01*
X128047619Y-83676190D02*
X128523809Y-84009523D01*
X128047619Y-84247619D02*
X129047619Y-84247619D01*
X129047619Y-83866666D01*
X129000000Y-83771428D01*
X128952380Y-83723809D01*
X128857142Y-83676190D01*
X128714285Y-83676190D01*
X128619047Y-83723809D01*
X128571428Y-83771428D01*
X128523809Y-83866666D01*
X128523809Y-84247619D01*
X137866666Y-102952380D02*
X137866666Y-101952380D01*
X137628571Y-101952380D01*
X137485714Y-102000000D01*
X137390476Y-102095238D01*
X137342857Y-102190476D01*
X137295238Y-102380952D01*
X137295238Y-102523809D01*
X137342857Y-102714285D01*
X137390476Y-102809523D01*
X137485714Y-102904761D01*
X137628571Y-102952380D01*
X137866666Y-102952380D01*
X136295238Y-102952380D02*
X136628571Y-102476190D01*
X136866666Y-102952380D02*
X136866666Y-101952380D01*
X136485714Y-101952380D01*
X136390476Y-102000000D01*
X136342857Y-102047619D01*
X136295238Y-102142857D01*
X136295238Y-102285714D01*
X136342857Y-102380952D01*
X136390476Y-102428571D01*
X136485714Y-102476190D01*
X136866666Y-102476190D01*
X136009523Y-101952380D02*
X135676190Y-102952380D01*
X135342857Y-101952380D01*
X134866666Y-102380952D02*
X134961904Y-102333333D01*
X135009523Y-102285714D01*
X135057142Y-102190476D01*
X135057142Y-102142857D01*
X135009523Y-102047619D01*
X134961904Y-102000000D01*
X134866666Y-101952380D01*
X134676190Y-101952380D01*
X134580952Y-102000000D01*
X134533333Y-102047619D01*
X134485714Y-102142857D01*
X134485714Y-102190476D01*
X134533333Y-102285714D01*
X134580952Y-102333333D01*
X134676190Y-102380952D01*
X134866666Y-102380952D01*
X134961904Y-102428571D01*
X135009523Y-102476190D01*
X135057142Y-102571428D01*
X135057142Y-102761904D01*
X135009523Y-102857142D01*
X134961904Y-102904761D01*
X134866666Y-102952380D01*
X134676190Y-102952380D01*
X134580952Y-102904761D01*
X134533333Y-102857142D01*
X134485714Y-102761904D01*
X134485714Y-102571428D01*
X134533333Y-102476190D01*
X134580952Y-102428571D01*
X134676190Y-102380952D01*
X133914285Y-102380952D02*
X134009523Y-102333333D01*
X134057142Y-102285714D01*
X134104761Y-102190476D01*
X134104761Y-102142857D01*
X134057142Y-102047619D01*
X134009523Y-102000000D01*
X133914285Y-101952380D01*
X133723809Y-101952380D01*
X133628571Y-102000000D01*
X133580952Y-102047619D01*
X133533333Y-102142857D01*
X133533333Y-102190476D01*
X133580952Y-102285714D01*
X133628571Y-102333333D01*
X133723809Y-102380952D01*
X133914285Y-102380952D01*
X134009523Y-102428571D01*
X134057142Y-102476190D01*
X134104761Y-102571428D01*
X134104761Y-102761904D01*
X134057142Y-102857142D01*
X134009523Y-102904761D01*
X133914285Y-102952380D01*
X133723809Y-102952380D01*
X133628571Y-102904761D01*
X133580952Y-102857142D01*
X133533333Y-102761904D01*
X133533333Y-102571428D01*
X133580952Y-102476190D01*
X133628571Y-102428571D01*
X133723809Y-102380952D01*
X132676190Y-102285714D02*
X132676190Y-102952380D01*
X132914285Y-101904761D02*
X133152380Y-102619047D01*
X132533333Y-102619047D01*
X132247619Y-101952380D02*
X131580952Y-101952380D01*
X132009523Y-102952380D01*
X131200000Y-102952380D02*
X131200000Y-101952380D01*
X130819047Y-101952380D01*
X130723809Y-102000000D01*
X130676190Y-102047619D01*
X130628571Y-102142857D01*
X130628571Y-102285714D01*
X130676190Y-102380952D01*
X130723809Y-102428571D01*
X130819047Y-102476190D01*
X131200000Y-102476190D01*
X130295238Y-101952380D02*
X130057142Y-102952380D01*
X129866666Y-102238095D01*
X129676190Y-102952380D01*
X129438095Y-101952380D01*
X128485714Y-102952380D02*
X128819047Y-102476190D01*
X129057142Y-102952380D02*
X129057142Y-101952380D01*
X128676190Y-101952380D01*
X128580952Y-102000000D01*
X128533333Y-102047619D01*
X128485714Y-102142857D01*
X128485714Y-102285714D01*
X128533333Y-102380952D01*
X128580952Y-102428571D01*
X128676190Y-102476190D01*
X129057142Y-102476190D01*
D11*
X133200000Y-86400000D02*
X133600000Y-86800000D01*
X133200000Y-86400000D02*
X132800000Y-86800000D01*
X138400000Y-90800000D02*
X138000000Y-90400000D01*
X138000000Y-91200000D02*
X138400000Y-90800000D01*
D10*
X137761904Y-89671428D02*
X137000000Y-89671428D01*
X137380952Y-90052380D02*
X137380952Y-89290476D01*
X136619047Y-89385714D02*
X136380952Y-90052380D01*
X136142857Y-89385714D02*
X136380952Y-90052380D01*
X136476190Y-90290476D01*
X136523809Y-90338095D01*
X136619047Y-90385714D01*
X132785714Y-87671428D02*
X132023809Y-87671428D01*
X132404761Y-88052380D02*
X132404761Y-87290476D01*
X131642857Y-88052380D02*
X131119047Y-87385714D01*
X131642857Y-87385714D02*
X131119047Y-88052380D01*
D11*
X138400000Y-90800000D02*
X136200000Y-90800000D01*
X133200000Y-86400000D02*
X133200000Y-88600000D01*
X137890000Y-71396078D02*
X137890000Y-70878922D01*
X139310000Y-71396078D02*
X139310000Y-70878922D01*
X121810000Y-103978922D02*
X121810000Y-104496078D01*
X120390000Y-103978922D02*
X120390000Y-104496078D01*
X121810000Y-100203922D02*
X121810000Y-100721078D01*
X120390000Y-100203922D02*
X120390000Y-100721078D01*
X126900000Y-118700000D02*
X130800000Y-118700000D01*
X130800000Y-113900000D02*
X128200000Y-113900000D01*
X138278922Y-79190000D02*
X138796078Y-79190000D01*
X138278922Y-80610000D02*
X138796078Y-80610000D01*
X143321078Y-82010000D02*
X142803922Y-82010000D01*
X143321078Y-80590000D02*
X142803922Y-80590000D01*
X132941422Y-78790000D02*
X133458578Y-78790000D01*
X132941422Y-80210000D02*
X133458578Y-80210000D01*
X128021078Y-80610000D02*
X127503922Y-80610000D01*
X128021078Y-79190000D02*
X127503922Y-79190000D01*
X122841422Y-80690000D02*
X123358578Y-80690000D01*
X122841422Y-82110000D02*
X123358578Y-82110000D01*
X130941422Y-100190000D02*
X131458578Y-100190000D01*
X130941422Y-101610000D02*
X131458578Y-101610000D01*
X120390000Y-108996078D02*
X120390000Y-108478922D01*
X121810000Y-108996078D02*
X121810000Y-108478922D01*
X141590000Y-110958578D02*
X141590000Y-110441422D01*
X143010000Y-110958578D02*
X143010000Y-110441422D01*
X144758578Y-94110000D02*
X144241422Y-94110000D01*
X144758578Y-92690000D02*
X144241422Y-92690000D01*
X132121078Y-111910000D02*
X131603922Y-111910000D01*
X132121078Y-110490000D02*
X131603922Y-110490000D01*
X144196078Y-90410000D02*
X143678922Y-90410000D01*
X144196078Y-88990000D02*
X143678922Y-88990000D01*
X129796078Y-98110000D02*
X129278922Y-98110000D01*
X129796078Y-96690000D02*
X129278922Y-96690000D01*
X137041422Y-113090000D02*
X137558578Y-113090000D01*
X137041422Y-114510000D02*
X137558578Y-114510000D01*
D10*
X119900000Y-94125000D02*
X125875000Y-94125000D01*
X121425000Y-87225000D02*
X125875000Y-87225000D01*
D12*
X129525000Y-108650000D02*
X131000000Y-108650000D01*
X131350000Y-103300000D02*
X131350000Y-108300000D01*
X135050000Y-103300000D02*
X131350000Y-103300000D01*
X135050000Y-108300000D02*
X135050000Y-103300000D01*
X131350000Y-108300000D02*
X135050000Y-108300000D01*
D11*
X139610000Y-105741422D02*
X139610000Y-106258578D01*
X138190000Y-105741422D02*
X138190000Y-106258578D01*
X141910000Y-105741422D02*
X141910000Y-106258578D01*
X140490000Y-105741422D02*
X140490000Y-106258578D01*
X140290000Y-117758578D02*
X140290000Y-117241422D01*
X141710000Y-117758578D02*
X141710000Y-117241422D01*
X138090000Y-117758578D02*
X138090000Y-117241422D01*
X139510000Y-117758578D02*
X139510000Y-117241422D01*
D13*
X134854000Y-88540000D02*
G75*
G03X134854000Y-88540000I-125000J0D01*
G01*
D12*
X130950000Y-89300000D02*
X130950000Y-89800000D01*
X131200000Y-89300000D02*
X130950000Y-89300000D01*
X130950000Y-92300000D02*
X130950000Y-91800000D01*
X131200000Y-92300000D02*
X130950000Y-92300000D01*
X135450000Y-89300000D02*
X135450000Y-89800000D01*
X135200000Y-89300000D02*
X135450000Y-89300000D01*
X135450000Y-92100000D02*
X135450000Y-91800000D01*
X135250000Y-92300000D02*
X135450000Y-92100000D01*
X135200000Y-92300000D02*
X135250000Y-92300000D01*
D11*
X138896078Y-93210000D02*
X138378922Y-93210000D01*
X138896078Y-91790000D02*
X138378922Y-91790000D01*
X138378922Y-88290000D02*
X138896078Y-88290000D01*
X138378922Y-89710000D02*
X138896078Y-89710000D01*
D10*
X140702380Y-70494642D02*
X140226190Y-70161309D01*
X140702380Y-69923214D02*
X139702380Y-69923214D01*
X139702380Y-70304166D01*
X139750000Y-70399404D01*
X139797619Y-70447023D01*
X139892857Y-70494642D01*
X140035714Y-70494642D01*
X140130952Y-70447023D01*
X140178571Y-70399404D01*
X140226190Y-70304166D01*
X140226190Y-69923214D01*
X140702380Y-71447023D02*
X140702380Y-70875595D01*
X140702380Y-71161309D02*
X139702380Y-71161309D01*
X139845238Y-71066071D01*
X139940476Y-70970833D01*
X139988095Y-70875595D01*
X140130952Y-72018452D02*
X140083333Y-71923214D01*
X140035714Y-71875595D01*
X139940476Y-71827976D01*
X139892857Y-71827976D01*
X139797619Y-71875595D01*
X139750000Y-71923214D01*
X139702380Y-72018452D01*
X139702380Y-72208928D01*
X139750000Y-72304166D01*
X139797619Y-72351785D01*
X139892857Y-72399404D01*
X139940476Y-72399404D01*
X140035714Y-72351785D01*
X140083333Y-72304166D01*
X140130952Y-72208928D01*
X140130952Y-72018452D01*
X140178571Y-71923214D01*
X140226190Y-71875595D01*
X140321428Y-71827976D01*
X140511904Y-71827976D01*
X140607142Y-71875595D01*
X140654761Y-71923214D01*
X140702380Y-72018452D01*
X140702380Y-72208928D01*
X140654761Y-72304166D01*
X140607142Y-72351785D01*
X140511904Y-72399404D01*
X140321428Y-72399404D01*
X140226190Y-72351785D01*
X140178571Y-72304166D01*
X140130952Y-72208928D01*
X123352380Y-103594642D02*
X122876190Y-103261309D01*
X123352380Y-103023214D02*
X122352380Y-103023214D01*
X122352380Y-103404166D01*
X122400000Y-103499404D01*
X122447619Y-103547023D01*
X122542857Y-103594642D01*
X122685714Y-103594642D01*
X122780952Y-103547023D01*
X122828571Y-103499404D01*
X122876190Y-103404166D01*
X122876190Y-103023214D01*
X123352380Y-104547023D02*
X123352380Y-103975595D01*
X123352380Y-104261309D02*
X122352380Y-104261309D01*
X122495238Y-104166071D01*
X122590476Y-104070833D01*
X122638095Y-103975595D01*
X122352380Y-104880357D02*
X122352380Y-105547023D01*
X123352380Y-105118452D01*
X123352380Y-99819642D02*
X122876190Y-99486309D01*
X123352380Y-99248214D02*
X122352380Y-99248214D01*
X122352380Y-99629166D01*
X122400000Y-99724404D01*
X122447619Y-99772023D01*
X122542857Y-99819642D01*
X122685714Y-99819642D01*
X122780952Y-99772023D01*
X122828571Y-99724404D01*
X122876190Y-99629166D01*
X122876190Y-99248214D01*
X123352380Y-100772023D02*
X123352380Y-100200595D01*
X123352380Y-100486309D02*
X122352380Y-100486309D01*
X122495238Y-100391071D01*
X122590476Y-100295833D01*
X122638095Y-100200595D01*
X122352380Y-101629166D02*
X122352380Y-101438690D01*
X122400000Y-101343452D01*
X122447619Y-101295833D01*
X122590476Y-101200595D01*
X122780952Y-101152976D01*
X123161904Y-101152976D01*
X123257142Y-101200595D01*
X123304761Y-101248214D01*
X123352380Y-101343452D01*
X123352380Y-101533928D01*
X123304761Y-101629166D01*
X123257142Y-101676785D01*
X123161904Y-101724404D01*
X122923809Y-101724404D01*
X122828571Y-101676785D01*
X122780952Y-101629166D01*
X122733333Y-101533928D01*
X122733333Y-101343452D01*
X122780952Y-101248214D01*
X122828571Y-101200595D01*
X122923809Y-101152976D01*
X131857142Y-120552380D02*
X132190476Y-120076190D01*
X132428571Y-120552380D02*
X132428571Y-119552380D01*
X132047619Y-119552380D01*
X131952380Y-119600000D01*
X131904761Y-119647619D01*
X131857142Y-119742857D01*
X131857142Y-119885714D01*
X131904761Y-119980952D01*
X131952380Y-120028571D01*
X132047619Y-120076190D01*
X132428571Y-120076190D01*
X131428571Y-120028571D02*
X131095238Y-120028571D01*
X130952380Y-120552380D02*
X131428571Y-120552380D01*
X131428571Y-119552380D01*
X130952380Y-119552380D01*
X130000000Y-119600000D02*
X130095238Y-119552380D01*
X130238095Y-119552380D01*
X130380952Y-119600000D01*
X130476190Y-119695238D01*
X130523809Y-119790476D01*
X130571428Y-119980952D01*
X130571428Y-120123809D01*
X130523809Y-120314285D01*
X130476190Y-120409523D01*
X130380952Y-120504761D01*
X130238095Y-120552380D01*
X130142857Y-120552380D01*
X130000000Y-120504761D01*
X129952380Y-120457142D01*
X129952380Y-120123809D01*
X130142857Y-120123809D01*
X129761904Y-120647619D02*
X129000000Y-120647619D01*
X128857142Y-119552380D02*
X128238095Y-119552380D01*
X128571428Y-119933333D01*
X128428571Y-119933333D01*
X128333333Y-119980952D01*
X128285714Y-120028571D01*
X128238095Y-120123809D01*
X128238095Y-120361904D01*
X128285714Y-120457142D01*
X128333333Y-120504761D01*
X128428571Y-120552380D01*
X128714285Y-120552380D01*
X128809523Y-120504761D01*
X128857142Y-120457142D01*
X127904761Y-119885714D02*
X127666666Y-120552380D01*
X127428571Y-119885714D01*
X127142857Y-119552380D02*
X126523809Y-119552380D01*
X126857142Y-119933333D01*
X126714285Y-119933333D01*
X126619047Y-119980952D01*
X126571428Y-120028571D01*
X126523809Y-120123809D01*
X126523809Y-120361904D01*
X126571428Y-120457142D01*
X126619047Y-120504761D01*
X126714285Y-120552380D01*
X127000000Y-120552380D01*
X127095238Y-120504761D01*
X127142857Y-120457142D01*
X139180357Y-82002380D02*
X139513690Y-81526190D01*
X139751785Y-82002380D02*
X139751785Y-81002380D01*
X139370833Y-81002380D01*
X139275595Y-81050000D01*
X139227976Y-81097619D01*
X139180357Y-81192857D01*
X139180357Y-81335714D01*
X139227976Y-81430952D01*
X139275595Y-81478571D01*
X139370833Y-81526190D01*
X139751785Y-81526190D01*
X138227976Y-82002380D02*
X138799404Y-82002380D01*
X138513690Y-82002380D02*
X138513690Y-81002380D01*
X138608928Y-81145238D01*
X138704166Y-81240476D01*
X138799404Y-81288095D01*
X137323214Y-81002380D02*
X137799404Y-81002380D01*
X137847023Y-81478571D01*
X137799404Y-81430952D01*
X137704166Y-81383333D01*
X137466071Y-81383333D01*
X137370833Y-81430952D01*
X137323214Y-81478571D01*
X137275595Y-81573809D01*
X137275595Y-81811904D01*
X137323214Y-81907142D01*
X137370833Y-81954761D01*
X137466071Y-82002380D01*
X137704166Y-82002380D01*
X137799404Y-81954761D01*
X137847023Y-81907142D01*
X143705357Y-83352380D02*
X144038690Y-82876190D01*
X144276785Y-83352380D02*
X144276785Y-82352380D01*
X143895833Y-82352380D01*
X143800595Y-82400000D01*
X143752976Y-82447619D01*
X143705357Y-82542857D01*
X143705357Y-82685714D01*
X143752976Y-82780952D01*
X143800595Y-82828571D01*
X143895833Y-82876190D01*
X144276785Y-82876190D01*
X142752976Y-83352380D02*
X143324404Y-83352380D01*
X143038690Y-83352380D02*
X143038690Y-82352380D01*
X143133928Y-82495238D01*
X143229166Y-82590476D01*
X143324404Y-82638095D01*
X141895833Y-82685714D02*
X141895833Y-83352380D01*
X142133928Y-82304761D02*
X142372023Y-83019047D01*
X141752976Y-83019047D01*
X133842857Y-81602380D02*
X134176190Y-81126190D01*
X134414285Y-81602380D02*
X134414285Y-80602380D01*
X134033333Y-80602380D01*
X133938095Y-80650000D01*
X133890476Y-80697619D01*
X133842857Y-80792857D01*
X133842857Y-80935714D01*
X133890476Y-81030952D01*
X133938095Y-81078571D01*
X134033333Y-81126190D01*
X134414285Y-81126190D01*
X132890476Y-81602380D02*
X133461904Y-81602380D01*
X133176190Y-81602380D02*
X133176190Y-80602380D01*
X133271428Y-80745238D01*
X133366666Y-80840476D01*
X133461904Y-80888095D01*
X132557142Y-80602380D02*
X131938095Y-80602380D01*
X132271428Y-80983333D01*
X132128571Y-80983333D01*
X132033333Y-81030952D01*
X131985714Y-81078571D01*
X131938095Y-81173809D01*
X131938095Y-81411904D01*
X131985714Y-81507142D01*
X132033333Y-81554761D01*
X132128571Y-81602380D01*
X132414285Y-81602380D01*
X132509523Y-81554761D01*
X132557142Y-81507142D01*
X128405357Y-78702380D02*
X128738690Y-78226190D01*
X128976785Y-78702380D02*
X128976785Y-77702380D01*
X128595833Y-77702380D01*
X128500595Y-77750000D01*
X128452976Y-77797619D01*
X128405357Y-77892857D01*
X128405357Y-78035714D01*
X128452976Y-78130952D01*
X128500595Y-78178571D01*
X128595833Y-78226190D01*
X128976785Y-78226190D01*
X127452976Y-78702380D02*
X128024404Y-78702380D01*
X127738690Y-78702380D02*
X127738690Y-77702380D01*
X127833928Y-77845238D01*
X127929166Y-77940476D01*
X128024404Y-77988095D01*
X126500595Y-78702380D02*
X127072023Y-78702380D01*
X126786309Y-78702380D02*
X126786309Y-77702380D01*
X126881547Y-77845238D01*
X126976785Y-77940476D01*
X127072023Y-77988095D01*
X123742857Y-83502380D02*
X124076190Y-83026190D01*
X124314285Y-83502380D02*
X124314285Y-82502380D01*
X123933333Y-82502380D01*
X123838095Y-82550000D01*
X123790476Y-82597619D01*
X123742857Y-82692857D01*
X123742857Y-82835714D01*
X123790476Y-82930952D01*
X123838095Y-82978571D01*
X123933333Y-83026190D01*
X124314285Y-83026190D01*
X122790476Y-83502380D02*
X123361904Y-83502380D01*
X123076190Y-83502380D02*
X123076190Y-82502380D01*
X123171428Y-82645238D01*
X123266666Y-82740476D01*
X123361904Y-82788095D01*
X122171428Y-82502380D02*
X122076190Y-82502380D01*
X121980952Y-82550000D01*
X121933333Y-82597619D01*
X121885714Y-82692857D01*
X121838095Y-82883333D01*
X121838095Y-83121428D01*
X121885714Y-83311904D01*
X121933333Y-83407142D01*
X121980952Y-83454761D01*
X122076190Y-83502380D01*
X122171428Y-83502380D01*
X122266666Y-83454761D01*
X122314285Y-83407142D01*
X122361904Y-83311904D01*
X122409523Y-83121428D01*
X122409523Y-82883333D01*
X122361904Y-82692857D01*
X122314285Y-82597619D01*
X122266666Y-82550000D01*
X122171428Y-82502380D01*
X131366666Y-99652380D02*
X131700000Y-99176190D01*
X131938095Y-99652380D02*
X131938095Y-98652380D01*
X131557142Y-98652380D01*
X131461904Y-98700000D01*
X131414285Y-98747619D01*
X131366666Y-98842857D01*
X131366666Y-98985714D01*
X131414285Y-99080952D01*
X131461904Y-99128571D01*
X131557142Y-99176190D01*
X131938095Y-99176190D01*
X130890476Y-99652380D02*
X130700000Y-99652380D01*
X130604761Y-99604761D01*
X130557142Y-99557142D01*
X130461904Y-99414285D01*
X130414285Y-99223809D01*
X130414285Y-98842857D01*
X130461904Y-98747619D01*
X130509523Y-98700000D01*
X130604761Y-98652380D01*
X130795238Y-98652380D01*
X130890476Y-98700000D01*
X130938095Y-98747619D01*
X130985714Y-98842857D01*
X130985714Y-99080952D01*
X130938095Y-99176190D01*
X130890476Y-99223809D01*
X130795238Y-99271428D01*
X130604761Y-99271428D01*
X130509523Y-99223809D01*
X130461904Y-99176190D01*
X130414285Y-99080952D01*
X123202380Y-108570833D02*
X122726190Y-108237500D01*
X123202380Y-107999404D02*
X122202380Y-107999404D01*
X122202380Y-108380357D01*
X122250000Y-108475595D01*
X122297619Y-108523214D01*
X122392857Y-108570833D01*
X122535714Y-108570833D01*
X122630952Y-108523214D01*
X122678571Y-108475595D01*
X122726190Y-108380357D01*
X122726190Y-107999404D01*
X122202380Y-108904166D02*
X122202380Y-109570833D01*
X123202380Y-109142261D01*
X141252380Y-110533333D02*
X140776190Y-110200000D01*
X141252380Y-109961904D02*
X140252380Y-109961904D01*
X140252380Y-110342857D01*
X140300000Y-110438095D01*
X140347619Y-110485714D01*
X140442857Y-110533333D01*
X140585714Y-110533333D01*
X140680952Y-110485714D01*
X140728571Y-110438095D01*
X140776190Y-110342857D01*
X140776190Y-109961904D01*
X140252380Y-111390476D02*
X140252380Y-111200000D01*
X140300000Y-111104761D01*
X140347619Y-111057142D01*
X140490476Y-110961904D01*
X140680952Y-110914285D01*
X141061904Y-110914285D01*
X141157142Y-110961904D01*
X141204761Y-111009523D01*
X141252380Y-111104761D01*
X141252380Y-111295238D01*
X141204761Y-111390476D01*
X141157142Y-111438095D01*
X141061904Y-111485714D01*
X140823809Y-111485714D01*
X140728571Y-111438095D01*
X140680952Y-111390476D01*
X140633333Y-111295238D01*
X140633333Y-111104761D01*
X140680952Y-111009523D01*
X140728571Y-110961904D01*
X140823809Y-110914285D01*
X144666666Y-92202380D02*
X145000000Y-91726190D01*
X145238095Y-92202380D02*
X145238095Y-91202380D01*
X144857142Y-91202380D01*
X144761904Y-91250000D01*
X144714285Y-91297619D01*
X144666666Y-91392857D01*
X144666666Y-91535714D01*
X144714285Y-91630952D01*
X144761904Y-91678571D01*
X144857142Y-91726190D01*
X145238095Y-91726190D01*
X143761904Y-91202380D02*
X144238095Y-91202380D01*
X144285714Y-91678571D01*
X144238095Y-91630952D01*
X144142857Y-91583333D01*
X143904761Y-91583333D01*
X143809523Y-91630952D01*
X143761904Y-91678571D01*
X143714285Y-91773809D01*
X143714285Y-92011904D01*
X143761904Y-92107142D01*
X143809523Y-92154761D01*
X143904761Y-92202380D01*
X144142857Y-92202380D01*
X144238095Y-92154761D01*
X144285714Y-92107142D01*
X132029166Y-113352380D02*
X132362500Y-112876190D01*
X132600595Y-113352380D02*
X132600595Y-112352380D01*
X132219642Y-112352380D01*
X132124404Y-112400000D01*
X132076785Y-112447619D01*
X132029166Y-112542857D01*
X132029166Y-112685714D01*
X132076785Y-112780952D01*
X132124404Y-112828571D01*
X132219642Y-112876190D01*
X132600595Y-112876190D01*
X131172023Y-112685714D02*
X131172023Y-113352380D01*
X131410119Y-112304761D02*
X131648214Y-113019047D01*
X131029166Y-113019047D01*
X144104166Y-88502380D02*
X144437500Y-88026190D01*
X144675595Y-88502380D02*
X144675595Y-87502380D01*
X144294642Y-87502380D01*
X144199404Y-87550000D01*
X144151785Y-87597619D01*
X144104166Y-87692857D01*
X144104166Y-87835714D01*
X144151785Y-87930952D01*
X144199404Y-87978571D01*
X144294642Y-88026190D01*
X144675595Y-88026190D01*
X143770833Y-87502380D02*
X143151785Y-87502380D01*
X143485119Y-87883333D01*
X143342261Y-87883333D01*
X143247023Y-87930952D01*
X143199404Y-87978571D01*
X143151785Y-88073809D01*
X143151785Y-88311904D01*
X143199404Y-88407142D01*
X143247023Y-88454761D01*
X143342261Y-88502380D01*
X143627976Y-88502380D01*
X143723214Y-88454761D01*
X143770833Y-88407142D01*
X129704166Y-96202380D02*
X130037500Y-95726190D01*
X130275595Y-96202380D02*
X130275595Y-95202380D01*
X129894642Y-95202380D01*
X129799404Y-95250000D01*
X129751785Y-95297619D01*
X129704166Y-95392857D01*
X129704166Y-95535714D01*
X129751785Y-95630952D01*
X129799404Y-95678571D01*
X129894642Y-95726190D01*
X130275595Y-95726190D01*
X129323214Y-95297619D02*
X129275595Y-95250000D01*
X129180357Y-95202380D01*
X128942261Y-95202380D01*
X128847023Y-95250000D01*
X128799404Y-95297619D01*
X128751785Y-95392857D01*
X128751785Y-95488095D01*
X128799404Y-95630952D01*
X129370833Y-96202380D01*
X128751785Y-96202380D01*
X137466666Y-115902380D02*
X137800000Y-115426190D01*
X138038095Y-115902380D02*
X138038095Y-114902380D01*
X137657142Y-114902380D01*
X137561904Y-114950000D01*
X137514285Y-114997619D01*
X137466666Y-115092857D01*
X137466666Y-115235714D01*
X137514285Y-115330952D01*
X137561904Y-115378571D01*
X137657142Y-115426190D01*
X138038095Y-115426190D01*
X136514285Y-115902380D02*
X137085714Y-115902380D01*
X136800000Y-115902380D02*
X136800000Y-114902380D01*
X136895238Y-115045238D01*
X136990476Y-115140476D01*
X137085714Y-115188095D01*
X137607142Y-105833333D02*
X137654761Y-105785714D01*
X137702380Y-105642857D01*
X137702380Y-105547619D01*
X137654761Y-105404761D01*
X137559523Y-105309523D01*
X137464285Y-105261904D01*
X137273809Y-105214285D01*
X137130952Y-105214285D01*
X136940476Y-105261904D01*
X136845238Y-105309523D01*
X136750000Y-105404761D01*
X136702380Y-105547619D01*
X136702380Y-105642857D01*
X136750000Y-105785714D01*
X136797619Y-105833333D01*
X136702380Y-106690476D02*
X136702380Y-106500000D01*
X136750000Y-106404761D01*
X136797619Y-106357142D01*
X136940476Y-106261904D01*
X137130952Y-106214285D01*
X137511904Y-106214285D01*
X137607142Y-106261904D01*
X137654761Y-106309523D01*
X137702380Y-106404761D01*
X137702380Y-106595238D01*
X137654761Y-106690476D01*
X137607142Y-106738095D01*
X137511904Y-106785714D01*
X137273809Y-106785714D01*
X137178571Y-106738095D01*
X137130952Y-106690476D01*
X137083333Y-106595238D01*
X137083333Y-106404761D01*
X137130952Y-106309523D01*
X137178571Y-106261904D01*
X137273809Y-106214285D01*
X139907142Y-105833333D02*
X139954761Y-105785714D01*
X140002380Y-105642857D01*
X140002380Y-105547619D01*
X139954761Y-105404761D01*
X139859523Y-105309523D01*
X139764285Y-105261904D01*
X139573809Y-105214285D01*
X139430952Y-105214285D01*
X139240476Y-105261904D01*
X139145238Y-105309523D01*
X139050000Y-105404761D01*
X139002380Y-105547619D01*
X139002380Y-105642857D01*
X139050000Y-105785714D01*
X139097619Y-105833333D01*
X139002380Y-106738095D02*
X139002380Y-106261904D01*
X139478571Y-106214285D01*
X139430952Y-106261904D01*
X139383333Y-106357142D01*
X139383333Y-106595238D01*
X139430952Y-106690476D01*
X139478571Y-106738095D01*
X139573809Y-106785714D01*
X139811904Y-106785714D01*
X139907142Y-106738095D01*
X139954761Y-106690476D01*
X140002380Y-106595238D01*
X140002380Y-106357142D01*
X139954761Y-106261904D01*
X139907142Y-106214285D01*
X141166666Y-120357142D02*
X141214285Y-120404761D01*
X141357142Y-120452380D01*
X141452380Y-120452380D01*
X141595238Y-120404761D01*
X141690476Y-120309523D01*
X141738095Y-120214285D01*
X141785714Y-120023809D01*
X141785714Y-119880952D01*
X141738095Y-119690476D01*
X141690476Y-119595238D01*
X141595238Y-119500000D01*
X141452380Y-119452380D01*
X141357142Y-119452380D01*
X141214285Y-119500000D01*
X141166666Y-119547619D01*
X140309523Y-119785714D02*
X140309523Y-120452380D01*
X140547619Y-119404761D02*
X140785714Y-120119047D01*
X140166666Y-120119047D01*
X138966666Y-120357142D02*
X139014285Y-120404761D01*
X139157142Y-120452380D01*
X139252380Y-120452380D01*
X139395238Y-120404761D01*
X139490476Y-120309523D01*
X139538095Y-120214285D01*
X139585714Y-120023809D01*
X139585714Y-119880952D01*
X139538095Y-119690476D01*
X139490476Y-119595238D01*
X139395238Y-119500000D01*
X139252380Y-119452380D01*
X139157142Y-119452380D01*
X139014285Y-119500000D01*
X138966666Y-119547619D01*
X138633333Y-119452380D02*
X138014285Y-119452380D01*
X138347619Y-119833333D01*
X138204761Y-119833333D01*
X138109523Y-119880952D01*
X138061904Y-119928571D01*
X138014285Y-120023809D01*
X138014285Y-120261904D01*
X138061904Y-120357142D01*
X138109523Y-120404761D01*
X138204761Y-120452380D01*
X138490476Y-120452380D01*
X138585714Y-120404761D01*
X138633333Y-120357142D01*
D14*
X135195714Y-94174523D02*
X135195714Y-92904523D01*
X134590952Y-94174523D02*
X134590952Y-92904523D01*
X134167619Y-93811666D01*
X133744285Y-92904523D01*
X133744285Y-94174523D01*
X133139523Y-92904523D02*
X133139523Y-93932619D01*
X133079047Y-94053571D01*
X133018571Y-94114047D01*
X132897619Y-94174523D01*
X132655714Y-94174523D01*
X132534761Y-94114047D01*
X132474285Y-94053571D01*
X132413809Y-93932619D01*
X132413809Y-92904523D01*
X131143809Y-94174523D02*
X131869523Y-94174523D01*
X131506666Y-94174523D02*
X131506666Y-92904523D01*
X131627619Y-93085952D01*
X131748571Y-93206904D01*
X131869523Y-93267380D01*
D10*
X138941666Y-94657142D02*
X138989285Y-94704761D01*
X139132142Y-94752380D01*
X139227380Y-94752380D01*
X139370238Y-94704761D01*
X139465476Y-94609523D01*
X139513095Y-94514285D01*
X139560714Y-94323809D01*
X139560714Y-94180952D01*
X139513095Y-93990476D01*
X139465476Y-93895238D01*
X139370238Y-93800000D01*
X139227380Y-93752380D01*
X139132142Y-93752380D01*
X138989285Y-93800000D01*
X138941666Y-93847619D01*
X138560714Y-93847619D02*
X138513095Y-93800000D01*
X138417857Y-93752380D01*
X138179761Y-93752380D01*
X138084523Y-93800000D01*
X138036904Y-93847619D01*
X137989285Y-93942857D01*
X137989285Y-94038095D01*
X138036904Y-94180952D01*
X138608333Y-94752380D01*
X137989285Y-94752380D01*
X138804166Y-87557142D02*
X138851785Y-87604761D01*
X138994642Y-87652380D01*
X139089880Y-87652380D01*
X139232738Y-87604761D01*
X139327976Y-87509523D01*
X139375595Y-87414285D01*
X139423214Y-87223809D01*
X139423214Y-87080952D01*
X139375595Y-86890476D01*
X139327976Y-86795238D01*
X139232738Y-86700000D01*
X139089880Y-86652380D01*
X138994642Y-86652380D01*
X138851785Y-86700000D01*
X138804166Y-86747619D01*
X137851785Y-87652380D02*
X138423214Y-87652380D01*
X138137500Y-87652380D02*
X138137500Y-86652380D01*
X138232738Y-86795238D01*
X138327976Y-86890476D01*
X138423214Y-86938095D01*
M02*
