G04 #@! TF.GenerationSoftware,KiCad,Pcbnew,(5.1.2)-2*
G04 #@! TF.CreationDate,2019-12-09T19:40:43+00:00*
G04 #@! TF.ProjectId,main_pcb,6d61696e-5f70-4636-922e-6b696361645f,rev?*
G04 #@! TF.SameCoordinates,Original*
G04 #@! TF.FileFunction,Paste,Top*
G04 #@! TF.FilePolarity,Positive*
%FSLAX46Y46*%
G04 Gerber Fmt 4.6, Leading zero omitted, Abs format (unit mm)*
G04 Created by KiCad (PCBNEW (5.1.2)-2) date 2019-12-09 19:40:43*
%MOMM*%
%LPD*%
G04 APERTURE LIST*
%ADD10C,0.100000*%
%ADD11C,0.975000*%
%ADD12R,2.000000X0.900000*%
%ADD13R,0.900000X2.000000*%
%ADD14R,5.000000X5.000000*%
G04 APERTURE END LIST*
D10*
G36*
X139305142Y-78301174D02*
G01*
X139328803Y-78304684D01*
X139352007Y-78310496D01*
X139374529Y-78318554D01*
X139396153Y-78328782D01*
X139416670Y-78341079D01*
X139435883Y-78355329D01*
X139453607Y-78371393D01*
X139469671Y-78389117D01*
X139483921Y-78408330D01*
X139496218Y-78428847D01*
X139506446Y-78450471D01*
X139514504Y-78472993D01*
X139520316Y-78496197D01*
X139523826Y-78519858D01*
X139525000Y-78543750D01*
X139525000Y-79456250D01*
X139523826Y-79480142D01*
X139520316Y-79503803D01*
X139514504Y-79527007D01*
X139506446Y-79549529D01*
X139496218Y-79571153D01*
X139483921Y-79591670D01*
X139469671Y-79610883D01*
X139453607Y-79628607D01*
X139435883Y-79644671D01*
X139416670Y-79658921D01*
X139396153Y-79671218D01*
X139374529Y-79681446D01*
X139352007Y-79689504D01*
X139328803Y-79695316D01*
X139305142Y-79698826D01*
X139281250Y-79700000D01*
X138793750Y-79700000D01*
X138769858Y-79698826D01*
X138746197Y-79695316D01*
X138722993Y-79689504D01*
X138700471Y-79681446D01*
X138678847Y-79671218D01*
X138658330Y-79658921D01*
X138639117Y-79644671D01*
X138621393Y-79628607D01*
X138605329Y-79610883D01*
X138591079Y-79591670D01*
X138578782Y-79571153D01*
X138568554Y-79549529D01*
X138560496Y-79527007D01*
X138554684Y-79503803D01*
X138551174Y-79480142D01*
X138550000Y-79456250D01*
X138550000Y-78543750D01*
X138551174Y-78519858D01*
X138554684Y-78496197D01*
X138560496Y-78472993D01*
X138568554Y-78450471D01*
X138578782Y-78428847D01*
X138591079Y-78408330D01*
X138605329Y-78389117D01*
X138621393Y-78371393D01*
X138639117Y-78355329D01*
X138658330Y-78341079D01*
X138678847Y-78328782D01*
X138700471Y-78318554D01*
X138722993Y-78310496D01*
X138746197Y-78304684D01*
X138769858Y-78301174D01*
X138793750Y-78300000D01*
X139281250Y-78300000D01*
X139305142Y-78301174D01*
X139305142Y-78301174D01*
G37*
D11*
X139037500Y-79000000D03*
D10*
G36*
X137430142Y-78301174D02*
G01*
X137453803Y-78304684D01*
X137477007Y-78310496D01*
X137499529Y-78318554D01*
X137521153Y-78328782D01*
X137541670Y-78341079D01*
X137560883Y-78355329D01*
X137578607Y-78371393D01*
X137594671Y-78389117D01*
X137608921Y-78408330D01*
X137621218Y-78428847D01*
X137631446Y-78450471D01*
X137639504Y-78472993D01*
X137645316Y-78496197D01*
X137648826Y-78519858D01*
X137650000Y-78543750D01*
X137650000Y-79456250D01*
X137648826Y-79480142D01*
X137645316Y-79503803D01*
X137639504Y-79527007D01*
X137631446Y-79549529D01*
X137621218Y-79571153D01*
X137608921Y-79591670D01*
X137594671Y-79610883D01*
X137578607Y-79628607D01*
X137560883Y-79644671D01*
X137541670Y-79658921D01*
X137521153Y-79671218D01*
X137499529Y-79681446D01*
X137477007Y-79689504D01*
X137453803Y-79695316D01*
X137430142Y-79698826D01*
X137406250Y-79700000D01*
X136918750Y-79700000D01*
X136894858Y-79698826D01*
X136871197Y-79695316D01*
X136847993Y-79689504D01*
X136825471Y-79681446D01*
X136803847Y-79671218D01*
X136783330Y-79658921D01*
X136764117Y-79644671D01*
X136746393Y-79628607D01*
X136730329Y-79610883D01*
X136716079Y-79591670D01*
X136703782Y-79571153D01*
X136693554Y-79549529D01*
X136685496Y-79527007D01*
X136679684Y-79503803D01*
X136676174Y-79480142D01*
X136675000Y-79456250D01*
X136675000Y-78543750D01*
X136676174Y-78519858D01*
X136679684Y-78496197D01*
X136685496Y-78472993D01*
X136693554Y-78450471D01*
X136703782Y-78428847D01*
X136716079Y-78408330D01*
X136730329Y-78389117D01*
X136746393Y-78371393D01*
X136764117Y-78355329D01*
X136783330Y-78341079D01*
X136803847Y-78328782D01*
X136825471Y-78318554D01*
X136847993Y-78310496D01*
X136871197Y-78304684D01*
X136894858Y-78301174D01*
X136918750Y-78300000D01*
X137406250Y-78300000D01*
X137430142Y-78301174D01*
X137430142Y-78301174D01*
G37*
D11*
X137162500Y-79000000D03*
D10*
G36*
X121580142Y-104688674D02*
G01*
X121603803Y-104692184D01*
X121627007Y-104697996D01*
X121649529Y-104706054D01*
X121671153Y-104716282D01*
X121691670Y-104728579D01*
X121710883Y-104742829D01*
X121728607Y-104758893D01*
X121744671Y-104776617D01*
X121758921Y-104795830D01*
X121771218Y-104816347D01*
X121781446Y-104837971D01*
X121789504Y-104860493D01*
X121795316Y-104883697D01*
X121798826Y-104907358D01*
X121800000Y-104931250D01*
X121800000Y-105418750D01*
X121798826Y-105442642D01*
X121795316Y-105466303D01*
X121789504Y-105489507D01*
X121781446Y-105512029D01*
X121771218Y-105533653D01*
X121758921Y-105554170D01*
X121744671Y-105573383D01*
X121728607Y-105591107D01*
X121710883Y-105607171D01*
X121691670Y-105621421D01*
X121671153Y-105633718D01*
X121649529Y-105643946D01*
X121627007Y-105652004D01*
X121603803Y-105657816D01*
X121580142Y-105661326D01*
X121556250Y-105662500D01*
X120643750Y-105662500D01*
X120619858Y-105661326D01*
X120596197Y-105657816D01*
X120572993Y-105652004D01*
X120550471Y-105643946D01*
X120528847Y-105633718D01*
X120508330Y-105621421D01*
X120489117Y-105607171D01*
X120471393Y-105591107D01*
X120455329Y-105573383D01*
X120441079Y-105554170D01*
X120428782Y-105533653D01*
X120418554Y-105512029D01*
X120410496Y-105489507D01*
X120404684Y-105466303D01*
X120401174Y-105442642D01*
X120400000Y-105418750D01*
X120400000Y-104931250D01*
X120401174Y-104907358D01*
X120404684Y-104883697D01*
X120410496Y-104860493D01*
X120418554Y-104837971D01*
X120428782Y-104816347D01*
X120441079Y-104795830D01*
X120455329Y-104776617D01*
X120471393Y-104758893D01*
X120489117Y-104742829D01*
X120508330Y-104728579D01*
X120528847Y-104716282D01*
X120550471Y-104706054D01*
X120572993Y-104697996D01*
X120596197Y-104692184D01*
X120619858Y-104688674D01*
X120643750Y-104687500D01*
X121556250Y-104687500D01*
X121580142Y-104688674D01*
X121580142Y-104688674D01*
G37*
D11*
X121100000Y-105175000D03*
D10*
G36*
X121580142Y-102813674D02*
G01*
X121603803Y-102817184D01*
X121627007Y-102822996D01*
X121649529Y-102831054D01*
X121671153Y-102841282D01*
X121691670Y-102853579D01*
X121710883Y-102867829D01*
X121728607Y-102883893D01*
X121744671Y-102901617D01*
X121758921Y-102920830D01*
X121771218Y-102941347D01*
X121781446Y-102962971D01*
X121789504Y-102985493D01*
X121795316Y-103008697D01*
X121798826Y-103032358D01*
X121800000Y-103056250D01*
X121800000Y-103543750D01*
X121798826Y-103567642D01*
X121795316Y-103591303D01*
X121789504Y-103614507D01*
X121781446Y-103637029D01*
X121771218Y-103658653D01*
X121758921Y-103679170D01*
X121744671Y-103698383D01*
X121728607Y-103716107D01*
X121710883Y-103732171D01*
X121691670Y-103746421D01*
X121671153Y-103758718D01*
X121649529Y-103768946D01*
X121627007Y-103777004D01*
X121603803Y-103782816D01*
X121580142Y-103786326D01*
X121556250Y-103787500D01*
X120643750Y-103787500D01*
X120619858Y-103786326D01*
X120596197Y-103782816D01*
X120572993Y-103777004D01*
X120550471Y-103768946D01*
X120528847Y-103758718D01*
X120508330Y-103746421D01*
X120489117Y-103732171D01*
X120471393Y-103716107D01*
X120455329Y-103698383D01*
X120441079Y-103679170D01*
X120428782Y-103658653D01*
X120418554Y-103637029D01*
X120410496Y-103614507D01*
X120404684Y-103591303D01*
X120401174Y-103567642D01*
X120400000Y-103543750D01*
X120400000Y-103056250D01*
X120401174Y-103032358D01*
X120404684Y-103008697D01*
X120410496Y-102985493D01*
X120418554Y-102962971D01*
X120428782Y-102941347D01*
X120441079Y-102920830D01*
X120455329Y-102901617D01*
X120471393Y-102883893D01*
X120489117Y-102867829D01*
X120508330Y-102853579D01*
X120528847Y-102841282D01*
X120550471Y-102831054D01*
X120572993Y-102822996D01*
X120596197Y-102817184D01*
X120619858Y-102813674D01*
X120643750Y-102812500D01*
X121556250Y-102812500D01*
X121580142Y-102813674D01*
X121580142Y-102813674D01*
G37*
D11*
X121100000Y-103300000D03*
D10*
G36*
X121580142Y-100913674D02*
G01*
X121603803Y-100917184D01*
X121627007Y-100922996D01*
X121649529Y-100931054D01*
X121671153Y-100941282D01*
X121691670Y-100953579D01*
X121710883Y-100967829D01*
X121728607Y-100983893D01*
X121744671Y-101001617D01*
X121758921Y-101020830D01*
X121771218Y-101041347D01*
X121781446Y-101062971D01*
X121789504Y-101085493D01*
X121795316Y-101108697D01*
X121798826Y-101132358D01*
X121800000Y-101156250D01*
X121800000Y-101643750D01*
X121798826Y-101667642D01*
X121795316Y-101691303D01*
X121789504Y-101714507D01*
X121781446Y-101737029D01*
X121771218Y-101758653D01*
X121758921Y-101779170D01*
X121744671Y-101798383D01*
X121728607Y-101816107D01*
X121710883Y-101832171D01*
X121691670Y-101846421D01*
X121671153Y-101858718D01*
X121649529Y-101868946D01*
X121627007Y-101877004D01*
X121603803Y-101882816D01*
X121580142Y-101886326D01*
X121556250Y-101887500D01*
X120643750Y-101887500D01*
X120619858Y-101886326D01*
X120596197Y-101882816D01*
X120572993Y-101877004D01*
X120550471Y-101868946D01*
X120528847Y-101858718D01*
X120508330Y-101846421D01*
X120489117Y-101832171D01*
X120471393Y-101816107D01*
X120455329Y-101798383D01*
X120441079Y-101779170D01*
X120428782Y-101758653D01*
X120418554Y-101737029D01*
X120410496Y-101714507D01*
X120404684Y-101691303D01*
X120401174Y-101667642D01*
X120400000Y-101643750D01*
X120400000Y-101156250D01*
X120401174Y-101132358D01*
X120404684Y-101108697D01*
X120410496Y-101085493D01*
X120418554Y-101062971D01*
X120428782Y-101041347D01*
X120441079Y-101020830D01*
X120455329Y-101001617D01*
X120471393Y-100983893D01*
X120489117Y-100967829D01*
X120508330Y-100953579D01*
X120528847Y-100941282D01*
X120550471Y-100931054D01*
X120572993Y-100922996D01*
X120596197Y-100917184D01*
X120619858Y-100913674D01*
X120643750Y-100912500D01*
X121556250Y-100912500D01*
X121580142Y-100913674D01*
X121580142Y-100913674D01*
G37*
D11*
X121100000Y-101400000D03*
D10*
G36*
X121580142Y-99038674D02*
G01*
X121603803Y-99042184D01*
X121627007Y-99047996D01*
X121649529Y-99056054D01*
X121671153Y-99066282D01*
X121691670Y-99078579D01*
X121710883Y-99092829D01*
X121728607Y-99108893D01*
X121744671Y-99126617D01*
X121758921Y-99145830D01*
X121771218Y-99166347D01*
X121781446Y-99187971D01*
X121789504Y-99210493D01*
X121795316Y-99233697D01*
X121798826Y-99257358D01*
X121800000Y-99281250D01*
X121800000Y-99768750D01*
X121798826Y-99792642D01*
X121795316Y-99816303D01*
X121789504Y-99839507D01*
X121781446Y-99862029D01*
X121771218Y-99883653D01*
X121758921Y-99904170D01*
X121744671Y-99923383D01*
X121728607Y-99941107D01*
X121710883Y-99957171D01*
X121691670Y-99971421D01*
X121671153Y-99983718D01*
X121649529Y-99993946D01*
X121627007Y-100002004D01*
X121603803Y-100007816D01*
X121580142Y-100011326D01*
X121556250Y-100012500D01*
X120643750Y-100012500D01*
X120619858Y-100011326D01*
X120596197Y-100007816D01*
X120572993Y-100002004D01*
X120550471Y-99993946D01*
X120528847Y-99983718D01*
X120508330Y-99971421D01*
X120489117Y-99957171D01*
X120471393Y-99941107D01*
X120455329Y-99923383D01*
X120441079Y-99904170D01*
X120428782Y-99883653D01*
X120418554Y-99862029D01*
X120410496Y-99839507D01*
X120404684Y-99816303D01*
X120401174Y-99792642D01*
X120400000Y-99768750D01*
X120400000Y-99281250D01*
X120401174Y-99257358D01*
X120404684Y-99233697D01*
X120410496Y-99210493D01*
X120418554Y-99187971D01*
X120428782Y-99166347D01*
X120441079Y-99145830D01*
X120455329Y-99126617D01*
X120471393Y-99108893D01*
X120489117Y-99092829D01*
X120508330Y-99078579D01*
X120528847Y-99066282D01*
X120550471Y-99056054D01*
X120572993Y-99047996D01*
X120596197Y-99042184D01*
X120619858Y-99038674D01*
X120643750Y-99037500D01*
X121556250Y-99037500D01*
X121580142Y-99038674D01*
X121580142Y-99038674D01*
G37*
D11*
X121100000Y-99525000D03*
D12*
X124700000Y-118155000D03*
X124700000Y-116885000D03*
X124700000Y-115615000D03*
X124700000Y-114345000D03*
X124700000Y-113075000D03*
X124700000Y-111805000D03*
X124700000Y-110535000D03*
X124700000Y-109265000D03*
X124700000Y-107995000D03*
X124700000Y-106725000D03*
X124700000Y-105455000D03*
X124700000Y-104185000D03*
X124700000Y-102915000D03*
X124700000Y-101645000D03*
D13*
X127485000Y-100645000D03*
X128755000Y-100645000D03*
X130025000Y-100645000D03*
X131295000Y-100645000D03*
X132565000Y-100645000D03*
X133835000Y-100645000D03*
X135105000Y-100645000D03*
X136375000Y-100645000D03*
X137645000Y-100645000D03*
X138915000Y-100645000D03*
D12*
X141700000Y-101645000D03*
X141700000Y-102915000D03*
X141700000Y-104185000D03*
X141700000Y-105455000D03*
X141700000Y-106725000D03*
X141700000Y-107995000D03*
X141700000Y-109265000D03*
X141700000Y-110535000D03*
X141700000Y-111805000D03*
X141700000Y-113075000D03*
X141700000Y-114345000D03*
X141700000Y-115615000D03*
X141700000Y-116885000D03*
X141700000Y-118155000D03*
D14*
X134200000Y-110655000D03*
D10*
G36*
X134442642Y-78001174D02*
G01*
X134466303Y-78004684D01*
X134489507Y-78010496D01*
X134512029Y-78018554D01*
X134533653Y-78028782D01*
X134554170Y-78041079D01*
X134573383Y-78055329D01*
X134591107Y-78071393D01*
X134607171Y-78089117D01*
X134621421Y-78108330D01*
X134633718Y-78128847D01*
X134643946Y-78150471D01*
X134652004Y-78172993D01*
X134657816Y-78196197D01*
X134661326Y-78219858D01*
X134662500Y-78243750D01*
X134662500Y-79156250D01*
X134661326Y-79180142D01*
X134657816Y-79203803D01*
X134652004Y-79227007D01*
X134643946Y-79249529D01*
X134633718Y-79271153D01*
X134621421Y-79291670D01*
X134607171Y-79310883D01*
X134591107Y-79328607D01*
X134573383Y-79344671D01*
X134554170Y-79358921D01*
X134533653Y-79371218D01*
X134512029Y-79381446D01*
X134489507Y-79389504D01*
X134466303Y-79395316D01*
X134442642Y-79398826D01*
X134418750Y-79400000D01*
X133931250Y-79400000D01*
X133907358Y-79398826D01*
X133883697Y-79395316D01*
X133860493Y-79389504D01*
X133837971Y-79381446D01*
X133816347Y-79371218D01*
X133795830Y-79358921D01*
X133776617Y-79344671D01*
X133758893Y-79328607D01*
X133742829Y-79310883D01*
X133728579Y-79291670D01*
X133716282Y-79271153D01*
X133706054Y-79249529D01*
X133697996Y-79227007D01*
X133692184Y-79203803D01*
X133688674Y-79180142D01*
X133687500Y-79156250D01*
X133687500Y-78243750D01*
X133688674Y-78219858D01*
X133692184Y-78196197D01*
X133697996Y-78172993D01*
X133706054Y-78150471D01*
X133716282Y-78128847D01*
X133728579Y-78108330D01*
X133742829Y-78089117D01*
X133758893Y-78071393D01*
X133776617Y-78055329D01*
X133795830Y-78041079D01*
X133816347Y-78028782D01*
X133837971Y-78018554D01*
X133860493Y-78010496D01*
X133883697Y-78004684D01*
X133907358Y-78001174D01*
X133931250Y-78000000D01*
X134418750Y-78000000D01*
X134442642Y-78001174D01*
X134442642Y-78001174D01*
G37*
D11*
X134175000Y-78700000D03*
D10*
G36*
X132567642Y-78001174D02*
G01*
X132591303Y-78004684D01*
X132614507Y-78010496D01*
X132637029Y-78018554D01*
X132658653Y-78028782D01*
X132679170Y-78041079D01*
X132698383Y-78055329D01*
X132716107Y-78071393D01*
X132732171Y-78089117D01*
X132746421Y-78108330D01*
X132758718Y-78128847D01*
X132768946Y-78150471D01*
X132777004Y-78172993D01*
X132782816Y-78196197D01*
X132786326Y-78219858D01*
X132787500Y-78243750D01*
X132787500Y-79156250D01*
X132786326Y-79180142D01*
X132782816Y-79203803D01*
X132777004Y-79227007D01*
X132768946Y-79249529D01*
X132758718Y-79271153D01*
X132746421Y-79291670D01*
X132732171Y-79310883D01*
X132716107Y-79328607D01*
X132698383Y-79344671D01*
X132679170Y-79358921D01*
X132658653Y-79371218D01*
X132637029Y-79381446D01*
X132614507Y-79389504D01*
X132591303Y-79395316D01*
X132567642Y-79398826D01*
X132543750Y-79400000D01*
X132056250Y-79400000D01*
X132032358Y-79398826D01*
X132008697Y-79395316D01*
X131985493Y-79389504D01*
X131962971Y-79381446D01*
X131941347Y-79371218D01*
X131920830Y-79358921D01*
X131901617Y-79344671D01*
X131883893Y-79328607D01*
X131867829Y-79310883D01*
X131853579Y-79291670D01*
X131841282Y-79271153D01*
X131831054Y-79249529D01*
X131822996Y-79227007D01*
X131817184Y-79203803D01*
X131813674Y-79180142D01*
X131812500Y-79156250D01*
X131812500Y-78243750D01*
X131813674Y-78219858D01*
X131817184Y-78196197D01*
X131822996Y-78172993D01*
X131831054Y-78150471D01*
X131841282Y-78128847D01*
X131853579Y-78108330D01*
X131867829Y-78089117D01*
X131883893Y-78071393D01*
X131901617Y-78055329D01*
X131920830Y-78041079D01*
X131941347Y-78028782D01*
X131962971Y-78018554D01*
X131985493Y-78010496D01*
X132008697Y-78004684D01*
X132032358Y-78001174D01*
X132056250Y-78000000D01*
X132543750Y-78000000D01*
X132567642Y-78001174D01*
X132567642Y-78001174D01*
G37*
D11*
X132300000Y-78700000D03*
D10*
G36*
X121580142Y-107276174D02*
G01*
X121603803Y-107279684D01*
X121627007Y-107285496D01*
X121649529Y-107293554D01*
X121671153Y-107303782D01*
X121691670Y-107316079D01*
X121710883Y-107330329D01*
X121728607Y-107346393D01*
X121744671Y-107364117D01*
X121758921Y-107383330D01*
X121771218Y-107403847D01*
X121781446Y-107425471D01*
X121789504Y-107447993D01*
X121795316Y-107471197D01*
X121798826Y-107494858D01*
X121800000Y-107518750D01*
X121800000Y-108006250D01*
X121798826Y-108030142D01*
X121795316Y-108053803D01*
X121789504Y-108077007D01*
X121781446Y-108099529D01*
X121771218Y-108121153D01*
X121758921Y-108141670D01*
X121744671Y-108160883D01*
X121728607Y-108178607D01*
X121710883Y-108194671D01*
X121691670Y-108208921D01*
X121671153Y-108221218D01*
X121649529Y-108231446D01*
X121627007Y-108239504D01*
X121603803Y-108245316D01*
X121580142Y-108248826D01*
X121556250Y-108250000D01*
X120643750Y-108250000D01*
X120619858Y-108248826D01*
X120596197Y-108245316D01*
X120572993Y-108239504D01*
X120550471Y-108231446D01*
X120528847Y-108221218D01*
X120508330Y-108208921D01*
X120489117Y-108194671D01*
X120471393Y-108178607D01*
X120455329Y-108160883D01*
X120441079Y-108141670D01*
X120428782Y-108121153D01*
X120418554Y-108099529D01*
X120410496Y-108077007D01*
X120404684Y-108053803D01*
X120401174Y-108030142D01*
X120400000Y-108006250D01*
X120400000Y-107518750D01*
X120401174Y-107494858D01*
X120404684Y-107471197D01*
X120410496Y-107447993D01*
X120418554Y-107425471D01*
X120428782Y-107403847D01*
X120441079Y-107383330D01*
X120455329Y-107364117D01*
X120471393Y-107346393D01*
X120489117Y-107330329D01*
X120508330Y-107316079D01*
X120528847Y-107303782D01*
X120550471Y-107293554D01*
X120572993Y-107285496D01*
X120596197Y-107279684D01*
X120619858Y-107276174D01*
X120643750Y-107275000D01*
X121556250Y-107275000D01*
X121580142Y-107276174D01*
X121580142Y-107276174D01*
G37*
D11*
X121100000Y-107762500D03*
D10*
G36*
X121580142Y-109151174D02*
G01*
X121603803Y-109154684D01*
X121627007Y-109160496D01*
X121649529Y-109168554D01*
X121671153Y-109178782D01*
X121691670Y-109191079D01*
X121710883Y-109205329D01*
X121728607Y-109221393D01*
X121744671Y-109239117D01*
X121758921Y-109258330D01*
X121771218Y-109278847D01*
X121781446Y-109300471D01*
X121789504Y-109322993D01*
X121795316Y-109346197D01*
X121798826Y-109369858D01*
X121800000Y-109393750D01*
X121800000Y-109881250D01*
X121798826Y-109905142D01*
X121795316Y-109928803D01*
X121789504Y-109952007D01*
X121781446Y-109974529D01*
X121771218Y-109996153D01*
X121758921Y-110016670D01*
X121744671Y-110035883D01*
X121728607Y-110053607D01*
X121710883Y-110069671D01*
X121691670Y-110083921D01*
X121671153Y-110096218D01*
X121649529Y-110106446D01*
X121627007Y-110114504D01*
X121603803Y-110120316D01*
X121580142Y-110123826D01*
X121556250Y-110125000D01*
X120643750Y-110125000D01*
X120619858Y-110123826D01*
X120596197Y-110120316D01*
X120572993Y-110114504D01*
X120550471Y-110106446D01*
X120528847Y-110096218D01*
X120508330Y-110083921D01*
X120489117Y-110069671D01*
X120471393Y-110053607D01*
X120455329Y-110035883D01*
X120441079Y-110016670D01*
X120428782Y-109996153D01*
X120418554Y-109974529D01*
X120410496Y-109952007D01*
X120404684Y-109928803D01*
X120401174Y-109905142D01*
X120400000Y-109881250D01*
X120400000Y-109393750D01*
X120401174Y-109369858D01*
X120404684Y-109346197D01*
X120410496Y-109322993D01*
X120418554Y-109300471D01*
X120428782Y-109278847D01*
X120441079Y-109258330D01*
X120455329Y-109239117D01*
X120471393Y-109221393D01*
X120489117Y-109205329D01*
X120508330Y-109191079D01*
X120528847Y-109178782D01*
X120550471Y-109168554D01*
X120572993Y-109160496D01*
X120596197Y-109154684D01*
X120619858Y-109151174D01*
X120643750Y-109150000D01*
X121556250Y-109150000D01*
X121580142Y-109151174D01*
X121580142Y-109151174D01*
G37*
D11*
X121100000Y-109637500D03*
M02*
