G04 #@! TF.GenerationSoftware,KiCad,Pcbnew,(5.1.2)-2*
G04 #@! TF.CreationDate,2019-12-09T19:40:43+00:00*
G04 #@! TF.ProjectId,main_pcb,6d61696e-5f70-4636-922e-6b696361645f,rev?*
G04 #@! TF.SameCoordinates,Original*
G04 #@! TF.FileFunction,Paste,Bot*
G04 #@! TF.FilePolarity,Positive*
%FSLAX46Y46*%
G04 Gerber Fmt 4.6, Leading zero omitted, Abs format (unit mm)*
G04 Created by KiCad (PCBNEW (5.1.2)-2) date 2019-12-09 19:40:43*
%MOMM*%
%LPD*%
G04 APERTURE LIST*
%ADD10C,0.100000*%
%ADD11C,0.975000*%
%ADD12R,0.800000X2.000000*%
%ADD13C,0.750000*%
%ADD14R,1.500000X1.000000*%
%ADD15R,1.500000X0.700000*%
%ADD16R,1.450000X0.450000*%
%ADD17R,1.475000X0.450000*%
%ADD18R,0.600000X0.300000*%
%ADD19R,0.300000X0.600000*%
G04 APERTURE END LIST*
D10*
G36*
X139080142Y-69713674D02*
G01*
X139103803Y-69717184D01*
X139127007Y-69722996D01*
X139149529Y-69731054D01*
X139171153Y-69741282D01*
X139191670Y-69753579D01*
X139210883Y-69767829D01*
X139228607Y-69783893D01*
X139244671Y-69801617D01*
X139258921Y-69820830D01*
X139271218Y-69841347D01*
X139281446Y-69862971D01*
X139289504Y-69885493D01*
X139295316Y-69908697D01*
X139298826Y-69932358D01*
X139300000Y-69956250D01*
X139300000Y-70443750D01*
X139298826Y-70467642D01*
X139295316Y-70491303D01*
X139289504Y-70514507D01*
X139281446Y-70537029D01*
X139271218Y-70558653D01*
X139258921Y-70579170D01*
X139244671Y-70598383D01*
X139228607Y-70616107D01*
X139210883Y-70632171D01*
X139191670Y-70646421D01*
X139171153Y-70658718D01*
X139149529Y-70668946D01*
X139127007Y-70677004D01*
X139103803Y-70682816D01*
X139080142Y-70686326D01*
X139056250Y-70687500D01*
X138143750Y-70687500D01*
X138119858Y-70686326D01*
X138096197Y-70682816D01*
X138072993Y-70677004D01*
X138050471Y-70668946D01*
X138028847Y-70658718D01*
X138008330Y-70646421D01*
X137989117Y-70632171D01*
X137971393Y-70616107D01*
X137955329Y-70598383D01*
X137941079Y-70579170D01*
X137928782Y-70558653D01*
X137918554Y-70537029D01*
X137910496Y-70514507D01*
X137904684Y-70491303D01*
X137901174Y-70467642D01*
X137900000Y-70443750D01*
X137900000Y-69956250D01*
X137901174Y-69932358D01*
X137904684Y-69908697D01*
X137910496Y-69885493D01*
X137918554Y-69862971D01*
X137928782Y-69841347D01*
X137941079Y-69820830D01*
X137955329Y-69801617D01*
X137971393Y-69783893D01*
X137989117Y-69767829D01*
X138008330Y-69753579D01*
X138028847Y-69741282D01*
X138050471Y-69731054D01*
X138072993Y-69722996D01*
X138096197Y-69717184D01*
X138119858Y-69713674D01*
X138143750Y-69712500D01*
X139056250Y-69712500D01*
X139080142Y-69713674D01*
X139080142Y-69713674D01*
G37*
D11*
X138600000Y-70200000D03*
D10*
G36*
X139080142Y-71588674D02*
G01*
X139103803Y-71592184D01*
X139127007Y-71597996D01*
X139149529Y-71606054D01*
X139171153Y-71616282D01*
X139191670Y-71628579D01*
X139210883Y-71642829D01*
X139228607Y-71658893D01*
X139244671Y-71676617D01*
X139258921Y-71695830D01*
X139271218Y-71716347D01*
X139281446Y-71737971D01*
X139289504Y-71760493D01*
X139295316Y-71783697D01*
X139298826Y-71807358D01*
X139300000Y-71831250D01*
X139300000Y-72318750D01*
X139298826Y-72342642D01*
X139295316Y-72366303D01*
X139289504Y-72389507D01*
X139281446Y-72412029D01*
X139271218Y-72433653D01*
X139258921Y-72454170D01*
X139244671Y-72473383D01*
X139228607Y-72491107D01*
X139210883Y-72507171D01*
X139191670Y-72521421D01*
X139171153Y-72533718D01*
X139149529Y-72543946D01*
X139127007Y-72552004D01*
X139103803Y-72557816D01*
X139080142Y-72561326D01*
X139056250Y-72562500D01*
X138143750Y-72562500D01*
X138119858Y-72561326D01*
X138096197Y-72557816D01*
X138072993Y-72552004D01*
X138050471Y-72543946D01*
X138028847Y-72533718D01*
X138008330Y-72521421D01*
X137989117Y-72507171D01*
X137971393Y-72491107D01*
X137955329Y-72473383D01*
X137941079Y-72454170D01*
X137928782Y-72433653D01*
X137918554Y-72412029D01*
X137910496Y-72389507D01*
X137904684Y-72366303D01*
X137901174Y-72342642D01*
X137900000Y-72318750D01*
X137900000Y-71831250D01*
X137901174Y-71807358D01*
X137904684Y-71783697D01*
X137910496Y-71760493D01*
X137918554Y-71737971D01*
X137928782Y-71716347D01*
X137941079Y-71695830D01*
X137955329Y-71676617D01*
X137971393Y-71658893D01*
X137989117Y-71642829D01*
X138008330Y-71628579D01*
X138028847Y-71616282D01*
X138050471Y-71606054D01*
X138072993Y-71597996D01*
X138096197Y-71592184D01*
X138119858Y-71588674D01*
X138143750Y-71587500D01*
X139056250Y-71587500D01*
X139080142Y-71588674D01*
X139080142Y-71588674D01*
G37*
D11*
X138600000Y-72075000D03*
D10*
G36*
X121580142Y-104688674D02*
G01*
X121603803Y-104692184D01*
X121627007Y-104697996D01*
X121649529Y-104706054D01*
X121671153Y-104716282D01*
X121691670Y-104728579D01*
X121710883Y-104742829D01*
X121728607Y-104758893D01*
X121744671Y-104776617D01*
X121758921Y-104795830D01*
X121771218Y-104816347D01*
X121781446Y-104837971D01*
X121789504Y-104860493D01*
X121795316Y-104883697D01*
X121798826Y-104907358D01*
X121800000Y-104931250D01*
X121800000Y-105418750D01*
X121798826Y-105442642D01*
X121795316Y-105466303D01*
X121789504Y-105489507D01*
X121781446Y-105512029D01*
X121771218Y-105533653D01*
X121758921Y-105554170D01*
X121744671Y-105573383D01*
X121728607Y-105591107D01*
X121710883Y-105607171D01*
X121691670Y-105621421D01*
X121671153Y-105633718D01*
X121649529Y-105643946D01*
X121627007Y-105652004D01*
X121603803Y-105657816D01*
X121580142Y-105661326D01*
X121556250Y-105662500D01*
X120643750Y-105662500D01*
X120619858Y-105661326D01*
X120596197Y-105657816D01*
X120572993Y-105652004D01*
X120550471Y-105643946D01*
X120528847Y-105633718D01*
X120508330Y-105621421D01*
X120489117Y-105607171D01*
X120471393Y-105591107D01*
X120455329Y-105573383D01*
X120441079Y-105554170D01*
X120428782Y-105533653D01*
X120418554Y-105512029D01*
X120410496Y-105489507D01*
X120404684Y-105466303D01*
X120401174Y-105442642D01*
X120400000Y-105418750D01*
X120400000Y-104931250D01*
X120401174Y-104907358D01*
X120404684Y-104883697D01*
X120410496Y-104860493D01*
X120418554Y-104837971D01*
X120428782Y-104816347D01*
X120441079Y-104795830D01*
X120455329Y-104776617D01*
X120471393Y-104758893D01*
X120489117Y-104742829D01*
X120508330Y-104728579D01*
X120528847Y-104716282D01*
X120550471Y-104706054D01*
X120572993Y-104697996D01*
X120596197Y-104692184D01*
X120619858Y-104688674D01*
X120643750Y-104687500D01*
X121556250Y-104687500D01*
X121580142Y-104688674D01*
X121580142Y-104688674D01*
G37*
D11*
X121100000Y-105175000D03*
D10*
G36*
X121580142Y-102813674D02*
G01*
X121603803Y-102817184D01*
X121627007Y-102822996D01*
X121649529Y-102831054D01*
X121671153Y-102841282D01*
X121691670Y-102853579D01*
X121710883Y-102867829D01*
X121728607Y-102883893D01*
X121744671Y-102901617D01*
X121758921Y-102920830D01*
X121771218Y-102941347D01*
X121781446Y-102962971D01*
X121789504Y-102985493D01*
X121795316Y-103008697D01*
X121798826Y-103032358D01*
X121800000Y-103056250D01*
X121800000Y-103543750D01*
X121798826Y-103567642D01*
X121795316Y-103591303D01*
X121789504Y-103614507D01*
X121781446Y-103637029D01*
X121771218Y-103658653D01*
X121758921Y-103679170D01*
X121744671Y-103698383D01*
X121728607Y-103716107D01*
X121710883Y-103732171D01*
X121691670Y-103746421D01*
X121671153Y-103758718D01*
X121649529Y-103768946D01*
X121627007Y-103777004D01*
X121603803Y-103782816D01*
X121580142Y-103786326D01*
X121556250Y-103787500D01*
X120643750Y-103787500D01*
X120619858Y-103786326D01*
X120596197Y-103782816D01*
X120572993Y-103777004D01*
X120550471Y-103768946D01*
X120528847Y-103758718D01*
X120508330Y-103746421D01*
X120489117Y-103732171D01*
X120471393Y-103716107D01*
X120455329Y-103698383D01*
X120441079Y-103679170D01*
X120428782Y-103658653D01*
X120418554Y-103637029D01*
X120410496Y-103614507D01*
X120404684Y-103591303D01*
X120401174Y-103567642D01*
X120400000Y-103543750D01*
X120400000Y-103056250D01*
X120401174Y-103032358D01*
X120404684Y-103008697D01*
X120410496Y-102985493D01*
X120418554Y-102962971D01*
X120428782Y-102941347D01*
X120441079Y-102920830D01*
X120455329Y-102901617D01*
X120471393Y-102883893D01*
X120489117Y-102867829D01*
X120508330Y-102853579D01*
X120528847Y-102841282D01*
X120550471Y-102831054D01*
X120572993Y-102822996D01*
X120596197Y-102817184D01*
X120619858Y-102813674D01*
X120643750Y-102812500D01*
X121556250Y-102812500D01*
X121580142Y-102813674D01*
X121580142Y-102813674D01*
G37*
D11*
X121100000Y-103300000D03*
D10*
G36*
X121580142Y-100913674D02*
G01*
X121603803Y-100917184D01*
X121627007Y-100922996D01*
X121649529Y-100931054D01*
X121671153Y-100941282D01*
X121691670Y-100953579D01*
X121710883Y-100967829D01*
X121728607Y-100983893D01*
X121744671Y-101001617D01*
X121758921Y-101020830D01*
X121771218Y-101041347D01*
X121781446Y-101062971D01*
X121789504Y-101085493D01*
X121795316Y-101108697D01*
X121798826Y-101132358D01*
X121800000Y-101156250D01*
X121800000Y-101643750D01*
X121798826Y-101667642D01*
X121795316Y-101691303D01*
X121789504Y-101714507D01*
X121781446Y-101737029D01*
X121771218Y-101758653D01*
X121758921Y-101779170D01*
X121744671Y-101798383D01*
X121728607Y-101816107D01*
X121710883Y-101832171D01*
X121691670Y-101846421D01*
X121671153Y-101858718D01*
X121649529Y-101868946D01*
X121627007Y-101877004D01*
X121603803Y-101882816D01*
X121580142Y-101886326D01*
X121556250Y-101887500D01*
X120643750Y-101887500D01*
X120619858Y-101886326D01*
X120596197Y-101882816D01*
X120572993Y-101877004D01*
X120550471Y-101868946D01*
X120528847Y-101858718D01*
X120508330Y-101846421D01*
X120489117Y-101832171D01*
X120471393Y-101816107D01*
X120455329Y-101798383D01*
X120441079Y-101779170D01*
X120428782Y-101758653D01*
X120418554Y-101737029D01*
X120410496Y-101714507D01*
X120404684Y-101691303D01*
X120401174Y-101667642D01*
X120400000Y-101643750D01*
X120400000Y-101156250D01*
X120401174Y-101132358D01*
X120404684Y-101108697D01*
X120410496Y-101085493D01*
X120418554Y-101062971D01*
X120428782Y-101041347D01*
X120441079Y-101020830D01*
X120455329Y-101001617D01*
X120471393Y-100983893D01*
X120489117Y-100967829D01*
X120508330Y-100953579D01*
X120528847Y-100941282D01*
X120550471Y-100931054D01*
X120572993Y-100922996D01*
X120596197Y-100917184D01*
X120619858Y-100913674D01*
X120643750Y-100912500D01*
X121556250Y-100912500D01*
X121580142Y-100913674D01*
X121580142Y-100913674D01*
G37*
D11*
X121100000Y-101400000D03*
D10*
G36*
X121580142Y-99038674D02*
G01*
X121603803Y-99042184D01*
X121627007Y-99047996D01*
X121649529Y-99056054D01*
X121671153Y-99066282D01*
X121691670Y-99078579D01*
X121710883Y-99092829D01*
X121728607Y-99108893D01*
X121744671Y-99126617D01*
X121758921Y-99145830D01*
X121771218Y-99166347D01*
X121781446Y-99187971D01*
X121789504Y-99210493D01*
X121795316Y-99233697D01*
X121798826Y-99257358D01*
X121800000Y-99281250D01*
X121800000Y-99768750D01*
X121798826Y-99792642D01*
X121795316Y-99816303D01*
X121789504Y-99839507D01*
X121781446Y-99862029D01*
X121771218Y-99883653D01*
X121758921Y-99904170D01*
X121744671Y-99923383D01*
X121728607Y-99941107D01*
X121710883Y-99957171D01*
X121691670Y-99971421D01*
X121671153Y-99983718D01*
X121649529Y-99993946D01*
X121627007Y-100002004D01*
X121603803Y-100007816D01*
X121580142Y-100011326D01*
X121556250Y-100012500D01*
X120643750Y-100012500D01*
X120619858Y-100011326D01*
X120596197Y-100007816D01*
X120572993Y-100002004D01*
X120550471Y-99993946D01*
X120528847Y-99983718D01*
X120508330Y-99971421D01*
X120489117Y-99957171D01*
X120471393Y-99941107D01*
X120455329Y-99923383D01*
X120441079Y-99904170D01*
X120428782Y-99883653D01*
X120418554Y-99862029D01*
X120410496Y-99839507D01*
X120404684Y-99816303D01*
X120401174Y-99792642D01*
X120400000Y-99768750D01*
X120400000Y-99281250D01*
X120401174Y-99257358D01*
X120404684Y-99233697D01*
X120410496Y-99210493D01*
X120418554Y-99187971D01*
X120428782Y-99166347D01*
X120441079Y-99145830D01*
X120455329Y-99126617D01*
X120471393Y-99108893D01*
X120489117Y-99092829D01*
X120508330Y-99078579D01*
X120528847Y-99066282D01*
X120550471Y-99056054D01*
X120572993Y-99047996D01*
X120596197Y-99042184D01*
X120619858Y-99038674D01*
X120643750Y-99037500D01*
X121556250Y-99037500D01*
X121580142Y-99038674D01*
X121580142Y-99038674D01*
G37*
D11*
X121100000Y-99525000D03*
D12*
X129500000Y-116300000D03*
D13*
X128725000Y-116300000D03*
D10*
G36*
X128350000Y-115800000D02*
G01*
X129100000Y-115300000D01*
X129100000Y-117300000D01*
X128350000Y-116800000D01*
X128350000Y-115800000D01*
X128350000Y-115800000D01*
G37*
D14*
X131350000Y-116300000D03*
D15*
X127650000Y-114800000D03*
D14*
X127650000Y-116300000D03*
D15*
X127650000Y-117800000D03*
X131350000Y-114800000D03*
X131350000Y-117800000D03*
D13*
X130275000Y-116300000D03*
D10*
G36*
X130650000Y-116800000D02*
G01*
X129900000Y-117300000D01*
X129900000Y-115300000D01*
X130650000Y-115800000D01*
X130650000Y-116800000D01*
X130650000Y-116800000D01*
G37*
G36*
X139742642Y-79201174D02*
G01*
X139766303Y-79204684D01*
X139789507Y-79210496D01*
X139812029Y-79218554D01*
X139833653Y-79228782D01*
X139854170Y-79241079D01*
X139873383Y-79255329D01*
X139891107Y-79271393D01*
X139907171Y-79289117D01*
X139921421Y-79308330D01*
X139933718Y-79328847D01*
X139943946Y-79350471D01*
X139952004Y-79372993D01*
X139957816Y-79396197D01*
X139961326Y-79419858D01*
X139962500Y-79443750D01*
X139962500Y-80356250D01*
X139961326Y-80380142D01*
X139957816Y-80403803D01*
X139952004Y-80427007D01*
X139943946Y-80449529D01*
X139933718Y-80471153D01*
X139921421Y-80491670D01*
X139907171Y-80510883D01*
X139891107Y-80528607D01*
X139873383Y-80544671D01*
X139854170Y-80558921D01*
X139833653Y-80571218D01*
X139812029Y-80581446D01*
X139789507Y-80589504D01*
X139766303Y-80595316D01*
X139742642Y-80598826D01*
X139718750Y-80600000D01*
X139231250Y-80600000D01*
X139207358Y-80598826D01*
X139183697Y-80595316D01*
X139160493Y-80589504D01*
X139137971Y-80581446D01*
X139116347Y-80571218D01*
X139095830Y-80558921D01*
X139076617Y-80544671D01*
X139058893Y-80528607D01*
X139042829Y-80510883D01*
X139028579Y-80491670D01*
X139016282Y-80471153D01*
X139006054Y-80449529D01*
X138997996Y-80427007D01*
X138992184Y-80403803D01*
X138988674Y-80380142D01*
X138987500Y-80356250D01*
X138987500Y-79443750D01*
X138988674Y-79419858D01*
X138992184Y-79396197D01*
X138997996Y-79372993D01*
X139006054Y-79350471D01*
X139016282Y-79328847D01*
X139028579Y-79308330D01*
X139042829Y-79289117D01*
X139058893Y-79271393D01*
X139076617Y-79255329D01*
X139095830Y-79241079D01*
X139116347Y-79228782D01*
X139137971Y-79218554D01*
X139160493Y-79210496D01*
X139183697Y-79204684D01*
X139207358Y-79201174D01*
X139231250Y-79200000D01*
X139718750Y-79200000D01*
X139742642Y-79201174D01*
X139742642Y-79201174D01*
G37*
D11*
X139475000Y-79900000D03*
D10*
G36*
X137867642Y-79201174D02*
G01*
X137891303Y-79204684D01*
X137914507Y-79210496D01*
X137937029Y-79218554D01*
X137958653Y-79228782D01*
X137979170Y-79241079D01*
X137998383Y-79255329D01*
X138016107Y-79271393D01*
X138032171Y-79289117D01*
X138046421Y-79308330D01*
X138058718Y-79328847D01*
X138068946Y-79350471D01*
X138077004Y-79372993D01*
X138082816Y-79396197D01*
X138086326Y-79419858D01*
X138087500Y-79443750D01*
X138087500Y-80356250D01*
X138086326Y-80380142D01*
X138082816Y-80403803D01*
X138077004Y-80427007D01*
X138068946Y-80449529D01*
X138058718Y-80471153D01*
X138046421Y-80491670D01*
X138032171Y-80510883D01*
X138016107Y-80528607D01*
X137998383Y-80544671D01*
X137979170Y-80558921D01*
X137958653Y-80571218D01*
X137937029Y-80581446D01*
X137914507Y-80589504D01*
X137891303Y-80595316D01*
X137867642Y-80598826D01*
X137843750Y-80600000D01*
X137356250Y-80600000D01*
X137332358Y-80598826D01*
X137308697Y-80595316D01*
X137285493Y-80589504D01*
X137262971Y-80581446D01*
X137241347Y-80571218D01*
X137220830Y-80558921D01*
X137201617Y-80544671D01*
X137183893Y-80528607D01*
X137167829Y-80510883D01*
X137153579Y-80491670D01*
X137141282Y-80471153D01*
X137131054Y-80449529D01*
X137122996Y-80427007D01*
X137117184Y-80403803D01*
X137113674Y-80380142D01*
X137112500Y-80356250D01*
X137112500Y-79443750D01*
X137113674Y-79419858D01*
X137117184Y-79396197D01*
X137122996Y-79372993D01*
X137131054Y-79350471D01*
X137141282Y-79328847D01*
X137153579Y-79308330D01*
X137167829Y-79289117D01*
X137183893Y-79271393D01*
X137201617Y-79255329D01*
X137220830Y-79241079D01*
X137241347Y-79228782D01*
X137262971Y-79218554D01*
X137285493Y-79210496D01*
X137308697Y-79204684D01*
X137332358Y-79201174D01*
X137356250Y-79200000D01*
X137843750Y-79200000D01*
X137867642Y-79201174D01*
X137867642Y-79201174D01*
G37*
D11*
X137600000Y-79900000D03*
D10*
G36*
X142392642Y-80601174D02*
G01*
X142416303Y-80604684D01*
X142439507Y-80610496D01*
X142462029Y-80618554D01*
X142483653Y-80628782D01*
X142504170Y-80641079D01*
X142523383Y-80655329D01*
X142541107Y-80671393D01*
X142557171Y-80689117D01*
X142571421Y-80708330D01*
X142583718Y-80728847D01*
X142593946Y-80750471D01*
X142602004Y-80772993D01*
X142607816Y-80796197D01*
X142611326Y-80819858D01*
X142612500Y-80843750D01*
X142612500Y-81756250D01*
X142611326Y-81780142D01*
X142607816Y-81803803D01*
X142602004Y-81827007D01*
X142593946Y-81849529D01*
X142583718Y-81871153D01*
X142571421Y-81891670D01*
X142557171Y-81910883D01*
X142541107Y-81928607D01*
X142523383Y-81944671D01*
X142504170Y-81958921D01*
X142483653Y-81971218D01*
X142462029Y-81981446D01*
X142439507Y-81989504D01*
X142416303Y-81995316D01*
X142392642Y-81998826D01*
X142368750Y-82000000D01*
X141881250Y-82000000D01*
X141857358Y-81998826D01*
X141833697Y-81995316D01*
X141810493Y-81989504D01*
X141787971Y-81981446D01*
X141766347Y-81971218D01*
X141745830Y-81958921D01*
X141726617Y-81944671D01*
X141708893Y-81928607D01*
X141692829Y-81910883D01*
X141678579Y-81891670D01*
X141666282Y-81871153D01*
X141656054Y-81849529D01*
X141647996Y-81827007D01*
X141642184Y-81803803D01*
X141638674Y-81780142D01*
X141637500Y-81756250D01*
X141637500Y-80843750D01*
X141638674Y-80819858D01*
X141642184Y-80796197D01*
X141647996Y-80772993D01*
X141656054Y-80750471D01*
X141666282Y-80728847D01*
X141678579Y-80708330D01*
X141692829Y-80689117D01*
X141708893Y-80671393D01*
X141726617Y-80655329D01*
X141745830Y-80641079D01*
X141766347Y-80628782D01*
X141787971Y-80618554D01*
X141810493Y-80610496D01*
X141833697Y-80604684D01*
X141857358Y-80601174D01*
X141881250Y-80600000D01*
X142368750Y-80600000D01*
X142392642Y-80601174D01*
X142392642Y-80601174D01*
G37*
D11*
X142125000Y-81300000D03*
D10*
G36*
X144267642Y-80601174D02*
G01*
X144291303Y-80604684D01*
X144314507Y-80610496D01*
X144337029Y-80618554D01*
X144358653Y-80628782D01*
X144379170Y-80641079D01*
X144398383Y-80655329D01*
X144416107Y-80671393D01*
X144432171Y-80689117D01*
X144446421Y-80708330D01*
X144458718Y-80728847D01*
X144468946Y-80750471D01*
X144477004Y-80772993D01*
X144482816Y-80796197D01*
X144486326Y-80819858D01*
X144487500Y-80843750D01*
X144487500Y-81756250D01*
X144486326Y-81780142D01*
X144482816Y-81803803D01*
X144477004Y-81827007D01*
X144468946Y-81849529D01*
X144458718Y-81871153D01*
X144446421Y-81891670D01*
X144432171Y-81910883D01*
X144416107Y-81928607D01*
X144398383Y-81944671D01*
X144379170Y-81958921D01*
X144358653Y-81971218D01*
X144337029Y-81981446D01*
X144314507Y-81989504D01*
X144291303Y-81995316D01*
X144267642Y-81998826D01*
X144243750Y-82000000D01*
X143756250Y-82000000D01*
X143732358Y-81998826D01*
X143708697Y-81995316D01*
X143685493Y-81989504D01*
X143662971Y-81981446D01*
X143641347Y-81971218D01*
X143620830Y-81958921D01*
X143601617Y-81944671D01*
X143583893Y-81928607D01*
X143567829Y-81910883D01*
X143553579Y-81891670D01*
X143541282Y-81871153D01*
X143531054Y-81849529D01*
X143522996Y-81827007D01*
X143517184Y-81803803D01*
X143513674Y-81780142D01*
X143512500Y-81756250D01*
X143512500Y-80843750D01*
X143513674Y-80819858D01*
X143517184Y-80796197D01*
X143522996Y-80772993D01*
X143531054Y-80750471D01*
X143541282Y-80728847D01*
X143553579Y-80708330D01*
X143567829Y-80689117D01*
X143583893Y-80671393D01*
X143601617Y-80655329D01*
X143620830Y-80641079D01*
X143641347Y-80628782D01*
X143662971Y-80618554D01*
X143685493Y-80610496D01*
X143708697Y-80604684D01*
X143732358Y-80601174D01*
X143756250Y-80600000D01*
X144243750Y-80600000D01*
X144267642Y-80601174D01*
X144267642Y-80601174D01*
G37*
D11*
X144000000Y-81300000D03*
D10*
G36*
X134405142Y-78801174D02*
G01*
X134428803Y-78804684D01*
X134452007Y-78810496D01*
X134474529Y-78818554D01*
X134496153Y-78828782D01*
X134516670Y-78841079D01*
X134535883Y-78855329D01*
X134553607Y-78871393D01*
X134569671Y-78889117D01*
X134583921Y-78908330D01*
X134596218Y-78928847D01*
X134606446Y-78950471D01*
X134614504Y-78972993D01*
X134620316Y-78996197D01*
X134623826Y-79019858D01*
X134625000Y-79043750D01*
X134625000Y-79956250D01*
X134623826Y-79980142D01*
X134620316Y-80003803D01*
X134614504Y-80027007D01*
X134606446Y-80049529D01*
X134596218Y-80071153D01*
X134583921Y-80091670D01*
X134569671Y-80110883D01*
X134553607Y-80128607D01*
X134535883Y-80144671D01*
X134516670Y-80158921D01*
X134496153Y-80171218D01*
X134474529Y-80181446D01*
X134452007Y-80189504D01*
X134428803Y-80195316D01*
X134405142Y-80198826D01*
X134381250Y-80200000D01*
X133893750Y-80200000D01*
X133869858Y-80198826D01*
X133846197Y-80195316D01*
X133822993Y-80189504D01*
X133800471Y-80181446D01*
X133778847Y-80171218D01*
X133758330Y-80158921D01*
X133739117Y-80144671D01*
X133721393Y-80128607D01*
X133705329Y-80110883D01*
X133691079Y-80091670D01*
X133678782Y-80071153D01*
X133668554Y-80049529D01*
X133660496Y-80027007D01*
X133654684Y-80003803D01*
X133651174Y-79980142D01*
X133650000Y-79956250D01*
X133650000Y-79043750D01*
X133651174Y-79019858D01*
X133654684Y-78996197D01*
X133660496Y-78972993D01*
X133668554Y-78950471D01*
X133678782Y-78928847D01*
X133691079Y-78908330D01*
X133705329Y-78889117D01*
X133721393Y-78871393D01*
X133739117Y-78855329D01*
X133758330Y-78841079D01*
X133778847Y-78828782D01*
X133800471Y-78818554D01*
X133822993Y-78810496D01*
X133846197Y-78804684D01*
X133869858Y-78801174D01*
X133893750Y-78800000D01*
X134381250Y-78800000D01*
X134405142Y-78801174D01*
X134405142Y-78801174D01*
G37*
D11*
X134137500Y-79500000D03*
D10*
G36*
X132530142Y-78801174D02*
G01*
X132553803Y-78804684D01*
X132577007Y-78810496D01*
X132599529Y-78818554D01*
X132621153Y-78828782D01*
X132641670Y-78841079D01*
X132660883Y-78855329D01*
X132678607Y-78871393D01*
X132694671Y-78889117D01*
X132708921Y-78908330D01*
X132721218Y-78928847D01*
X132731446Y-78950471D01*
X132739504Y-78972993D01*
X132745316Y-78996197D01*
X132748826Y-79019858D01*
X132750000Y-79043750D01*
X132750000Y-79956250D01*
X132748826Y-79980142D01*
X132745316Y-80003803D01*
X132739504Y-80027007D01*
X132731446Y-80049529D01*
X132721218Y-80071153D01*
X132708921Y-80091670D01*
X132694671Y-80110883D01*
X132678607Y-80128607D01*
X132660883Y-80144671D01*
X132641670Y-80158921D01*
X132621153Y-80171218D01*
X132599529Y-80181446D01*
X132577007Y-80189504D01*
X132553803Y-80195316D01*
X132530142Y-80198826D01*
X132506250Y-80200000D01*
X132018750Y-80200000D01*
X131994858Y-80198826D01*
X131971197Y-80195316D01*
X131947993Y-80189504D01*
X131925471Y-80181446D01*
X131903847Y-80171218D01*
X131883330Y-80158921D01*
X131864117Y-80144671D01*
X131846393Y-80128607D01*
X131830329Y-80110883D01*
X131816079Y-80091670D01*
X131803782Y-80071153D01*
X131793554Y-80049529D01*
X131785496Y-80027007D01*
X131779684Y-80003803D01*
X131776174Y-79980142D01*
X131775000Y-79956250D01*
X131775000Y-79043750D01*
X131776174Y-79019858D01*
X131779684Y-78996197D01*
X131785496Y-78972993D01*
X131793554Y-78950471D01*
X131803782Y-78928847D01*
X131816079Y-78908330D01*
X131830329Y-78889117D01*
X131846393Y-78871393D01*
X131864117Y-78855329D01*
X131883330Y-78841079D01*
X131903847Y-78828782D01*
X131925471Y-78818554D01*
X131947993Y-78810496D01*
X131971197Y-78804684D01*
X131994858Y-78801174D01*
X132018750Y-78800000D01*
X132506250Y-78800000D01*
X132530142Y-78801174D01*
X132530142Y-78801174D01*
G37*
D11*
X132262500Y-79500000D03*
D10*
G36*
X127092642Y-79201174D02*
G01*
X127116303Y-79204684D01*
X127139507Y-79210496D01*
X127162029Y-79218554D01*
X127183653Y-79228782D01*
X127204170Y-79241079D01*
X127223383Y-79255329D01*
X127241107Y-79271393D01*
X127257171Y-79289117D01*
X127271421Y-79308330D01*
X127283718Y-79328847D01*
X127293946Y-79350471D01*
X127302004Y-79372993D01*
X127307816Y-79396197D01*
X127311326Y-79419858D01*
X127312500Y-79443750D01*
X127312500Y-80356250D01*
X127311326Y-80380142D01*
X127307816Y-80403803D01*
X127302004Y-80427007D01*
X127293946Y-80449529D01*
X127283718Y-80471153D01*
X127271421Y-80491670D01*
X127257171Y-80510883D01*
X127241107Y-80528607D01*
X127223383Y-80544671D01*
X127204170Y-80558921D01*
X127183653Y-80571218D01*
X127162029Y-80581446D01*
X127139507Y-80589504D01*
X127116303Y-80595316D01*
X127092642Y-80598826D01*
X127068750Y-80600000D01*
X126581250Y-80600000D01*
X126557358Y-80598826D01*
X126533697Y-80595316D01*
X126510493Y-80589504D01*
X126487971Y-80581446D01*
X126466347Y-80571218D01*
X126445830Y-80558921D01*
X126426617Y-80544671D01*
X126408893Y-80528607D01*
X126392829Y-80510883D01*
X126378579Y-80491670D01*
X126366282Y-80471153D01*
X126356054Y-80449529D01*
X126347996Y-80427007D01*
X126342184Y-80403803D01*
X126338674Y-80380142D01*
X126337500Y-80356250D01*
X126337500Y-79443750D01*
X126338674Y-79419858D01*
X126342184Y-79396197D01*
X126347996Y-79372993D01*
X126356054Y-79350471D01*
X126366282Y-79328847D01*
X126378579Y-79308330D01*
X126392829Y-79289117D01*
X126408893Y-79271393D01*
X126426617Y-79255329D01*
X126445830Y-79241079D01*
X126466347Y-79228782D01*
X126487971Y-79218554D01*
X126510493Y-79210496D01*
X126533697Y-79204684D01*
X126557358Y-79201174D01*
X126581250Y-79200000D01*
X127068750Y-79200000D01*
X127092642Y-79201174D01*
X127092642Y-79201174D01*
G37*
D11*
X126825000Y-79900000D03*
D10*
G36*
X128967642Y-79201174D02*
G01*
X128991303Y-79204684D01*
X129014507Y-79210496D01*
X129037029Y-79218554D01*
X129058653Y-79228782D01*
X129079170Y-79241079D01*
X129098383Y-79255329D01*
X129116107Y-79271393D01*
X129132171Y-79289117D01*
X129146421Y-79308330D01*
X129158718Y-79328847D01*
X129168946Y-79350471D01*
X129177004Y-79372993D01*
X129182816Y-79396197D01*
X129186326Y-79419858D01*
X129187500Y-79443750D01*
X129187500Y-80356250D01*
X129186326Y-80380142D01*
X129182816Y-80403803D01*
X129177004Y-80427007D01*
X129168946Y-80449529D01*
X129158718Y-80471153D01*
X129146421Y-80491670D01*
X129132171Y-80510883D01*
X129116107Y-80528607D01*
X129098383Y-80544671D01*
X129079170Y-80558921D01*
X129058653Y-80571218D01*
X129037029Y-80581446D01*
X129014507Y-80589504D01*
X128991303Y-80595316D01*
X128967642Y-80598826D01*
X128943750Y-80600000D01*
X128456250Y-80600000D01*
X128432358Y-80598826D01*
X128408697Y-80595316D01*
X128385493Y-80589504D01*
X128362971Y-80581446D01*
X128341347Y-80571218D01*
X128320830Y-80558921D01*
X128301617Y-80544671D01*
X128283893Y-80528607D01*
X128267829Y-80510883D01*
X128253579Y-80491670D01*
X128241282Y-80471153D01*
X128231054Y-80449529D01*
X128222996Y-80427007D01*
X128217184Y-80403803D01*
X128213674Y-80380142D01*
X128212500Y-80356250D01*
X128212500Y-79443750D01*
X128213674Y-79419858D01*
X128217184Y-79396197D01*
X128222996Y-79372993D01*
X128231054Y-79350471D01*
X128241282Y-79328847D01*
X128253579Y-79308330D01*
X128267829Y-79289117D01*
X128283893Y-79271393D01*
X128301617Y-79255329D01*
X128320830Y-79241079D01*
X128341347Y-79228782D01*
X128362971Y-79218554D01*
X128385493Y-79210496D01*
X128408697Y-79204684D01*
X128432358Y-79201174D01*
X128456250Y-79200000D01*
X128943750Y-79200000D01*
X128967642Y-79201174D01*
X128967642Y-79201174D01*
G37*
D11*
X128700000Y-79900000D03*
D10*
G36*
X124305142Y-80701174D02*
G01*
X124328803Y-80704684D01*
X124352007Y-80710496D01*
X124374529Y-80718554D01*
X124396153Y-80728782D01*
X124416670Y-80741079D01*
X124435883Y-80755329D01*
X124453607Y-80771393D01*
X124469671Y-80789117D01*
X124483921Y-80808330D01*
X124496218Y-80828847D01*
X124506446Y-80850471D01*
X124514504Y-80872993D01*
X124520316Y-80896197D01*
X124523826Y-80919858D01*
X124525000Y-80943750D01*
X124525000Y-81856250D01*
X124523826Y-81880142D01*
X124520316Y-81903803D01*
X124514504Y-81927007D01*
X124506446Y-81949529D01*
X124496218Y-81971153D01*
X124483921Y-81991670D01*
X124469671Y-82010883D01*
X124453607Y-82028607D01*
X124435883Y-82044671D01*
X124416670Y-82058921D01*
X124396153Y-82071218D01*
X124374529Y-82081446D01*
X124352007Y-82089504D01*
X124328803Y-82095316D01*
X124305142Y-82098826D01*
X124281250Y-82100000D01*
X123793750Y-82100000D01*
X123769858Y-82098826D01*
X123746197Y-82095316D01*
X123722993Y-82089504D01*
X123700471Y-82081446D01*
X123678847Y-82071218D01*
X123658330Y-82058921D01*
X123639117Y-82044671D01*
X123621393Y-82028607D01*
X123605329Y-82010883D01*
X123591079Y-81991670D01*
X123578782Y-81971153D01*
X123568554Y-81949529D01*
X123560496Y-81927007D01*
X123554684Y-81903803D01*
X123551174Y-81880142D01*
X123550000Y-81856250D01*
X123550000Y-80943750D01*
X123551174Y-80919858D01*
X123554684Y-80896197D01*
X123560496Y-80872993D01*
X123568554Y-80850471D01*
X123578782Y-80828847D01*
X123591079Y-80808330D01*
X123605329Y-80789117D01*
X123621393Y-80771393D01*
X123639117Y-80755329D01*
X123658330Y-80741079D01*
X123678847Y-80728782D01*
X123700471Y-80718554D01*
X123722993Y-80710496D01*
X123746197Y-80704684D01*
X123769858Y-80701174D01*
X123793750Y-80700000D01*
X124281250Y-80700000D01*
X124305142Y-80701174D01*
X124305142Y-80701174D01*
G37*
D11*
X124037500Y-81400000D03*
D10*
G36*
X122430142Y-80701174D02*
G01*
X122453803Y-80704684D01*
X122477007Y-80710496D01*
X122499529Y-80718554D01*
X122521153Y-80728782D01*
X122541670Y-80741079D01*
X122560883Y-80755329D01*
X122578607Y-80771393D01*
X122594671Y-80789117D01*
X122608921Y-80808330D01*
X122621218Y-80828847D01*
X122631446Y-80850471D01*
X122639504Y-80872993D01*
X122645316Y-80896197D01*
X122648826Y-80919858D01*
X122650000Y-80943750D01*
X122650000Y-81856250D01*
X122648826Y-81880142D01*
X122645316Y-81903803D01*
X122639504Y-81927007D01*
X122631446Y-81949529D01*
X122621218Y-81971153D01*
X122608921Y-81991670D01*
X122594671Y-82010883D01*
X122578607Y-82028607D01*
X122560883Y-82044671D01*
X122541670Y-82058921D01*
X122521153Y-82071218D01*
X122499529Y-82081446D01*
X122477007Y-82089504D01*
X122453803Y-82095316D01*
X122430142Y-82098826D01*
X122406250Y-82100000D01*
X121918750Y-82100000D01*
X121894858Y-82098826D01*
X121871197Y-82095316D01*
X121847993Y-82089504D01*
X121825471Y-82081446D01*
X121803847Y-82071218D01*
X121783330Y-82058921D01*
X121764117Y-82044671D01*
X121746393Y-82028607D01*
X121730329Y-82010883D01*
X121716079Y-81991670D01*
X121703782Y-81971153D01*
X121693554Y-81949529D01*
X121685496Y-81927007D01*
X121679684Y-81903803D01*
X121676174Y-81880142D01*
X121675000Y-81856250D01*
X121675000Y-80943750D01*
X121676174Y-80919858D01*
X121679684Y-80896197D01*
X121685496Y-80872993D01*
X121693554Y-80850471D01*
X121703782Y-80828847D01*
X121716079Y-80808330D01*
X121730329Y-80789117D01*
X121746393Y-80771393D01*
X121764117Y-80755329D01*
X121783330Y-80741079D01*
X121803847Y-80728782D01*
X121825471Y-80718554D01*
X121847993Y-80710496D01*
X121871197Y-80704684D01*
X121894858Y-80701174D01*
X121918750Y-80700000D01*
X122406250Y-80700000D01*
X122430142Y-80701174D01*
X122430142Y-80701174D01*
G37*
D11*
X122162500Y-81400000D03*
D10*
G36*
X132405142Y-100201174D02*
G01*
X132428803Y-100204684D01*
X132452007Y-100210496D01*
X132474529Y-100218554D01*
X132496153Y-100228782D01*
X132516670Y-100241079D01*
X132535883Y-100255329D01*
X132553607Y-100271393D01*
X132569671Y-100289117D01*
X132583921Y-100308330D01*
X132596218Y-100328847D01*
X132606446Y-100350471D01*
X132614504Y-100372993D01*
X132620316Y-100396197D01*
X132623826Y-100419858D01*
X132625000Y-100443750D01*
X132625000Y-101356250D01*
X132623826Y-101380142D01*
X132620316Y-101403803D01*
X132614504Y-101427007D01*
X132606446Y-101449529D01*
X132596218Y-101471153D01*
X132583921Y-101491670D01*
X132569671Y-101510883D01*
X132553607Y-101528607D01*
X132535883Y-101544671D01*
X132516670Y-101558921D01*
X132496153Y-101571218D01*
X132474529Y-101581446D01*
X132452007Y-101589504D01*
X132428803Y-101595316D01*
X132405142Y-101598826D01*
X132381250Y-101600000D01*
X131893750Y-101600000D01*
X131869858Y-101598826D01*
X131846197Y-101595316D01*
X131822993Y-101589504D01*
X131800471Y-101581446D01*
X131778847Y-101571218D01*
X131758330Y-101558921D01*
X131739117Y-101544671D01*
X131721393Y-101528607D01*
X131705329Y-101510883D01*
X131691079Y-101491670D01*
X131678782Y-101471153D01*
X131668554Y-101449529D01*
X131660496Y-101427007D01*
X131654684Y-101403803D01*
X131651174Y-101380142D01*
X131650000Y-101356250D01*
X131650000Y-100443750D01*
X131651174Y-100419858D01*
X131654684Y-100396197D01*
X131660496Y-100372993D01*
X131668554Y-100350471D01*
X131678782Y-100328847D01*
X131691079Y-100308330D01*
X131705329Y-100289117D01*
X131721393Y-100271393D01*
X131739117Y-100255329D01*
X131758330Y-100241079D01*
X131778847Y-100228782D01*
X131800471Y-100218554D01*
X131822993Y-100210496D01*
X131846197Y-100204684D01*
X131869858Y-100201174D01*
X131893750Y-100200000D01*
X132381250Y-100200000D01*
X132405142Y-100201174D01*
X132405142Y-100201174D01*
G37*
D11*
X132137500Y-100900000D03*
D10*
G36*
X130530142Y-100201174D02*
G01*
X130553803Y-100204684D01*
X130577007Y-100210496D01*
X130599529Y-100218554D01*
X130621153Y-100228782D01*
X130641670Y-100241079D01*
X130660883Y-100255329D01*
X130678607Y-100271393D01*
X130694671Y-100289117D01*
X130708921Y-100308330D01*
X130721218Y-100328847D01*
X130731446Y-100350471D01*
X130739504Y-100372993D01*
X130745316Y-100396197D01*
X130748826Y-100419858D01*
X130750000Y-100443750D01*
X130750000Y-101356250D01*
X130748826Y-101380142D01*
X130745316Y-101403803D01*
X130739504Y-101427007D01*
X130731446Y-101449529D01*
X130721218Y-101471153D01*
X130708921Y-101491670D01*
X130694671Y-101510883D01*
X130678607Y-101528607D01*
X130660883Y-101544671D01*
X130641670Y-101558921D01*
X130621153Y-101571218D01*
X130599529Y-101581446D01*
X130577007Y-101589504D01*
X130553803Y-101595316D01*
X130530142Y-101598826D01*
X130506250Y-101600000D01*
X130018750Y-101600000D01*
X129994858Y-101598826D01*
X129971197Y-101595316D01*
X129947993Y-101589504D01*
X129925471Y-101581446D01*
X129903847Y-101571218D01*
X129883330Y-101558921D01*
X129864117Y-101544671D01*
X129846393Y-101528607D01*
X129830329Y-101510883D01*
X129816079Y-101491670D01*
X129803782Y-101471153D01*
X129793554Y-101449529D01*
X129785496Y-101427007D01*
X129779684Y-101403803D01*
X129776174Y-101380142D01*
X129775000Y-101356250D01*
X129775000Y-100443750D01*
X129776174Y-100419858D01*
X129779684Y-100396197D01*
X129785496Y-100372993D01*
X129793554Y-100350471D01*
X129803782Y-100328847D01*
X129816079Y-100308330D01*
X129830329Y-100289117D01*
X129846393Y-100271393D01*
X129864117Y-100255329D01*
X129883330Y-100241079D01*
X129903847Y-100228782D01*
X129925471Y-100218554D01*
X129947993Y-100210496D01*
X129971197Y-100204684D01*
X129994858Y-100201174D01*
X130018750Y-100200000D01*
X130506250Y-100200000D01*
X130530142Y-100201174D01*
X130530142Y-100201174D01*
G37*
D11*
X130262500Y-100900000D03*
D10*
G36*
X121580142Y-107313674D02*
G01*
X121603803Y-107317184D01*
X121627007Y-107322996D01*
X121649529Y-107331054D01*
X121671153Y-107341282D01*
X121691670Y-107353579D01*
X121710883Y-107367829D01*
X121728607Y-107383893D01*
X121744671Y-107401617D01*
X121758921Y-107420830D01*
X121771218Y-107441347D01*
X121781446Y-107462971D01*
X121789504Y-107485493D01*
X121795316Y-107508697D01*
X121798826Y-107532358D01*
X121800000Y-107556250D01*
X121800000Y-108043750D01*
X121798826Y-108067642D01*
X121795316Y-108091303D01*
X121789504Y-108114507D01*
X121781446Y-108137029D01*
X121771218Y-108158653D01*
X121758921Y-108179170D01*
X121744671Y-108198383D01*
X121728607Y-108216107D01*
X121710883Y-108232171D01*
X121691670Y-108246421D01*
X121671153Y-108258718D01*
X121649529Y-108268946D01*
X121627007Y-108277004D01*
X121603803Y-108282816D01*
X121580142Y-108286326D01*
X121556250Y-108287500D01*
X120643750Y-108287500D01*
X120619858Y-108286326D01*
X120596197Y-108282816D01*
X120572993Y-108277004D01*
X120550471Y-108268946D01*
X120528847Y-108258718D01*
X120508330Y-108246421D01*
X120489117Y-108232171D01*
X120471393Y-108216107D01*
X120455329Y-108198383D01*
X120441079Y-108179170D01*
X120428782Y-108158653D01*
X120418554Y-108137029D01*
X120410496Y-108114507D01*
X120404684Y-108091303D01*
X120401174Y-108067642D01*
X120400000Y-108043750D01*
X120400000Y-107556250D01*
X120401174Y-107532358D01*
X120404684Y-107508697D01*
X120410496Y-107485493D01*
X120418554Y-107462971D01*
X120428782Y-107441347D01*
X120441079Y-107420830D01*
X120455329Y-107401617D01*
X120471393Y-107383893D01*
X120489117Y-107367829D01*
X120508330Y-107353579D01*
X120528847Y-107341282D01*
X120550471Y-107331054D01*
X120572993Y-107322996D01*
X120596197Y-107317184D01*
X120619858Y-107313674D01*
X120643750Y-107312500D01*
X121556250Y-107312500D01*
X121580142Y-107313674D01*
X121580142Y-107313674D01*
G37*
D11*
X121100000Y-107800000D03*
D10*
G36*
X121580142Y-109188674D02*
G01*
X121603803Y-109192184D01*
X121627007Y-109197996D01*
X121649529Y-109206054D01*
X121671153Y-109216282D01*
X121691670Y-109228579D01*
X121710883Y-109242829D01*
X121728607Y-109258893D01*
X121744671Y-109276617D01*
X121758921Y-109295830D01*
X121771218Y-109316347D01*
X121781446Y-109337971D01*
X121789504Y-109360493D01*
X121795316Y-109383697D01*
X121798826Y-109407358D01*
X121800000Y-109431250D01*
X121800000Y-109918750D01*
X121798826Y-109942642D01*
X121795316Y-109966303D01*
X121789504Y-109989507D01*
X121781446Y-110012029D01*
X121771218Y-110033653D01*
X121758921Y-110054170D01*
X121744671Y-110073383D01*
X121728607Y-110091107D01*
X121710883Y-110107171D01*
X121691670Y-110121421D01*
X121671153Y-110133718D01*
X121649529Y-110143946D01*
X121627007Y-110152004D01*
X121603803Y-110157816D01*
X121580142Y-110161326D01*
X121556250Y-110162500D01*
X120643750Y-110162500D01*
X120619858Y-110161326D01*
X120596197Y-110157816D01*
X120572993Y-110152004D01*
X120550471Y-110143946D01*
X120528847Y-110133718D01*
X120508330Y-110121421D01*
X120489117Y-110107171D01*
X120471393Y-110091107D01*
X120455329Y-110073383D01*
X120441079Y-110054170D01*
X120428782Y-110033653D01*
X120418554Y-110012029D01*
X120410496Y-109989507D01*
X120404684Y-109966303D01*
X120401174Y-109942642D01*
X120400000Y-109918750D01*
X120400000Y-109431250D01*
X120401174Y-109407358D01*
X120404684Y-109383697D01*
X120410496Y-109360493D01*
X120418554Y-109337971D01*
X120428782Y-109316347D01*
X120441079Y-109295830D01*
X120455329Y-109276617D01*
X120471393Y-109258893D01*
X120489117Y-109242829D01*
X120508330Y-109228579D01*
X120528847Y-109216282D01*
X120550471Y-109206054D01*
X120572993Y-109197996D01*
X120596197Y-109192184D01*
X120619858Y-109188674D01*
X120643750Y-109187500D01*
X121556250Y-109187500D01*
X121580142Y-109188674D01*
X121580142Y-109188674D01*
G37*
D11*
X121100000Y-109675000D03*
D10*
G36*
X142780142Y-109276174D02*
G01*
X142803803Y-109279684D01*
X142827007Y-109285496D01*
X142849529Y-109293554D01*
X142871153Y-109303782D01*
X142891670Y-109316079D01*
X142910883Y-109330329D01*
X142928607Y-109346393D01*
X142944671Y-109364117D01*
X142958921Y-109383330D01*
X142971218Y-109403847D01*
X142981446Y-109425471D01*
X142989504Y-109447993D01*
X142995316Y-109471197D01*
X142998826Y-109494858D01*
X143000000Y-109518750D01*
X143000000Y-110006250D01*
X142998826Y-110030142D01*
X142995316Y-110053803D01*
X142989504Y-110077007D01*
X142981446Y-110099529D01*
X142971218Y-110121153D01*
X142958921Y-110141670D01*
X142944671Y-110160883D01*
X142928607Y-110178607D01*
X142910883Y-110194671D01*
X142891670Y-110208921D01*
X142871153Y-110221218D01*
X142849529Y-110231446D01*
X142827007Y-110239504D01*
X142803803Y-110245316D01*
X142780142Y-110248826D01*
X142756250Y-110250000D01*
X141843750Y-110250000D01*
X141819858Y-110248826D01*
X141796197Y-110245316D01*
X141772993Y-110239504D01*
X141750471Y-110231446D01*
X141728847Y-110221218D01*
X141708330Y-110208921D01*
X141689117Y-110194671D01*
X141671393Y-110178607D01*
X141655329Y-110160883D01*
X141641079Y-110141670D01*
X141628782Y-110121153D01*
X141618554Y-110099529D01*
X141610496Y-110077007D01*
X141604684Y-110053803D01*
X141601174Y-110030142D01*
X141600000Y-110006250D01*
X141600000Y-109518750D01*
X141601174Y-109494858D01*
X141604684Y-109471197D01*
X141610496Y-109447993D01*
X141618554Y-109425471D01*
X141628782Y-109403847D01*
X141641079Y-109383330D01*
X141655329Y-109364117D01*
X141671393Y-109346393D01*
X141689117Y-109330329D01*
X141708330Y-109316079D01*
X141728847Y-109303782D01*
X141750471Y-109293554D01*
X141772993Y-109285496D01*
X141796197Y-109279684D01*
X141819858Y-109276174D01*
X141843750Y-109275000D01*
X142756250Y-109275000D01*
X142780142Y-109276174D01*
X142780142Y-109276174D01*
G37*
D11*
X142300000Y-109762500D03*
D10*
G36*
X142780142Y-111151174D02*
G01*
X142803803Y-111154684D01*
X142827007Y-111160496D01*
X142849529Y-111168554D01*
X142871153Y-111178782D01*
X142891670Y-111191079D01*
X142910883Y-111205329D01*
X142928607Y-111221393D01*
X142944671Y-111239117D01*
X142958921Y-111258330D01*
X142971218Y-111278847D01*
X142981446Y-111300471D01*
X142989504Y-111322993D01*
X142995316Y-111346197D01*
X142998826Y-111369858D01*
X143000000Y-111393750D01*
X143000000Y-111881250D01*
X142998826Y-111905142D01*
X142995316Y-111928803D01*
X142989504Y-111952007D01*
X142981446Y-111974529D01*
X142971218Y-111996153D01*
X142958921Y-112016670D01*
X142944671Y-112035883D01*
X142928607Y-112053607D01*
X142910883Y-112069671D01*
X142891670Y-112083921D01*
X142871153Y-112096218D01*
X142849529Y-112106446D01*
X142827007Y-112114504D01*
X142803803Y-112120316D01*
X142780142Y-112123826D01*
X142756250Y-112125000D01*
X141843750Y-112125000D01*
X141819858Y-112123826D01*
X141796197Y-112120316D01*
X141772993Y-112114504D01*
X141750471Y-112106446D01*
X141728847Y-112096218D01*
X141708330Y-112083921D01*
X141689117Y-112069671D01*
X141671393Y-112053607D01*
X141655329Y-112035883D01*
X141641079Y-112016670D01*
X141628782Y-111996153D01*
X141618554Y-111974529D01*
X141610496Y-111952007D01*
X141604684Y-111928803D01*
X141601174Y-111905142D01*
X141600000Y-111881250D01*
X141600000Y-111393750D01*
X141601174Y-111369858D01*
X141604684Y-111346197D01*
X141610496Y-111322993D01*
X141618554Y-111300471D01*
X141628782Y-111278847D01*
X141641079Y-111258330D01*
X141655329Y-111239117D01*
X141671393Y-111221393D01*
X141689117Y-111205329D01*
X141708330Y-111191079D01*
X141728847Y-111178782D01*
X141750471Y-111168554D01*
X141772993Y-111160496D01*
X141796197Y-111154684D01*
X141819858Y-111151174D01*
X141843750Y-111150000D01*
X142756250Y-111150000D01*
X142780142Y-111151174D01*
X142780142Y-111151174D01*
G37*
D11*
X142300000Y-111637500D03*
D10*
G36*
X143830142Y-92701174D02*
G01*
X143853803Y-92704684D01*
X143877007Y-92710496D01*
X143899529Y-92718554D01*
X143921153Y-92728782D01*
X143941670Y-92741079D01*
X143960883Y-92755329D01*
X143978607Y-92771393D01*
X143994671Y-92789117D01*
X144008921Y-92808330D01*
X144021218Y-92828847D01*
X144031446Y-92850471D01*
X144039504Y-92872993D01*
X144045316Y-92896197D01*
X144048826Y-92919858D01*
X144050000Y-92943750D01*
X144050000Y-93856250D01*
X144048826Y-93880142D01*
X144045316Y-93903803D01*
X144039504Y-93927007D01*
X144031446Y-93949529D01*
X144021218Y-93971153D01*
X144008921Y-93991670D01*
X143994671Y-94010883D01*
X143978607Y-94028607D01*
X143960883Y-94044671D01*
X143941670Y-94058921D01*
X143921153Y-94071218D01*
X143899529Y-94081446D01*
X143877007Y-94089504D01*
X143853803Y-94095316D01*
X143830142Y-94098826D01*
X143806250Y-94100000D01*
X143318750Y-94100000D01*
X143294858Y-94098826D01*
X143271197Y-94095316D01*
X143247993Y-94089504D01*
X143225471Y-94081446D01*
X143203847Y-94071218D01*
X143183330Y-94058921D01*
X143164117Y-94044671D01*
X143146393Y-94028607D01*
X143130329Y-94010883D01*
X143116079Y-93991670D01*
X143103782Y-93971153D01*
X143093554Y-93949529D01*
X143085496Y-93927007D01*
X143079684Y-93903803D01*
X143076174Y-93880142D01*
X143075000Y-93856250D01*
X143075000Y-92943750D01*
X143076174Y-92919858D01*
X143079684Y-92896197D01*
X143085496Y-92872993D01*
X143093554Y-92850471D01*
X143103782Y-92828847D01*
X143116079Y-92808330D01*
X143130329Y-92789117D01*
X143146393Y-92771393D01*
X143164117Y-92755329D01*
X143183330Y-92741079D01*
X143203847Y-92728782D01*
X143225471Y-92718554D01*
X143247993Y-92710496D01*
X143271197Y-92704684D01*
X143294858Y-92701174D01*
X143318750Y-92700000D01*
X143806250Y-92700000D01*
X143830142Y-92701174D01*
X143830142Y-92701174D01*
G37*
D11*
X143562500Y-93400000D03*
D10*
G36*
X145705142Y-92701174D02*
G01*
X145728803Y-92704684D01*
X145752007Y-92710496D01*
X145774529Y-92718554D01*
X145796153Y-92728782D01*
X145816670Y-92741079D01*
X145835883Y-92755329D01*
X145853607Y-92771393D01*
X145869671Y-92789117D01*
X145883921Y-92808330D01*
X145896218Y-92828847D01*
X145906446Y-92850471D01*
X145914504Y-92872993D01*
X145920316Y-92896197D01*
X145923826Y-92919858D01*
X145925000Y-92943750D01*
X145925000Y-93856250D01*
X145923826Y-93880142D01*
X145920316Y-93903803D01*
X145914504Y-93927007D01*
X145906446Y-93949529D01*
X145896218Y-93971153D01*
X145883921Y-93991670D01*
X145869671Y-94010883D01*
X145853607Y-94028607D01*
X145835883Y-94044671D01*
X145816670Y-94058921D01*
X145796153Y-94071218D01*
X145774529Y-94081446D01*
X145752007Y-94089504D01*
X145728803Y-94095316D01*
X145705142Y-94098826D01*
X145681250Y-94100000D01*
X145193750Y-94100000D01*
X145169858Y-94098826D01*
X145146197Y-94095316D01*
X145122993Y-94089504D01*
X145100471Y-94081446D01*
X145078847Y-94071218D01*
X145058330Y-94058921D01*
X145039117Y-94044671D01*
X145021393Y-94028607D01*
X145005329Y-94010883D01*
X144991079Y-93991670D01*
X144978782Y-93971153D01*
X144968554Y-93949529D01*
X144960496Y-93927007D01*
X144954684Y-93903803D01*
X144951174Y-93880142D01*
X144950000Y-93856250D01*
X144950000Y-92943750D01*
X144951174Y-92919858D01*
X144954684Y-92896197D01*
X144960496Y-92872993D01*
X144968554Y-92850471D01*
X144978782Y-92828847D01*
X144991079Y-92808330D01*
X145005329Y-92789117D01*
X145021393Y-92771393D01*
X145039117Y-92755329D01*
X145058330Y-92741079D01*
X145078847Y-92728782D01*
X145100471Y-92718554D01*
X145122993Y-92710496D01*
X145146197Y-92704684D01*
X145169858Y-92701174D01*
X145193750Y-92700000D01*
X145681250Y-92700000D01*
X145705142Y-92701174D01*
X145705142Y-92701174D01*
G37*
D11*
X145437500Y-93400000D03*
D10*
G36*
X131192642Y-110501174D02*
G01*
X131216303Y-110504684D01*
X131239507Y-110510496D01*
X131262029Y-110518554D01*
X131283653Y-110528782D01*
X131304170Y-110541079D01*
X131323383Y-110555329D01*
X131341107Y-110571393D01*
X131357171Y-110589117D01*
X131371421Y-110608330D01*
X131383718Y-110628847D01*
X131393946Y-110650471D01*
X131402004Y-110672993D01*
X131407816Y-110696197D01*
X131411326Y-110719858D01*
X131412500Y-110743750D01*
X131412500Y-111656250D01*
X131411326Y-111680142D01*
X131407816Y-111703803D01*
X131402004Y-111727007D01*
X131393946Y-111749529D01*
X131383718Y-111771153D01*
X131371421Y-111791670D01*
X131357171Y-111810883D01*
X131341107Y-111828607D01*
X131323383Y-111844671D01*
X131304170Y-111858921D01*
X131283653Y-111871218D01*
X131262029Y-111881446D01*
X131239507Y-111889504D01*
X131216303Y-111895316D01*
X131192642Y-111898826D01*
X131168750Y-111900000D01*
X130681250Y-111900000D01*
X130657358Y-111898826D01*
X130633697Y-111895316D01*
X130610493Y-111889504D01*
X130587971Y-111881446D01*
X130566347Y-111871218D01*
X130545830Y-111858921D01*
X130526617Y-111844671D01*
X130508893Y-111828607D01*
X130492829Y-111810883D01*
X130478579Y-111791670D01*
X130466282Y-111771153D01*
X130456054Y-111749529D01*
X130447996Y-111727007D01*
X130442184Y-111703803D01*
X130438674Y-111680142D01*
X130437500Y-111656250D01*
X130437500Y-110743750D01*
X130438674Y-110719858D01*
X130442184Y-110696197D01*
X130447996Y-110672993D01*
X130456054Y-110650471D01*
X130466282Y-110628847D01*
X130478579Y-110608330D01*
X130492829Y-110589117D01*
X130508893Y-110571393D01*
X130526617Y-110555329D01*
X130545830Y-110541079D01*
X130566347Y-110528782D01*
X130587971Y-110518554D01*
X130610493Y-110510496D01*
X130633697Y-110504684D01*
X130657358Y-110501174D01*
X130681250Y-110500000D01*
X131168750Y-110500000D01*
X131192642Y-110501174D01*
X131192642Y-110501174D01*
G37*
D11*
X130925000Y-111200000D03*
D10*
G36*
X133067642Y-110501174D02*
G01*
X133091303Y-110504684D01*
X133114507Y-110510496D01*
X133137029Y-110518554D01*
X133158653Y-110528782D01*
X133179170Y-110541079D01*
X133198383Y-110555329D01*
X133216107Y-110571393D01*
X133232171Y-110589117D01*
X133246421Y-110608330D01*
X133258718Y-110628847D01*
X133268946Y-110650471D01*
X133277004Y-110672993D01*
X133282816Y-110696197D01*
X133286326Y-110719858D01*
X133287500Y-110743750D01*
X133287500Y-111656250D01*
X133286326Y-111680142D01*
X133282816Y-111703803D01*
X133277004Y-111727007D01*
X133268946Y-111749529D01*
X133258718Y-111771153D01*
X133246421Y-111791670D01*
X133232171Y-111810883D01*
X133216107Y-111828607D01*
X133198383Y-111844671D01*
X133179170Y-111858921D01*
X133158653Y-111871218D01*
X133137029Y-111881446D01*
X133114507Y-111889504D01*
X133091303Y-111895316D01*
X133067642Y-111898826D01*
X133043750Y-111900000D01*
X132556250Y-111900000D01*
X132532358Y-111898826D01*
X132508697Y-111895316D01*
X132485493Y-111889504D01*
X132462971Y-111881446D01*
X132441347Y-111871218D01*
X132420830Y-111858921D01*
X132401617Y-111844671D01*
X132383893Y-111828607D01*
X132367829Y-111810883D01*
X132353579Y-111791670D01*
X132341282Y-111771153D01*
X132331054Y-111749529D01*
X132322996Y-111727007D01*
X132317184Y-111703803D01*
X132313674Y-111680142D01*
X132312500Y-111656250D01*
X132312500Y-110743750D01*
X132313674Y-110719858D01*
X132317184Y-110696197D01*
X132322996Y-110672993D01*
X132331054Y-110650471D01*
X132341282Y-110628847D01*
X132353579Y-110608330D01*
X132367829Y-110589117D01*
X132383893Y-110571393D01*
X132401617Y-110555329D01*
X132420830Y-110541079D01*
X132441347Y-110528782D01*
X132462971Y-110518554D01*
X132485493Y-110510496D01*
X132508697Y-110504684D01*
X132532358Y-110501174D01*
X132556250Y-110500000D01*
X133043750Y-110500000D01*
X133067642Y-110501174D01*
X133067642Y-110501174D01*
G37*
D11*
X132800000Y-111200000D03*
D10*
G36*
X143267642Y-89001174D02*
G01*
X143291303Y-89004684D01*
X143314507Y-89010496D01*
X143337029Y-89018554D01*
X143358653Y-89028782D01*
X143379170Y-89041079D01*
X143398383Y-89055329D01*
X143416107Y-89071393D01*
X143432171Y-89089117D01*
X143446421Y-89108330D01*
X143458718Y-89128847D01*
X143468946Y-89150471D01*
X143477004Y-89172993D01*
X143482816Y-89196197D01*
X143486326Y-89219858D01*
X143487500Y-89243750D01*
X143487500Y-90156250D01*
X143486326Y-90180142D01*
X143482816Y-90203803D01*
X143477004Y-90227007D01*
X143468946Y-90249529D01*
X143458718Y-90271153D01*
X143446421Y-90291670D01*
X143432171Y-90310883D01*
X143416107Y-90328607D01*
X143398383Y-90344671D01*
X143379170Y-90358921D01*
X143358653Y-90371218D01*
X143337029Y-90381446D01*
X143314507Y-90389504D01*
X143291303Y-90395316D01*
X143267642Y-90398826D01*
X143243750Y-90400000D01*
X142756250Y-90400000D01*
X142732358Y-90398826D01*
X142708697Y-90395316D01*
X142685493Y-90389504D01*
X142662971Y-90381446D01*
X142641347Y-90371218D01*
X142620830Y-90358921D01*
X142601617Y-90344671D01*
X142583893Y-90328607D01*
X142567829Y-90310883D01*
X142553579Y-90291670D01*
X142541282Y-90271153D01*
X142531054Y-90249529D01*
X142522996Y-90227007D01*
X142517184Y-90203803D01*
X142513674Y-90180142D01*
X142512500Y-90156250D01*
X142512500Y-89243750D01*
X142513674Y-89219858D01*
X142517184Y-89196197D01*
X142522996Y-89172993D01*
X142531054Y-89150471D01*
X142541282Y-89128847D01*
X142553579Y-89108330D01*
X142567829Y-89089117D01*
X142583893Y-89071393D01*
X142601617Y-89055329D01*
X142620830Y-89041079D01*
X142641347Y-89028782D01*
X142662971Y-89018554D01*
X142685493Y-89010496D01*
X142708697Y-89004684D01*
X142732358Y-89001174D01*
X142756250Y-89000000D01*
X143243750Y-89000000D01*
X143267642Y-89001174D01*
X143267642Y-89001174D01*
G37*
D11*
X143000000Y-89700000D03*
D10*
G36*
X145142642Y-89001174D02*
G01*
X145166303Y-89004684D01*
X145189507Y-89010496D01*
X145212029Y-89018554D01*
X145233653Y-89028782D01*
X145254170Y-89041079D01*
X145273383Y-89055329D01*
X145291107Y-89071393D01*
X145307171Y-89089117D01*
X145321421Y-89108330D01*
X145333718Y-89128847D01*
X145343946Y-89150471D01*
X145352004Y-89172993D01*
X145357816Y-89196197D01*
X145361326Y-89219858D01*
X145362500Y-89243750D01*
X145362500Y-90156250D01*
X145361326Y-90180142D01*
X145357816Y-90203803D01*
X145352004Y-90227007D01*
X145343946Y-90249529D01*
X145333718Y-90271153D01*
X145321421Y-90291670D01*
X145307171Y-90310883D01*
X145291107Y-90328607D01*
X145273383Y-90344671D01*
X145254170Y-90358921D01*
X145233653Y-90371218D01*
X145212029Y-90381446D01*
X145189507Y-90389504D01*
X145166303Y-90395316D01*
X145142642Y-90398826D01*
X145118750Y-90400000D01*
X144631250Y-90400000D01*
X144607358Y-90398826D01*
X144583697Y-90395316D01*
X144560493Y-90389504D01*
X144537971Y-90381446D01*
X144516347Y-90371218D01*
X144495830Y-90358921D01*
X144476617Y-90344671D01*
X144458893Y-90328607D01*
X144442829Y-90310883D01*
X144428579Y-90291670D01*
X144416282Y-90271153D01*
X144406054Y-90249529D01*
X144397996Y-90227007D01*
X144392184Y-90203803D01*
X144388674Y-90180142D01*
X144387500Y-90156250D01*
X144387500Y-89243750D01*
X144388674Y-89219858D01*
X144392184Y-89196197D01*
X144397996Y-89172993D01*
X144406054Y-89150471D01*
X144416282Y-89128847D01*
X144428579Y-89108330D01*
X144442829Y-89089117D01*
X144458893Y-89071393D01*
X144476617Y-89055329D01*
X144495830Y-89041079D01*
X144516347Y-89028782D01*
X144537971Y-89018554D01*
X144560493Y-89010496D01*
X144583697Y-89004684D01*
X144607358Y-89001174D01*
X144631250Y-89000000D01*
X145118750Y-89000000D01*
X145142642Y-89001174D01*
X145142642Y-89001174D01*
G37*
D11*
X144875000Y-89700000D03*
D10*
G36*
X128867642Y-96701174D02*
G01*
X128891303Y-96704684D01*
X128914507Y-96710496D01*
X128937029Y-96718554D01*
X128958653Y-96728782D01*
X128979170Y-96741079D01*
X128998383Y-96755329D01*
X129016107Y-96771393D01*
X129032171Y-96789117D01*
X129046421Y-96808330D01*
X129058718Y-96828847D01*
X129068946Y-96850471D01*
X129077004Y-96872993D01*
X129082816Y-96896197D01*
X129086326Y-96919858D01*
X129087500Y-96943750D01*
X129087500Y-97856250D01*
X129086326Y-97880142D01*
X129082816Y-97903803D01*
X129077004Y-97927007D01*
X129068946Y-97949529D01*
X129058718Y-97971153D01*
X129046421Y-97991670D01*
X129032171Y-98010883D01*
X129016107Y-98028607D01*
X128998383Y-98044671D01*
X128979170Y-98058921D01*
X128958653Y-98071218D01*
X128937029Y-98081446D01*
X128914507Y-98089504D01*
X128891303Y-98095316D01*
X128867642Y-98098826D01*
X128843750Y-98100000D01*
X128356250Y-98100000D01*
X128332358Y-98098826D01*
X128308697Y-98095316D01*
X128285493Y-98089504D01*
X128262971Y-98081446D01*
X128241347Y-98071218D01*
X128220830Y-98058921D01*
X128201617Y-98044671D01*
X128183893Y-98028607D01*
X128167829Y-98010883D01*
X128153579Y-97991670D01*
X128141282Y-97971153D01*
X128131054Y-97949529D01*
X128122996Y-97927007D01*
X128117184Y-97903803D01*
X128113674Y-97880142D01*
X128112500Y-97856250D01*
X128112500Y-96943750D01*
X128113674Y-96919858D01*
X128117184Y-96896197D01*
X128122996Y-96872993D01*
X128131054Y-96850471D01*
X128141282Y-96828847D01*
X128153579Y-96808330D01*
X128167829Y-96789117D01*
X128183893Y-96771393D01*
X128201617Y-96755329D01*
X128220830Y-96741079D01*
X128241347Y-96728782D01*
X128262971Y-96718554D01*
X128285493Y-96710496D01*
X128308697Y-96704684D01*
X128332358Y-96701174D01*
X128356250Y-96700000D01*
X128843750Y-96700000D01*
X128867642Y-96701174D01*
X128867642Y-96701174D01*
G37*
D11*
X128600000Y-97400000D03*
D10*
G36*
X130742642Y-96701174D02*
G01*
X130766303Y-96704684D01*
X130789507Y-96710496D01*
X130812029Y-96718554D01*
X130833653Y-96728782D01*
X130854170Y-96741079D01*
X130873383Y-96755329D01*
X130891107Y-96771393D01*
X130907171Y-96789117D01*
X130921421Y-96808330D01*
X130933718Y-96828847D01*
X130943946Y-96850471D01*
X130952004Y-96872993D01*
X130957816Y-96896197D01*
X130961326Y-96919858D01*
X130962500Y-96943750D01*
X130962500Y-97856250D01*
X130961326Y-97880142D01*
X130957816Y-97903803D01*
X130952004Y-97927007D01*
X130943946Y-97949529D01*
X130933718Y-97971153D01*
X130921421Y-97991670D01*
X130907171Y-98010883D01*
X130891107Y-98028607D01*
X130873383Y-98044671D01*
X130854170Y-98058921D01*
X130833653Y-98071218D01*
X130812029Y-98081446D01*
X130789507Y-98089504D01*
X130766303Y-98095316D01*
X130742642Y-98098826D01*
X130718750Y-98100000D01*
X130231250Y-98100000D01*
X130207358Y-98098826D01*
X130183697Y-98095316D01*
X130160493Y-98089504D01*
X130137971Y-98081446D01*
X130116347Y-98071218D01*
X130095830Y-98058921D01*
X130076617Y-98044671D01*
X130058893Y-98028607D01*
X130042829Y-98010883D01*
X130028579Y-97991670D01*
X130016282Y-97971153D01*
X130006054Y-97949529D01*
X129997996Y-97927007D01*
X129992184Y-97903803D01*
X129988674Y-97880142D01*
X129987500Y-97856250D01*
X129987500Y-96943750D01*
X129988674Y-96919858D01*
X129992184Y-96896197D01*
X129997996Y-96872993D01*
X130006054Y-96850471D01*
X130016282Y-96828847D01*
X130028579Y-96808330D01*
X130042829Y-96789117D01*
X130058893Y-96771393D01*
X130076617Y-96755329D01*
X130095830Y-96741079D01*
X130116347Y-96728782D01*
X130137971Y-96718554D01*
X130160493Y-96710496D01*
X130183697Y-96704684D01*
X130207358Y-96701174D01*
X130231250Y-96700000D01*
X130718750Y-96700000D01*
X130742642Y-96701174D01*
X130742642Y-96701174D01*
G37*
D11*
X130475000Y-97400000D03*
D10*
G36*
X138505142Y-113101174D02*
G01*
X138528803Y-113104684D01*
X138552007Y-113110496D01*
X138574529Y-113118554D01*
X138596153Y-113128782D01*
X138616670Y-113141079D01*
X138635883Y-113155329D01*
X138653607Y-113171393D01*
X138669671Y-113189117D01*
X138683921Y-113208330D01*
X138696218Y-113228847D01*
X138706446Y-113250471D01*
X138714504Y-113272993D01*
X138720316Y-113296197D01*
X138723826Y-113319858D01*
X138725000Y-113343750D01*
X138725000Y-114256250D01*
X138723826Y-114280142D01*
X138720316Y-114303803D01*
X138714504Y-114327007D01*
X138706446Y-114349529D01*
X138696218Y-114371153D01*
X138683921Y-114391670D01*
X138669671Y-114410883D01*
X138653607Y-114428607D01*
X138635883Y-114444671D01*
X138616670Y-114458921D01*
X138596153Y-114471218D01*
X138574529Y-114481446D01*
X138552007Y-114489504D01*
X138528803Y-114495316D01*
X138505142Y-114498826D01*
X138481250Y-114500000D01*
X137993750Y-114500000D01*
X137969858Y-114498826D01*
X137946197Y-114495316D01*
X137922993Y-114489504D01*
X137900471Y-114481446D01*
X137878847Y-114471218D01*
X137858330Y-114458921D01*
X137839117Y-114444671D01*
X137821393Y-114428607D01*
X137805329Y-114410883D01*
X137791079Y-114391670D01*
X137778782Y-114371153D01*
X137768554Y-114349529D01*
X137760496Y-114327007D01*
X137754684Y-114303803D01*
X137751174Y-114280142D01*
X137750000Y-114256250D01*
X137750000Y-113343750D01*
X137751174Y-113319858D01*
X137754684Y-113296197D01*
X137760496Y-113272993D01*
X137768554Y-113250471D01*
X137778782Y-113228847D01*
X137791079Y-113208330D01*
X137805329Y-113189117D01*
X137821393Y-113171393D01*
X137839117Y-113155329D01*
X137858330Y-113141079D01*
X137878847Y-113128782D01*
X137900471Y-113118554D01*
X137922993Y-113110496D01*
X137946197Y-113104684D01*
X137969858Y-113101174D01*
X137993750Y-113100000D01*
X138481250Y-113100000D01*
X138505142Y-113101174D01*
X138505142Y-113101174D01*
G37*
D11*
X138237500Y-113800000D03*
D10*
G36*
X136630142Y-113101174D02*
G01*
X136653803Y-113104684D01*
X136677007Y-113110496D01*
X136699529Y-113118554D01*
X136721153Y-113128782D01*
X136741670Y-113141079D01*
X136760883Y-113155329D01*
X136778607Y-113171393D01*
X136794671Y-113189117D01*
X136808921Y-113208330D01*
X136821218Y-113228847D01*
X136831446Y-113250471D01*
X136839504Y-113272993D01*
X136845316Y-113296197D01*
X136848826Y-113319858D01*
X136850000Y-113343750D01*
X136850000Y-114256250D01*
X136848826Y-114280142D01*
X136845316Y-114303803D01*
X136839504Y-114327007D01*
X136831446Y-114349529D01*
X136821218Y-114371153D01*
X136808921Y-114391670D01*
X136794671Y-114410883D01*
X136778607Y-114428607D01*
X136760883Y-114444671D01*
X136741670Y-114458921D01*
X136721153Y-114471218D01*
X136699529Y-114481446D01*
X136677007Y-114489504D01*
X136653803Y-114495316D01*
X136630142Y-114498826D01*
X136606250Y-114500000D01*
X136118750Y-114500000D01*
X136094858Y-114498826D01*
X136071197Y-114495316D01*
X136047993Y-114489504D01*
X136025471Y-114481446D01*
X136003847Y-114471218D01*
X135983330Y-114458921D01*
X135964117Y-114444671D01*
X135946393Y-114428607D01*
X135930329Y-114410883D01*
X135916079Y-114391670D01*
X135903782Y-114371153D01*
X135893554Y-114349529D01*
X135885496Y-114327007D01*
X135879684Y-114303803D01*
X135876174Y-114280142D01*
X135875000Y-114256250D01*
X135875000Y-113343750D01*
X135876174Y-113319858D01*
X135879684Y-113296197D01*
X135885496Y-113272993D01*
X135893554Y-113250471D01*
X135903782Y-113228847D01*
X135916079Y-113208330D01*
X135930329Y-113189117D01*
X135946393Y-113171393D01*
X135964117Y-113155329D01*
X135983330Y-113141079D01*
X136003847Y-113128782D01*
X136025471Y-113118554D01*
X136047993Y-113110496D01*
X136071197Y-113104684D01*
X136094858Y-113101174D01*
X136118750Y-113100000D01*
X136606250Y-113100000D01*
X136630142Y-113101174D01*
X136630142Y-113101174D01*
G37*
D11*
X136362500Y-113800000D03*
D16*
X126600000Y-93600000D03*
X126600000Y-92950000D03*
X126600000Y-92300000D03*
X126600000Y-91650000D03*
X126600000Y-91000000D03*
X126600000Y-90350000D03*
X126600000Y-89700000D03*
X126600000Y-89050000D03*
X126600000Y-88400000D03*
X126600000Y-87750000D03*
X120700000Y-87750000D03*
X120700000Y-88400000D03*
X120700000Y-89050000D03*
X120700000Y-89700000D03*
X120700000Y-90350000D03*
X120700000Y-91000000D03*
X120700000Y-91650000D03*
X120700000Y-92300000D03*
X120700000Y-92950000D03*
X120700000Y-93600000D03*
D17*
X136138000Y-108075000D03*
X136138000Y-107425000D03*
X136138000Y-106775000D03*
X136138000Y-106125000D03*
X136138000Y-105475000D03*
X136138000Y-104825000D03*
X136138000Y-104175000D03*
X136138000Y-103525000D03*
X130262000Y-103525000D03*
X130262000Y-104175000D03*
X130262000Y-104825000D03*
X130262000Y-105475000D03*
X130262000Y-106125000D03*
X130262000Y-106775000D03*
X130262000Y-107425000D03*
X130262000Y-108075000D03*
D10*
G36*
X139380142Y-106451174D02*
G01*
X139403803Y-106454684D01*
X139427007Y-106460496D01*
X139449529Y-106468554D01*
X139471153Y-106478782D01*
X139491670Y-106491079D01*
X139510883Y-106505329D01*
X139528607Y-106521393D01*
X139544671Y-106539117D01*
X139558921Y-106558330D01*
X139571218Y-106578847D01*
X139581446Y-106600471D01*
X139589504Y-106622993D01*
X139595316Y-106646197D01*
X139598826Y-106669858D01*
X139600000Y-106693750D01*
X139600000Y-107181250D01*
X139598826Y-107205142D01*
X139595316Y-107228803D01*
X139589504Y-107252007D01*
X139581446Y-107274529D01*
X139571218Y-107296153D01*
X139558921Y-107316670D01*
X139544671Y-107335883D01*
X139528607Y-107353607D01*
X139510883Y-107369671D01*
X139491670Y-107383921D01*
X139471153Y-107396218D01*
X139449529Y-107406446D01*
X139427007Y-107414504D01*
X139403803Y-107420316D01*
X139380142Y-107423826D01*
X139356250Y-107425000D01*
X138443750Y-107425000D01*
X138419858Y-107423826D01*
X138396197Y-107420316D01*
X138372993Y-107414504D01*
X138350471Y-107406446D01*
X138328847Y-107396218D01*
X138308330Y-107383921D01*
X138289117Y-107369671D01*
X138271393Y-107353607D01*
X138255329Y-107335883D01*
X138241079Y-107316670D01*
X138228782Y-107296153D01*
X138218554Y-107274529D01*
X138210496Y-107252007D01*
X138204684Y-107228803D01*
X138201174Y-107205142D01*
X138200000Y-107181250D01*
X138200000Y-106693750D01*
X138201174Y-106669858D01*
X138204684Y-106646197D01*
X138210496Y-106622993D01*
X138218554Y-106600471D01*
X138228782Y-106578847D01*
X138241079Y-106558330D01*
X138255329Y-106539117D01*
X138271393Y-106521393D01*
X138289117Y-106505329D01*
X138308330Y-106491079D01*
X138328847Y-106478782D01*
X138350471Y-106468554D01*
X138372993Y-106460496D01*
X138396197Y-106454684D01*
X138419858Y-106451174D01*
X138443750Y-106450000D01*
X139356250Y-106450000D01*
X139380142Y-106451174D01*
X139380142Y-106451174D01*
G37*
D11*
X138900000Y-106937500D03*
D10*
G36*
X139380142Y-104576174D02*
G01*
X139403803Y-104579684D01*
X139427007Y-104585496D01*
X139449529Y-104593554D01*
X139471153Y-104603782D01*
X139491670Y-104616079D01*
X139510883Y-104630329D01*
X139528607Y-104646393D01*
X139544671Y-104664117D01*
X139558921Y-104683330D01*
X139571218Y-104703847D01*
X139581446Y-104725471D01*
X139589504Y-104747993D01*
X139595316Y-104771197D01*
X139598826Y-104794858D01*
X139600000Y-104818750D01*
X139600000Y-105306250D01*
X139598826Y-105330142D01*
X139595316Y-105353803D01*
X139589504Y-105377007D01*
X139581446Y-105399529D01*
X139571218Y-105421153D01*
X139558921Y-105441670D01*
X139544671Y-105460883D01*
X139528607Y-105478607D01*
X139510883Y-105494671D01*
X139491670Y-105508921D01*
X139471153Y-105521218D01*
X139449529Y-105531446D01*
X139427007Y-105539504D01*
X139403803Y-105545316D01*
X139380142Y-105548826D01*
X139356250Y-105550000D01*
X138443750Y-105550000D01*
X138419858Y-105548826D01*
X138396197Y-105545316D01*
X138372993Y-105539504D01*
X138350471Y-105531446D01*
X138328847Y-105521218D01*
X138308330Y-105508921D01*
X138289117Y-105494671D01*
X138271393Y-105478607D01*
X138255329Y-105460883D01*
X138241079Y-105441670D01*
X138228782Y-105421153D01*
X138218554Y-105399529D01*
X138210496Y-105377007D01*
X138204684Y-105353803D01*
X138201174Y-105330142D01*
X138200000Y-105306250D01*
X138200000Y-104818750D01*
X138201174Y-104794858D01*
X138204684Y-104771197D01*
X138210496Y-104747993D01*
X138218554Y-104725471D01*
X138228782Y-104703847D01*
X138241079Y-104683330D01*
X138255329Y-104664117D01*
X138271393Y-104646393D01*
X138289117Y-104630329D01*
X138308330Y-104616079D01*
X138328847Y-104603782D01*
X138350471Y-104593554D01*
X138372993Y-104585496D01*
X138396197Y-104579684D01*
X138419858Y-104576174D01*
X138443750Y-104575000D01*
X139356250Y-104575000D01*
X139380142Y-104576174D01*
X139380142Y-104576174D01*
G37*
D11*
X138900000Y-105062500D03*
D10*
G36*
X141680142Y-106451174D02*
G01*
X141703803Y-106454684D01*
X141727007Y-106460496D01*
X141749529Y-106468554D01*
X141771153Y-106478782D01*
X141791670Y-106491079D01*
X141810883Y-106505329D01*
X141828607Y-106521393D01*
X141844671Y-106539117D01*
X141858921Y-106558330D01*
X141871218Y-106578847D01*
X141881446Y-106600471D01*
X141889504Y-106622993D01*
X141895316Y-106646197D01*
X141898826Y-106669858D01*
X141900000Y-106693750D01*
X141900000Y-107181250D01*
X141898826Y-107205142D01*
X141895316Y-107228803D01*
X141889504Y-107252007D01*
X141881446Y-107274529D01*
X141871218Y-107296153D01*
X141858921Y-107316670D01*
X141844671Y-107335883D01*
X141828607Y-107353607D01*
X141810883Y-107369671D01*
X141791670Y-107383921D01*
X141771153Y-107396218D01*
X141749529Y-107406446D01*
X141727007Y-107414504D01*
X141703803Y-107420316D01*
X141680142Y-107423826D01*
X141656250Y-107425000D01*
X140743750Y-107425000D01*
X140719858Y-107423826D01*
X140696197Y-107420316D01*
X140672993Y-107414504D01*
X140650471Y-107406446D01*
X140628847Y-107396218D01*
X140608330Y-107383921D01*
X140589117Y-107369671D01*
X140571393Y-107353607D01*
X140555329Y-107335883D01*
X140541079Y-107316670D01*
X140528782Y-107296153D01*
X140518554Y-107274529D01*
X140510496Y-107252007D01*
X140504684Y-107228803D01*
X140501174Y-107205142D01*
X140500000Y-107181250D01*
X140500000Y-106693750D01*
X140501174Y-106669858D01*
X140504684Y-106646197D01*
X140510496Y-106622993D01*
X140518554Y-106600471D01*
X140528782Y-106578847D01*
X140541079Y-106558330D01*
X140555329Y-106539117D01*
X140571393Y-106521393D01*
X140589117Y-106505329D01*
X140608330Y-106491079D01*
X140628847Y-106478782D01*
X140650471Y-106468554D01*
X140672993Y-106460496D01*
X140696197Y-106454684D01*
X140719858Y-106451174D01*
X140743750Y-106450000D01*
X141656250Y-106450000D01*
X141680142Y-106451174D01*
X141680142Y-106451174D01*
G37*
D11*
X141200000Y-106937500D03*
D10*
G36*
X141680142Y-104576174D02*
G01*
X141703803Y-104579684D01*
X141727007Y-104585496D01*
X141749529Y-104593554D01*
X141771153Y-104603782D01*
X141791670Y-104616079D01*
X141810883Y-104630329D01*
X141828607Y-104646393D01*
X141844671Y-104664117D01*
X141858921Y-104683330D01*
X141871218Y-104703847D01*
X141881446Y-104725471D01*
X141889504Y-104747993D01*
X141895316Y-104771197D01*
X141898826Y-104794858D01*
X141900000Y-104818750D01*
X141900000Y-105306250D01*
X141898826Y-105330142D01*
X141895316Y-105353803D01*
X141889504Y-105377007D01*
X141881446Y-105399529D01*
X141871218Y-105421153D01*
X141858921Y-105441670D01*
X141844671Y-105460883D01*
X141828607Y-105478607D01*
X141810883Y-105494671D01*
X141791670Y-105508921D01*
X141771153Y-105521218D01*
X141749529Y-105531446D01*
X141727007Y-105539504D01*
X141703803Y-105545316D01*
X141680142Y-105548826D01*
X141656250Y-105550000D01*
X140743750Y-105550000D01*
X140719858Y-105548826D01*
X140696197Y-105545316D01*
X140672993Y-105539504D01*
X140650471Y-105531446D01*
X140628847Y-105521218D01*
X140608330Y-105508921D01*
X140589117Y-105494671D01*
X140571393Y-105478607D01*
X140555329Y-105460883D01*
X140541079Y-105441670D01*
X140528782Y-105421153D01*
X140518554Y-105399529D01*
X140510496Y-105377007D01*
X140504684Y-105353803D01*
X140501174Y-105330142D01*
X140500000Y-105306250D01*
X140500000Y-104818750D01*
X140501174Y-104794858D01*
X140504684Y-104771197D01*
X140510496Y-104747993D01*
X140518554Y-104725471D01*
X140528782Y-104703847D01*
X140541079Y-104683330D01*
X140555329Y-104664117D01*
X140571393Y-104646393D01*
X140589117Y-104630329D01*
X140608330Y-104616079D01*
X140628847Y-104603782D01*
X140650471Y-104593554D01*
X140672993Y-104585496D01*
X140696197Y-104579684D01*
X140719858Y-104576174D01*
X140743750Y-104575000D01*
X141656250Y-104575000D01*
X141680142Y-104576174D01*
X141680142Y-104576174D01*
G37*
D11*
X141200000Y-105062500D03*
D10*
G36*
X141480142Y-116076174D02*
G01*
X141503803Y-116079684D01*
X141527007Y-116085496D01*
X141549529Y-116093554D01*
X141571153Y-116103782D01*
X141591670Y-116116079D01*
X141610883Y-116130329D01*
X141628607Y-116146393D01*
X141644671Y-116164117D01*
X141658921Y-116183330D01*
X141671218Y-116203847D01*
X141681446Y-116225471D01*
X141689504Y-116247993D01*
X141695316Y-116271197D01*
X141698826Y-116294858D01*
X141700000Y-116318750D01*
X141700000Y-116806250D01*
X141698826Y-116830142D01*
X141695316Y-116853803D01*
X141689504Y-116877007D01*
X141681446Y-116899529D01*
X141671218Y-116921153D01*
X141658921Y-116941670D01*
X141644671Y-116960883D01*
X141628607Y-116978607D01*
X141610883Y-116994671D01*
X141591670Y-117008921D01*
X141571153Y-117021218D01*
X141549529Y-117031446D01*
X141527007Y-117039504D01*
X141503803Y-117045316D01*
X141480142Y-117048826D01*
X141456250Y-117050000D01*
X140543750Y-117050000D01*
X140519858Y-117048826D01*
X140496197Y-117045316D01*
X140472993Y-117039504D01*
X140450471Y-117031446D01*
X140428847Y-117021218D01*
X140408330Y-117008921D01*
X140389117Y-116994671D01*
X140371393Y-116978607D01*
X140355329Y-116960883D01*
X140341079Y-116941670D01*
X140328782Y-116921153D01*
X140318554Y-116899529D01*
X140310496Y-116877007D01*
X140304684Y-116853803D01*
X140301174Y-116830142D01*
X140300000Y-116806250D01*
X140300000Y-116318750D01*
X140301174Y-116294858D01*
X140304684Y-116271197D01*
X140310496Y-116247993D01*
X140318554Y-116225471D01*
X140328782Y-116203847D01*
X140341079Y-116183330D01*
X140355329Y-116164117D01*
X140371393Y-116146393D01*
X140389117Y-116130329D01*
X140408330Y-116116079D01*
X140428847Y-116103782D01*
X140450471Y-116093554D01*
X140472993Y-116085496D01*
X140496197Y-116079684D01*
X140519858Y-116076174D01*
X140543750Y-116075000D01*
X141456250Y-116075000D01*
X141480142Y-116076174D01*
X141480142Y-116076174D01*
G37*
D11*
X141000000Y-116562500D03*
D10*
G36*
X141480142Y-117951174D02*
G01*
X141503803Y-117954684D01*
X141527007Y-117960496D01*
X141549529Y-117968554D01*
X141571153Y-117978782D01*
X141591670Y-117991079D01*
X141610883Y-118005329D01*
X141628607Y-118021393D01*
X141644671Y-118039117D01*
X141658921Y-118058330D01*
X141671218Y-118078847D01*
X141681446Y-118100471D01*
X141689504Y-118122993D01*
X141695316Y-118146197D01*
X141698826Y-118169858D01*
X141700000Y-118193750D01*
X141700000Y-118681250D01*
X141698826Y-118705142D01*
X141695316Y-118728803D01*
X141689504Y-118752007D01*
X141681446Y-118774529D01*
X141671218Y-118796153D01*
X141658921Y-118816670D01*
X141644671Y-118835883D01*
X141628607Y-118853607D01*
X141610883Y-118869671D01*
X141591670Y-118883921D01*
X141571153Y-118896218D01*
X141549529Y-118906446D01*
X141527007Y-118914504D01*
X141503803Y-118920316D01*
X141480142Y-118923826D01*
X141456250Y-118925000D01*
X140543750Y-118925000D01*
X140519858Y-118923826D01*
X140496197Y-118920316D01*
X140472993Y-118914504D01*
X140450471Y-118906446D01*
X140428847Y-118896218D01*
X140408330Y-118883921D01*
X140389117Y-118869671D01*
X140371393Y-118853607D01*
X140355329Y-118835883D01*
X140341079Y-118816670D01*
X140328782Y-118796153D01*
X140318554Y-118774529D01*
X140310496Y-118752007D01*
X140304684Y-118728803D01*
X140301174Y-118705142D01*
X140300000Y-118681250D01*
X140300000Y-118193750D01*
X140301174Y-118169858D01*
X140304684Y-118146197D01*
X140310496Y-118122993D01*
X140318554Y-118100471D01*
X140328782Y-118078847D01*
X140341079Y-118058330D01*
X140355329Y-118039117D01*
X140371393Y-118021393D01*
X140389117Y-118005329D01*
X140408330Y-117991079D01*
X140428847Y-117978782D01*
X140450471Y-117968554D01*
X140472993Y-117960496D01*
X140496197Y-117954684D01*
X140519858Y-117951174D01*
X140543750Y-117950000D01*
X141456250Y-117950000D01*
X141480142Y-117951174D01*
X141480142Y-117951174D01*
G37*
D11*
X141000000Y-118437500D03*
D10*
G36*
X139280142Y-116076174D02*
G01*
X139303803Y-116079684D01*
X139327007Y-116085496D01*
X139349529Y-116093554D01*
X139371153Y-116103782D01*
X139391670Y-116116079D01*
X139410883Y-116130329D01*
X139428607Y-116146393D01*
X139444671Y-116164117D01*
X139458921Y-116183330D01*
X139471218Y-116203847D01*
X139481446Y-116225471D01*
X139489504Y-116247993D01*
X139495316Y-116271197D01*
X139498826Y-116294858D01*
X139500000Y-116318750D01*
X139500000Y-116806250D01*
X139498826Y-116830142D01*
X139495316Y-116853803D01*
X139489504Y-116877007D01*
X139481446Y-116899529D01*
X139471218Y-116921153D01*
X139458921Y-116941670D01*
X139444671Y-116960883D01*
X139428607Y-116978607D01*
X139410883Y-116994671D01*
X139391670Y-117008921D01*
X139371153Y-117021218D01*
X139349529Y-117031446D01*
X139327007Y-117039504D01*
X139303803Y-117045316D01*
X139280142Y-117048826D01*
X139256250Y-117050000D01*
X138343750Y-117050000D01*
X138319858Y-117048826D01*
X138296197Y-117045316D01*
X138272993Y-117039504D01*
X138250471Y-117031446D01*
X138228847Y-117021218D01*
X138208330Y-117008921D01*
X138189117Y-116994671D01*
X138171393Y-116978607D01*
X138155329Y-116960883D01*
X138141079Y-116941670D01*
X138128782Y-116921153D01*
X138118554Y-116899529D01*
X138110496Y-116877007D01*
X138104684Y-116853803D01*
X138101174Y-116830142D01*
X138100000Y-116806250D01*
X138100000Y-116318750D01*
X138101174Y-116294858D01*
X138104684Y-116271197D01*
X138110496Y-116247993D01*
X138118554Y-116225471D01*
X138128782Y-116203847D01*
X138141079Y-116183330D01*
X138155329Y-116164117D01*
X138171393Y-116146393D01*
X138189117Y-116130329D01*
X138208330Y-116116079D01*
X138228847Y-116103782D01*
X138250471Y-116093554D01*
X138272993Y-116085496D01*
X138296197Y-116079684D01*
X138319858Y-116076174D01*
X138343750Y-116075000D01*
X139256250Y-116075000D01*
X139280142Y-116076174D01*
X139280142Y-116076174D01*
G37*
D11*
X138800000Y-116562500D03*
D10*
G36*
X139280142Y-117951174D02*
G01*
X139303803Y-117954684D01*
X139327007Y-117960496D01*
X139349529Y-117968554D01*
X139371153Y-117978782D01*
X139391670Y-117991079D01*
X139410883Y-118005329D01*
X139428607Y-118021393D01*
X139444671Y-118039117D01*
X139458921Y-118058330D01*
X139471218Y-118078847D01*
X139481446Y-118100471D01*
X139489504Y-118122993D01*
X139495316Y-118146197D01*
X139498826Y-118169858D01*
X139500000Y-118193750D01*
X139500000Y-118681250D01*
X139498826Y-118705142D01*
X139495316Y-118728803D01*
X139489504Y-118752007D01*
X139481446Y-118774529D01*
X139471218Y-118796153D01*
X139458921Y-118816670D01*
X139444671Y-118835883D01*
X139428607Y-118853607D01*
X139410883Y-118869671D01*
X139391670Y-118883921D01*
X139371153Y-118896218D01*
X139349529Y-118906446D01*
X139327007Y-118914504D01*
X139303803Y-118920316D01*
X139280142Y-118923826D01*
X139256250Y-118925000D01*
X138343750Y-118925000D01*
X138319858Y-118923826D01*
X138296197Y-118920316D01*
X138272993Y-118914504D01*
X138250471Y-118906446D01*
X138228847Y-118896218D01*
X138208330Y-118883921D01*
X138189117Y-118869671D01*
X138171393Y-118853607D01*
X138155329Y-118835883D01*
X138141079Y-118816670D01*
X138128782Y-118796153D01*
X138118554Y-118774529D01*
X138110496Y-118752007D01*
X138104684Y-118728803D01*
X138101174Y-118705142D01*
X138100000Y-118681250D01*
X138100000Y-118193750D01*
X138101174Y-118169858D01*
X138104684Y-118146197D01*
X138110496Y-118122993D01*
X138118554Y-118100471D01*
X138128782Y-118078847D01*
X138141079Y-118058330D01*
X138155329Y-118039117D01*
X138171393Y-118021393D01*
X138189117Y-118005329D01*
X138208330Y-117991079D01*
X138228847Y-117978782D01*
X138250471Y-117968554D01*
X138272993Y-117960496D01*
X138296197Y-117954684D01*
X138319858Y-117951174D01*
X138343750Y-117950000D01*
X139256250Y-117950000D01*
X139280142Y-117951174D01*
X139280142Y-117951174D01*
G37*
D11*
X138800000Y-118437500D03*
D18*
X135100000Y-90300000D03*
X135100000Y-90800000D03*
X135100000Y-91300000D03*
D19*
X134700000Y-91950000D03*
X134200000Y-91950000D03*
X133700000Y-91950000D03*
X133200000Y-91950000D03*
X132700000Y-91950000D03*
X132200000Y-91950000D03*
X131700000Y-91950000D03*
D18*
X131300000Y-91300000D03*
X131300000Y-90800000D03*
X131300000Y-90300000D03*
D19*
X131700000Y-89650000D03*
X132200000Y-89650000D03*
X132700000Y-89650000D03*
X133200000Y-89650000D03*
X133700000Y-89650000D03*
X134200000Y-89650000D03*
X134700000Y-89650000D03*
D10*
G36*
X137967642Y-91801174D02*
G01*
X137991303Y-91804684D01*
X138014507Y-91810496D01*
X138037029Y-91818554D01*
X138058653Y-91828782D01*
X138079170Y-91841079D01*
X138098383Y-91855329D01*
X138116107Y-91871393D01*
X138132171Y-91889117D01*
X138146421Y-91908330D01*
X138158718Y-91928847D01*
X138168946Y-91950471D01*
X138177004Y-91972993D01*
X138182816Y-91996197D01*
X138186326Y-92019858D01*
X138187500Y-92043750D01*
X138187500Y-92956250D01*
X138186326Y-92980142D01*
X138182816Y-93003803D01*
X138177004Y-93027007D01*
X138168946Y-93049529D01*
X138158718Y-93071153D01*
X138146421Y-93091670D01*
X138132171Y-93110883D01*
X138116107Y-93128607D01*
X138098383Y-93144671D01*
X138079170Y-93158921D01*
X138058653Y-93171218D01*
X138037029Y-93181446D01*
X138014507Y-93189504D01*
X137991303Y-93195316D01*
X137967642Y-93198826D01*
X137943750Y-93200000D01*
X137456250Y-93200000D01*
X137432358Y-93198826D01*
X137408697Y-93195316D01*
X137385493Y-93189504D01*
X137362971Y-93181446D01*
X137341347Y-93171218D01*
X137320830Y-93158921D01*
X137301617Y-93144671D01*
X137283893Y-93128607D01*
X137267829Y-93110883D01*
X137253579Y-93091670D01*
X137241282Y-93071153D01*
X137231054Y-93049529D01*
X137222996Y-93027007D01*
X137217184Y-93003803D01*
X137213674Y-92980142D01*
X137212500Y-92956250D01*
X137212500Y-92043750D01*
X137213674Y-92019858D01*
X137217184Y-91996197D01*
X137222996Y-91972993D01*
X137231054Y-91950471D01*
X137241282Y-91928847D01*
X137253579Y-91908330D01*
X137267829Y-91889117D01*
X137283893Y-91871393D01*
X137301617Y-91855329D01*
X137320830Y-91841079D01*
X137341347Y-91828782D01*
X137362971Y-91818554D01*
X137385493Y-91810496D01*
X137408697Y-91804684D01*
X137432358Y-91801174D01*
X137456250Y-91800000D01*
X137943750Y-91800000D01*
X137967642Y-91801174D01*
X137967642Y-91801174D01*
G37*
D11*
X137700000Y-92500000D03*
D10*
G36*
X139842642Y-91801174D02*
G01*
X139866303Y-91804684D01*
X139889507Y-91810496D01*
X139912029Y-91818554D01*
X139933653Y-91828782D01*
X139954170Y-91841079D01*
X139973383Y-91855329D01*
X139991107Y-91871393D01*
X140007171Y-91889117D01*
X140021421Y-91908330D01*
X140033718Y-91928847D01*
X140043946Y-91950471D01*
X140052004Y-91972993D01*
X140057816Y-91996197D01*
X140061326Y-92019858D01*
X140062500Y-92043750D01*
X140062500Y-92956250D01*
X140061326Y-92980142D01*
X140057816Y-93003803D01*
X140052004Y-93027007D01*
X140043946Y-93049529D01*
X140033718Y-93071153D01*
X140021421Y-93091670D01*
X140007171Y-93110883D01*
X139991107Y-93128607D01*
X139973383Y-93144671D01*
X139954170Y-93158921D01*
X139933653Y-93171218D01*
X139912029Y-93181446D01*
X139889507Y-93189504D01*
X139866303Y-93195316D01*
X139842642Y-93198826D01*
X139818750Y-93200000D01*
X139331250Y-93200000D01*
X139307358Y-93198826D01*
X139283697Y-93195316D01*
X139260493Y-93189504D01*
X139237971Y-93181446D01*
X139216347Y-93171218D01*
X139195830Y-93158921D01*
X139176617Y-93144671D01*
X139158893Y-93128607D01*
X139142829Y-93110883D01*
X139128579Y-93091670D01*
X139116282Y-93071153D01*
X139106054Y-93049529D01*
X139097996Y-93027007D01*
X139092184Y-93003803D01*
X139088674Y-92980142D01*
X139087500Y-92956250D01*
X139087500Y-92043750D01*
X139088674Y-92019858D01*
X139092184Y-91996197D01*
X139097996Y-91972993D01*
X139106054Y-91950471D01*
X139116282Y-91928847D01*
X139128579Y-91908330D01*
X139142829Y-91889117D01*
X139158893Y-91871393D01*
X139176617Y-91855329D01*
X139195830Y-91841079D01*
X139216347Y-91828782D01*
X139237971Y-91818554D01*
X139260493Y-91810496D01*
X139283697Y-91804684D01*
X139307358Y-91801174D01*
X139331250Y-91800000D01*
X139818750Y-91800000D01*
X139842642Y-91801174D01*
X139842642Y-91801174D01*
G37*
D11*
X139575000Y-92500000D03*
D10*
G36*
X139842642Y-88301174D02*
G01*
X139866303Y-88304684D01*
X139889507Y-88310496D01*
X139912029Y-88318554D01*
X139933653Y-88328782D01*
X139954170Y-88341079D01*
X139973383Y-88355329D01*
X139991107Y-88371393D01*
X140007171Y-88389117D01*
X140021421Y-88408330D01*
X140033718Y-88428847D01*
X140043946Y-88450471D01*
X140052004Y-88472993D01*
X140057816Y-88496197D01*
X140061326Y-88519858D01*
X140062500Y-88543750D01*
X140062500Y-89456250D01*
X140061326Y-89480142D01*
X140057816Y-89503803D01*
X140052004Y-89527007D01*
X140043946Y-89549529D01*
X140033718Y-89571153D01*
X140021421Y-89591670D01*
X140007171Y-89610883D01*
X139991107Y-89628607D01*
X139973383Y-89644671D01*
X139954170Y-89658921D01*
X139933653Y-89671218D01*
X139912029Y-89681446D01*
X139889507Y-89689504D01*
X139866303Y-89695316D01*
X139842642Y-89698826D01*
X139818750Y-89700000D01*
X139331250Y-89700000D01*
X139307358Y-89698826D01*
X139283697Y-89695316D01*
X139260493Y-89689504D01*
X139237971Y-89681446D01*
X139216347Y-89671218D01*
X139195830Y-89658921D01*
X139176617Y-89644671D01*
X139158893Y-89628607D01*
X139142829Y-89610883D01*
X139128579Y-89591670D01*
X139116282Y-89571153D01*
X139106054Y-89549529D01*
X139097996Y-89527007D01*
X139092184Y-89503803D01*
X139088674Y-89480142D01*
X139087500Y-89456250D01*
X139087500Y-88543750D01*
X139088674Y-88519858D01*
X139092184Y-88496197D01*
X139097996Y-88472993D01*
X139106054Y-88450471D01*
X139116282Y-88428847D01*
X139128579Y-88408330D01*
X139142829Y-88389117D01*
X139158893Y-88371393D01*
X139176617Y-88355329D01*
X139195830Y-88341079D01*
X139216347Y-88328782D01*
X139237971Y-88318554D01*
X139260493Y-88310496D01*
X139283697Y-88304684D01*
X139307358Y-88301174D01*
X139331250Y-88300000D01*
X139818750Y-88300000D01*
X139842642Y-88301174D01*
X139842642Y-88301174D01*
G37*
D11*
X139575000Y-89000000D03*
D10*
G36*
X137967642Y-88301174D02*
G01*
X137991303Y-88304684D01*
X138014507Y-88310496D01*
X138037029Y-88318554D01*
X138058653Y-88328782D01*
X138079170Y-88341079D01*
X138098383Y-88355329D01*
X138116107Y-88371393D01*
X138132171Y-88389117D01*
X138146421Y-88408330D01*
X138158718Y-88428847D01*
X138168946Y-88450471D01*
X138177004Y-88472993D01*
X138182816Y-88496197D01*
X138186326Y-88519858D01*
X138187500Y-88543750D01*
X138187500Y-89456250D01*
X138186326Y-89480142D01*
X138182816Y-89503803D01*
X138177004Y-89527007D01*
X138168946Y-89549529D01*
X138158718Y-89571153D01*
X138146421Y-89591670D01*
X138132171Y-89610883D01*
X138116107Y-89628607D01*
X138098383Y-89644671D01*
X138079170Y-89658921D01*
X138058653Y-89671218D01*
X138037029Y-89681446D01*
X138014507Y-89689504D01*
X137991303Y-89695316D01*
X137967642Y-89698826D01*
X137943750Y-89700000D01*
X137456250Y-89700000D01*
X137432358Y-89698826D01*
X137408697Y-89695316D01*
X137385493Y-89689504D01*
X137362971Y-89681446D01*
X137341347Y-89671218D01*
X137320830Y-89658921D01*
X137301617Y-89644671D01*
X137283893Y-89628607D01*
X137267829Y-89610883D01*
X137253579Y-89591670D01*
X137241282Y-89571153D01*
X137231054Y-89549529D01*
X137222996Y-89527007D01*
X137217184Y-89503803D01*
X137213674Y-89480142D01*
X137212500Y-89456250D01*
X137212500Y-88543750D01*
X137213674Y-88519858D01*
X137217184Y-88496197D01*
X137222996Y-88472993D01*
X137231054Y-88450471D01*
X137241282Y-88428847D01*
X137253579Y-88408330D01*
X137267829Y-88389117D01*
X137283893Y-88371393D01*
X137301617Y-88355329D01*
X137320830Y-88341079D01*
X137341347Y-88328782D01*
X137362971Y-88318554D01*
X137385493Y-88310496D01*
X137408697Y-88304684D01*
X137432358Y-88301174D01*
X137456250Y-88300000D01*
X137943750Y-88300000D01*
X137967642Y-88301174D01*
X137967642Y-88301174D01*
G37*
D11*
X137700000Y-89000000D03*
M02*
