G04 #@! TF.GenerationSoftware,KiCad,Pcbnew,(5.1.2)-2*
G04 #@! TF.CreationDate,2019-12-09T19:40:43+00:00*
G04 #@! TF.ProjectId,main_pcb,6d61696e-5f70-4636-922e-6b696361645f,rev?*
G04 #@! TF.SameCoordinates,Original*
G04 #@! TF.FileFunction,Soldermask,Top*
G04 #@! TF.FilePolarity,Negative*
%FSLAX46Y46*%
G04 Gerber Fmt 4.6, Leading zero omitted, Abs format (unit mm)*
G04 Created by KiCad (PCBNEW (5.1.2)-2) date 2019-12-09 19:40:43*
%MOMM*%
%LPD*%
G04 APERTURE LIST*
%ADD10C,0.100000*%
G04 APERTURE END LIST*
D10*
G36*
X146101000Y-118801000D02*
G01*
X144299000Y-118801000D01*
X144299000Y-116999000D01*
X146101000Y-116999000D01*
X146101000Y-118801000D01*
X146101000Y-118801000D01*
G37*
G36*
X142751000Y-118656000D02*
G01*
X140649000Y-118656000D01*
X140649000Y-117654000D01*
X142751000Y-117654000D01*
X142751000Y-118656000D01*
X142751000Y-118656000D01*
G37*
G36*
X125751000Y-118656000D02*
G01*
X123649000Y-118656000D01*
X123649000Y-117654000D01*
X125751000Y-117654000D01*
X125751000Y-118656000D01*
X125751000Y-118656000D01*
G37*
G36*
X121508600Y-115602989D02*
G01*
X121541652Y-115613015D01*
X121572103Y-115629292D01*
X121598799Y-115651201D01*
X121620708Y-115677897D01*
X121636985Y-115708348D01*
X121647011Y-115741400D01*
X121651000Y-115781903D01*
X121651000Y-117218097D01*
X121647011Y-117258600D01*
X121636985Y-117291652D01*
X121620708Y-117322103D01*
X121598799Y-117348799D01*
X121572103Y-117370708D01*
X121541652Y-117386985D01*
X121508600Y-117397011D01*
X121468097Y-117401000D01*
X119731903Y-117401000D01*
X119691400Y-117397011D01*
X119658348Y-117386985D01*
X119627897Y-117370708D01*
X119601201Y-117348799D01*
X119579292Y-117322103D01*
X119563015Y-117291652D01*
X119552989Y-117258600D01*
X119549000Y-117218097D01*
X119549000Y-115781903D01*
X119552989Y-115741400D01*
X119563015Y-115708348D01*
X119579292Y-115677897D01*
X119601201Y-115651201D01*
X119627897Y-115629292D01*
X119658348Y-115613015D01*
X119691400Y-115602989D01*
X119731903Y-115599000D01*
X121468097Y-115599000D01*
X121508600Y-115602989D01*
X121508600Y-115602989D01*
G37*
G36*
X125751000Y-117386000D02*
G01*
X123649000Y-117386000D01*
X123649000Y-116384000D01*
X125751000Y-116384000D01*
X125751000Y-117386000D01*
X125751000Y-117386000D01*
G37*
G36*
X142751000Y-117386000D02*
G01*
X140649000Y-117386000D01*
X140649000Y-116384000D01*
X142751000Y-116384000D01*
X142751000Y-117386000D01*
X142751000Y-117386000D01*
G37*
G36*
X145310443Y-114465519D02*
G01*
X145376627Y-114472037D01*
X145546466Y-114523557D01*
X145702991Y-114607222D01*
X145738729Y-114636552D01*
X145840186Y-114719814D01*
X145923448Y-114821271D01*
X145952778Y-114857009D01*
X146036443Y-115013534D01*
X146087963Y-115183373D01*
X146105359Y-115360000D01*
X146087963Y-115536627D01*
X146036443Y-115706466D01*
X145952778Y-115862991D01*
X145923448Y-115898729D01*
X145840186Y-116000186D01*
X145738729Y-116083448D01*
X145702991Y-116112778D01*
X145546466Y-116196443D01*
X145376627Y-116247963D01*
X145310443Y-116254481D01*
X145244260Y-116261000D01*
X145155740Y-116261000D01*
X145089557Y-116254481D01*
X145023373Y-116247963D01*
X144853534Y-116196443D01*
X144697009Y-116112778D01*
X144661271Y-116083448D01*
X144559814Y-116000186D01*
X144476552Y-115898729D01*
X144447222Y-115862991D01*
X144363557Y-115706466D01*
X144312037Y-115536627D01*
X144294641Y-115360000D01*
X144312037Y-115183373D01*
X144363557Y-115013534D01*
X144447222Y-114857009D01*
X144476552Y-114821271D01*
X144559814Y-114719814D01*
X144661271Y-114636552D01*
X144697009Y-114607222D01*
X144853534Y-114523557D01*
X145023373Y-114472037D01*
X145089557Y-114465519D01*
X145155740Y-114459000D01*
X145244260Y-114459000D01*
X145310443Y-114465519D01*
X145310443Y-114465519D01*
G37*
G36*
X142751000Y-116116000D02*
G01*
X140649000Y-116116000D01*
X140649000Y-115114000D01*
X142751000Y-115114000D01*
X142751000Y-116116000D01*
X142751000Y-116116000D01*
G37*
G36*
X125751000Y-116116000D02*
G01*
X123649000Y-116116000D01*
X123649000Y-115114000D01*
X125751000Y-115114000D01*
X125751000Y-116116000D01*
X125751000Y-116116000D01*
G37*
G36*
X120860443Y-113105519D02*
G01*
X120926627Y-113112037D01*
X121096466Y-113163557D01*
X121252991Y-113247222D01*
X121288729Y-113276552D01*
X121390186Y-113359814D01*
X121472557Y-113460185D01*
X121502778Y-113497009D01*
X121586443Y-113653534D01*
X121637963Y-113823373D01*
X121655359Y-114000000D01*
X121637963Y-114176627D01*
X121586443Y-114346466D01*
X121502778Y-114502991D01*
X121485900Y-114523557D01*
X121390186Y-114640186D01*
X121293156Y-114719815D01*
X121252991Y-114752778D01*
X121096466Y-114836443D01*
X120926627Y-114887963D01*
X120860443Y-114894481D01*
X120794260Y-114901000D01*
X120405740Y-114901000D01*
X120339557Y-114894481D01*
X120273373Y-114887963D01*
X120103534Y-114836443D01*
X119947009Y-114752778D01*
X119906844Y-114719815D01*
X119809814Y-114640186D01*
X119714100Y-114523557D01*
X119697222Y-114502991D01*
X119613557Y-114346466D01*
X119562037Y-114176627D01*
X119544641Y-114000000D01*
X119562037Y-113823373D01*
X119613557Y-113653534D01*
X119697222Y-113497009D01*
X119727443Y-113460185D01*
X119809814Y-113359814D01*
X119911271Y-113276552D01*
X119947009Y-113247222D01*
X120103534Y-113163557D01*
X120273373Y-113112037D01*
X120339557Y-113105519D01*
X120405740Y-113099000D01*
X120794260Y-113099000D01*
X120860443Y-113105519D01*
X120860443Y-113105519D01*
G37*
G36*
X125751000Y-114846000D02*
G01*
X123649000Y-114846000D01*
X123649000Y-113844000D01*
X125751000Y-113844000D01*
X125751000Y-114846000D01*
X125751000Y-114846000D01*
G37*
G36*
X142751000Y-114846000D02*
G01*
X140649000Y-114846000D01*
X140649000Y-113844000D01*
X142751000Y-113844000D01*
X142751000Y-114846000D01*
X142751000Y-114846000D01*
G37*
G36*
X145310443Y-111925519D02*
G01*
X145376627Y-111932037D01*
X145546466Y-111983557D01*
X145702991Y-112067222D01*
X145738729Y-112096552D01*
X145840186Y-112179814D01*
X145923448Y-112281271D01*
X145952778Y-112317009D01*
X146036443Y-112473534D01*
X146087963Y-112643373D01*
X146105359Y-112820000D01*
X146087963Y-112996627D01*
X146037325Y-113163557D01*
X146036442Y-113166468D01*
X145994611Y-113244728D01*
X145952778Y-113322991D01*
X145923448Y-113358729D01*
X145840186Y-113460186D01*
X145738729Y-113543448D01*
X145702991Y-113572778D01*
X145546466Y-113656443D01*
X145376627Y-113707963D01*
X145310443Y-113714481D01*
X145244260Y-113721000D01*
X145155740Y-113721000D01*
X145089557Y-113714481D01*
X145023373Y-113707963D01*
X144853534Y-113656443D01*
X144697009Y-113572778D01*
X144661271Y-113543448D01*
X144559814Y-113460186D01*
X144476552Y-113358729D01*
X144447222Y-113322991D01*
X144405389Y-113244728D01*
X144363558Y-113166468D01*
X144362675Y-113163557D01*
X144312037Y-112996627D01*
X144294641Y-112820000D01*
X144312037Y-112643373D01*
X144363557Y-112473534D01*
X144447222Y-112317009D01*
X144476552Y-112281271D01*
X144559814Y-112179814D01*
X144661271Y-112096552D01*
X144697009Y-112067222D01*
X144853534Y-111983557D01*
X145023373Y-111932037D01*
X145089557Y-111925519D01*
X145155740Y-111919000D01*
X145244260Y-111919000D01*
X145310443Y-111925519D01*
X145310443Y-111925519D01*
G37*
G36*
X142751000Y-113576000D02*
G01*
X140649000Y-113576000D01*
X140649000Y-112574000D01*
X142751000Y-112574000D01*
X142751000Y-113576000D01*
X142751000Y-113576000D01*
G37*
G36*
X125751000Y-113576000D02*
G01*
X123649000Y-113576000D01*
X123649000Y-112574000D01*
X125751000Y-112574000D01*
X125751000Y-113576000D01*
X125751000Y-113576000D01*
G37*
G36*
X136751000Y-113206000D02*
G01*
X131649000Y-113206000D01*
X131649000Y-108104000D01*
X136751000Y-108104000D01*
X136751000Y-113206000D01*
X136751000Y-113206000D01*
G37*
G36*
X125751000Y-112306000D02*
G01*
X123649000Y-112306000D01*
X123649000Y-111304000D01*
X125751000Y-111304000D01*
X125751000Y-112306000D01*
X125751000Y-112306000D01*
G37*
G36*
X142751000Y-112306000D02*
G01*
X140649000Y-112306000D01*
X140649000Y-111304000D01*
X142751000Y-111304000D01*
X142751000Y-112306000D01*
X142751000Y-112306000D01*
G37*
G36*
X145310442Y-109385518D02*
G01*
X145376627Y-109392037D01*
X145546466Y-109443557D01*
X145702991Y-109527222D01*
X145738729Y-109556552D01*
X145840186Y-109639814D01*
X145923448Y-109741271D01*
X145952778Y-109777009D01*
X146036443Y-109933534D01*
X146087963Y-110103373D01*
X146105359Y-110280000D01*
X146087963Y-110456627D01*
X146036443Y-110626466D01*
X145952778Y-110782991D01*
X145923448Y-110818729D01*
X145840186Y-110920186D01*
X145738729Y-111003448D01*
X145702991Y-111032778D01*
X145546466Y-111116443D01*
X145376627Y-111167963D01*
X145310442Y-111174482D01*
X145244260Y-111181000D01*
X145155740Y-111181000D01*
X145089558Y-111174482D01*
X145023373Y-111167963D01*
X144853534Y-111116443D01*
X144697009Y-111032778D01*
X144661271Y-111003448D01*
X144559814Y-110920186D01*
X144476552Y-110818729D01*
X144447222Y-110782991D01*
X144363557Y-110626466D01*
X144312037Y-110456627D01*
X144294641Y-110280000D01*
X144312037Y-110103373D01*
X144363557Y-109933534D01*
X144447222Y-109777009D01*
X144476552Y-109741271D01*
X144559814Y-109639814D01*
X144661271Y-109556552D01*
X144697009Y-109527222D01*
X144853534Y-109443557D01*
X145023373Y-109392037D01*
X145089558Y-109385518D01*
X145155740Y-109379000D01*
X145244260Y-109379000D01*
X145310442Y-109385518D01*
X145310442Y-109385518D01*
G37*
G36*
X125751000Y-111036000D02*
G01*
X123649000Y-111036000D01*
X123649000Y-110034000D01*
X125751000Y-110034000D01*
X125751000Y-111036000D01*
X125751000Y-111036000D01*
G37*
G36*
X142751000Y-111036000D02*
G01*
X140649000Y-111036000D01*
X140649000Y-110034000D01*
X142751000Y-110034000D01*
X142751000Y-111036000D01*
X142751000Y-111036000D01*
G37*
G36*
X121684468Y-109103565D02*
G01*
X121723138Y-109115296D01*
X121758777Y-109134346D01*
X121790017Y-109159983D01*
X121815654Y-109191223D01*
X121834704Y-109226862D01*
X121846435Y-109265532D01*
X121851000Y-109311888D01*
X121851000Y-109963112D01*
X121846435Y-110009468D01*
X121834704Y-110048138D01*
X121815654Y-110083777D01*
X121790017Y-110115017D01*
X121758777Y-110140654D01*
X121723138Y-110159704D01*
X121684468Y-110171435D01*
X121638112Y-110176000D01*
X120561888Y-110176000D01*
X120515532Y-110171435D01*
X120476862Y-110159704D01*
X120441223Y-110140654D01*
X120409983Y-110115017D01*
X120384346Y-110083777D01*
X120365296Y-110048138D01*
X120353565Y-110009468D01*
X120349000Y-109963112D01*
X120349000Y-109311888D01*
X120353565Y-109265532D01*
X120365296Y-109226862D01*
X120384346Y-109191223D01*
X120409983Y-109159983D01*
X120441223Y-109134346D01*
X120476862Y-109115296D01*
X120515532Y-109103565D01*
X120561888Y-109099000D01*
X121638112Y-109099000D01*
X121684468Y-109103565D01*
X121684468Y-109103565D01*
G37*
G36*
X142751000Y-109766000D02*
G01*
X140649000Y-109766000D01*
X140649000Y-108764000D01*
X142751000Y-108764000D01*
X142751000Y-109766000D01*
X142751000Y-109766000D01*
G37*
G36*
X125751000Y-109766000D02*
G01*
X123649000Y-109766000D01*
X123649000Y-108764000D01*
X125751000Y-108764000D01*
X125751000Y-109766000D01*
X125751000Y-109766000D01*
G37*
G36*
X145310442Y-106845518D02*
G01*
X145376627Y-106852037D01*
X145546466Y-106903557D01*
X145702991Y-106987222D01*
X145738729Y-107016552D01*
X145840186Y-107099814D01*
X145923448Y-107201271D01*
X145952778Y-107237009D01*
X146036443Y-107393534D01*
X146087963Y-107563373D01*
X146105359Y-107740000D01*
X146087963Y-107916627D01*
X146036443Y-108086466D01*
X145952778Y-108242991D01*
X145942411Y-108255623D01*
X145840186Y-108380186D01*
X145738729Y-108463448D01*
X145702991Y-108492778D01*
X145546466Y-108576443D01*
X145376627Y-108627963D01*
X145310443Y-108634481D01*
X145244260Y-108641000D01*
X145155740Y-108641000D01*
X145089557Y-108634481D01*
X145023373Y-108627963D01*
X144853534Y-108576443D01*
X144697009Y-108492778D01*
X144661271Y-108463448D01*
X144559814Y-108380186D01*
X144457589Y-108255623D01*
X144447222Y-108242991D01*
X144363557Y-108086466D01*
X144312037Y-107916627D01*
X144294641Y-107740000D01*
X144312037Y-107563373D01*
X144363557Y-107393534D01*
X144447222Y-107237009D01*
X144476552Y-107201271D01*
X144559814Y-107099814D01*
X144661271Y-107016552D01*
X144697009Y-106987222D01*
X144853534Y-106903557D01*
X145023373Y-106852037D01*
X145089558Y-106845518D01*
X145155740Y-106839000D01*
X145244260Y-106839000D01*
X145310442Y-106845518D01*
X145310442Y-106845518D01*
G37*
G36*
X125751000Y-108496000D02*
G01*
X123649000Y-108496000D01*
X123649000Y-107494000D01*
X125751000Y-107494000D01*
X125751000Y-108496000D01*
X125751000Y-108496000D01*
G37*
G36*
X142751000Y-108496000D02*
G01*
X140649000Y-108496000D01*
X140649000Y-107494000D01*
X142751000Y-107494000D01*
X142751000Y-108496000D01*
X142751000Y-108496000D01*
G37*
G36*
X121684468Y-107228565D02*
G01*
X121723138Y-107240296D01*
X121758777Y-107259346D01*
X121790017Y-107284983D01*
X121815654Y-107316223D01*
X121834704Y-107351862D01*
X121846435Y-107390532D01*
X121851000Y-107436888D01*
X121851000Y-108088112D01*
X121846435Y-108134468D01*
X121834704Y-108173138D01*
X121815654Y-108208777D01*
X121790017Y-108240017D01*
X121758777Y-108265654D01*
X121723138Y-108284704D01*
X121684468Y-108296435D01*
X121638112Y-108301000D01*
X120561888Y-108301000D01*
X120515532Y-108296435D01*
X120476862Y-108284704D01*
X120441223Y-108265654D01*
X120409983Y-108240017D01*
X120384346Y-108208777D01*
X120365296Y-108173138D01*
X120353565Y-108134468D01*
X120349000Y-108088112D01*
X120349000Y-107436888D01*
X120353565Y-107390532D01*
X120365296Y-107351862D01*
X120384346Y-107316223D01*
X120409983Y-107284983D01*
X120441223Y-107259346D01*
X120476862Y-107240296D01*
X120515532Y-107228565D01*
X120561888Y-107224000D01*
X121638112Y-107224000D01*
X121684468Y-107228565D01*
X121684468Y-107228565D01*
G37*
G36*
X142751000Y-107226000D02*
G01*
X140649000Y-107226000D01*
X140649000Y-106224000D01*
X142751000Y-106224000D01*
X142751000Y-107226000D01*
X142751000Y-107226000D01*
G37*
G36*
X125751000Y-107226000D02*
G01*
X123649000Y-107226000D01*
X123649000Y-106224000D01*
X125751000Y-106224000D01*
X125751000Y-107226000D01*
X125751000Y-107226000D01*
G37*
G36*
X145310442Y-104305518D02*
G01*
X145376627Y-104312037D01*
X145546466Y-104363557D01*
X145702991Y-104447222D01*
X145738729Y-104476552D01*
X145840186Y-104559814D01*
X145916493Y-104652796D01*
X145952778Y-104697009D01*
X146036443Y-104853534D01*
X146087963Y-105023373D01*
X146105359Y-105200000D01*
X146087963Y-105376627D01*
X146036443Y-105546466D01*
X146036442Y-105546468D01*
X145996455Y-105621277D01*
X145952778Y-105702991D01*
X145944153Y-105713500D01*
X145840186Y-105840186D01*
X145738729Y-105923448D01*
X145702991Y-105952778D01*
X145546466Y-106036443D01*
X145376627Y-106087963D01*
X145310443Y-106094481D01*
X145244260Y-106101000D01*
X145155740Y-106101000D01*
X145089557Y-106094481D01*
X145023373Y-106087963D01*
X144853534Y-106036443D01*
X144697009Y-105952778D01*
X144661271Y-105923448D01*
X144559814Y-105840186D01*
X144455847Y-105713500D01*
X144447222Y-105702991D01*
X144403545Y-105621277D01*
X144363558Y-105546468D01*
X144363557Y-105546466D01*
X144312037Y-105376627D01*
X144294641Y-105200000D01*
X144312037Y-105023373D01*
X144363557Y-104853534D01*
X144447222Y-104697009D01*
X144483507Y-104652796D01*
X144559814Y-104559814D01*
X144661271Y-104476552D01*
X144697009Y-104447222D01*
X144853534Y-104363557D01*
X145023373Y-104312037D01*
X145089558Y-104305518D01*
X145155740Y-104299000D01*
X145244260Y-104299000D01*
X145310442Y-104305518D01*
X145310442Y-104305518D01*
G37*
G36*
X142751000Y-105956000D02*
G01*
X140649000Y-105956000D01*
X140649000Y-104954000D01*
X142751000Y-104954000D01*
X142751000Y-105956000D01*
X142751000Y-105956000D01*
G37*
G36*
X125751000Y-105956000D02*
G01*
X123649000Y-105956000D01*
X123649000Y-104954000D01*
X125751000Y-104954000D01*
X125751000Y-105956000D01*
X125751000Y-105956000D01*
G37*
G36*
X121684468Y-104641065D02*
G01*
X121723138Y-104652796D01*
X121758777Y-104671846D01*
X121790017Y-104697483D01*
X121815654Y-104728723D01*
X121834704Y-104764362D01*
X121846435Y-104803032D01*
X121851000Y-104849388D01*
X121851000Y-105500612D01*
X121846435Y-105546968D01*
X121834704Y-105585638D01*
X121815654Y-105621277D01*
X121790017Y-105652517D01*
X121758777Y-105678154D01*
X121723138Y-105697204D01*
X121684468Y-105708935D01*
X121638112Y-105713500D01*
X120561888Y-105713500D01*
X120515532Y-105708935D01*
X120476862Y-105697204D01*
X120441223Y-105678154D01*
X120409983Y-105652517D01*
X120384346Y-105621277D01*
X120365296Y-105585638D01*
X120353565Y-105546968D01*
X120349000Y-105500612D01*
X120349000Y-104849388D01*
X120353565Y-104803032D01*
X120365296Y-104764362D01*
X120384346Y-104728723D01*
X120409983Y-104697483D01*
X120441223Y-104671846D01*
X120476862Y-104652796D01*
X120515532Y-104641065D01*
X120561888Y-104636500D01*
X121638112Y-104636500D01*
X121684468Y-104641065D01*
X121684468Y-104641065D01*
G37*
G36*
X142751000Y-104686000D02*
G01*
X140649000Y-104686000D01*
X140649000Y-103684000D01*
X142751000Y-103684000D01*
X142751000Y-104686000D01*
X142751000Y-104686000D01*
G37*
G36*
X125751000Y-104686000D02*
G01*
X123649000Y-104686000D01*
X123649000Y-103684000D01*
X125751000Y-103684000D01*
X125751000Y-104686000D01*
X125751000Y-104686000D01*
G37*
G36*
X121684468Y-102766065D02*
G01*
X121723138Y-102777796D01*
X121758777Y-102796846D01*
X121790017Y-102822483D01*
X121815654Y-102853723D01*
X121834704Y-102889362D01*
X121846435Y-102928032D01*
X121851000Y-102974388D01*
X121851000Y-103625612D01*
X121846435Y-103671968D01*
X121834704Y-103710638D01*
X121815654Y-103746277D01*
X121790017Y-103777517D01*
X121758777Y-103803154D01*
X121723138Y-103822204D01*
X121684468Y-103833935D01*
X121638112Y-103838500D01*
X120561888Y-103838500D01*
X120515532Y-103833935D01*
X120476862Y-103822204D01*
X120441223Y-103803154D01*
X120409983Y-103777517D01*
X120384346Y-103746277D01*
X120365296Y-103710638D01*
X120353565Y-103671968D01*
X120349000Y-103625612D01*
X120349000Y-102974388D01*
X120353565Y-102928032D01*
X120365296Y-102889362D01*
X120384346Y-102853723D01*
X120409983Y-102822483D01*
X120441223Y-102796846D01*
X120476862Y-102777796D01*
X120515532Y-102766065D01*
X120561888Y-102761500D01*
X121638112Y-102761500D01*
X121684468Y-102766065D01*
X121684468Y-102766065D01*
G37*
G36*
X145310442Y-101765518D02*
G01*
X145376627Y-101772037D01*
X145546466Y-101823557D01*
X145702991Y-101907222D01*
X145716130Y-101918005D01*
X145840186Y-102019814D01*
X145923448Y-102121271D01*
X145952778Y-102157009D01*
X146036443Y-102313534D01*
X146087963Y-102483373D01*
X146105359Y-102660000D01*
X146087963Y-102836627D01*
X146036443Y-103006466D01*
X145952778Y-103162991D01*
X145923448Y-103198729D01*
X145840186Y-103300186D01*
X145738729Y-103383448D01*
X145702991Y-103412778D01*
X145546466Y-103496443D01*
X145376627Y-103547963D01*
X145310442Y-103554482D01*
X145244260Y-103561000D01*
X145155740Y-103561000D01*
X145089558Y-103554482D01*
X145023373Y-103547963D01*
X144853534Y-103496443D01*
X144697009Y-103412778D01*
X144661271Y-103383448D01*
X144559814Y-103300186D01*
X144476552Y-103198729D01*
X144447222Y-103162991D01*
X144363557Y-103006466D01*
X144312037Y-102836627D01*
X144294641Y-102660000D01*
X144312037Y-102483373D01*
X144363557Y-102313534D01*
X144447222Y-102157009D01*
X144476552Y-102121271D01*
X144559814Y-102019814D01*
X144683870Y-101918005D01*
X144697009Y-101907222D01*
X144853534Y-101823557D01*
X145023373Y-101772037D01*
X145089558Y-101765518D01*
X145155740Y-101759000D01*
X145244260Y-101759000D01*
X145310442Y-101765518D01*
X145310442Y-101765518D01*
G37*
G36*
X125751000Y-103416000D02*
G01*
X123649000Y-103416000D01*
X123649000Y-102414000D01*
X125751000Y-102414000D01*
X125751000Y-103416000D01*
X125751000Y-103416000D01*
G37*
G36*
X142751000Y-103416000D02*
G01*
X140649000Y-103416000D01*
X140649000Y-102414000D01*
X142751000Y-102414000D01*
X142751000Y-103416000D01*
X142751000Y-103416000D01*
G37*
G36*
X125751000Y-102146000D02*
G01*
X123649000Y-102146000D01*
X123649000Y-101144000D01*
X125751000Y-101144000D01*
X125751000Y-102146000D01*
X125751000Y-102146000D01*
G37*
G36*
X142751000Y-102146000D02*
G01*
X140649000Y-102146000D01*
X140649000Y-101144000D01*
X142751000Y-101144000D01*
X142751000Y-102146000D01*
X142751000Y-102146000D01*
G37*
G36*
X121684468Y-100866065D02*
G01*
X121723138Y-100877796D01*
X121758777Y-100896846D01*
X121790017Y-100922483D01*
X121815654Y-100953723D01*
X121834704Y-100989362D01*
X121846435Y-101028032D01*
X121851000Y-101074388D01*
X121851000Y-101725612D01*
X121846435Y-101771968D01*
X121834704Y-101810638D01*
X121815654Y-101846277D01*
X121790017Y-101877517D01*
X121758777Y-101903154D01*
X121723138Y-101922204D01*
X121684468Y-101933935D01*
X121638112Y-101938500D01*
X120561888Y-101938500D01*
X120515532Y-101933935D01*
X120476862Y-101922204D01*
X120441223Y-101903154D01*
X120409983Y-101877517D01*
X120384346Y-101846277D01*
X120365296Y-101810638D01*
X120353565Y-101771968D01*
X120349000Y-101725612D01*
X120349000Y-101074388D01*
X120353565Y-101028032D01*
X120365296Y-100989362D01*
X120384346Y-100953723D01*
X120409983Y-100922483D01*
X120441223Y-100896846D01*
X120476862Y-100877796D01*
X120515532Y-100866065D01*
X120561888Y-100861500D01*
X121638112Y-100861500D01*
X121684468Y-100866065D01*
X121684468Y-100866065D01*
G37*
G36*
X138146000Y-101696000D02*
G01*
X137144000Y-101696000D01*
X137144000Y-99594000D01*
X138146000Y-99594000D01*
X138146000Y-101696000D01*
X138146000Y-101696000D01*
G37*
G36*
X127986000Y-101696000D02*
G01*
X126984000Y-101696000D01*
X126984000Y-99594000D01*
X127986000Y-99594000D01*
X127986000Y-101696000D01*
X127986000Y-101696000D01*
G37*
G36*
X136876000Y-101696000D02*
G01*
X135874000Y-101696000D01*
X135874000Y-99594000D01*
X136876000Y-99594000D01*
X136876000Y-101696000D01*
X136876000Y-101696000D01*
G37*
G36*
X139416000Y-101696000D02*
G01*
X138414000Y-101696000D01*
X138414000Y-99594000D01*
X139416000Y-99594000D01*
X139416000Y-101696000D01*
X139416000Y-101696000D01*
G37*
G36*
X129256000Y-101696000D02*
G01*
X128254000Y-101696000D01*
X128254000Y-99594000D01*
X129256000Y-99594000D01*
X129256000Y-101696000D01*
X129256000Y-101696000D01*
G37*
G36*
X133066000Y-101696000D02*
G01*
X132064000Y-101696000D01*
X132064000Y-99594000D01*
X133066000Y-99594000D01*
X133066000Y-101696000D01*
X133066000Y-101696000D01*
G37*
G36*
X130526000Y-101696000D02*
G01*
X129524000Y-101696000D01*
X129524000Y-99594000D01*
X130526000Y-99594000D01*
X130526000Y-101696000D01*
X130526000Y-101696000D01*
G37*
G36*
X131796000Y-101696000D02*
G01*
X130794000Y-101696000D01*
X130794000Y-99594000D01*
X131796000Y-99594000D01*
X131796000Y-101696000D01*
X131796000Y-101696000D01*
G37*
G36*
X134336000Y-101696000D02*
G01*
X133334000Y-101696000D01*
X133334000Y-99594000D01*
X134336000Y-99594000D01*
X134336000Y-101696000D01*
X134336000Y-101696000D01*
G37*
G36*
X135606000Y-101696000D02*
G01*
X134604000Y-101696000D01*
X134604000Y-99594000D01*
X135606000Y-99594000D01*
X135606000Y-101696000D01*
X135606000Y-101696000D01*
G37*
G36*
X145310442Y-99225518D02*
G01*
X145376627Y-99232037D01*
X145546466Y-99283557D01*
X145702991Y-99367222D01*
X145738729Y-99396552D01*
X145840186Y-99479814D01*
X145923448Y-99581271D01*
X145952778Y-99617009D01*
X146036443Y-99773534D01*
X146087963Y-99943373D01*
X146105359Y-100120000D01*
X146087963Y-100296627D01*
X146036443Y-100466466D01*
X145952778Y-100622991D01*
X145923448Y-100658729D01*
X145840186Y-100760186D01*
X145738729Y-100843448D01*
X145702991Y-100872778D01*
X145546466Y-100956443D01*
X145376627Y-101007963D01*
X145310443Y-101014481D01*
X145244260Y-101021000D01*
X145155740Y-101021000D01*
X145089557Y-101014481D01*
X145023373Y-101007963D01*
X144853534Y-100956443D01*
X144697009Y-100872778D01*
X144661271Y-100843448D01*
X144559814Y-100760186D01*
X144476552Y-100658729D01*
X144447222Y-100622991D01*
X144363557Y-100466466D01*
X144312037Y-100296627D01*
X144294641Y-100120000D01*
X144312037Y-99943373D01*
X144363557Y-99773534D01*
X144447222Y-99617009D01*
X144476552Y-99581271D01*
X144559814Y-99479814D01*
X144661271Y-99396552D01*
X144697009Y-99367222D01*
X144853534Y-99283557D01*
X145023373Y-99232037D01*
X145089558Y-99225518D01*
X145155740Y-99219000D01*
X145244260Y-99219000D01*
X145310442Y-99225518D01*
X145310442Y-99225518D01*
G37*
G36*
X121684468Y-98991065D02*
G01*
X121723138Y-99002796D01*
X121758777Y-99021846D01*
X121790017Y-99047483D01*
X121815654Y-99078723D01*
X121834704Y-99114362D01*
X121846435Y-99153032D01*
X121851000Y-99199388D01*
X121851000Y-99850612D01*
X121846435Y-99896968D01*
X121834704Y-99935638D01*
X121815654Y-99971277D01*
X121790017Y-100002517D01*
X121758777Y-100028154D01*
X121723138Y-100047204D01*
X121684468Y-100058935D01*
X121638112Y-100063500D01*
X120561888Y-100063500D01*
X120515532Y-100058935D01*
X120476862Y-100047204D01*
X120441223Y-100028154D01*
X120409983Y-100002517D01*
X120384346Y-99971277D01*
X120365296Y-99935638D01*
X120353565Y-99896968D01*
X120349000Y-99850612D01*
X120349000Y-99199388D01*
X120353565Y-99153032D01*
X120365296Y-99114362D01*
X120384346Y-99078723D01*
X120409983Y-99047483D01*
X120441223Y-99021846D01*
X120476862Y-99002796D01*
X120515532Y-98991065D01*
X120561888Y-98986500D01*
X121638112Y-98986500D01*
X121684468Y-98991065D01*
X121684468Y-98991065D01*
G37*
G36*
X121576000Y-97876000D02*
G01*
X120624000Y-97876000D01*
X120624000Y-96924000D01*
X121576000Y-96924000D01*
X121576000Y-97876000D01*
X121576000Y-97876000D01*
G37*
G36*
X136351000Y-97571000D02*
G01*
X134249000Y-97571000D01*
X134249000Y-95469000D01*
X136351000Y-95469000D01*
X136351000Y-97571000D01*
X136351000Y-97571000D01*
G37*
G36*
X132151000Y-97566000D02*
G01*
X130049000Y-97566000D01*
X130049000Y-95464000D01*
X132151000Y-95464000D01*
X132151000Y-97566000D01*
X132151000Y-97566000D01*
G37*
G36*
X121576000Y-95876000D02*
G01*
X120624000Y-95876000D01*
X120624000Y-94924000D01*
X121576000Y-94924000D01*
X121576000Y-95876000D01*
X121576000Y-95876000D01*
G37*
G36*
X136351000Y-93761000D02*
G01*
X134249000Y-93761000D01*
X134249000Y-91659000D01*
X136351000Y-91659000D01*
X136351000Y-93761000D01*
X136351000Y-93761000D01*
G37*
G36*
X132151000Y-93756000D02*
G01*
X130049000Y-93756000D01*
X130049000Y-91654000D01*
X132151000Y-91654000D01*
X132151000Y-93756000D01*
X132151000Y-93756000D01*
G37*
G36*
X136351000Y-89951000D02*
G01*
X134249000Y-89951000D01*
X134249000Y-87849000D01*
X136351000Y-87849000D01*
X136351000Y-89951000D01*
X136351000Y-89951000D01*
G37*
G36*
X132151000Y-89946000D02*
G01*
X130049000Y-89946000D01*
X130049000Y-87844000D01*
X132151000Y-87844000D01*
X132151000Y-89946000D01*
X132151000Y-89946000D01*
G37*
G36*
X145876000Y-86776000D02*
G01*
X144924000Y-86776000D01*
X144924000Y-85824000D01*
X145876000Y-85824000D01*
X145876000Y-86776000D01*
X145876000Y-86776000D01*
G37*
G36*
X136351000Y-86141000D02*
G01*
X134249000Y-86141000D01*
X134249000Y-84039000D01*
X136351000Y-84039000D01*
X136351000Y-86141000D01*
X136351000Y-86141000D01*
G37*
G36*
X132151000Y-86136000D02*
G01*
X130049000Y-86136000D01*
X130049000Y-84034000D01*
X132151000Y-84034000D01*
X132151000Y-86136000D01*
X132151000Y-86136000D01*
G37*
G36*
X145876000Y-84776000D02*
G01*
X144924000Y-84776000D01*
X144924000Y-83824000D01*
X145876000Y-83824000D01*
X145876000Y-84776000D01*
X145876000Y-84776000D01*
G37*
G36*
X137534468Y-78253565D02*
G01*
X137573138Y-78265296D01*
X137608777Y-78284346D01*
X137640017Y-78309983D01*
X137665654Y-78341223D01*
X137684704Y-78376862D01*
X137696435Y-78415532D01*
X137701000Y-78461888D01*
X137701000Y-79538112D01*
X137696435Y-79584468D01*
X137684704Y-79623138D01*
X137665654Y-79658777D01*
X137640017Y-79690017D01*
X137608777Y-79715654D01*
X137573138Y-79734704D01*
X137534468Y-79746435D01*
X137488112Y-79751000D01*
X136836888Y-79751000D01*
X136790532Y-79746435D01*
X136751862Y-79734704D01*
X136716223Y-79715654D01*
X136684983Y-79690017D01*
X136659346Y-79658777D01*
X136640296Y-79623138D01*
X136628565Y-79584468D01*
X136624000Y-79538112D01*
X136624000Y-78461888D01*
X136628565Y-78415532D01*
X136640296Y-78376862D01*
X136659346Y-78341223D01*
X136684983Y-78309983D01*
X136716223Y-78284346D01*
X136751862Y-78265296D01*
X136790532Y-78253565D01*
X136836888Y-78249000D01*
X137488112Y-78249000D01*
X137534468Y-78253565D01*
X137534468Y-78253565D01*
G37*
G36*
X139409468Y-78253565D02*
G01*
X139448138Y-78265296D01*
X139483777Y-78284346D01*
X139515017Y-78309983D01*
X139540654Y-78341223D01*
X139559704Y-78376862D01*
X139571435Y-78415532D01*
X139576000Y-78461888D01*
X139576000Y-79538112D01*
X139571435Y-79584468D01*
X139559704Y-79623138D01*
X139540654Y-79658777D01*
X139515017Y-79690017D01*
X139483777Y-79715654D01*
X139448138Y-79734704D01*
X139409468Y-79746435D01*
X139363112Y-79751000D01*
X138711888Y-79751000D01*
X138665532Y-79746435D01*
X138626862Y-79734704D01*
X138591223Y-79715654D01*
X138559983Y-79690017D01*
X138534346Y-79658777D01*
X138515296Y-79623138D01*
X138503565Y-79584468D01*
X138499000Y-79538112D01*
X138499000Y-78461888D01*
X138503565Y-78415532D01*
X138515296Y-78376862D01*
X138534346Y-78341223D01*
X138559983Y-78309983D01*
X138591223Y-78284346D01*
X138626862Y-78265296D01*
X138665532Y-78253565D01*
X138711888Y-78249000D01*
X139363112Y-78249000D01*
X139409468Y-78253565D01*
X139409468Y-78253565D01*
G37*
G36*
X123230790Y-78729789D02*
G01*
X121670211Y-79630790D01*
X120769210Y-78070211D01*
X122329789Y-77169210D01*
X123230790Y-78729789D01*
X123230790Y-78729789D01*
G37*
G36*
X132671968Y-77953565D02*
G01*
X132710638Y-77965296D01*
X132746277Y-77984346D01*
X132777517Y-78009983D01*
X132803154Y-78041223D01*
X132822204Y-78076862D01*
X132833935Y-78115532D01*
X132838500Y-78161888D01*
X132838500Y-79238112D01*
X132833935Y-79284468D01*
X132822204Y-79323138D01*
X132803154Y-79358777D01*
X132777517Y-79390017D01*
X132746277Y-79415654D01*
X132710638Y-79434704D01*
X132671968Y-79446435D01*
X132625612Y-79451000D01*
X131974388Y-79451000D01*
X131928032Y-79446435D01*
X131889362Y-79434704D01*
X131853723Y-79415654D01*
X131822483Y-79390017D01*
X131796846Y-79358777D01*
X131777796Y-79323138D01*
X131766065Y-79284468D01*
X131761500Y-79238112D01*
X131761500Y-78161888D01*
X131766065Y-78115532D01*
X131777796Y-78076862D01*
X131796846Y-78041223D01*
X131822483Y-78009983D01*
X131853723Y-77984346D01*
X131889362Y-77965296D01*
X131928032Y-77953565D01*
X131974388Y-77949000D01*
X132625612Y-77949000D01*
X132671968Y-77953565D01*
X132671968Y-77953565D01*
G37*
G36*
X134546968Y-77953565D02*
G01*
X134585638Y-77965296D01*
X134621277Y-77984346D01*
X134652517Y-78009983D01*
X134678154Y-78041223D01*
X134697204Y-78076862D01*
X134708935Y-78115532D01*
X134713500Y-78161888D01*
X134713500Y-79238112D01*
X134708935Y-79284468D01*
X134697204Y-79323138D01*
X134678154Y-79358777D01*
X134652517Y-79390017D01*
X134621277Y-79415654D01*
X134585638Y-79434704D01*
X134546968Y-79446435D01*
X134500612Y-79451000D01*
X133849388Y-79451000D01*
X133803032Y-79446435D01*
X133764362Y-79434704D01*
X133728723Y-79415654D01*
X133697483Y-79390017D01*
X133671846Y-79358777D01*
X133652796Y-79323138D01*
X133641065Y-79284468D01*
X133636500Y-79238112D01*
X133636500Y-78161888D01*
X133641065Y-78115532D01*
X133652796Y-78076862D01*
X133671846Y-78041223D01*
X133697483Y-78009983D01*
X133728723Y-77984346D01*
X133764362Y-77965296D01*
X133803032Y-77953565D01*
X133849388Y-77949000D01*
X134500612Y-77949000D01*
X134546968Y-77953565D01*
X134546968Y-77953565D01*
G37*
G36*
X144609851Y-77545518D02*
G01*
X144676036Y-77552037D01*
X144845875Y-77603557D01*
X145002400Y-77687222D01*
X145038138Y-77716552D01*
X145139595Y-77799814D01*
X145222857Y-77901271D01*
X145252187Y-77937009D01*
X145335852Y-78093534D01*
X145387372Y-78263373D01*
X145404768Y-78440000D01*
X145387372Y-78616627D01*
X145335852Y-78786466D01*
X145252187Y-78942991D01*
X145222857Y-78978729D01*
X145139595Y-79080186D01*
X145038138Y-79163448D01*
X145002400Y-79192778D01*
X144845875Y-79276443D01*
X144676036Y-79327963D01*
X144609851Y-79334482D01*
X144543669Y-79341000D01*
X144455149Y-79341000D01*
X144388967Y-79334482D01*
X144322782Y-79327963D01*
X144152943Y-79276443D01*
X143996418Y-79192778D01*
X143960680Y-79163448D01*
X143859223Y-79080186D01*
X143775961Y-78978729D01*
X143746631Y-78942991D01*
X143662966Y-78786466D01*
X143611446Y-78616627D01*
X143594050Y-78440000D01*
X143611446Y-78263373D01*
X143662966Y-78093534D01*
X143746631Y-77937009D01*
X143775961Y-77901271D01*
X143859223Y-77799814D01*
X143960680Y-77716552D01*
X143996418Y-77687222D01*
X144152943Y-77603557D01*
X144322782Y-77552037D01*
X144388967Y-77545518D01*
X144455149Y-77539000D01*
X144543669Y-77539000D01*
X144609851Y-77545518D01*
X144609851Y-77545518D01*
G37*
G36*
X142410147Y-76275518D02*
G01*
X142476332Y-76282037D01*
X142646171Y-76333557D01*
X142802696Y-76417222D01*
X142838434Y-76446552D01*
X142939891Y-76529814D01*
X143019656Y-76627009D01*
X143052483Y-76667009D01*
X143136148Y-76823534D01*
X143187668Y-76993373D01*
X143205064Y-77170000D01*
X143187668Y-77346627D01*
X143136148Y-77516466D01*
X143052483Y-77672991D01*
X143023153Y-77708729D01*
X142939891Y-77810186D01*
X142851436Y-77882778D01*
X142802696Y-77922778D01*
X142646171Y-78006443D01*
X142476332Y-78057963D01*
X142410147Y-78064482D01*
X142343965Y-78071000D01*
X142255445Y-78071000D01*
X142189263Y-78064482D01*
X142123078Y-78057963D01*
X141953239Y-78006443D01*
X141796714Y-77922778D01*
X141747974Y-77882778D01*
X141659519Y-77810186D01*
X141576257Y-77708729D01*
X141546927Y-77672991D01*
X141463262Y-77516466D01*
X141411742Y-77346627D01*
X141394346Y-77170000D01*
X141411742Y-76993373D01*
X141463262Y-76823534D01*
X141546927Y-76667009D01*
X141579754Y-76627009D01*
X141659519Y-76529814D01*
X141760976Y-76446552D01*
X141796714Y-76417222D01*
X141953239Y-76333557D01*
X142123078Y-76282037D01*
X142189263Y-76275518D01*
X142255445Y-76269000D01*
X142343965Y-76269000D01*
X142410147Y-76275518D01*
X142410147Y-76275518D01*
G37*
G36*
X124310148Y-76235519D02*
G01*
X124376332Y-76242037D01*
X124546171Y-76293557D01*
X124702696Y-76377222D01*
X124738434Y-76406552D01*
X124839891Y-76489814D01*
X124919452Y-76586761D01*
X124952483Y-76627009D01*
X125036148Y-76783534D01*
X125087668Y-76953373D01*
X125105064Y-77130000D01*
X125087668Y-77306627D01*
X125036148Y-77476466D01*
X124952483Y-77632991D01*
X124923153Y-77668729D01*
X124839891Y-77770186D01*
X124738434Y-77853448D01*
X124702696Y-77882778D01*
X124546171Y-77966443D01*
X124376332Y-78017963D01*
X124310147Y-78024482D01*
X124243965Y-78031000D01*
X124155445Y-78031000D01*
X124089263Y-78024482D01*
X124023078Y-78017963D01*
X123853239Y-77966443D01*
X123696714Y-77882778D01*
X123660976Y-77853448D01*
X123559519Y-77770186D01*
X123476257Y-77668729D01*
X123446927Y-77632991D01*
X123363262Y-77476466D01*
X123311742Y-77306627D01*
X123294346Y-77130000D01*
X123311742Y-76953373D01*
X123363262Y-76783534D01*
X123446927Y-76627009D01*
X123479958Y-76586761D01*
X123559519Y-76489814D01*
X123660976Y-76406552D01*
X123696714Y-76377222D01*
X123853239Y-76293557D01*
X124023078Y-76242037D01*
X124089262Y-76235519D01*
X124155445Y-76229000D01*
X124243965Y-76229000D01*
X124310148Y-76235519D01*
X124310148Y-76235519D01*
G37*
G36*
X145879852Y-75345814D02*
G01*
X145946036Y-75352332D01*
X146115875Y-75403852D01*
X146272400Y-75487517D01*
X146308138Y-75516847D01*
X146409595Y-75600109D01*
X146489360Y-75697304D01*
X146522187Y-75737304D01*
X146605852Y-75893829D01*
X146657372Y-76063668D01*
X146674768Y-76240295D01*
X146657372Y-76416922D01*
X146605852Y-76586761D01*
X146522187Y-76743286D01*
X146507649Y-76761000D01*
X146409595Y-76880481D01*
X146320772Y-76953375D01*
X146272400Y-76993073D01*
X146115875Y-77076738D01*
X145946036Y-77128258D01*
X145879851Y-77134777D01*
X145813669Y-77141295D01*
X145725149Y-77141295D01*
X145658967Y-77134777D01*
X145592782Y-77128258D01*
X145422943Y-77076738D01*
X145266418Y-76993073D01*
X145218046Y-76953375D01*
X145129223Y-76880481D01*
X145031169Y-76761000D01*
X145016631Y-76743286D01*
X144932966Y-76586761D01*
X144881446Y-76416922D01*
X144864050Y-76240295D01*
X144881446Y-76063668D01*
X144932966Y-75893829D01*
X145016631Y-75737304D01*
X145049458Y-75697304D01*
X145129223Y-75600109D01*
X145230680Y-75516847D01*
X145266418Y-75487517D01*
X145422943Y-75403852D01*
X145592782Y-75352332D01*
X145658966Y-75345814D01*
X145725149Y-75339295D01*
X145813669Y-75339295D01*
X145879852Y-75345814D01*
X145879852Y-75345814D01*
G37*
G36*
X141330790Y-75570211D02*
G01*
X140429789Y-77130790D01*
X138869210Y-76229789D01*
X139770211Y-74669210D01*
X141330790Y-75570211D01*
X141330790Y-75570211D01*
G37*
G36*
X120840442Y-75305813D02*
G01*
X120906627Y-75312332D01*
X121076466Y-75363852D01*
X121232991Y-75447517D01*
X121264388Y-75473284D01*
X121370186Y-75560109D01*
X121441056Y-75646466D01*
X121482778Y-75697304D01*
X121566443Y-75853829D01*
X121617963Y-76023668D01*
X121635359Y-76200295D01*
X121617963Y-76376922D01*
X121566443Y-76546761D01*
X121482778Y-76703286D01*
X121453448Y-76739024D01*
X121370186Y-76840481D01*
X121268729Y-76923743D01*
X121232991Y-76953073D01*
X121076466Y-77036738D01*
X120906627Y-77088258D01*
X120840443Y-77094776D01*
X120774260Y-77101295D01*
X120685740Y-77101295D01*
X120619557Y-77094776D01*
X120553373Y-77088258D01*
X120383534Y-77036738D01*
X120227009Y-76953073D01*
X120191271Y-76923743D01*
X120089814Y-76840481D01*
X120006552Y-76739024D01*
X119977222Y-76703286D01*
X119893557Y-76546761D01*
X119842037Y-76376922D01*
X119824641Y-76200295D01*
X119842037Y-76023668D01*
X119893557Y-75853829D01*
X119977222Y-75697304D01*
X120018944Y-75646466D01*
X120089814Y-75560109D01*
X120195612Y-75473284D01*
X120227009Y-75447517D01*
X120383534Y-75363852D01*
X120553373Y-75312332D01*
X120619558Y-75305813D01*
X120685740Y-75299295D01*
X120774260Y-75299295D01*
X120840442Y-75305813D01*
X120840442Y-75305813D01*
G37*
G36*
X126509851Y-74965518D02*
G01*
X126576036Y-74972037D01*
X126745875Y-75023557D01*
X126902400Y-75107222D01*
X126922080Y-75123373D01*
X127039595Y-75219814D01*
X127104822Y-75299295D01*
X127152187Y-75357009D01*
X127235852Y-75513534D01*
X127287372Y-75683373D01*
X127304768Y-75860000D01*
X127287372Y-76036627D01*
X127235852Y-76206466D01*
X127152187Y-76362991D01*
X127122857Y-76398729D01*
X127039595Y-76500186D01*
X126938138Y-76583448D01*
X126902400Y-76612778D01*
X126745875Y-76696443D01*
X126576036Y-76747963D01*
X126509852Y-76754481D01*
X126443669Y-76761000D01*
X126355149Y-76761000D01*
X126288966Y-76754481D01*
X126222782Y-76747963D01*
X126052943Y-76696443D01*
X125896418Y-76612778D01*
X125860680Y-76583448D01*
X125759223Y-76500186D01*
X125675961Y-76398729D01*
X125646631Y-76362991D01*
X125562966Y-76206466D01*
X125511446Y-76036627D01*
X125494050Y-75860000D01*
X125511446Y-75683373D01*
X125562966Y-75513534D01*
X125646631Y-75357009D01*
X125693996Y-75299295D01*
X125759223Y-75219814D01*
X125876738Y-75123373D01*
X125896418Y-75107222D01*
X126052943Y-75023557D01*
X126222782Y-74972037D01*
X126288967Y-74965518D01*
X126355149Y-74959000D01*
X126443669Y-74959000D01*
X126509851Y-74965518D01*
X126509851Y-74965518D01*
G37*
G36*
X131601000Y-76201000D02*
G01*
X129799000Y-76201000D01*
X129799000Y-74399000D01*
X131601000Y-74399000D01*
X131601000Y-76201000D01*
X131601000Y-76201000D01*
G37*
G36*
X133350442Y-74405518D02*
G01*
X133416627Y-74412037D01*
X133586466Y-74463557D01*
X133742991Y-74547222D01*
X133778729Y-74576552D01*
X133880186Y-74659814D01*
X133957209Y-74753668D01*
X133992778Y-74797009D01*
X134076443Y-74953534D01*
X134127963Y-75123373D01*
X134145359Y-75300000D01*
X134127963Y-75476627D01*
X134076443Y-75646466D01*
X134076442Y-75646468D01*
X134056716Y-75683373D01*
X133992778Y-75802991D01*
X133969549Y-75831295D01*
X133880186Y-75940186D01*
X133778729Y-76023448D01*
X133742991Y-76052778D01*
X133586466Y-76136443D01*
X133416627Y-76187963D01*
X133350443Y-76194481D01*
X133284260Y-76201000D01*
X133195740Y-76201000D01*
X133129557Y-76194481D01*
X133063373Y-76187963D01*
X132893534Y-76136443D01*
X132737009Y-76052778D01*
X132701271Y-76023448D01*
X132599814Y-75940186D01*
X132510451Y-75831295D01*
X132487222Y-75802991D01*
X132423284Y-75683373D01*
X132403558Y-75646468D01*
X132403557Y-75646466D01*
X132352037Y-75476627D01*
X132334641Y-75300000D01*
X132352037Y-75123373D01*
X132403557Y-74953534D01*
X132487222Y-74797009D01*
X132522791Y-74753668D01*
X132599814Y-74659814D01*
X132701271Y-74576552D01*
X132737009Y-74547222D01*
X132893534Y-74463557D01*
X133063373Y-74412037D01*
X133129558Y-74405518D01*
X133195740Y-74399000D01*
X133284260Y-74399000D01*
X133350442Y-74405518D01*
X133350442Y-74405518D01*
G37*
G36*
X135890442Y-74405518D02*
G01*
X135956627Y-74412037D01*
X136126466Y-74463557D01*
X136282991Y-74547222D01*
X136318729Y-74576552D01*
X136420186Y-74659814D01*
X136497209Y-74753668D01*
X136532778Y-74797009D01*
X136616443Y-74953534D01*
X136667963Y-75123373D01*
X136685359Y-75300000D01*
X136667963Y-75476627D01*
X136616443Y-75646466D01*
X136616442Y-75646468D01*
X136596716Y-75683373D01*
X136532778Y-75802991D01*
X136509549Y-75831295D01*
X136420186Y-75940186D01*
X136318729Y-76023448D01*
X136282991Y-76052778D01*
X136126466Y-76136443D01*
X135956627Y-76187963D01*
X135890443Y-76194481D01*
X135824260Y-76201000D01*
X135735740Y-76201000D01*
X135669557Y-76194481D01*
X135603373Y-76187963D01*
X135433534Y-76136443D01*
X135277009Y-76052778D01*
X135241271Y-76023448D01*
X135139814Y-75940186D01*
X135050451Y-75831295D01*
X135027222Y-75802991D01*
X134963284Y-75683373D01*
X134943558Y-75646468D01*
X134943557Y-75646466D01*
X134892037Y-75476627D01*
X134874641Y-75300000D01*
X134892037Y-75123373D01*
X134943557Y-74953534D01*
X135027222Y-74797009D01*
X135062791Y-74753668D01*
X135139814Y-74659814D01*
X135241271Y-74576552D01*
X135277009Y-74547222D01*
X135433534Y-74463557D01*
X135603373Y-74412037D01*
X135669558Y-74405518D01*
X135735740Y-74399000D01*
X135824260Y-74399000D01*
X135890442Y-74405518D01*
X135890442Y-74405518D01*
G37*
G36*
X143680148Y-74075814D02*
G01*
X143746332Y-74082332D01*
X143916171Y-74133852D01*
X144072696Y-74217517D01*
X144108434Y-74246847D01*
X144209891Y-74330109D01*
X144289656Y-74427304D01*
X144322483Y-74467304D01*
X144406148Y-74623829D01*
X144457668Y-74793668D01*
X144475064Y-74970295D01*
X144457668Y-75146922D01*
X144406148Y-75316761D01*
X144322483Y-75473286D01*
X144293153Y-75509024D01*
X144209891Y-75610481D01*
X144121068Y-75683375D01*
X144072696Y-75723073D01*
X143916171Y-75806738D01*
X143746332Y-75858258D01*
X143680148Y-75864776D01*
X143613965Y-75871295D01*
X143525445Y-75871295D01*
X143459262Y-75864776D01*
X143393078Y-75858258D01*
X143223239Y-75806738D01*
X143066714Y-75723073D01*
X143018342Y-75683375D01*
X142929519Y-75610481D01*
X142846257Y-75509024D01*
X142816927Y-75473286D01*
X142733262Y-75316761D01*
X142681742Y-75146922D01*
X142664346Y-74970295D01*
X142681742Y-74793668D01*
X142733262Y-74623829D01*
X142816927Y-74467304D01*
X142849754Y-74427304D01*
X142929519Y-74330109D01*
X143030976Y-74246847D01*
X143066714Y-74217517D01*
X143223239Y-74133852D01*
X143393078Y-74082332D01*
X143459262Y-74075814D01*
X143525445Y-74069295D01*
X143613965Y-74069295D01*
X143680148Y-74075814D01*
X143680148Y-74075814D01*
G37*
G36*
X123040148Y-74035814D02*
G01*
X123106332Y-74042332D01*
X123276171Y-74093852D01*
X123432696Y-74177517D01*
X123464093Y-74203284D01*
X123569891Y-74290109D01*
X123653153Y-74391566D01*
X123682483Y-74427304D01*
X123682484Y-74427306D01*
X123746581Y-74547221D01*
X123766148Y-74583829D01*
X123817668Y-74753668D01*
X123835064Y-74930295D01*
X123817668Y-75106922D01*
X123766148Y-75276761D01*
X123682483Y-75433286D01*
X123653153Y-75469024D01*
X123569891Y-75570481D01*
X123477299Y-75646468D01*
X123432696Y-75683073D01*
X123276171Y-75766738D01*
X123106332Y-75818258D01*
X123040147Y-75824777D01*
X122973965Y-75831295D01*
X122885445Y-75831295D01*
X122819263Y-75824777D01*
X122753078Y-75818258D01*
X122583239Y-75766738D01*
X122426714Y-75683073D01*
X122382111Y-75646468D01*
X122289519Y-75570481D01*
X122206257Y-75469024D01*
X122176927Y-75433286D01*
X122093262Y-75276761D01*
X122041742Y-75106922D01*
X122024346Y-74930295D01*
X122041742Y-74753668D01*
X122093262Y-74583829D01*
X122112830Y-74547221D01*
X122176926Y-74427306D01*
X122176927Y-74427304D01*
X122206257Y-74391566D01*
X122289519Y-74290109D01*
X122395317Y-74203284D01*
X122426714Y-74177517D01*
X122583239Y-74093852D01*
X122753078Y-74042332D01*
X122819262Y-74035814D01*
X122885445Y-74029295D01*
X122973965Y-74029295D01*
X123040148Y-74035814D01*
X123040148Y-74035814D01*
G37*
G36*
X141480442Y-72805813D02*
G01*
X141546627Y-72812332D01*
X141716466Y-72863852D01*
X141872991Y-72947517D01*
X141908729Y-72976847D01*
X142010186Y-73060109D01*
X142089951Y-73157304D01*
X142122778Y-73197304D01*
X142206443Y-73353829D01*
X142257963Y-73523668D01*
X142275359Y-73700295D01*
X142257963Y-73876922D01*
X142206443Y-74046761D01*
X142122778Y-74203286D01*
X142093448Y-74239024D01*
X142010186Y-74340481D01*
X141938879Y-74399000D01*
X141872991Y-74453073D01*
X141716466Y-74536738D01*
X141546627Y-74588258D01*
X141480443Y-74594776D01*
X141414260Y-74601295D01*
X141325740Y-74601295D01*
X141259557Y-74594776D01*
X141193373Y-74588258D01*
X141023534Y-74536738D01*
X140867009Y-74453073D01*
X140801121Y-74399000D01*
X140729814Y-74340481D01*
X140646552Y-74239024D01*
X140617222Y-74203286D01*
X140533557Y-74046761D01*
X140482037Y-73876922D01*
X140464641Y-73700295D01*
X140482037Y-73523668D01*
X140533557Y-73353829D01*
X140617222Y-73197304D01*
X140650049Y-73157304D01*
X140729814Y-73060109D01*
X140831271Y-72976847D01*
X140867009Y-72947517D01*
X141023534Y-72863852D01*
X141193373Y-72812332D01*
X141259558Y-72805813D01*
X141325740Y-72799295D01*
X141414260Y-72799295D01*
X141480442Y-72805813D01*
X141480442Y-72805813D01*
G37*
G36*
X125239851Y-72765813D02*
G01*
X125306036Y-72772332D01*
X125475875Y-72823852D01*
X125632400Y-72907517D01*
X125667868Y-72936625D01*
X125769595Y-73020109D01*
X125840465Y-73106466D01*
X125882187Y-73157304D01*
X125965852Y-73313829D01*
X126017372Y-73483668D01*
X126034768Y-73660295D01*
X126017372Y-73836922D01*
X125965852Y-74006761D01*
X125882187Y-74163286D01*
X125852857Y-74199024D01*
X125769595Y-74300481D01*
X125668138Y-74383743D01*
X125632400Y-74413073D01*
X125475875Y-74496738D01*
X125306036Y-74548258D01*
X125239851Y-74554777D01*
X125173669Y-74561295D01*
X125085149Y-74561295D01*
X125018967Y-74554777D01*
X124952782Y-74548258D01*
X124782943Y-74496738D01*
X124626418Y-74413073D01*
X124590680Y-74383743D01*
X124489223Y-74300481D01*
X124405961Y-74199024D01*
X124376631Y-74163286D01*
X124292966Y-74006761D01*
X124241446Y-73836922D01*
X124224050Y-73660295D01*
X124241446Y-73483668D01*
X124292966Y-73313829D01*
X124376631Y-73157304D01*
X124418353Y-73106466D01*
X124489223Y-73020109D01*
X124590950Y-72936625D01*
X124626418Y-72907517D01*
X124782943Y-72823852D01*
X124952782Y-72772332D01*
X125018967Y-72765813D01*
X125085149Y-72759295D01*
X125173669Y-72759295D01*
X125239851Y-72765813D01*
X125239851Y-72765813D01*
G37*
G36*
X135890442Y-71865518D02*
G01*
X135956627Y-71872037D01*
X136126466Y-71923557D01*
X136282991Y-72007222D01*
X136318729Y-72036552D01*
X136420186Y-72119814D01*
X136503448Y-72221271D01*
X136532778Y-72257009D01*
X136616443Y-72413534D01*
X136667963Y-72583373D01*
X136685359Y-72760000D01*
X136667963Y-72936627D01*
X136616443Y-73106466D01*
X136532778Y-73262991D01*
X136503448Y-73298729D01*
X136420186Y-73400186D01*
X136318729Y-73483448D01*
X136282991Y-73512778D01*
X136126466Y-73596443D01*
X135956627Y-73647963D01*
X135890442Y-73654482D01*
X135824260Y-73661000D01*
X135735740Y-73661000D01*
X135669558Y-73654482D01*
X135603373Y-73647963D01*
X135433534Y-73596443D01*
X135277009Y-73512778D01*
X135241271Y-73483448D01*
X135139814Y-73400186D01*
X135056552Y-73298729D01*
X135027222Y-73262991D01*
X134943557Y-73106466D01*
X134892037Y-72936627D01*
X134874641Y-72760000D01*
X134892037Y-72583373D01*
X134943557Y-72413534D01*
X135027222Y-72257009D01*
X135056552Y-72221271D01*
X135139814Y-72119814D01*
X135241271Y-72036552D01*
X135277009Y-72007222D01*
X135433534Y-71923557D01*
X135603373Y-71872037D01*
X135669558Y-71865518D01*
X135735740Y-71859000D01*
X135824260Y-71859000D01*
X135890442Y-71865518D01*
X135890442Y-71865518D01*
G37*
G36*
X133350442Y-71865518D02*
G01*
X133416627Y-71872037D01*
X133586466Y-71923557D01*
X133742991Y-72007222D01*
X133778729Y-72036552D01*
X133880186Y-72119814D01*
X133963448Y-72221271D01*
X133992778Y-72257009D01*
X134076443Y-72413534D01*
X134127963Y-72583373D01*
X134145359Y-72760000D01*
X134127963Y-72936627D01*
X134076443Y-73106466D01*
X133992778Y-73262991D01*
X133963448Y-73298729D01*
X133880186Y-73400186D01*
X133778729Y-73483448D01*
X133742991Y-73512778D01*
X133586466Y-73596443D01*
X133416627Y-73647963D01*
X133350442Y-73654482D01*
X133284260Y-73661000D01*
X133195740Y-73661000D01*
X133129558Y-73654482D01*
X133063373Y-73647963D01*
X132893534Y-73596443D01*
X132737009Y-73512778D01*
X132701271Y-73483448D01*
X132599814Y-73400186D01*
X132516552Y-73298729D01*
X132487222Y-73262991D01*
X132403557Y-73106466D01*
X132352037Y-72936627D01*
X132334641Y-72760000D01*
X132352037Y-72583373D01*
X132403557Y-72413534D01*
X132487222Y-72257009D01*
X132516552Y-72221271D01*
X132599814Y-72119814D01*
X132701271Y-72036552D01*
X132737009Y-72007222D01*
X132893534Y-71923557D01*
X133063373Y-71872037D01*
X133129558Y-71865518D01*
X133195740Y-71859000D01*
X133284260Y-71859000D01*
X133350442Y-71865518D01*
X133350442Y-71865518D01*
G37*
G36*
X130810442Y-71865518D02*
G01*
X130876627Y-71872037D01*
X131046466Y-71923557D01*
X131202991Y-72007222D01*
X131238729Y-72036552D01*
X131340186Y-72119814D01*
X131423448Y-72221271D01*
X131452778Y-72257009D01*
X131536443Y-72413534D01*
X131587963Y-72583373D01*
X131605359Y-72760000D01*
X131587963Y-72936627D01*
X131536443Y-73106466D01*
X131452778Y-73262991D01*
X131423448Y-73298729D01*
X131340186Y-73400186D01*
X131238729Y-73483448D01*
X131202991Y-73512778D01*
X131046466Y-73596443D01*
X130876627Y-73647963D01*
X130810442Y-73654482D01*
X130744260Y-73661000D01*
X130655740Y-73661000D01*
X130589558Y-73654482D01*
X130523373Y-73647963D01*
X130353534Y-73596443D01*
X130197009Y-73512778D01*
X130161271Y-73483448D01*
X130059814Y-73400186D01*
X129976552Y-73298729D01*
X129947222Y-73262991D01*
X129863557Y-73106466D01*
X129812037Y-72936627D01*
X129794641Y-72760000D01*
X129812037Y-72583373D01*
X129863557Y-72413534D01*
X129947222Y-72257009D01*
X129976552Y-72221271D01*
X130059814Y-72119814D01*
X130161271Y-72036552D01*
X130197009Y-72007222D01*
X130353534Y-71923557D01*
X130523373Y-71872037D01*
X130589558Y-71865518D01*
X130655740Y-71859000D01*
X130744260Y-71859000D01*
X130810442Y-71865518D01*
X130810442Y-71865518D01*
G37*
M02*
