M48
; DRILL file {KiCad (5.1.2)-2} date 09/12/2019 19:40:41
; FORMAT={-:-/ absolute / metric / decimal}
; #@! TF.CreationDate,2019-12-09T19:40:41+00:00
; #@! TF.GenerationSoftware,Kicad,Pcbnew,(5.1.2)-2
; #@! TF.FileFunction,Plated,1,2,PTH
FMAT,2
METRIC
T1C0.300
T2C0.375
T3C0.400
T4C0.500
T5C0.750
T6C1.000
%
G90
G05
T1
X133.2Y-90.9
X141.9Y-99.2
T2
X129.6Y-98.7
X132.6Y-103.5
X132.9Y-102.4
X134.5Y-105.5
X134.9Y-83.2
X136.3Y-81.1
X137.0Y-102.2
X137.1Y-98.0
X137.5Y-105.5
X138.1Y-103.4
X138.6Y-108.6
X139.5Y-103.1
X139.6Y-114.7
X140.1Y-99.2
X141.2Y-88.9
X141.2Y-91.6
X142.2Y-93.5
X142.9Y-98.7
X143.3Y-104.2
X144.0Y-106.5
X144.2Y-91.6
X145.7Y-88.1
T3
X120.3Y-106.2
X121.1Y-98.6
X121.1Y-102.6
X122.1Y-96.7
X122.6Y-112.3
X122.9Y-104.9
X123.1Y-100.5
X123.4Y-98.0
X124.4Y-98.7
X124.8Y-89.8
X124.8Y-104.3
X126.9Y-108.7
X127.9Y-106.1
X128.0Y-107.4
X128.2Y-103.0
X128.2Y-105.1
X128.4Y-108.8
X128.8Y-94.5
X129.5Y-118.9
X130.4Y-87.0
X130.7Y-98.8
X131.1Y-94.4
X132.3Y-90.6
X132.3Y-106.1
X132.4Y-104.5
X133.4Y-107.4
X134.0Y-114.8
X134.6Y-117.2
X134.7Y-104.5
X135.7Y-79.7
X135.762Y-116.562
X136.9Y-91.225
X137.4Y-110.275
X137.5Y-106.6
X137.8Y-85.6
X138.2Y-74.3
X138.8Y-83.6
X138.8Y-96.1
X139.3Y-101.3
X139.5Y-97.9
X139.6Y-112.0
X140.4Y-108.2
X144.0Y-101.4
T4
X126.8Y-110.1
X126.9Y-111.8
X137.0Y-115.5
X138.2Y-111.1
X138.4Y-115.3
X121.1Y-95.4
X145.4Y-86.3
X145.4Y-84.3
X121.1Y-97.4
T5
X123.1Y-92.7
X127.5Y-95.2
X129.7Y-109.3
X130.6Y-114.2
X135.5Y-88.2
X145.8Y-91.6
T6
X145.2Y-100.12
X145.2Y-102.66
X145.2Y-105.2
X145.2Y-107.74
X145.2Y-110.28
X145.2Y-112.82
X145.2Y-115.36
X145.2Y-117.9
X120.73Y-76.2
X122.0Y-78.4
X122.93Y-74.93
X124.2Y-77.13
X125.129Y-73.66
X126.399Y-75.86
X130.7Y-72.76
X130.7Y-75.3
X133.24Y-72.76
X133.24Y-75.3
X135.78Y-72.76
X135.78Y-75.3
X140.1Y-75.9
X141.37Y-73.7
X142.3Y-77.17
X143.57Y-74.97
X144.499Y-78.44
X145.769Y-76.24
X120.6Y-114.0
X120.6Y-116.5
T0
M30
