G04 #@! TF.GenerationSoftware,KiCad,Pcbnew,(5.1.2)-2*
G04 #@! TF.CreationDate,2019-12-09T19:40:43+00:00*
G04 #@! TF.ProjectId,main_pcb,6d61696e-5f70-4636-922e-6b696361645f,rev?*
G04 #@! TF.SameCoordinates,Original*
G04 #@! TF.FileFunction,Soldermask,Bot*
G04 #@! TF.FilePolarity,Negative*
%FSLAX46Y46*%
G04 Gerber Fmt 4.6, Leading zero omitted, Abs format (unit mm)*
G04 Created by KiCad (PCBNEW (5.1.2)-2) date 2019-12-09 19:40:43*
%MOMM*%
%LPD*%
G04 APERTURE LIST*
%ADD10C,0.100000*%
G04 APERTURE END LIST*
D10*
G36*
X141584468Y-117903565D02*
G01*
X141623138Y-117915296D01*
X141658777Y-117934346D01*
X141690017Y-117959983D01*
X141715654Y-117991223D01*
X141734704Y-118026862D01*
X141746435Y-118065532D01*
X141751000Y-118111888D01*
X141751000Y-118763112D01*
X141746435Y-118809468D01*
X141734704Y-118848138D01*
X141715654Y-118883777D01*
X141690017Y-118915017D01*
X141658777Y-118940654D01*
X141623138Y-118959704D01*
X141584468Y-118971435D01*
X141538112Y-118976000D01*
X140461888Y-118976000D01*
X140415532Y-118971435D01*
X140376862Y-118959704D01*
X140341223Y-118940654D01*
X140309983Y-118915017D01*
X140284346Y-118883777D01*
X140265296Y-118848138D01*
X140253565Y-118809468D01*
X140249000Y-118763112D01*
X140249000Y-118111888D01*
X140253565Y-118065532D01*
X140265296Y-118026862D01*
X140284346Y-117991223D01*
X140309983Y-117959983D01*
X140341223Y-117934346D01*
X140376862Y-117915296D01*
X140415532Y-117903565D01*
X140461888Y-117899000D01*
X141538112Y-117899000D01*
X141584468Y-117903565D01*
X141584468Y-117903565D01*
G37*
G36*
X139384468Y-117903565D02*
G01*
X139423138Y-117915296D01*
X139458777Y-117934346D01*
X139490017Y-117959983D01*
X139515654Y-117991223D01*
X139534704Y-118026862D01*
X139546435Y-118065532D01*
X139551000Y-118111888D01*
X139551000Y-118763112D01*
X139546435Y-118809468D01*
X139534704Y-118848138D01*
X139515654Y-118883777D01*
X139490017Y-118915017D01*
X139458777Y-118940654D01*
X139423138Y-118959704D01*
X139384468Y-118971435D01*
X139338112Y-118976000D01*
X138261888Y-118976000D01*
X138215532Y-118971435D01*
X138176862Y-118959704D01*
X138141223Y-118940654D01*
X138109983Y-118915017D01*
X138084346Y-118883777D01*
X138065296Y-118848138D01*
X138053565Y-118809468D01*
X138049000Y-118763112D01*
X138049000Y-118111888D01*
X138053565Y-118065532D01*
X138065296Y-118026862D01*
X138084346Y-117991223D01*
X138109983Y-117959983D01*
X138141223Y-117934346D01*
X138176862Y-117915296D01*
X138215532Y-117903565D01*
X138261888Y-117899000D01*
X139338112Y-117899000D01*
X139384468Y-117903565D01*
X139384468Y-117903565D01*
G37*
G36*
X146101000Y-118801000D02*
G01*
X144299000Y-118801000D01*
X144299000Y-116999000D01*
X146101000Y-116999000D01*
X146101000Y-118801000D01*
X146101000Y-118801000D01*
G37*
G36*
X132151000Y-118201000D02*
G01*
X130549000Y-118201000D01*
X130549000Y-117399000D01*
X132151000Y-117399000D01*
X132151000Y-118201000D01*
X132151000Y-118201000D01*
G37*
G36*
X128451000Y-118201000D02*
G01*
X126849000Y-118201000D01*
X126849000Y-117399000D01*
X128451000Y-117399000D01*
X128451000Y-118201000D01*
X128451000Y-118201000D01*
G37*
G36*
X129883951Y-115228006D02*
G01*
X129905574Y-115239535D01*
X129929030Y-115246624D01*
X129953288Y-115249000D01*
X129959106Y-115249000D01*
X129960515Y-115253644D01*
X129972066Y-115275255D01*
X129987611Y-115294197D01*
X130006662Y-115309814D01*
X130633950Y-115728006D01*
X130655573Y-115739535D01*
X130679029Y-115746624D01*
X130703287Y-115749000D01*
X132151000Y-115749000D01*
X132151000Y-116851000D01*
X130703287Y-116851000D01*
X130678901Y-116853402D01*
X130655452Y-116860515D01*
X130633950Y-116871994D01*
X130006662Y-117290186D01*
X129987704Y-117305711D01*
X129972139Y-117324637D01*
X129960565Y-117346235D01*
X129959114Y-117351000D01*
X129953288Y-117351000D01*
X129928902Y-117353402D01*
X129905453Y-117360515D01*
X129883951Y-117371994D01*
X129829032Y-117408607D01*
X129827934Y-117406553D01*
X129812389Y-117387611D01*
X129793447Y-117372066D01*
X129771836Y-117360515D01*
X129748387Y-117353402D01*
X129724001Y-117351000D01*
X129275999Y-117351000D01*
X129251613Y-117353402D01*
X129228164Y-117360515D01*
X129206553Y-117372066D01*
X129187611Y-117387611D01*
X129172066Y-117406553D01*
X129170968Y-117408607D01*
X129116049Y-117371994D01*
X129094426Y-117360465D01*
X129070970Y-117353376D01*
X129046712Y-117351000D01*
X129040894Y-117351000D01*
X129039485Y-117346356D01*
X129027934Y-117324745D01*
X129012389Y-117305803D01*
X128993338Y-117290186D01*
X128366050Y-116871994D01*
X128344427Y-116860465D01*
X128320971Y-116853376D01*
X128296713Y-116851000D01*
X126849000Y-116851000D01*
X126849000Y-115749000D01*
X128296713Y-115749000D01*
X128321099Y-115746598D01*
X128344548Y-115739485D01*
X128366050Y-115728006D01*
X128993338Y-115309814D01*
X129012296Y-115294289D01*
X129027861Y-115275363D01*
X129039435Y-115253765D01*
X129040886Y-115249000D01*
X129046712Y-115249000D01*
X129071098Y-115246598D01*
X129094547Y-115239485D01*
X129116049Y-115228006D01*
X129170968Y-115191393D01*
X129172066Y-115193447D01*
X129187611Y-115212389D01*
X129206553Y-115227934D01*
X129228164Y-115239485D01*
X129251613Y-115246598D01*
X129275999Y-115249000D01*
X129724001Y-115249000D01*
X129748387Y-115246598D01*
X129771836Y-115239485D01*
X129793447Y-115227934D01*
X129812389Y-115212389D01*
X129827934Y-115193447D01*
X129829032Y-115191393D01*
X129883951Y-115228006D01*
X129883951Y-115228006D01*
G37*
G36*
X121508600Y-115602989D02*
G01*
X121541652Y-115613015D01*
X121572103Y-115629292D01*
X121598799Y-115651201D01*
X121620708Y-115677897D01*
X121636985Y-115708348D01*
X121647011Y-115741400D01*
X121651000Y-115781903D01*
X121651000Y-117218097D01*
X121647011Y-117258600D01*
X121636985Y-117291652D01*
X121620708Y-117322103D01*
X121598799Y-117348799D01*
X121572103Y-117370708D01*
X121541652Y-117386985D01*
X121508600Y-117397011D01*
X121468097Y-117401000D01*
X119731903Y-117401000D01*
X119691400Y-117397011D01*
X119658348Y-117386985D01*
X119627897Y-117370708D01*
X119601201Y-117348799D01*
X119579292Y-117322103D01*
X119563015Y-117291652D01*
X119552989Y-117258600D01*
X119549000Y-117218097D01*
X119549000Y-115781903D01*
X119552989Y-115741400D01*
X119563015Y-115708348D01*
X119579292Y-115677897D01*
X119601201Y-115651201D01*
X119627897Y-115629292D01*
X119658348Y-115613015D01*
X119691400Y-115602989D01*
X119731903Y-115599000D01*
X121468097Y-115599000D01*
X121508600Y-115602989D01*
X121508600Y-115602989D01*
G37*
G36*
X139384468Y-116028565D02*
G01*
X139423138Y-116040296D01*
X139458777Y-116059346D01*
X139490017Y-116084983D01*
X139515654Y-116116223D01*
X139534704Y-116151862D01*
X139546435Y-116190532D01*
X139551000Y-116236888D01*
X139551000Y-116888112D01*
X139546435Y-116934468D01*
X139534704Y-116973138D01*
X139515654Y-117008777D01*
X139490017Y-117040017D01*
X139458777Y-117065654D01*
X139423138Y-117084704D01*
X139384468Y-117096435D01*
X139338112Y-117101000D01*
X138261888Y-117101000D01*
X138215532Y-117096435D01*
X138176862Y-117084704D01*
X138141223Y-117065654D01*
X138109983Y-117040017D01*
X138084346Y-117008777D01*
X138065296Y-116973138D01*
X138053565Y-116934468D01*
X138049000Y-116888112D01*
X138049000Y-116236888D01*
X138053565Y-116190532D01*
X138065296Y-116151862D01*
X138084346Y-116116223D01*
X138109983Y-116084983D01*
X138141223Y-116059346D01*
X138176862Y-116040296D01*
X138215532Y-116028565D01*
X138261888Y-116024000D01*
X139338112Y-116024000D01*
X139384468Y-116028565D01*
X139384468Y-116028565D01*
G37*
G36*
X141584468Y-116028565D02*
G01*
X141623138Y-116040296D01*
X141658777Y-116059346D01*
X141690017Y-116084983D01*
X141715654Y-116116223D01*
X141734704Y-116151862D01*
X141746435Y-116190532D01*
X141751000Y-116236888D01*
X141751000Y-116888112D01*
X141746435Y-116934468D01*
X141734704Y-116973138D01*
X141715654Y-117008777D01*
X141690017Y-117040017D01*
X141658777Y-117065654D01*
X141623138Y-117084704D01*
X141584468Y-117096435D01*
X141538112Y-117101000D01*
X140461888Y-117101000D01*
X140415532Y-117096435D01*
X140376862Y-117084704D01*
X140341223Y-117065654D01*
X140309983Y-117040017D01*
X140284346Y-117008777D01*
X140265296Y-116973138D01*
X140253565Y-116934468D01*
X140249000Y-116888112D01*
X140249000Y-116236888D01*
X140253565Y-116190532D01*
X140265296Y-116151862D01*
X140284346Y-116116223D01*
X140309983Y-116084983D01*
X140341223Y-116059346D01*
X140376862Y-116040296D01*
X140415532Y-116028565D01*
X140461888Y-116024000D01*
X141538112Y-116024000D01*
X141584468Y-116028565D01*
X141584468Y-116028565D01*
G37*
G36*
X145310443Y-114465519D02*
G01*
X145376627Y-114472037D01*
X145546466Y-114523557D01*
X145546468Y-114523558D01*
X145588128Y-114545826D01*
X145702991Y-114607222D01*
X145738729Y-114636552D01*
X145840186Y-114719814D01*
X145923448Y-114821271D01*
X145952778Y-114857009D01*
X146036443Y-115013534D01*
X146087963Y-115183373D01*
X146105359Y-115360000D01*
X146087963Y-115536627D01*
X146036443Y-115706466D01*
X145952778Y-115862991D01*
X145923448Y-115898729D01*
X145840186Y-116000186D01*
X145768098Y-116059346D01*
X145702991Y-116112778D01*
X145546466Y-116196443D01*
X145376627Y-116247963D01*
X145310443Y-116254481D01*
X145244260Y-116261000D01*
X145155740Y-116261000D01*
X145089557Y-116254481D01*
X145023373Y-116247963D01*
X144853534Y-116196443D01*
X144697009Y-116112778D01*
X144631902Y-116059346D01*
X144559814Y-116000186D01*
X144476552Y-115898729D01*
X144447222Y-115862991D01*
X144363557Y-115706466D01*
X144312037Y-115536627D01*
X144294641Y-115360000D01*
X144312037Y-115183373D01*
X144363557Y-115013534D01*
X144447222Y-114857009D01*
X144476552Y-114821271D01*
X144559814Y-114719814D01*
X144661271Y-114636552D01*
X144697009Y-114607222D01*
X144811872Y-114545826D01*
X144853532Y-114523558D01*
X144853534Y-114523557D01*
X145023373Y-114472037D01*
X145089557Y-114465519D01*
X145155740Y-114459000D01*
X145244260Y-114459000D01*
X145310443Y-114465519D01*
X145310443Y-114465519D01*
G37*
G36*
X132151000Y-115201000D02*
G01*
X130549000Y-115201000D01*
X130549000Y-114399000D01*
X132151000Y-114399000D01*
X132151000Y-115201000D01*
X132151000Y-115201000D01*
G37*
G36*
X128451000Y-115201000D02*
G01*
X126849000Y-115201000D01*
X126849000Y-114399000D01*
X128451000Y-114399000D01*
X128451000Y-115201000D01*
X128451000Y-115201000D01*
G37*
G36*
X120860443Y-113105519D02*
G01*
X120926627Y-113112037D01*
X121096466Y-113163557D01*
X121252991Y-113247222D01*
X121270861Y-113261888D01*
X121390186Y-113359814D01*
X121472557Y-113460185D01*
X121502778Y-113497009D01*
X121586443Y-113653534D01*
X121637963Y-113823373D01*
X121655359Y-114000000D01*
X121637963Y-114176627D01*
X121586443Y-114346466D01*
X121502778Y-114502991D01*
X121485900Y-114523557D01*
X121390186Y-114640186D01*
X121293156Y-114719815D01*
X121252991Y-114752778D01*
X121096466Y-114836443D01*
X120926627Y-114887963D01*
X120860443Y-114894481D01*
X120794260Y-114901000D01*
X120405740Y-114901000D01*
X120339557Y-114894481D01*
X120273373Y-114887963D01*
X120103534Y-114836443D01*
X119947009Y-114752778D01*
X119906844Y-114719815D01*
X119809814Y-114640186D01*
X119714100Y-114523557D01*
X119697222Y-114502991D01*
X119613557Y-114346466D01*
X119562037Y-114176627D01*
X119544641Y-114000000D01*
X119562037Y-113823373D01*
X119613557Y-113653534D01*
X119697222Y-113497009D01*
X119727443Y-113460185D01*
X119809814Y-113359814D01*
X119929139Y-113261888D01*
X119947009Y-113247222D01*
X120103534Y-113163557D01*
X120273373Y-113112037D01*
X120339557Y-113105519D01*
X120405740Y-113099000D01*
X120794260Y-113099000D01*
X120860443Y-113105519D01*
X120860443Y-113105519D01*
G37*
G36*
X136734468Y-113053565D02*
G01*
X136773138Y-113065296D01*
X136808777Y-113084346D01*
X136840017Y-113109983D01*
X136865654Y-113141223D01*
X136884704Y-113176862D01*
X136896435Y-113215532D01*
X136901000Y-113261888D01*
X136901000Y-114338112D01*
X136896435Y-114384468D01*
X136884704Y-114423138D01*
X136865654Y-114458777D01*
X136840017Y-114490017D01*
X136808777Y-114515654D01*
X136773138Y-114534704D01*
X136734468Y-114546435D01*
X136688112Y-114551000D01*
X136036888Y-114551000D01*
X135990532Y-114546435D01*
X135951862Y-114534704D01*
X135916223Y-114515654D01*
X135884983Y-114490017D01*
X135859346Y-114458777D01*
X135840296Y-114423138D01*
X135828565Y-114384468D01*
X135824000Y-114338112D01*
X135824000Y-113261888D01*
X135828565Y-113215532D01*
X135840296Y-113176862D01*
X135859346Y-113141223D01*
X135884983Y-113109983D01*
X135916223Y-113084346D01*
X135951862Y-113065296D01*
X135990532Y-113053565D01*
X136036888Y-113049000D01*
X136688112Y-113049000D01*
X136734468Y-113053565D01*
X136734468Y-113053565D01*
G37*
G36*
X138609468Y-113053565D02*
G01*
X138648138Y-113065296D01*
X138683777Y-113084346D01*
X138715017Y-113109983D01*
X138740654Y-113141223D01*
X138759704Y-113176862D01*
X138771435Y-113215532D01*
X138776000Y-113261888D01*
X138776000Y-114338112D01*
X138771435Y-114384468D01*
X138759704Y-114423138D01*
X138740654Y-114458777D01*
X138715017Y-114490017D01*
X138683777Y-114515654D01*
X138648138Y-114534704D01*
X138609468Y-114546435D01*
X138563112Y-114551000D01*
X137911888Y-114551000D01*
X137865532Y-114546435D01*
X137826862Y-114534704D01*
X137791223Y-114515654D01*
X137759983Y-114490017D01*
X137734346Y-114458777D01*
X137715296Y-114423138D01*
X137703565Y-114384468D01*
X137699000Y-114338112D01*
X137699000Y-113261888D01*
X137703565Y-113215532D01*
X137715296Y-113176862D01*
X137734346Y-113141223D01*
X137759983Y-113109983D01*
X137791223Y-113084346D01*
X137826862Y-113065296D01*
X137865532Y-113053565D01*
X137911888Y-113049000D01*
X138563112Y-113049000D01*
X138609468Y-113053565D01*
X138609468Y-113053565D01*
G37*
G36*
X145310443Y-111925519D02*
G01*
X145376627Y-111932037D01*
X145546466Y-111983557D01*
X145702991Y-112067222D01*
X145723163Y-112083777D01*
X145840186Y-112179814D01*
X145923448Y-112281271D01*
X145952778Y-112317009D01*
X146036443Y-112473534D01*
X146087963Y-112643373D01*
X146105359Y-112820000D01*
X146087963Y-112996627D01*
X146044100Y-113141223D01*
X146036442Y-113166468D01*
X145994611Y-113244728D01*
X145952778Y-113322991D01*
X145923448Y-113358729D01*
X145840186Y-113460186D01*
X145738729Y-113543448D01*
X145702991Y-113572778D01*
X145546466Y-113656443D01*
X145376627Y-113707963D01*
X145310443Y-113714481D01*
X145244260Y-113721000D01*
X145155740Y-113721000D01*
X145089557Y-113714481D01*
X145023373Y-113707963D01*
X144853534Y-113656443D01*
X144697009Y-113572778D01*
X144661271Y-113543448D01*
X144559814Y-113460186D01*
X144476552Y-113358729D01*
X144447222Y-113322991D01*
X144405389Y-113244728D01*
X144363558Y-113166468D01*
X144355900Y-113141223D01*
X144312037Y-112996627D01*
X144294641Y-112820000D01*
X144312037Y-112643373D01*
X144363557Y-112473534D01*
X144447222Y-112317009D01*
X144476552Y-112281271D01*
X144559814Y-112179814D01*
X144676837Y-112083777D01*
X144697009Y-112067222D01*
X144853534Y-111983557D01*
X145023373Y-111932037D01*
X145089557Y-111925519D01*
X145155740Y-111919000D01*
X145244260Y-111919000D01*
X145310443Y-111925519D01*
X145310443Y-111925519D01*
G37*
G36*
X142884468Y-111103565D02*
G01*
X142923138Y-111115296D01*
X142958777Y-111134346D01*
X142990017Y-111159983D01*
X143015654Y-111191223D01*
X143034704Y-111226862D01*
X143046435Y-111265532D01*
X143051000Y-111311888D01*
X143051000Y-111963112D01*
X143046435Y-112009468D01*
X143034704Y-112048138D01*
X143015654Y-112083777D01*
X142990017Y-112115017D01*
X142958777Y-112140654D01*
X142923138Y-112159704D01*
X142884468Y-112171435D01*
X142838112Y-112176000D01*
X141761888Y-112176000D01*
X141715532Y-112171435D01*
X141676862Y-112159704D01*
X141641223Y-112140654D01*
X141609983Y-112115017D01*
X141584346Y-112083777D01*
X141565296Y-112048138D01*
X141553565Y-112009468D01*
X141549000Y-111963112D01*
X141549000Y-111311888D01*
X141553565Y-111265532D01*
X141565296Y-111226862D01*
X141584346Y-111191223D01*
X141609983Y-111159983D01*
X141641223Y-111134346D01*
X141676862Y-111115296D01*
X141715532Y-111103565D01*
X141761888Y-111099000D01*
X142838112Y-111099000D01*
X142884468Y-111103565D01*
X142884468Y-111103565D01*
G37*
G36*
X133171968Y-110453565D02*
G01*
X133210638Y-110465296D01*
X133246277Y-110484346D01*
X133277517Y-110509983D01*
X133303154Y-110541223D01*
X133322204Y-110576862D01*
X133333935Y-110615532D01*
X133338500Y-110661888D01*
X133338500Y-111738112D01*
X133333935Y-111784468D01*
X133322204Y-111823138D01*
X133303154Y-111858777D01*
X133277517Y-111890017D01*
X133246277Y-111915654D01*
X133210638Y-111934704D01*
X133171968Y-111946435D01*
X133125612Y-111951000D01*
X132474388Y-111951000D01*
X132428032Y-111946435D01*
X132389362Y-111934704D01*
X132353723Y-111915654D01*
X132322483Y-111890017D01*
X132296846Y-111858777D01*
X132277796Y-111823138D01*
X132266065Y-111784468D01*
X132261500Y-111738112D01*
X132261500Y-110661888D01*
X132266065Y-110615532D01*
X132277796Y-110576862D01*
X132296846Y-110541223D01*
X132322483Y-110509983D01*
X132353723Y-110484346D01*
X132389362Y-110465296D01*
X132428032Y-110453565D01*
X132474388Y-110449000D01*
X133125612Y-110449000D01*
X133171968Y-110453565D01*
X133171968Y-110453565D01*
G37*
G36*
X131296968Y-110453565D02*
G01*
X131335638Y-110465296D01*
X131371277Y-110484346D01*
X131402517Y-110509983D01*
X131428154Y-110541223D01*
X131447204Y-110576862D01*
X131458935Y-110615532D01*
X131463500Y-110661888D01*
X131463500Y-111738112D01*
X131458935Y-111784468D01*
X131447204Y-111823138D01*
X131428154Y-111858777D01*
X131402517Y-111890017D01*
X131371277Y-111915654D01*
X131335638Y-111934704D01*
X131296968Y-111946435D01*
X131250612Y-111951000D01*
X130599388Y-111951000D01*
X130553032Y-111946435D01*
X130514362Y-111934704D01*
X130478723Y-111915654D01*
X130447483Y-111890017D01*
X130421846Y-111858777D01*
X130402796Y-111823138D01*
X130391065Y-111784468D01*
X130386500Y-111738112D01*
X130386500Y-110661888D01*
X130391065Y-110615532D01*
X130402796Y-110576862D01*
X130421846Y-110541223D01*
X130447483Y-110509983D01*
X130478723Y-110484346D01*
X130514362Y-110465296D01*
X130553032Y-110453565D01*
X130599388Y-110449000D01*
X131250612Y-110449000D01*
X131296968Y-110453565D01*
X131296968Y-110453565D01*
G37*
G36*
X145310442Y-109385518D02*
G01*
X145376627Y-109392037D01*
X145546466Y-109443557D01*
X145702991Y-109527222D01*
X145738729Y-109556552D01*
X145840186Y-109639814D01*
X145923448Y-109741271D01*
X145952778Y-109777009D01*
X146036443Y-109933534D01*
X146087963Y-110103373D01*
X146105359Y-110280000D01*
X146087963Y-110456627D01*
X146036443Y-110626466D01*
X145952778Y-110782991D01*
X145923448Y-110818729D01*
X145840186Y-110920186D01*
X145738729Y-111003448D01*
X145702991Y-111032778D01*
X145546466Y-111116443D01*
X145376627Y-111167963D01*
X145310442Y-111174482D01*
X145244260Y-111181000D01*
X145155740Y-111181000D01*
X145089558Y-111174482D01*
X145023373Y-111167963D01*
X144853534Y-111116443D01*
X144697009Y-111032778D01*
X144661271Y-111003448D01*
X144559814Y-110920186D01*
X144476552Y-110818729D01*
X144447222Y-110782991D01*
X144363557Y-110626466D01*
X144312037Y-110456627D01*
X144294641Y-110280000D01*
X144312037Y-110103373D01*
X144363557Y-109933534D01*
X144447222Y-109777009D01*
X144476552Y-109741271D01*
X144559814Y-109639814D01*
X144661271Y-109556552D01*
X144697009Y-109527222D01*
X144853534Y-109443557D01*
X145023373Y-109392037D01*
X145089558Y-109385518D01*
X145155740Y-109379000D01*
X145244260Y-109379000D01*
X145310442Y-109385518D01*
X145310442Y-109385518D01*
G37*
G36*
X142884468Y-109228565D02*
G01*
X142923138Y-109240296D01*
X142958777Y-109259346D01*
X142990017Y-109284983D01*
X143015654Y-109316223D01*
X143034704Y-109351862D01*
X143046435Y-109390532D01*
X143051000Y-109436888D01*
X143051000Y-110088112D01*
X143046435Y-110134468D01*
X143034704Y-110173138D01*
X143015654Y-110208777D01*
X142990017Y-110240017D01*
X142958777Y-110265654D01*
X142923138Y-110284704D01*
X142884468Y-110296435D01*
X142838112Y-110301000D01*
X141761888Y-110301000D01*
X141715532Y-110296435D01*
X141676862Y-110284704D01*
X141641223Y-110265654D01*
X141609983Y-110240017D01*
X141584346Y-110208777D01*
X141565296Y-110173138D01*
X141553565Y-110134468D01*
X141549000Y-110088112D01*
X141549000Y-109436888D01*
X141553565Y-109390532D01*
X141565296Y-109351862D01*
X141584346Y-109316223D01*
X141609983Y-109284983D01*
X141641223Y-109259346D01*
X141676862Y-109240296D01*
X141715532Y-109228565D01*
X141761888Y-109224000D01*
X142838112Y-109224000D01*
X142884468Y-109228565D01*
X142884468Y-109228565D01*
G37*
G36*
X121684468Y-109141065D02*
G01*
X121723138Y-109152796D01*
X121758777Y-109171846D01*
X121790017Y-109197483D01*
X121815654Y-109228723D01*
X121834704Y-109264362D01*
X121846435Y-109303032D01*
X121851000Y-109349388D01*
X121851000Y-110000612D01*
X121846435Y-110046968D01*
X121834704Y-110085638D01*
X121815654Y-110121277D01*
X121790017Y-110152517D01*
X121758777Y-110178154D01*
X121723138Y-110197204D01*
X121684468Y-110208935D01*
X121638112Y-110213500D01*
X120561888Y-110213500D01*
X120515532Y-110208935D01*
X120476862Y-110197204D01*
X120441223Y-110178154D01*
X120409983Y-110152517D01*
X120384346Y-110121277D01*
X120365296Y-110085638D01*
X120353565Y-110046968D01*
X120349000Y-110000612D01*
X120349000Y-109349388D01*
X120353565Y-109303032D01*
X120365296Y-109264362D01*
X120384346Y-109228723D01*
X120409983Y-109197483D01*
X120441223Y-109171846D01*
X120476862Y-109152796D01*
X120515532Y-109141065D01*
X120561888Y-109136500D01*
X121638112Y-109136500D01*
X121684468Y-109141065D01*
X121684468Y-109141065D01*
G37*
G36*
X145310442Y-106845518D02*
G01*
X145376627Y-106852037D01*
X145546466Y-106903557D01*
X145702991Y-106987222D01*
X145738729Y-107016552D01*
X145840186Y-107099814D01*
X145923448Y-107201271D01*
X145952778Y-107237009D01*
X146036443Y-107393534D01*
X146087963Y-107563373D01*
X146105359Y-107740000D01*
X146087963Y-107916627D01*
X146036443Y-108086466D01*
X145952778Y-108242991D01*
X145950081Y-108246277D01*
X145840186Y-108380186D01*
X145738729Y-108463448D01*
X145702991Y-108492778D01*
X145546466Y-108576443D01*
X145376627Y-108627963D01*
X145310443Y-108634481D01*
X145244260Y-108641000D01*
X145155740Y-108641000D01*
X145089557Y-108634481D01*
X145023373Y-108627963D01*
X144853534Y-108576443D01*
X144697009Y-108492778D01*
X144661271Y-108463448D01*
X144559814Y-108380186D01*
X144449919Y-108246277D01*
X144447222Y-108242991D01*
X144363557Y-108086466D01*
X144312037Y-107916627D01*
X144294641Y-107740000D01*
X144312037Y-107563373D01*
X144363557Y-107393534D01*
X144447222Y-107237009D01*
X144476552Y-107201271D01*
X144559814Y-107099814D01*
X144661271Y-107016552D01*
X144697009Y-106987222D01*
X144853534Y-106903557D01*
X145023373Y-106852037D01*
X145089558Y-106845518D01*
X145155740Y-106839000D01*
X145244260Y-106839000D01*
X145310442Y-106845518D01*
X145310442Y-106845518D01*
G37*
G36*
X131050500Y-108351000D02*
G01*
X129473500Y-108351000D01*
X129473500Y-103249000D01*
X131050500Y-103249000D01*
X131050500Y-108351000D01*
X131050500Y-108351000D01*
G37*
G36*
X136926500Y-108351000D02*
G01*
X135349500Y-108351000D01*
X135349500Y-103249000D01*
X136926500Y-103249000D01*
X136926500Y-108351000D01*
X136926500Y-108351000D01*
G37*
G36*
X121684468Y-107266065D02*
G01*
X121723138Y-107277796D01*
X121758777Y-107296846D01*
X121790017Y-107322483D01*
X121815654Y-107353723D01*
X121834704Y-107389362D01*
X121846435Y-107428032D01*
X121851000Y-107474388D01*
X121851000Y-108125612D01*
X121846435Y-108171968D01*
X121834704Y-108210638D01*
X121815654Y-108246277D01*
X121790017Y-108277517D01*
X121758777Y-108303154D01*
X121723138Y-108322204D01*
X121684468Y-108333935D01*
X121638112Y-108338500D01*
X120561888Y-108338500D01*
X120515532Y-108333935D01*
X120476862Y-108322204D01*
X120441223Y-108303154D01*
X120409983Y-108277517D01*
X120384346Y-108246277D01*
X120365296Y-108210638D01*
X120353565Y-108171968D01*
X120349000Y-108125612D01*
X120349000Y-107474388D01*
X120353565Y-107428032D01*
X120365296Y-107389362D01*
X120384346Y-107353723D01*
X120409983Y-107322483D01*
X120441223Y-107296846D01*
X120476862Y-107277796D01*
X120515532Y-107266065D01*
X120561888Y-107261500D01*
X121638112Y-107261500D01*
X121684468Y-107266065D01*
X121684468Y-107266065D01*
G37*
G36*
X139484468Y-106403565D02*
G01*
X139523138Y-106415296D01*
X139558777Y-106434346D01*
X139590017Y-106459983D01*
X139615654Y-106491223D01*
X139634704Y-106526862D01*
X139646435Y-106565532D01*
X139651000Y-106611888D01*
X139651000Y-107263112D01*
X139646435Y-107309468D01*
X139634704Y-107348138D01*
X139615654Y-107383777D01*
X139590017Y-107415017D01*
X139558777Y-107440654D01*
X139523138Y-107459704D01*
X139484468Y-107471435D01*
X139438112Y-107476000D01*
X138361888Y-107476000D01*
X138315532Y-107471435D01*
X138276862Y-107459704D01*
X138241223Y-107440654D01*
X138209983Y-107415017D01*
X138184346Y-107383777D01*
X138165296Y-107348138D01*
X138153565Y-107309468D01*
X138149000Y-107263112D01*
X138149000Y-106611888D01*
X138153565Y-106565532D01*
X138165296Y-106526862D01*
X138184346Y-106491223D01*
X138209983Y-106459983D01*
X138241223Y-106434346D01*
X138276862Y-106415296D01*
X138315532Y-106403565D01*
X138361888Y-106399000D01*
X139438112Y-106399000D01*
X139484468Y-106403565D01*
X139484468Y-106403565D01*
G37*
G36*
X141784468Y-106403565D02*
G01*
X141823138Y-106415296D01*
X141858777Y-106434346D01*
X141890017Y-106459983D01*
X141915654Y-106491223D01*
X141934704Y-106526862D01*
X141946435Y-106565532D01*
X141951000Y-106611888D01*
X141951000Y-107263112D01*
X141946435Y-107309468D01*
X141934704Y-107348138D01*
X141915654Y-107383777D01*
X141890017Y-107415017D01*
X141858777Y-107440654D01*
X141823138Y-107459704D01*
X141784468Y-107471435D01*
X141738112Y-107476000D01*
X140661888Y-107476000D01*
X140615532Y-107471435D01*
X140576862Y-107459704D01*
X140541223Y-107440654D01*
X140509983Y-107415017D01*
X140484346Y-107383777D01*
X140465296Y-107348138D01*
X140453565Y-107309468D01*
X140449000Y-107263112D01*
X140449000Y-106611888D01*
X140453565Y-106565532D01*
X140465296Y-106526862D01*
X140484346Y-106491223D01*
X140509983Y-106459983D01*
X140541223Y-106434346D01*
X140576862Y-106415296D01*
X140615532Y-106403565D01*
X140661888Y-106399000D01*
X141738112Y-106399000D01*
X141784468Y-106403565D01*
X141784468Y-106403565D01*
G37*
G36*
X145310442Y-104305518D02*
G01*
X145376627Y-104312037D01*
X145546466Y-104363557D01*
X145702991Y-104447222D01*
X145707594Y-104451000D01*
X145840186Y-104559814D01*
X145908998Y-104643663D01*
X145952778Y-104697009D01*
X146036443Y-104853534D01*
X146087963Y-105023373D01*
X146105359Y-105200000D01*
X146087963Y-105376627D01*
X146038399Y-105540017D01*
X146036442Y-105546468D01*
X146010059Y-105595826D01*
X145952778Y-105702991D01*
X145944153Y-105713500D01*
X145840186Y-105840186D01*
X145738729Y-105923448D01*
X145702991Y-105952778D01*
X145546466Y-106036443D01*
X145376627Y-106087963D01*
X145310443Y-106094481D01*
X145244260Y-106101000D01*
X145155740Y-106101000D01*
X145089557Y-106094481D01*
X145023373Y-106087963D01*
X144853534Y-106036443D01*
X144697009Y-105952778D01*
X144661271Y-105923448D01*
X144559814Y-105840186D01*
X144455847Y-105713500D01*
X144447222Y-105702991D01*
X144389941Y-105595826D01*
X144363558Y-105546468D01*
X144361601Y-105540017D01*
X144312037Y-105376627D01*
X144294641Y-105200000D01*
X144312037Y-105023373D01*
X144363557Y-104853534D01*
X144447222Y-104697009D01*
X144491002Y-104643663D01*
X144559814Y-104559814D01*
X144692406Y-104451000D01*
X144697009Y-104447222D01*
X144853534Y-104363557D01*
X145023373Y-104312037D01*
X145089558Y-104305518D01*
X145155740Y-104299000D01*
X145244260Y-104299000D01*
X145310442Y-104305518D01*
X145310442Y-104305518D01*
G37*
G36*
X121684468Y-104641065D02*
G01*
X121723138Y-104652796D01*
X121758777Y-104671846D01*
X121790017Y-104697483D01*
X121815654Y-104728723D01*
X121834704Y-104764362D01*
X121846435Y-104803032D01*
X121851000Y-104849388D01*
X121851000Y-105500612D01*
X121846435Y-105546968D01*
X121834704Y-105585638D01*
X121815654Y-105621277D01*
X121790017Y-105652517D01*
X121758777Y-105678154D01*
X121723138Y-105697204D01*
X121684468Y-105708935D01*
X121638112Y-105713500D01*
X120561888Y-105713500D01*
X120515532Y-105708935D01*
X120476862Y-105697204D01*
X120441223Y-105678154D01*
X120409983Y-105652517D01*
X120384346Y-105621277D01*
X120365296Y-105585638D01*
X120353565Y-105546968D01*
X120349000Y-105500612D01*
X120349000Y-104849388D01*
X120353565Y-104803032D01*
X120365296Y-104764362D01*
X120384346Y-104728723D01*
X120409983Y-104697483D01*
X120441223Y-104671846D01*
X120476862Y-104652796D01*
X120515532Y-104641065D01*
X120561888Y-104636500D01*
X121638112Y-104636500D01*
X121684468Y-104641065D01*
X121684468Y-104641065D01*
G37*
G36*
X139484468Y-104528565D02*
G01*
X139523138Y-104540296D01*
X139558777Y-104559346D01*
X139590017Y-104584983D01*
X139615654Y-104616223D01*
X139634704Y-104651862D01*
X139646435Y-104690532D01*
X139651000Y-104736888D01*
X139651000Y-105388112D01*
X139646435Y-105434468D01*
X139634704Y-105473138D01*
X139615654Y-105508777D01*
X139590017Y-105540017D01*
X139558777Y-105565654D01*
X139523138Y-105584704D01*
X139484468Y-105596435D01*
X139438112Y-105601000D01*
X138361888Y-105601000D01*
X138315532Y-105596435D01*
X138276862Y-105584704D01*
X138241223Y-105565654D01*
X138209983Y-105540017D01*
X138184346Y-105508777D01*
X138165296Y-105473138D01*
X138153565Y-105434468D01*
X138149000Y-105388112D01*
X138149000Y-104736888D01*
X138153565Y-104690532D01*
X138165296Y-104651862D01*
X138184346Y-104616223D01*
X138209983Y-104584983D01*
X138241223Y-104559346D01*
X138276862Y-104540296D01*
X138315532Y-104528565D01*
X138361888Y-104524000D01*
X139438112Y-104524000D01*
X139484468Y-104528565D01*
X139484468Y-104528565D01*
G37*
G36*
X141784468Y-104528565D02*
G01*
X141823138Y-104540296D01*
X141858777Y-104559346D01*
X141890017Y-104584983D01*
X141915654Y-104616223D01*
X141934704Y-104651862D01*
X141946435Y-104690532D01*
X141951000Y-104736888D01*
X141951000Y-105388112D01*
X141946435Y-105434468D01*
X141934704Y-105473138D01*
X141915654Y-105508777D01*
X141890017Y-105540017D01*
X141858777Y-105565654D01*
X141823138Y-105584704D01*
X141784468Y-105596435D01*
X141738112Y-105601000D01*
X140661888Y-105601000D01*
X140615532Y-105596435D01*
X140576862Y-105584704D01*
X140541223Y-105565654D01*
X140509983Y-105540017D01*
X140484346Y-105508777D01*
X140465296Y-105473138D01*
X140453565Y-105434468D01*
X140449000Y-105388112D01*
X140449000Y-104736888D01*
X140453565Y-104690532D01*
X140465296Y-104651862D01*
X140484346Y-104616223D01*
X140509983Y-104584983D01*
X140541223Y-104559346D01*
X140576862Y-104540296D01*
X140615532Y-104528565D01*
X140661888Y-104524000D01*
X141738112Y-104524000D01*
X141784468Y-104528565D01*
X141784468Y-104528565D01*
G37*
G36*
X121684468Y-102766065D02*
G01*
X121723138Y-102777796D01*
X121758777Y-102796846D01*
X121790017Y-102822483D01*
X121815654Y-102853723D01*
X121834704Y-102889362D01*
X121846435Y-102928032D01*
X121851000Y-102974388D01*
X121851000Y-103625612D01*
X121846435Y-103671968D01*
X121834704Y-103710638D01*
X121815654Y-103746277D01*
X121790017Y-103777517D01*
X121758777Y-103803154D01*
X121723138Y-103822204D01*
X121684468Y-103833935D01*
X121638112Y-103838500D01*
X120561888Y-103838500D01*
X120515532Y-103833935D01*
X120476862Y-103822204D01*
X120441223Y-103803154D01*
X120409983Y-103777517D01*
X120384346Y-103746277D01*
X120365296Y-103710638D01*
X120353565Y-103671968D01*
X120349000Y-103625612D01*
X120349000Y-102974388D01*
X120353565Y-102928032D01*
X120365296Y-102889362D01*
X120384346Y-102853723D01*
X120409983Y-102822483D01*
X120441223Y-102796846D01*
X120476862Y-102777796D01*
X120515532Y-102766065D01*
X120561888Y-102761500D01*
X121638112Y-102761500D01*
X121684468Y-102766065D01*
X121684468Y-102766065D01*
G37*
G36*
X145310442Y-101765518D02*
G01*
X145376627Y-101772037D01*
X145546466Y-101823557D01*
X145702991Y-101907222D01*
X145716130Y-101918005D01*
X145840186Y-102019814D01*
X145923448Y-102121271D01*
X145952778Y-102157009D01*
X146036443Y-102313534D01*
X146087963Y-102483373D01*
X146105359Y-102660000D01*
X146087963Y-102836627D01*
X146036443Y-103006466D01*
X145952778Y-103162991D01*
X145923448Y-103198729D01*
X145840186Y-103300186D01*
X145738729Y-103383448D01*
X145702991Y-103412778D01*
X145546466Y-103496443D01*
X145376627Y-103547963D01*
X145310442Y-103554482D01*
X145244260Y-103561000D01*
X145155740Y-103561000D01*
X145089558Y-103554482D01*
X145023373Y-103547963D01*
X144853534Y-103496443D01*
X144697009Y-103412778D01*
X144661271Y-103383448D01*
X144559814Y-103300186D01*
X144476552Y-103198729D01*
X144447222Y-103162991D01*
X144363557Y-103006466D01*
X144312037Y-102836627D01*
X144294641Y-102660000D01*
X144312037Y-102483373D01*
X144363557Y-102313534D01*
X144447222Y-102157009D01*
X144476552Y-102121271D01*
X144559814Y-102019814D01*
X144683870Y-101918005D01*
X144697009Y-101907222D01*
X144853534Y-101823557D01*
X145023373Y-101772037D01*
X145089558Y-101765518D01*
X145155740Y-101759000D01*
X145244260Y-101759000D01*
X145310442Y-101765518D01*
X145310442Y-101765518D01*
G37*
G36*
X121684468Y-100866065D02*
G01*
X121723138Y-100877796D01*
X121758777Y-100896846D01*
X121790017Y-100922483D01*
X121815654Y-100953723D01*
X121834704Y-100989362D01*
X121846435Y-101028032D01*
X121851000Y-101074388D01*
X121851000Y-101725612D01*
X121846435Y-101771968D01*
X121834704Y-101810638D01*
X121815654Y-101846277D01*
X121790017Y-101877517D01*
X121758777Y-101903154D01*
X121723138Y-101922204D01*
X121684468Y-101933935D01*
X121638112Y-101938500D01*
X120561888Y-101938500D01*
X120515532Y-101933935D01*
X120476862Y-101922204D01*
X120441223Y-101903154D01*
X120409983Y-101877517D01*
X120384346Y-101846277D01*
X120365296Y-101810638D01*
X120353565Y-101771968D01*
X120349000Y-101725612D01*
X120349000Y-101074388D01*
X120353565Y-101028032D01*
X120365296Y-100989362D01*
X120384346Y-100953723D01*
X120409983Y-100922483D01*
X120441223Y-100896846D01*
X120476862Y-100877796D01*
X120515532Y-100866065D01*
X120561888Y-100861500D01*
X121638112Y-100861500D01*
X121684468Y-100866065D01*
X121684468Y-100866065D01*
G37*
G36*
X130634468Y-100153565D02*
G01*
X130673138Y-100165296D01*
X130708777Y-100184346D01*
X130740017Y-100209983D01*
X130765654Y-100241223D01*
X130784704Y-100276862D01*
X130796435Y-100315532D01*
X130801000Y-100361888D01*
X130801000Y-101438112D01*
X130796435Y-101484468D01*
X130784704Y-101523138D01*
X130765654Y-101558777D01*
X130740017Y-101590017D01*
X130708777Y-101615654D01*
X130673138Y-101634704D01*
X130634468Y-101646435D01*
X130588112Y-101651000D01*
X129936888Y-101651000D01*
X129890532Y-101646435D01*
X129851862Y-101634704D01*
X129816223Y-101615654D01*
X129784983Y-101590017D01*
X129759346Y-101558777D01*
X129740296Y-101523138D01*
X129728565Y-101484468D01*
X129724000Y-101438112D01*
X129724000Y-100361888D01*
X129728565Y-100315532D01*
X129740296Y-100276862D01*
X129759346Y-100241223D01*
X129784983Y-100209983D01*
X129816223Y-100184346D01*
X129851862Y-100165296D01*
X129890532Y-100153565D01*
X129936888Y-100149000D01*
X130588112Y-100149000D01*
X130634468Y-100153565D01*
X130634468Y-100153565D01*
G37*
G36*
X132509468Y-100153565D02*
G01*
X132548138Y-100165296D01*
X132583777Y-100184346D01*
X132615017Y-100209983D01*
X132640654Y-100241223D01*
X132659704Y-100276862D01*
X132671435Y-100315532D01*
X132676000Y-100361888D01*
X132676000Y-101438112D01*
X132671435Y-101484468D01*
X132659704Y-101523138D01*
X132640654Y-101558777D01*
X132615017Y-101590017D01*
X132583777Y-101615654D01*
X132548138Y-101634704D01*
X132509468Y-101646435D01*
X132463112Y-101651000D01*
X131811888Y-101651000D01*
X131765532Y-101646435D01*
X131726862Y-101634704D01*
X131691223Y-101615654D01*
X131659983Y-101590017D01*
X131634346Y-101558777D01*
X131615296Y-101523138D01*
X131603565Y-101484468D01*
X131599000Y-101438112D01*
X131599000Y-100361888D01*
X131603565Y-100315532D01*
X131615296Y-100276862D01*
X131634346Y-100241223D01*
X131659983Y-100209983D01*
X131691223Y-100184346D01*
X131726862Y-100165296D01*
X131765532Y-100153565D01*
X131811888Y-100149000D01*
X132463112Y-100149000D01*
X132509468Y-100153565D01*
X132509468Y-100153565D01*
G37*
G36*
X145310442Y-99225518D02*
G01*
X145376627Y-99232037D01*
X145546466Y-99283557D01*
X145702991Y-99367222D01*
X145738729Y-99396552D01*
X145840186Y-99479814D01*
X145923448Y-99581271D01*
X145952778Y-99617009D01*
X146036443Y-99773534D01*
X146087963Y-99943373D01*
X146105359Y-100120000D01*
X146087963Y-100296627D01*
X146036443Y-100466466D01*
X145952778Y-100622991D01*
X145923448Y-100658729D01*
X145840186Y-100760186D01*
X145738729Y-100843448D01*
X145702991Y-100872778D01*
X145546466Y-100956443D01*
X145376627Y-101007963D01*
X145310443Y-101014481D01*
X145244260Y-101021000D01*
X145155740Y-101021000D01*
X145089557Y-101014481D01*
X145023373Y-101007963D01*
X144853534Y-100956443D01*
X144697009Y-100872778D01*
X144661271Y-100843448D01*
X144559814Y-100760186D01*
X144476552Y-100658729D01*
X144447222Y-100622991D01*
X144363557Y-100466466D01*
X144312037Y-100296627D01*
X144294641Y-100120000D01*
X144312037Y-99943373D01*
X144363557Y-99773534D01*
X144447222Y-99617009D01*
X144476552Y-99581271D01*
X144559814Y-99479814D01*
X144661271Y-99396552D01*
X144697009Y-99367222D01*
X144853534Y-99283557D01*
X145023373Y-99232037D01*
X145089558Y-99225518D01*
X145155740Y-99219000D01*
X145244260Y-99219000D01*
X145310442Y-99225518D01*
X145310442Y-99225518D01*
G37*
G36*
X121684468Y-98991065D02*
G01*
X121723138Y-99002796D01*
X121758777Y-99021846D01*
X121790017Y-99047483D01*
X121815654Y-99078723D01*
X121834704Y-99114362D01*
X121846435Y-99153032D01*
X121851000Y-99199388D01*
X121851000Y-99850612D01*
X121846435Y-99896968D01*
X121834704Y-99935638D01*
X121815654Y-99971277D01*
X121790017Y-100002517D01*
X121758777Y-100028154D01*
X121723138Y-100047204D01*
X121684468Y-100058935D01*
X121638112Y-100063500D01*
X120561888Y-100063500D01*
X120515532Y-100058935D01*
X120476862Y-100047204D01*
X120441223Y-100028154D01*
X120409983Y-100002517D01*
X120384346Y-99971277D01*
X120365296Y-99935638D01*
X120353565Y-99896968D01*
X120349000Y-99850612D01*
X120349000Y-99199388D01*
X120353565Y-99153032D01*
X120365296Y-99114362D01*
X120384346Y-99078723D01*
X120409983Y-99047483D01*
X120441223Y-99021846D01*
X120476862Y-99002796D01*
X120515532Y-98991065D01*
X120561888Y-98986500D01*
X121638112Y-98986500D01*
X121684468Y-98991065D01*
X121684468Y-98991065D01*
G37*
G36*
X130846968Y-96653565D02*
G01*
X130885638Y-96665296D01*
X130921277Y-96684346D01*
X130952517Y-96709983D01*
X130978154Y-96741223D01*
X130997204Y-96776862D01*
X131008935Y-96815532D01*
X131013500Y-96861888D01*
X131013500Y-97938112D01*
X131008935Y-97984468D01*
X130997204Y-98023138D01*
X130978154Y-98058777D01*
X130952517Y-98090017D01*
X130921277Y-98115654D01*
X130885638Y-98134704D01*
X130846968Y-98146435D01*
X130800612Y-98151000D01*
X130149388Y-98151000D01*
X130103032Y-98146435D01*
X130064362Y-98134704D01*
X130028723Y-98115654D01*
X129997483Y-98090017D01*
X129971846Y-98058777D01*
X129952796Y-98023138D01*
X129941065Y-97984468D01*
X129936500Y-97938112D01*
X129936500Y-96861888D01*
X129941065Y-96815532D01*
X129952796Y-96776862D01*
X129971846Y-96741223D01*
X129997483Y-96709983D01*
X130028723Y-96684346D01*
X130064362Y-96665296D01*
X130103032Y-96653565D01*
X130149388Y-96649000D01*
X130800612Y-96649000D01*
X130846968Y-96653565D01*
X130846968Y-96653565D01*
G37*
G36*
X128971968Y-96653565D02*
G01*
X129010638Y-96665296D01*
X129046277Y-96684346D01*
X129077517Y-96709983D01*
X129103154Y-96741223D01*
X129122204Y-96776862D01*
X129133935Y-96815532D01*
X129138500Y-96861888D01*
X129138500Y-97938112D01*
X129133935Y-97984468D01*
X129122204Y-98023138D01*
X129103154Y-98058777D01*
X129077517Y-98090017D01*
X129046277Y-98115654D01*
X129010638Y-98134704D01*
X128971968Y-98146435D01*
X128925612Y-98151000D01*
X128274388Y-98151000D01*
X128228032Y-98146435D01*
X128189362Y-98134704D01*
X128153723Y-98115654D01*
X128122483Y-98090017D01*
X128096846Y-98058777D01*
X128077796Y-98023138D01*
X128066065Y-97984468D01*
X128061500Y-97938112D01*
X128061500Y-96861888D01*
X128066065Y-96815532D01*
X128077796Y-96776862D01*
X128096846Y-96741223D01*
X128122483Y-96709983D01*
X128153723Y-96684346D01*
X128189362Y-96665296D01*
X128228032Y-96653565D01*
X128274388Y-96649000D01*
X128925612Y-96649000D01*
X128971968Y-96653565D01*
X128971968Y-96653565D01*
G37*
G36*
X121576000Y-97876000D02*
G01*
X120624000Y-97876000D01*
X120624000Y-96924000D01*
X121576000Y-96924000D01*
X121576000Y-97876000D01*
X121576000Y-97876000D01*
G37*
G36*
X121576000Y-95876000D02*
G01*
X120624000Y-95876000D01*
X120624000Y-94924000D01*
X121576000Y-94924000D01*
X121576000Y-95876000D01*
X121576000Y-95876000D01*
G37*
G36*
X145809468Y-92653565D02*
G01*
X145848138Y-92665296D01*
X145883777Y-92684346D01*
X145915017Y-92709983D01*
X145940654Y-92741223D01*
X145959704Y-92776862D01*
X145971435Y-92815532D01*
X145976000Y-92861888D01*
X145976000Y-93938112D01*
X145971435Y-93984468D01*
X145959704Y-94023138D01*
X145940654Y-94058777D01*
X145915017Y-94090017D01*
X145883777Y-94115654D01*
X145848138Y-94134704D01*
X145809468Y-94146435D01*
X145763112Y-94151000D01*
X145111888Y-94151000D01*
X145065532Y-94146435D01*
X145026862Y-94134704D01*
X144991223Y-94115654D01*
X144959983Y-94090017D01*
X144934346Y-94058777D01*
X144915296Y-94023138D01*
X144903565Y-93984468D01*
X144899000Y-93938112D01*
X144899000Y-92861888D01*
X144903565Y-92815532D01*
X144915296Y-92776862D01*
X144934346Y-92741223D01*
X144959983Y-92709983D01*
X144991223Y-92684346D01*
X145026862Y-92665296D01*
X145065532Y-92653565D01*
X145111888Y-92649000D01*
X145763112Y-92649000D01*
X145809468Y-92653565D01*
X145809468Y-92653565D01*
G37*
G36*
X143934468Y-92653565D02*
G01*
X143973138Y-92665296D01*
X144008777Y-92684346D01*
X144040017Y-92709983D01*
X144065654Y-92741223D01*
X144084704Y-92776862D01*
X144096435Y-92815532D01*
X144101000Y-92861888D01*
X144101000Y-93938112D01*
X144096435Y-93984468D01*
X144084704Y-94023138D01*
X144065654Y-94058777D01*
X144040017Y-94090017D01*
X144008777Y-94115654D01*
X143973138Y-94134704D01*
X143934468Y-94146435D01*
X143888112Y-94151000D01*
X143236888Y-94151000D01*
X143190532Y-94146435D01*
X143151862Y-94134704D01*
X143116223Y-94115654D01*
X143084983Y-94090017D01*
X143059346Y-94058777D01*
X143040296Y-94023138D01*
X143028565Y-93984468D01*
X143024000Y-93938112D01*
X143024000Y-92861888D01*
X143028565Y-92815532D01*
X143040296Y-92776862D01*
X143059346Y-92741223D01*
X143084983Y-92709983D01*
X143116223Y-92684346D01*
X143151862Y-92665296D01*
X143190532Y-92653565D01*
X143236888Y-92649000D01*
X143888112Y-92649000D01*
X143934468Y-92653565D01*
X143934468Y-92653565D01*
G37*
G36*
X127376000Y-93876000D02*
G01*
X125824000Y-93876000D01*
X125824000Y-87474000D01*
X127376000Y-87474000D01*
X127376000Y-93876000D01*
X127376000Y-93876000D01*
G37*
G36*
X121476000Y-93876000D02*
G01*
X119924000Y-93876000D01*
X119924000Y-87474000D01*
X121476000Y-87474000D01*
X121476000Y-93876000D01*
X121476000Y-93876000D01*
G37*
G36*
X138071968Y-91753565D02*
G01*
X138110638Y-91765296D01*
X138146277Y-91784346D01*
X138177517Y-91809983D01*
X138203154Y-91841223D01*
X138222204Y-91876862D01*
X138233935Y-91915532D01*
X138238500Y-91961888D01*
X138238500Y-93038112D01*
X138233935Y-93084468D01*
X138222204Y-93123138D01*
X138203154Y-93158777D01*
X138177517Y-93190017D01*
X138146277Y-93215654D01*
X138110638Y-93234704D01*
X138071968Y-93246435D01*
X138025612Y-93251000D01*
X137374388Y-93251000D01*
X137328032Y-93246435D01*
X137289362Y-93234704D01*
X137253723Y-93215654D01*
X137222483Y-93190017D01*
X137196846Y-93158777D01*
X137177796Y-93123138D01*
X137166065Y-93084468D01*
X137161500Y-93038112D01*
X137161500Y-91961888D01*
X137166065Y-91915532D01*
X137177796Y-91876862D01*
X137196846Y-91841223D01*
X137222483Y-91809983D01*
X137253723Y-91784346D01*
X137289362Y-91765296D01*
X137328032Y-91753565D01*
X137374388Y-91749000D01*
X138025612Y-91749000D01*
X138071968Y-91753565D01*
X138071968Y-91753565D01*
G37*
G36*
X139946968Y-91753565D02*
G01*
X139985638Y-91765296D01*
X140021277Y-91784346D01*
X140052517Y-91809983D01*
X140078154Y-91841223D01*
X140097204Y-91876862D01*
X140108935Y-91915532D01*
X140113500Y-91961888D01*
X140113500Y-93038112D01*
X140108935Y-93084468D01*
X140097204Y-93123138D01*
X140078154Y-93158777D01*
X140052517Y-93190017D01*
X140021277Y-93215654D01*
X139985638Y-93234704D01*
X139946968Y-93246435D01*
X139900612Y-93251000D01*
X139249388Y-93251000D01*
X139203032Y-93246435D01*
X139164362Y-93234704D01*
X139128723Y-93215654D01*
X139097483Y-93190017D01*
X139071846Y-93158777D01*
X139052796Y-93123138D01*
X139041065Y-93084468D01*
X139036500Y-93038112D01*
X139036500Y-91961888D01*
X139041065Y-91915532D01*
X139052796Y-91876862D01*
X139071846Y-91841223D01*
X139097483Y-91809983D01*
X139128723Y-91784346D01*
X139164362Y-91765296D01*
X139203032Y-91753565D01*
X139249388Y-91749000D01*
X139900612Y-91749000D01*
X139946968Y-91753565D01*
X139946968Y-91753565D01*
G37*
G36*
X134901000Y-89974001D02*
G01*
X134903402Y-89998387D01*
X134910515Y-90021836D01*
X134922066Y-90043447D01*
X134937611Y-90062389D01*
X134956553Y-90077934D01*
X134978164Y-90089485D01*
X135001613Y-90096598D01*
X135025999Y-90099000D01*
X135451000Y-90099000D01*
X135451000Y-91501000D01*
X135025999Y-91501000D01*
X135001613Y-91503402D01*
X134978164Y-91510515D01*
X134956553Y-91522066D01*
X134937611Y-91537611D01*
X134922066Y-91556553D01*
X134910515Y-91578164D01*
X134903402Y-91601613D01*
X134901000Y-91625999D01*
X134901000Y-92301000D01*
X131499000Y-92301000D01*
X131499000Y-91625999D01*
X131496598Y-91601613D01*
X131489485Y-91578164D01*
X131477934Y-91556553D01*
X131462389Y-91537611D01*
X131443447Y-91522066D01*
X131421836Y-91510515D01*
X131398387Y-91503402D01*
X131374001Y-91501000D01*
X130949000Y-91501000D01*
X130949000Y-90125999D01*
X131651000Y-90125999D01*
X131651000Y-91474001D01*
X131653402Y-91498387D01*
X131660515Y-91521836D01*
X131672066Y-91543447D01*
X131687611Y-91562389D01*
X131706553Y-91577934D01*
X131728164Y-91589485D01*
X131751613Y-91596598D01*
X131775999Y-91599000D01*
X134624001Y-91599000D01*
X134648387Y-91596598D01*
X134671836Y-91589485D01*
X134693447Y-91577934D01*
X134712389Y-91562389D01*
X134727934Y-91543447D01*
X134739485Y-91521836D01*
X134746598Y-91498387D01*
X134749000Y-91474001D01*
X134749000Y-90125999D01*
X134746598Y-90101613D01*
X134739485Y-90078164D01*
X134727934Y-90056553D01*
X134712389Y-90037611D01*
X134693447Y-90022066D01*
X134671836Y-90010515D01*
X134648387Y-90003402D01*
X134624001Y-90001000D01*
X131775999Y-90001000D01*
X131751613Y-90003402D01*
X131728164Y-90010515D01*
X131706553Y-90022066D01*
X131687611Y-90037611D01*
X131672066Y-90056553D01*
X131660515Y-90078164D01*
X131653402Y-90101613D01*
X131651000Y-90125999D01*
X130949000Y-90125999D01*
X130949000Y-90099000D01*
X131374001Y-90099000D01*
X131398387Y-90096598D01*
X131421836Y-90089485D01*
X131443447Y-90077934D01*
X131462389Y-90062389D01*
X131477934Y-90043447D01*
X131489485Y-90021836D01*
X131496598Y-89998387D01*
X131499000Y-89974001D01*
X131499000Y-89299000D01*
X134901000Y-89299000D01*
X134901000Y-89974001D01*
X134901000Y-89974001D01*
G37*
G36*
X143371968Y-88953565D02*
G01*
X143410638Y-88965296D01*
X143446277Y-88984346D01*
X143477517Y-89009983D01*
X143503154Y-89041223D01*
X143522204Y-89076862D01*
X143533935Y-89115532D01*
X143538500Y-89161888D01*
X143538500Y-90238112D01*
X143533935Y-90284468D01*
X143522204Y-90323138D01*
X143503154Y-90358777D01*
X143477517Y-90390017D01*
X143446277Y-90415654D01*
X143410638Y-90434704D01*
X143371968Y-90446435D01*
X143325612Y-90451000D01*
X142674388Y-90451000D01*
X142628032Y-90446435D01*
X142589362Y-90434704D01*
X142553723Y-90415654D01*
X142522483Y-90390017D01*
X142496846Y-90358777D01*
X142477796Y-90323138D01*
X142466065Y-90284468D01*
X142461500Y-90238112D01*
X142461500Y-89161888D01*
X142466065Y-89115532D01*
X142477796Y-89076862D01*
X142496846Y-89041223D01*
X142522483Y-89009983D01*
X142553723Y-88984346D01*
X142589362Y-88965296D01*
X142628032Y-88953565D01*
X142674388Y-88949000D01*
X143325612Y-88949000D01*
X143371968Y-88953565D01*
X143371968Y-88953565D01*
G37*
G36*
X145246968Y-88953565D02*
G01*
X145285638Y-88965296D01*
X145321277Y-88984346D01*
X145352517Y-89009983D01*
X145378154Y-89041223D01*
X145397204Y-89076862D01*
X145408935Y-89115532D01*
X145413500Y-89161888D01*
X145413500Y-90238112D01*
X145408935Y-90284468D01*
X145397204Y-90323138D01*
X145378154Y-90358777D01*
X145352517Y-90390017D01*
X145321277Y-90415654D01*
X145285638Y-90434704D01*
X145246968Y-90446435D01*
X145200612Y-90451000D01*
X144549388Y-90451000D01*
X144503032Y-90446435D01*
X144464362Y-90434704D01*
X144428723Y-90415654D01*
X144397483Y-90390017D01*
X144371846Y-90358777D01*
X144352796Y-90323138D01*
X144341065Y-90284468D01*
X144336500Y-90238112D01*
X144336500Y-89161888D01*
X144341065Y-89115532D01*
X144352796Y-89076862D01*
X144371846Y-89041223D01*
X144397483Y-89009983D01*
X144428723Y-88984346D01*
X144464362Y-88965296D01*
X144503032Y-88953565D01*
X144549388Y-88949000D01*
X145200612Y-88949000D01*
X145246968Y-88953565D01*
X145246968Y-88953565D01*
G37*
G36*
X139946968Y-88253565D02*
G01*
X139985638Y-88265296D01*
X140021277Y-88284346D01*
X140052517Y-88309983D01*
X140078154Y-88341223D01*
X140097204Y-88376862D01*
X140108935Y-88415532D01*
X140113500Y-88461888D01*
X140113500Y-89538112D01*
X140108935Y-89584468D01*
X140097204Y-89623138D01*
X140078154Y-89658777D01*
X140052517Y-89690017D01*
X140021277Y-89715654D01*
X139985638Y-89734704D01*
X139946968Y-89746435D01*
X139900612Y-89751000D01*
X139249388Y-89751000D01*
X139203032Y-89746435D01*
X139164362Y-89734704D01*
X139128723Y-89715654D01*
X139097483Y-89690017D01*
X139071846Y-89658777D01*
X139052796Y-89623138D01*
X139041065Y-89584468D01*
X139036500Y-89538112D01*
X139036500Y-88461888D01*
X139041065Y-88415532D01*
X139052796Y-88376862D01*
X139071846Y-88341223D01*
X139097483Y-88309983D01*
X139128723Y-88284346D01*
X139164362Y-88265296D01*
X139203032Y-88253565D01*
X139249388Y-88249000D01*
X139900612Y-88249000D01*
X139946968Y-88253565D01*
X139946968Y-88253565D01*
G37*
G36*
X138071968Y-88253565D02*
G01*
X138110638Y-88265296D01*
X138146277Y-88284346D01*
X138177517Y-88309983D01*
X138203154Y-88341223D01*
X138222204Y-88376862D01*
X138233935Y-88415532D01*
X138238500Y-88461888D01*
X138238500Y-89538112D01*
X138233935Y-89584468D01*
X138222204Y-89623138D01*
X138203154Y-89658777D01*
X138177517Y-89690017D01*
X138146277Y-89715654D01*
X138110638Y-89734704D01*
X138071968Y-89746435D01*
X138025612Y-89751000D01*
X137374388Y-89751000D01*
X137328032Y-89746435D01*
X137289362Y-89734704D01*
X137253723Y-89715654D01*
X137222483Y-89690017D01*
X137196846Y-89658777D01*
X137177796Y-89623138D01*
X137166065Y-89584468D01*
X137161500Y-89538112D01*
X137161500Y-88461888D01*
X137166065Y-88415532D01*
X137177796Y-88376862D01*
X137196846Y-88341223D01*
X137222483Y-88309983D01*
X137253723Y-88284346D01*
X137289362Y-88265296D01*
X137328032Y-88253565D01*
X137374388Y-88249000D01*
X138025612Y-88249000D01*
X138071968Y-88253565D01*
X138071968Y-88253565D01*
G37*
G36*
X145876000Y-86776000D02*
G01*
X144924000Y-86776000D01*
X144924000Y-85824000D01*
X145876000Y-85824000D01*
X145876000Y-86776000D01*
X145876000Y-86776000D01*
G37*
G36*
X145876000Y-84776000D02*
G01*
X144924000Y-84776000D01*
X144924000Y-83824000D01*
X145876000Y-83824000D01*
X145876000Y-84776000D01*
X145876000Y-84776000D01*
G37*
G36*
X122534468Y-80653565D02*
G01*
X122573138Y-80665296D01*
X122608777Y-80684346D01*
X122640017Y-80709983D01*
X122665654Y-80741223D01*
X122684704Y-80776862D01*
X122696435Y-80815532D01*
X122701000Y-80861888D01*
X122701000Y-81938112D01*
X122696435Y-81984468D01*
X122684704Y-82023138D01*
X122665654Y-82058777D01*
X122640017Y-82090017D01*
X122608777Y-82115654D01*
X122573138Y-82134704D01*
X122534468Y-82146435D01*
X122488112Y-82151000D01*
X121836888Y-82151000D01*
X121790532Y-82146435D01*
X121751862Y-82134704D01*
X121716223Y-82115654D01*
X121684983Y-82090017D01*
X121659346Y-82058777D01*
X121640296Y-82023138D01*
X121628565Y-81984468D01*
X121624000Y-81938112D01*
X121624000Y-80861888D01*
X121628565Y-80815532D01*
X121640296Y-80776862D01*
X121659346Y-80741223D01*
X121684983Y-80709983D01*
X121716223Y-80684346D01*
X121751862Y-80665296D01*
X121790532Y-80653565D01*
X121836888Y-80649000D01*
X122488112Y-80649000D01*
X122534468Y-80653565D01*
X122534468Y-80653565D01*
G37*
G36*
X124409468Y-80653565D02*
G01*
X124448138Y-80665296D01*
X124483777Y-80684346D01*
X124515017Y-80709983D01*
X124540654Y-80741223D01*
X124559704Y-80776862D01*
X124571435Y-80815532D01*
X124576000Y-80861888D01*
X124576000Y-81938112D01*
X124571435Y-81984468D01*
X124559704Y-82023138D01*
X124540654Y-82058777D01*
X124515017Y-82090017D01*
X124483777Y-82115654D01*
X124448138Y-82134704D01*
X124409468Y-82146435D01*
X124363112Y-82151000D01*
X123711888Y-82151000D01*
X123665532Y-82146435D01*
X123626862Y-82134704D01*
X123591223Y-82115654D01*
X123559983Y-82090017D01*
X123534346Y-82058777D01*
X123515296Y-82023138D01*
X123503565Y-81984468D01*
X123499000Y-81938112D01*
X123499000Y-80861888D01*
X123503565Y-80815532D01*
X123515296Y-80776862D01*
X123534346Y-80741223D01*
X123559983Y-80709983D01*
X123591223Y-80684346D01*
X123626862Y-80665296D01*
X123665532Y-80653565D01*
X123711888Y-80649000D01*
X124363112Y-80649000D01*
X124409468Y-80653565D01*
X124409468Y-80653565D01*
G37*
G36*
X142496968Y-80553565D02*
G01*
X142535638Y-80565296D01*
X142571277Y-80584346D01*
X142602517Y-80609983D01*
X142628154Y-80641223D01*
X142647204Y-80676862D01*
X142658935Y-80715532D01*
X142663500Y-80761888D01*
X142663500Y-81838112D01*
X142658935Y-81884468D01*
X142647204Y-81923138D01*
X142628154Y-81958777D01*
X142602517Y-81990017D01*
X142571277Y-82015654D01*
X142535638Y-82034704D01*
X142496968Y-82046435D01*
X142450612Y-82051000D01*
X141799388Y-82051000D01*
X141753032Y-82046435D01*
X141714362Y-82034704D01*
X141678723Y-82015654D01*
X141647483Y-81990017D01*
X141621846Y-81958777D01*
X141602796Y-81923138D01*
X141591065Y-81884468D01*
X141586500Y-81838112D01*
X141586500Y-80761888D01*
X141591065Y-80715532D01*
X141602796Y-80676862D01*
X141621846Y-80641223D01*
X141647483Y-80609983D01*
X141678723Y-80584346D01*
X141714362Y-80565296D01*
X141753032Y-80553565D01*
X141799388Y-80549000D01*
X142450612Y-80549000D01*
X142496968Y-80553565D01*
X142496968Y-80553565D01*
G37*
G36*
X144371968Y-80553565D02*
G01*
X144410638Y-80565296D01*
X144446277Y-80584346D01*
X144477517Y-80609983D01*
X144503154Y-80641223D01*
X144522204Y-80676862D01*
X144533935Y-80715532D01*
X144538500Y-80761888D01*
X144538500Y-81838112D01*
X144533935Y-81884468D01*
X144522204Y-81923138D01*
X144503154Y-81958777D01*
X144477517Y-81990017D01*
X144446277Y-82015654D01*
X144410638Y-82034704D01*
X144371968Y-82046435D01*
X144325612Y-82051000D01*
X143674388Y-82051000D01*
X143628032Y-82046435D01*
X143589362Y-82034704D01*
X143553723Y-82015654D01*
X143522483Y-81990017D01*
X143496846Y-81958777D01*
X143477796Y-81923138D01*
X143466065Y-81884468D01*
X143461500Y-81838112D01*
X143461500Y-80761888D01*
X143466065Y-80715532D01*
X143477796Y-80676862D01*
X143496846Y-80641223D01*
X143522483Y-80609983D01*
X143553723Y-80584346D01*
X143589362Y-80565296D01*
X143628032Y-80553565D01*
X143674388Y-80549000D01*
X144325612Y-80549000D01*
X144371968Y-80553565D01*
X144371968Y-80553565D01*
G37*
G36*
X137971968Y-79153565D02*
G01*
X138010638Y-79165296D01*
X138046277Y-79184346D01*
X138077517Y-79209983D01*
X138103154Y-79241223D01*
X138122204Y-79276862D01*
X138133935Y-79315532D01*
X138138500Y-79361888D01*
X138138500Y-80438112D01*
X138133935Y-80484468D01*
X138122204Y-80523138D01*
X138103154Y-80558777D01*
X138077517Y-80590017D01*
X138046277Y-80615654D01*
X138010638Y-80634704D01*
X137971968Y-80646435D01*
X137925612Y-80651000D01*
X137274388Y-80651000D01*
X137228032Y-80646435D01*
X137189362Y-80634704D01*
X137153723Y-80615654D01*
X137122483Y-80590017D01*
X137096846Y-80558777D01*
X137077796Y-80523138D01*
X137066065Y-80484468D01*
X137061500Y-80438112D01*
X137061500Y-79361888D01*
X137066065Y-79315532D01*
X137077796Y-79276862D01*
X137096846Y-79241223D01*
X137122483Y-79209983D01*
X137153723Y-79184346D01*
X137189362Y-79165296D01*
X137228032Y-79153565D01*
X137274388Y-79149000D01*
X137925612Y-79149000D01*
X137971968Y-79153565D01*
X137971968Y-79153565D01*
G37*
G36*
X127196968Y-79153565D02*
G01*
X127235638Y-79165296D01*
X127271277Y-79184346D01*
X127302517Y-79209983D01*
X127328154Y-79241223D01*
X127347204Y-79276862D01*
X127358935Y-79315532D01*
X127363500Y-79361888D01*
X127363500Y-80438112D01*
X127358935Y-80484468D01*
X127347204Y-80523138D01*
X127328154Y-80558777D01*
X127302517Y-80590017D01*
X127271277Y-80615654D01*
X127235638Y-80634704D01*
X127196968Y-80646435D01*
X127150612Y-80651000D01*
X126499388Y-80651000D01*
X126453032Y-80646435D01*
X126414362Y-80634704D01*
X126378723Y-80615654D01*
X126347483Y-80590017D01*
X126321846Y-80558777D01*
X126302796Y-80523138D01*
X126291065Y-80484468D01*
X126286500Y-80438112D01*
X126286500Y-79361888D01*
X126291065Y-79315532D01*
X126302796Y-79276862D01*
X126321846Y-79241223D01*
X126347483Y-79209983D01*
X126378723Y-79184346D01*
X126414362Y-79165296D01*
X126453032Y-79153565D01*
X126499388Y-79149000D01*
X127150612Y-79149000D01*
X127196968Y-79153565D01*
X127196968Y-79153565D01*
G37*
G36*
X129071968Y-79153565D02*
G01*
X129110638Y-79165296D01*
X129146277Y-79184346D01*
X129177517Y-79209983D01*
X129203154Y-79241223D01*
X129222204Y-79276862D01*
X129233935Y-79315532D01*
X129238500Y-79361888D01*
X129238500Y-80438112D01*
X129233935Y-80484468D01*
X129222204Y-80523138D01*
X129203154Y-80558777D01*
X129177517Y-80590017D01*
X129146277Y-80615654D01*
X129110638Y-80634704D01*
X129071968Y-80646435D01*
X129025612Y-80651000D01*
X128374388Y-80651000D01*
X128328032Y-80646435D01*
X128289362Y-80634704D01*
X128253723Y-80615654D01*
X128222483Y-80590017D01*
X128196846Y-80558777D01*
X128177796Y-80523138D01*
X128166065Y-80484468D01*
X128161500Y-80438112D01*
X128161500Y-79361888D01*
X128166065Y-79315532D01*
X128177796Y-79276862D01*
X128196846Y-79241223D01*
X128222483Y-79209983D01*
X128253723Y-79184346D01*
X128289362Y-79165296D01*
X128328032Y-79153565D01*
X128374388Y-79149000D01*
X129025612Y-79149000D01*
X129071968Y-79153565D01*
X129071968Y-79153565D01*
G37*
G36*
X139846968Y-79153565D02*
G01*
X139885638Y-79165296D01*
X139921277Y-79184346D01*
X139952517Y-79209983D01*
X139978154Y-79241223D01*
X139997204Y-79276862D01*
X140008935Y-79315532D01*
X140013500Y-79361888D01*
X140013500Y-80438112D01*
X140008935Y-80484468D01*
X139997204Y-80523138D01*
X139978154Y-80558777D01*
X139952517Y-80590017D01*
X139921277Y-80615654D01*
X139885638Y-80634704D01*
X139846968Y-80646435D01*
X139800612Y-80651000D01*
X139149388Y-80651000D01*
X139103032Y-80646435D01*
X139064362Y-80634704D01*
X139028723Y-80615654D01*
X138997483Y-80590017D01*
X138971846Y-80558777D01*
X138952796Y-80523138D01*
X138941065Y-80484468D01*
X138936500Y-80438112D01*
X138936500Y-79361888D01*
X138941065Y-79315532D01*
X138952796Y-79276862D01*
X138971846Y-79241223D01*
X138997483Y-79209983D01*
X139028723Y-79184346D01*
X139064362Y-79165296D01*
X139103032Y-79153565D01*
X139149388Y-79149000D01*
X139800612Y-79149000D01*
X139846968Y-79153565D01*
X139846968Y-79153565D01*
G37*
G36*
X132634468Y-78753565D02*
G01*
X132673138Y-78765296D01*
X132708777Y-78784346D01*
X132740017Y-78809983D01*
X132765654Y-78841223D01*
X132784704Y-78876862D01*
X132796435Y-78915532D01*
X132801000Y-78961888D01*
X132801000Y-80038112D01*
X132796435Y-80084468D01*
X132784704Y-80123138D01*
X132765654Y-80158777D01*
X132740017Y-80190017D01*
X132708777Y-80215654D01*
X132673138Y-80234704D01*
X132634468Y-80246435D01*
X132588112Y-80251000D01*
X131936888Y-80251000D01*
X131890532Y-80246435D01*
X131851862Y-80234704D01*
X131816223Y-80215654D01*
X131784983Y-80190017D01*
X131759346Y-80158777D01*
X131740296Y-80123138D01*
X131728565Y-80084468D01*
X131724000Y-80038112D01*
X131724000Y-78961888D01*
X131728565Y-78915532D01*
X131740296Y-78876862D01*
X131759346Y-78841223D01*
X131784983Y-78809983D01*
X131816223Y-78784346D01*
X131851862Y-78765296D01*
X131890532Y-78753565D01*
X131936888Y-78749000D01*
X132588112Y-78749000D01*
X132634468Y-78753565D01*
X132634468Y-78753565D01*
G37*
G36*
X134509468Y-78753565D02*
G01*
X134548138Y-78765296D01*
X134583777Y-78784346D01*
X134615017Y-78809983D01*
X134640654Y-78841223D01*
X134659704Y-78876862D01*
X134671435Y-78915532D01*
X134676000Y-78961888D01*
X134676000Y-80038112D01*
X134671435Y-80084468D01*
X134659704Y-80123138D01*
X134640654Y-80158777D01*
X134615017Y-80190017D01*
X134583777Y-80215654D01*
X134548138Y-80234704D01*
X134509468Y-80246435D01*
X134463112Y-80251000D01*
X133811888Y-80251000D01*
X133765532Y-80246435D01*
X133726862Y-80234704D01*
X133691223Y-80215654D01*
X133659983Y-80190017D01*
X133634346Y-80158777D01*
X133615296Y-80123138D01*
X133603565Y-80084468D01*
X133599000Y-80038112D01*
X133599000Y-78961888D01*
X133603565Y-78915532D01*
X133615296Y-78876862D01*
X133634346Y-78841223D01*
X133659983Y-78809983D01*
X133691223Y-78784346D01*
X133726862Y-78765296D01*
X133765532Y-78753565D01*
X133811888Y-78749000D01*
X134463112Y-78749000D01*
X134509468Y-78753565D01*
X134509468Y-78753565D01*
G37*
G36*
X123230790Y-78729789D02*
G01*
X121670211Y-79630790D01*
X120769210Y-78070211D01*
X122329789Y-77169210D01*
X123230790Y-78729789D01*
X123230790Y-78729789D01*
G37*
G36*
X144609851Y-77545518D02*
G01*
X144676036Y-77552037D01*
X144845875Y-77603557D01*
X145002400Y-77687222D01*
X145038138Y-77716552D01*
X145139595Y-77799814D01*
X145222857Y-77901271D01*
X145252187Y-77937009D01*
X145335852Y-78093534D01*
X145387372Y-78263373D01*
X145404768Y-78440000D01*
X145387372Y-78616627D01*
X145341000Y-78769495D01*
X145335851Y-78786468D01*
X145323282Y-78809983D01*
X145252187Y-78942991D01*
X145233532Y-78965722D01*
X145139595Y-79080186D01*
X145050181Y-79153565D01*
X145002400Y-79192778D01*
X144845875Y-79276443D01*
X144676036Y-79327963D01*
X144609851Y-79334482D01*
X144543669Y-79341000D01*
X144455149Y-79341000D01*
X144388967Y-79334482D01*
X144322782Y-79327963D01*
X144152943Y-79276443D01*
X143996418Y-79192778D01*
X143948637Y-79153565D01*
X143859223Y-79080186D01*
X143765286Y-78965722D01*
X143746631Y-78942991D01*
X143675536Y-78809983D01*
X143662967Y-78786468D01*
X143657818Y-78769495D01*
X143611446Y-78616627D01*
X143594050Y-78440000D01*
X143611446Y-78263373D01*
X143662966Y-78093534D01*
X143746631Y-77937009D01*
X143775961Y-77901271D01*
X143859223Y-77799814D01*
X143960680Y-77716552D01*
X143996418Y-77687222D01*
X144152943Y-77603557D01*
X144322782Y-77552037D01*
X144388967Y-77545518D01*
X144455149Y-77539000D01*
X144543669Y-77539000D01*
X144609851Y-77545518D01*
X144609851Y-77545518D01*
G37*
G36*
X142410147Y-76275518D02*
G01*
X142476332Y-76282037D01*
X142646171Y-76333557D01*
X142802696Y-76417222D01*
X142838434Y-76446552D01*
X142939891Y-76529814D01*
X143019656Y-76627009D01*
X143052483Y-76667009D01*
X143136148Y-76823534D01*
X143187668Y-76993373D01*
X143205064Y-77170000D01*
X143187668Y-77346627D01*
X143136148Y-77516466D01*
X143052483Y-77672991D01*
X143023153Y-77708729D01*
X142939891Y-77810186D01*
X142851436Y-77882778D01*
X142802696Y-77922778D01*
X142646171Y-78006443D01*
X142476332Y-78057963D01*
X142410147Y-78064482D01*
X142343965Y-78071000D01*
X142255445Y-78071000D01*
X142189263Y-78064482D01*
X142123078Y-78057963D01*
X141953239Y-78006443D01*
X141796714Y-77922778D01*
X141747974Y-77882778D01*
X141659519Y-77810186D01*
X141576257Y-77708729D01*
X141546927Y-77672991D01*
X141463262Y-77516466D01*
X141411742Y-77346627D01*
X141394346Y-77170000D01*
X141411742Y-76993373D01*
X141463262Y-76823534D01*
X141546927Y-76667009D01*
X141579754Y-76627009D01*
X141659519Y-76529814D01*
X141760976Y-76446552D01*
X141796714Y-76417222D01*
X141953239Y-76333557D01*
X142123078Y-76282037D01*
X142189263Y-76275518D01*
X142255445Y-76269000D01*
X142343965Y-76269000D01*
X142410147Y-76275518D01*
X142410147Y-76275518D01*
G37*
G36*
X124310148Y-76235519D02*
G01*
X124376332Y-76242037D01*
X124546171Y-76293557D01*
X124702696Y-76377222D01*
X124738434Y-76406552D01*
X124839891Y-76489814D01*
X124919452Y-76586761D01*
X124952483Y-76627009D01*
X125036148Y-76783534D01*
X125087668Y-76953373D01*
X125105064Y-77130000D01*
X125087668Y-77306627D01*
X125036148Y-77476466D01*
X124952483Y-77632991D01*
X124923153Y-77668729D01*
X124839891Y-77770186D01*
X124738434Y-77853448D01*
X124702696Y-77882778D01*
X124546171Y-77966443D01*
X124376332Y-78017963D01*
X124310147Y-78024482D01*
X124243965Y-78031000D01*
X124155445Y-78031000D01*
X124089263Y-78024482D01*
X124023078Y-78017963D01*
X123853239Y-77966443D01*
X123696714Y-77882778D01*
X123660976Y-77853448D01*
X123559519Y-77770186D01*
X123476257Y-77668729D01*
X123446927Y-77632991D01*
X123363262Y-77476466D01*
X123311742Y-77306627D01*
X123294346Y-77130000D01*
X123311742Y-76953373D01*
X123363262Y-76783534D01*
X123446927Y-76627009D01*
X123479958Y-76586761D01*
X123559519Y-76489814D01*
X123660976Y-76406552D01*
X123696714Y-76377222D01*
X123853239Y-76293557D01*
X124023078Y-76242037D01*
X124089262Y-76235519D01*
X124155445Y-76229000D01*
X124243965Y-76229000D01*
X124310148Y-76235519D01*
X124310148Y-76235519D01*
G37*
G36*
X145879852Y-75345814D02*
G01*
X145946036Y-75352332D01*
X146115875Y-75403852D01*
X146272400Y-75487517D01*
X146308138Y-75516847D01*
X146409595Y-75600109D01*
X146489360Y-75697304D01*
X146522187Y-75737304D01*
X146605852Y-75893829D01*
X146657372Y-76063668D01*
X146674768Y-76240295D01*
X146657372Y-76416922D01*
X146605852Y-76586761D01*
X146522187Y-76743286D01*
X146507649Y-76761000D01*
X146409595Y-76880481D01*
X146320772Y-76953375D01*
X146272400Y-76993073D01*
X146115875Y-77076738D01*
X145946036Y-77128258D01*
X145879851Y-77134777D01*
X145813669Y-77141295D01*
X145725149Y-77141295D01*
X145658967Y-77134777D01*
X145592782Y-77128258D01*
X145422943Y-77076738D01*
X145266418Y-76993073D01*
X145218046Y-76953375D01*
X145129223Y-76880481D01*
X145031169Y-76761000D01*
X145016631Y-76743286D01*
X144932966Y-76586761D01*
X144881446Y-76416922D01*
X144864050Y-76240295D01*
X144881446Y-76063668D01*
X144932966Y-75893829D01*
X145016631Y-75737304D01*
X145049458Y-75697304D01*
X145129223Y-75600109D01*
X145230680Y-75516847D01*
X145266418Y-75487517D01*
X145422943Y-75403852D01*
X145592782Y-75352332D01*
X145658966Y-75345814D01*
X145725149Y-75339295D01*
X145813669Y-75339295D01*
X145879852Y-75345814D01*
X145879852Y-75345814D01*
G37*
G36*
X141330790Y-75570211D02*
G01*
X140429789Y-77130790D01*
X138869210Y-76229789D01*
X139770211Y-74669210D01*
X141330790Y-75570211D01*
X141330790Y-75570211D01*
G37*
G36*
X120840442Y-75305813D02*
G01*
X120906627Y-75312332D01*
X121076466Y-75363852D01*
X121232991Y-75447517D01*
X121264388Y-75473284D01*
X121370186Y-75560109D01*
X121441056Y-75646466D01*
X121482778Y-75697304D01*
X121566443Y-75853829D01*
X121617963Y-76023668D01*
X121635359Y-76200295D01*
X121617963Y-76376922D01*
X121566443Y-76546761D01*
X121482778Y-76703286D01*
X121453448Y-76739024D01*
X121370186Y-76840481D01*
X121268729Y-76923743D01*
X121232991Y-76953073D01*
X121076466Y-77036738D01*
X120906627Y-77088258D01*
X120840443Y-77094776D01*
X120774260Y-77101295D01*
X120685740Y-77101295D01*
X120619557Y-77094776D01*
X120553373Y-77088258D01*
X120383534Y-77036738D01*
X120227009Y-76953073D01*
X120191271Y-76923743D01*
X120089814Y-76840481D01*
X120006552Y-76739024D01*
X119977222Y-76703286D01*
X119893557Y-76546761D01*
X119842037Y-76376922D01*
X119824641Y-76200295D01*
X119842037Y-76023668D01*
X119893557Y-75853829D01*
X119977222Y-75697304D01*
X120018944Y-75646466D01*
X120089814Y-75560109D01*
X120195612Y-75473284D01*
X120227009Y-75447517D01*
X120383534Y-75363852D01*
X120553373Y-75312332D01*
X120619558Y-75305813D01*
X120685740Y-75299295D01*
X120774260Y-75299295D01*
X120840442Y-75305813D01*
X120840442Y-75305813D01*
G37*
G36*
X126509851Y-74965518D02*
G01*
X126576036Y-74972037D01*
X126745875Y-75023557D01*
X126902400Y-75107222D01*
X126922080Y-75123373D01*
X127039595Y-75219814D01*
X127104822Y-75299295D01*
X127152187Y-75357009D01*
X127235852Y-75513534D01*
X127287372Y-75683373D01*
X127304768Y-75860000D01*
X127287372Y-76036627D01*
X127235852Y-76206466D01*
X127152187Y-76362991D01*
X127122857Y-76398729D01*
X127039595Y-76500186D01*
X126938138Y-76583448D01*
X126902400Y-76612778D01*
X126745875Y-76696443D01*
X126576036Y-76747963D01*
X126509852Y-76754481D01*
X126443669Y-76761000D01*
X126355149Y-76761000D01*
X126288966Y-76754481D01*
X126222782Y-76747963D01*
X126052943Y-76696443D01*
X125896418Y-76612778D01*
X125860680Y-76583448D01*
X125759223Y-76500186D01*
X125675961Y-76398729D01*
X125646631Y-76362991D01*
X125562966Y-76206466D01*
X125511446Y-76036627D01*
X125494050Y-75860000D01*
X125511446Y-75683373D01*
X125562966Y-75513534D01*
X125646631Y-75357009D01*
X125693996Y-75299295D01*
X125759223Y-75219814D01*
X125876738Y-75123373D01*
X125896418Y-75107222D01*
X126052943Y-75023557D01*
X126222782Y-74972037D01*
X126288967Y-74965518D01*
X126355149Y-74959000D01*
X126443669Y-74959000D01*
X126509851Y-74965518D01*
X126509851Y-74965518D01*
G37*
G36*
X131601000Y-76201000D02*
G01*
X129799000Y-76201000D01*
X129799000Y-74399000D01*
X131601000Y-74399000D01*
X131601000Y-76201000D01*
X131601000Y-76201000D01*
G37*
G36*
X135890442Y-74405518D02*
G01*
X135956627Y-74412037D01*
X136126466Y-74463557D01*
X136282991Y-74547222D01*
X136318729Y-74576552D01*
X136420186Y-74659814D01*
X136497209Y-74753668D01*
X136532778Y-74797009D01*
X136616443Y-74953534D01*
X136667963Y-75123373D01*
X136685359Y-75300000D01*
X136667963Y-75476627D01*
X136616443Y-75646466D01*
X136616442Y-75646468D01*
X136596716Y-75683373D01*
X136532778Y-75802991D01*
X136509549Y-75831295D01*
X136420186Y-75940186D01*
X136318729Y-76023448D01*
X136282991Y-76052778D01*
X136126466Y-76136443D01*
X135956627Y-76187963D01*
X135890443Y-76194481D01*
X135824260Y-76201000D01*
X135735740Y-76201000D01*
X135669557Y-76194481D01*
X135603373Y-76187963D01*
X135433534Y-76136443D01*
X135277009Y-76052778D01*
X135241271Y-76023448D01*
X135139814Y-75940186D01*
X135050451Y-75831295D01*
X135027222Y-75802991D01*
X134963284Y-75683373D01*
X134943558Y-75646468D01*
X134943557Y-75646466D01*
X134892037Y-75476627D01*
X134874641Y-75300000D01*
X134892037Y-75123373D01*
X134943557Y-74953534D01*
X135027222Y-74797009D01*
X135062791Y-74753668D01*
X135139814Y-74659814D01*
X135241271Y-74576552D01*
X135277009Y-74547222D01*
X135433534Y-74463557D01*
X135603373Y-74412037D01*
X135669558Y-74405518D01*
X135735740Y-74399000D01*
X135824260Y-74399000D01*
X135890442Y-74405518D01*
X135890442Y-74405518D01*
G37*
G36*
X133350442Y-74405518D02*
G01*
X133416627Y-74412037D01*
X133586466Y-74463557D01*
X133742991Y-74547222D01*
X133778729Y-74576552D01*
X133880186Y-74659814D01*
X133957209Y-74753668D01*
X133992778Y-74797009D01*
X134076443Y-74953534D01*
X134127963Y-75123373D01*
X134145359Y-75300000D01*
X134127963Y-75476627D01*
X134076443Y-75646466D01*
X134076442Y-75646468D01*
X134056716Y-75683373D01*
X133992778Y-75802991D01*
X133969549Y-75831295D01*
X133880186Y-75940186D01*
X133778729Y-76023448D01*
X133742991Y-76052778D01*
X133586466Y-76136443D01*
X133416627Y-76187963D01*
X133350443Y-76194481D01*
X133284260Y-76201000D01*
X133195740Y-76201000D01*
X133129557Y-76194481D01*
X133063373Y-76187963D01*
X132893534Y-76136443D01*
X132737009Y-76052778D01*
X132701271Y-76023448D01*
X132599814Y-75940186D01*
X132510451Y-75831295D01*
X132487222Y-75802991D01*
X132423284Y-75683373D01*
X132403558Y-75646468D01*
X132403557Y-75646466D01*
X132352037Y-75476627D01*
X132334641Y-75300000D01*
X132352037Y-75123373D01*
X132403557Y-74953534D01*
X132487222Y-74797009D01*
X132522791Y-74753668D01*
X132599814Y-74659814D01*
X132701271Y-74576552D01*
X132737009Y-74547222D01*
X132893534Y-74463557D01*
X133063373Y-74412037D01*
X133129558Y-74405518D01*
X133195740Y-74399000D01*
X133284260Y-74399000D01*
X133350442Y-74405518D01*
X133350442Y-74405518D01*
G37*
G36*
X143680148Y-74075814D02*
G01*
X143746332Y-74082332D01*
X143916171Y-74133852D01*
X144072696Y-74217517D01*
X144108434Y-74246847D01*
X144209891Y-74330109D01*
X144289656Y-74427304D01*
X144322483Y-74467304D01*
X144406148Y-74623829D01*
X144457668Y-74793668D01*
X144475064Y-74970295D01*
X144457668Y-75146922D01*
X144406148Y-75316761D01*
X144322483Y-75473286D01*
X144293153Y-75509024D01*
X144209891Y-75610481D01*
X144121068Y-75683375D01*
X144072696Y-75723073D01*
X143916171Y-75806738D01*
X143746332Y-75858258D01*
X143680148Y-75864776D01*
X143613965Y-75871295D01*
X143525445Y-75871295D01*
X143459262Y-75864776D01*
X143393078Y-75858258D01*
X143223239Y-75806738D01*
X143066714Y-75723073D01*
X143018342Y-75683375D01*
X142929519Y-75610481D01*
X142846257Y-75509024D01*
X142816927Y-75473286D01*
X142733262Y-75316761D01*
X142681742Y-75146922D01*
X142664346Y-74970295D01*
X142681742Y-74793668D01*
X142733262Y-74623829D01*
X142816927Y-74467304D01*
X142849754Y-74427304D01*
X142929519Y-74330109D01*
X143030976Y-74246847D01*
X143066714Y-74217517D01*
X143223239Y-74133852D01*
X143393078Y-74082332D01*
X143459262Y-74075814D01*
X143525445Y-74069295D01*
X143613965Y-74069295D01*
X143680148Y-74075814D01*
X143680148Y-74075814D01*
G37*
G36*
X123040148Y-74035814D02*
G01*
X123106332Y-74042332D01*
X123276171Y-74093852D01*
X123432696Y-74177517D01*
X123464093Y-74203284D01*
X123569891Y-74290109D01*
X123653153Y-74391566D01*
X123682483Y-74427304D01*
X123682484Y-74427306D01*
X123746581Y-74547221D01*
X123766148Y-74583829D01*
X123817668Y-74753668D01*
X123835064Y-74930295D01*
X123817668Y-75106922D01*
X123766148Y-75276761D01*
X123682483Y-75433286D01*
X123653153Y-75469024D01*
X123569891Y-75570481D01*
X123477299Y-75646468D01*
X123432696Y-75683073D01*
X123276171Y-75766738D01*
X123106332Y-75818258D01*
X123040147Y-75824777D01*
X122973965Y-75831295D01*
X122885445Y-75831295D01*
X122819263Y-75824777D01*
X122753078Y-75818258D01*
X122583239Y-75766738D01*
X122426714Y-75683073D01*
X122382111Y-75646468D01*
X122289519Y-75570481D01*
X122206257Y-75469024D01*
X122176927Y-75433286D01*
X122093262Y-75276761D01*
X122041742Y-75106922D01*
X122024346Y-74930295D01*
X122041742Y-74753668D01*
X122093262Y-74583829D01*
X122112830Y-74547221D01*
X122176926Y-74427306D01*
X122176927Y-74427304D01*
X122206257Y-74391566D01*
X122289519Y-74290109D01*
X122395317Y-74203284D01*
X122426714Y-74177517D01*
X122583239Y-74093852D01*
X122753078Y-74042332D01*
X122819262Y-74035814D01*
X122885445Y-74029295D01*
X122973965Y-74029295D01*
X123040148Y-74035814D01*
X123040148Y-74035814D01*
G37*
G36*
X141480442Y-72805813D02*
G01*
X141546627Y-72812332D01*
X141716466Y-72863852D01*
X141872991Y-72947517D01*
X141908729Y-72976847D01*
X142010186Y-73060109D01*
X142089951Y-73157304D01*
X142122778Y-73197304D01*
X142206443Y-73353829D01*
X142257963Y-73523668D01*
X142275359Y-73700295D01*
X142257963Y-73876922D01*
X142206443Y-74046761D01*
X142122778Y-74203286D01*
X142093448Y-74239024D01*
X142010186Y-74340481D01*
X141938879Y-74399000D01*
X141872991Y-74453073D01*
X141716466Y-74536738D01*
X141546627Y-74588258D01*
X141480443Y-74594776D01*
X141414260Y-74601295D01*
X141325740Y-74601295D01*
X141259557Y-74594776D01*
X141193373Y-74588258D01*
X141023534Y-74536738D01*
X140867009Y-74453073D01*
X140801121Y-74399000D01*
X140729814Y-74340481D01*
X140646552Y-74239024D01*
X140617222Y-74203286D01*
X140533557Y-74046761D01*
X140482037Y-73876922D01*
X140464641Y-73700295D01*
X140482037Y-73523668D01*
X140533557Y-73353829D01*
X140617222Y-73197304D01*
X140650049Y-73157304D01*
X140729814Y-73060109D01*
X140831271Y-72976847D01*
X140867009Y-72947517D01*
X141023534Y-72863852D01*
X141193373Y-72812332D01*
X141259558Y-72805813D01*
X141325740Y-72799295D01*
X141414260Y-72799295D01*
X141480442Y-72805813D01*
X141480442Y-72805813D01*
G37*
G36*
X125239851Y-72765813D02*
G01*
X125306036Y-72772332D01*
X125475875Y-72823852D01*
X125632400Y-72907517D01*
X125667868Y-72936625D01*
X125769595Y-73020109D01*
X125840465Y-73106466D01*
X125882187Y-73157304D01*
X125965852Y-73313829D01*
X126017372Y-73483668D01*
X126034768Y-73660295D01*
X126017372Y-73836922D01*
X125965852Y-74006761D01*
X125882187Y-74163286D01*
X125852857Y-74199024D01*
X125769595Y-74300481D01*
X125668138Y-74383743D01*
X125632400Y-74413073D01*
X125475875Y-74496738D01*
X125306036Y-74548258D01*
X125239851Y-74554777D01*
X125173669Y-74561295D01*
X125085149Y-74561295D01*
X125018967Y-74554777D01*
X124952782Y-74548258D01*
X124782943Y-74496738D01*
X124626418Y-74413073D01*
X124590680Y-74383743D01*
X124489223Y-74300481D01*
X124405961Y-74199024D01*
X124376631Y-74163286D01*
X124292966Y-74006761D01*
X124241446Y-73836922D01*
X124224050Y-73660295D01*
X124241446Y-73483668D01*
X124292966Y-73313829D01*
X124376631Y-73157304D01*
X124418353Y-73106466D01*
X124489223Y-73020109D01*
X124590950Y-72936625D01*
X124626418Y-72907517D01*
X124782943Y-72823852D01*
X124952782Y-72772332D01*
X125018967Y-72765813D01*
X125085149Y-72759295D01*
X125173669Y-72759295D01*
X125239851Y-72765813D01*
X125239851Y-72765813D01*
G37*
G36*
X133350442Y-71865518D02*
G01*
X133416627Y-71872037D01*
X133586466Y-71923557D01*
X133742991Y-72007222D01*
X133778729Y-72036552D01*
X133880186Y-72119814D01*
X133963448Y-72221271D01*
X133992778Y-72257009D01*
X134076443Y-72413534D01*
X134127963Y-72583373D01*
X134145359Y-72760000D01*
X134127963Y-72936627D01*
X134076443Y-73106466D01*
X133992778Y-73262991D01*
X133963448Y-73298729D01*
X133880186Y-73400186D01*
X133778729Y-73483448D01*
X133742991Y-73512778D01*
X133586466Y-73596443D01*
X133416627Y-73647963D01*
X133350442Y-73654482D01*
X133284260Y-73661000D01*
X133195740Y-73661000D01*
X133129558Y-73654482D01*
X133063373Y-73647963D01*
X132893534Y-73596443D01*
X132737009Y-73512778D01*
X132701271Y-73483448D01*
X132599814Y-73400186D01*
X132516552Y-73298729D01*
X132487222Y-73262991D01*
X132403557Y-73106466D01*
X132352037Y-72936627D01*
X132334641Y-72760000D01*
X132352037Y-72583373D01*
X132403557Y-72413534D01*
X132487222Y-72257009D01*
X132516552Y-72221271D01*
X132599814Y-72119814D01*
X132701271Y-72036552D01*
X132737009Y-72007222D01*
X132893534Y-71923557D01*
X133063373Y-71872037D01*
X133129558Y-71865518D01*
X133195740Y-71859000D01*
X133284260Y-71859000D01*
X133350442Y-71865518D01*
X133350442Y-71865518D01*
G37*
G36*
X135890442Y-71865518D02*
G01*
X135956627Y-71872037D01*
X136126466Y-71923557D01*
X136282991Y-72007222D01*
X136318729Y-72036552D01*
X136420186Y-72119814D01*
X136503448Y-72221271D01*
X136532778Y-72257009D01*
X136616443Y-72413534D01*
X136667963Y-72583373D01*
X136685359Y-72760000D01*
X136667963Y-72936627D01*
X136616443Y-73106466D01*
X136532778Y-73262991D01*
X136503448Y-73298729D01*
X136420186Y-73400186D01*
X136318729Y-73483448D01*
X136282991Y-73512778D01*
X136126466Y-73596443D01*
X135956627Y-73647963D01*
X135890442Y-73654482D01*
X135824260Y-73661000D01*
X135735740Y-73661000D01*
X135669558Y-73654482D01*
X135603373Y-73647963D01*
X135433534Y-73596443D01*
X135277009Y-73512778D01*
X135241271Y-73483448D01*
X135139814Y-73400186D01*
X135056552Y-73298729D01*
X135027222Y-73262991D01*
X134943557Y-73106466D01*
X134892037Y-72936627D01*
X134874641Y-72760000D01*
X134892037Y-72583373D01*
X134943557Y-72413534D01*
X135027222Y-72257009D01*
X135056552Y-72221271D01*
X135139814Y-72119814D01*
X135241271Y-72036552D01*
X135277009Y-72007222D01*
X135433534Y-71923557D01*
X135603373Y-71872037D01*
X135669558Y-71865518D01*
X135735740Y-71859000D01*
X135824260Y-71859000D01*
X135890442Y-71865518D01*
X135890442Y-71865518D01*
G37*
G36*
X130810442Y-71865518D02*
G01*
X130876627Y-71872037D01*
X131046466Y-71923557D01*
X131202991Y-72007222D01*
X131238729Y-72036552D01*
X131340186Y-72119814D01*
X131423448Y-72221271D01*
X131452778Y-72257009D01*
X131536443Y-72413534D01*
X131587963Y-72583373D01*
X131605359Y-72760000D01*
X131587963Y-72936627D01*
X131536443Y-73106466D01*
X131452778Y-73262991D01*
X131423448Y-73298729D01*
X131340186Y-73400186D01*
X131238729Y-73483448D01*
X131202991Y-73512778D01*
X131046466Y-73596443D01*
X130876627Y-73647963D01*
X130810442Y-73654482D01*
X130744260Y-73661000D01*
X130655740Y-73661000D01*
X130589558Y-73654482D01*
X130523373Y-73647963D01*
X130353534Y-73596443D01*
X130197009Y-73512778D01*
X130161271Y-73483448D01*
X130059814Y-73400186D01*
X129976552Y-73298729D01*
X129947222Y-73262991D01*
X129863557Y-73106466D01*
X129812037Y-72936627D01*
X129794641Y-72760000D01*
X129812037Y-72583373D01*
X129863557Y-72413534D01*
X129947222Y-72257009D01*
X129976552Y-72221271D01*
X130059814Y-72119814D01*
X130161271Y-72036552D01*
X130197009Y-72007222D01*
X130353534Y-71923557D01*
X130523373Y-71872037D01*
X130589558Y-71865518D01*
X130655740Y-71859000D01*
X130744260Y-71859000D01*
X130810442Y-71865518D01*
X130810442Y-71865518D01*
G37*
G36*
X139184468Y-71541065D02*
G01*
X139223138Y-71552796D01*
X139258777Y-71571846D01*
X139290017Y-71597483D01*
X139315654Y-71628723D01*
X139334704Y-71664362D01*
X139346435Y-71703032D01*
X139351000Y-71749388D01*
X139351000Y-72400612D01*
X139346435Y-72446968D01*
X139334704Y-72485638D01*
X139315654Y-72521277D01*
X139290017Y-72552517D01*
X139258777Y-72578154D01*
X139223138Y-72597204D01*
X139184468Y-72608935D01*
X139138112Y-72613500D01*
X138061888Y-72613500D01*
X138015532Y-72608935D01*
X137976862Y-72597204D01*
X137941223Y-72578154D01*
X137909983Y-72552517D01*
X137884346Y-72521277D01*
X137865296Y-72485638D01*
X137853565Y-72446968D01*
X137849000Y-72400612D01*
X137849000Y-71749388D01*
X137853565Y-71703032D01*
X137865296Y-71664362D01*
X137884346Y-71628723D01*
X137909983Y-71597483D01*
X137941223Y-71571846D01*
X137976862Y-71552796D01*
X138015532Y-71541065D01*
X138061888Y-71536500D01*
X139138112Y-71536500D01*
X139184468Y-71541065D01*
X139184468Y-71541065D01*
G37*
G36*
X139184468Y-69666065D02*
G01*
X139223138Y-69677796D01*
X139258777Y-69696846D01*
X139290017Y-69722483D01*
X139315654Y-69753723D01*
X139334704Y-69789362D01*
X139346435Y-69828032D01*
X139351000Y-69874388D01*
X139351000Y-70525612D01*
X139346435Y-70571968D01*
X139334704Y-70610638D01*
X139315654Y-70646277D01*
X139290017Y-70677517D01*
X139258777Y-70703154D01*
X139223138Y-70722204D01*
X139184468Y-70733935D01*
X139138112Y-70738500D01*
X138061888Y-70738500D01*
X138015532Y-70733935D01*
X137976862Y-70722204D01*
X137941223Y-70703154D01*
X137909983Y-70677517D01*
X137884346Y-70646277D01*
X137865296Y-70610638D01*
X137853565Y-70571968D01*
X137849000Y-70525612D01*
X137849000Y-69874388D01*
X137853565Y-69828032D01*
X137865296Y-69789362D01*
X137884346Y-69753723D01*
X137909983Y-69722483D01*
X137941223Y-69696846D01*
X137976862Y-69677796D01*
X138015532Y-69666065D01*
X138061888Y-69661500D01*
X139138112Y-69661500D01*
X139184468Y-69666065D01*
X139184468Y-69666065D01*
G37*
M02*
