G04 #@! TF.GenerationSoftware,KiCad,Pcbnew,(5.1.2)-2*
G04 #@! TF.CreationDate,2019-12-09T19:40:43+00:00*
G04 #@! TF.ProjectId,main_pcb,6d61696e-5f70-4636-922e-6b696361645f,rev?*
G04 #@! TF.SameCoordinates,Original*
G04 #@! TF.FileFunction,Profile,NP*
%FSLAX46Y46*%
G04 Gerber Fmt 4.6, Leading zero omitted, Abs format (unit mm)*
G04 Created by KiCad (PCBNEW (5.1.2)-2) date 2019-12-09 19:40:43*
%MOMM*%
%LPD*%
G04 APERTURE LIST*
%ADD10C,0.050000*%
G04 APERTURE END LIST*
D10*
X118300000Y-123200000D02*
X118300000Y-110900000D01*
X148100000Y-123200000D02*
X118300000Y-123200000D01*
X148100000Y-110900000D02*
X148100000Y-123200000D01*
X118100001Y-73100000D02*
G75*
G02X148299999Y-73100000I15099999J-21499999D01*
G01*
X148300000Y-78500000D02*
X146900000Y-78500000D01*
X148300000Y-73100000D02*
X148300000Y-78500000D01*
X118100000Y-78500000D02*
X119500000Y-78500000D01*
X118100001Y-73100000D02*
X118100000Y-78500000D01*
X119500000Y-81300000D02*
X119500000Y-78500000D01*
X146900000Y-81300000D02*
X146900000Y-78500000D01*
X146900000Y-110900000D02*
X146900000Y-100300000D01*
X148100000Y-110900000D02*
X146900000Y-110900000D01*
X119500000Y-110900000D02*
X118300000Y-110900000D01*
X119500000Y-100300000D02*
X119500000Y-110900000D01*
X146900000Y-81300000D02*
X146900000Y-100300000D01*
X119500000Y-100300000D02*
X119500000Y-81300000D01*
X134100000Y-92600000D02*
X134100000Y-98500000D01*
X132300000Y-92600000D02*
X132300000Y-98500000D01*
X134100000Y-83100000D02*
X134100000Y-89000000D01*
X132300000Y-83100000D02*
X132300000Y-89000000D01*
X132300000Y-89000000D02*
X134100000Y-89000000D01*
X132300000Y-92600000D02*
X134100000Y-92600000D01*
X132300000Y-98500000D02*
X134100000Y-98500000D01*
X132300000Y-83100000D02*
X134100000Y-83100000D01*
X126600000Y-96300000D02*
G75*
G03X126600000Y-96300000I-1600000J0D01*
G01*
X143000000Y-96300000D02*
G75*
G03X143000000Y-96300000I-1600000J0D01*
G01*
X143000000Y-85300000D02*
G75*
G03X143000000Y-85300000I-1600000J0D01*
G01*
X126600000Y-85300000D02*
G75*
G03X126600000Y-85300000I-1600000J0D01*
G01*
M02*
