G04 #@! TF.GenerationSoftware,KiCad,Pcbnew,(5.1.2)-2*
G04 #@! TF.CreationDate,2019-12-09T19:24:06+00:00*
G04 #@! TF.ProjectId,encoder_pcb,656e636f-6465-4725-9f70-63622e6b6963,rev?*
G04 #@! TF.SameCoordinates,Original*
G04 #@! TF.FileFunction,Legend,Top*
G04 #@! TF.FilePolarity,Positive*
%FSLAX46Y46*%
G04 Gerber Fmt 4.6, Leading zero omitted, Abs format (unit mm)*
G04 Created by KiCad (PCBNEW (5.1.2)-2) date 2019-12-09 19:24:06*
%MOMM*%
%LPD*%
G04 APERTURE LIST*
%ADD10C,0.120000*%
%ADD11C,0.150000*%
%ADD12C,0.200000*%
%ADD13C,0.254000*%
G04 APERTURE END LIST*
D10*
X110000000Y-121400000D02*
X110000000Y-121800000D01*
D11*
X114961904Y-120252380D02*
X115580952Y-120252380D01*
X115247619Y-120633333D01*
X115390476Y-120633333D01*
X115485714Y-120680952D01*
X115533333Y-120728571D01*
X115580952Y-120823809D01*
X115580952Y-121061904D01*
X115533333Y-121157142D01*
X115485714Y-121204761D01*
X115390476Y-121252380D01*
X115104761Y-121252380D01*
X115009523Y-121204761D01*
X114961904Y-121157142D01*
X115866666Y-120252380D02*
X116200000Y-121252380D01*
X116533333Y-120252380D01*
X116771428Y-120252380D02*
X117390476Y-120252380D01*
X117057142Y-120633333D01*
X117200000Y-120633333D01*
X117295238Y-120680952D01*
X117342857Y-120728571D01*
X117390476Y-120823809D01*
X117390476Y-121061904D01*
X117342857Y-121157142D01*
X117295238Y-121204761D01*
X117200000Y-121252380D01*
X116914285Y-121252380D01*
X116819047Y-121204761D01*
X116771428Y-121157142D01*
X112938095Y-120300000D02*
X112842857Y-120252380D01*
X112700000Y-120252380D01*
X112557142Y-120300000D01*
X112461904Y-120395238D01*
X112414285Y-120490476D01*
X112366666Y-120680952D01*
X112366666Y-120823809D01*
X112414285Y-121014285D01*
X112461904Y-121109523D01*
X112557142Y-121204761D01*
X112700000Y-121252380D01*
X112795238Y-121252380D01*
X112938095Y-121204761D01*
X112985714Y-121157142D01*
X112985714Y-120823809D01*
X112795238Y-120823809D01*
X113414285Y-121252380D02*
X113414285Y-120252380D01*
X113985714Y-121252380D01*
X113985714Y-120252380D01*
X114461904Y-121252380D02*
X114461904Y-120252380D01*
X114700000Y-120252380D01*
X114842857Y-120300000D01*
X114938095Y-120395238D01*
X114985714Y-120490476D01*
X115033333Y-120680952D01*
X115033333Y-120823809D01*
X114985714Y-121014285D01*
X114938095Y-121109523D01*
X114842857Y-121204761D01*
X114700000Y-121252380D01*
X114461904Y-121252380D01*
X106961904Y-120966666D02*
X107438095Y-120966666D01*
X106866666Y-121252380D02*
X107200000Y-120252380D01*
X107533333Y-121252380D01*
X104271428Y-120728571D02*
X104414285Y-120776190D01*
X104461904Y-120823809D01*
X104509523Y-120919047D01*
X104509523Y-121061904D01*
X104461904Y-121157142D01*
X104414285Y-121204761D01*
X104319047Y-121252380D01*
X103938095Y-121252380D01*
X103938095Y-120252380D01*
X104271428Y-120252380D01*
X104366666Y-120300000D01*
X104414285Y-120347619D01*
X104461904Y-120442857D01*
X104461904Y-120538095D01*
X104414285Y-120633333D01*
X104366666Y-120680952D01*
X104271428Y-120728571D01*
X103938095Y-120728571D01*
D10*
X110600000Y-114000000D02*
X111000000Y-114000000D01*
X110000000Y-113400000D02*
X110000000Y-113000000D01*
X109400000Y-114000000D02*
X109000000Y-114000000D01*
X110000000Y-114600000D02*
X110000000Y-115000000D01*
X110200000Y-114000000D02*
X109800000Y-114000000D01*
X110000000Y-113800000D02*
X110000000Y-114200000D01*
X110824621Y-114000000D02*
G75*
G03X110824621Y-114000000I-824621J0D01*
G01*
X110000000Y-118600000D02*
X110000000Y-117400000D01*
X110000000Y-120600000D02*
X110000000Y-119400000D01*
X111400000Y-120000000D02*
X113000000Y-120000000D01*
X108600000Y-120000000D02*
X107000000Y-120000000D01*
X110600000Y-120000000D02*
X109400000Y-120000000D01*
X105485000Y-119800000D02*
X103085000Y-119800000D01*
X103085000Y-117400000D02*
X105485000Y-117400000D01*
X105485000Y-117400000D02*
X105485000Y-119800000D01*
X103085000Y-119800000D02*
X103085000Y-117400000D01*
X106895000Y-117400000D02*
X109295000Y-117400000D01*
X109295000Y-117400000D02*
X109295000Y-119800000D01*
X109295000Y-119800000D02*
X106895000Y-119800000D01*
X106895000Y-119800000D02*
X106895000Y-117400000D01*
X110705000Y-117400000D02*
X113105000Y-117400000D01*
X110705000Y-119800000D02*
X110705000Y-117400000D01*
X113105000Y-119800000D02*
X110705000Y-119800000D01*
X113105000Y-117400000D02*
X113105000Y-119800000D01*
X116915000Y-117400000D02*
X116915000Y-119800000D01*
X114515000Y-117400000D02*
X116915000Y-117400000D01*
X114515000Y-119800000D02*
X114515000Y-117400000D01*
X116915000Y-119800000D02*
X114515000Y-119800000D01*
D12*
X106325000Y-111475000D02*
X107800000Y-111475000D01*
X108150000Y-116500000D02*
X108150000Y-111500000D01*
X111850000Y-116500000D02*
X108150000Y-116500000D01*
X111850000Y-111500000D02*
X111850000Y-116500000D01*
X108150000Y-111500000D02*
X111850000Y-111500000D01*
D10*
X103290000Y-113741422D02*
X103290000Y-114258578D01*
X104710000Y-113741422D02*
X104710000Y-114258578D01*
X100290000Y-113741422D02*
X100290000Y-114258578D01*
X101710000Y-113741422D02*
X101710000Y-114258578D01*
X110710000Y-109258578D02*
X110710000Y-108741422D01*
X109290000Y-109258578D02*
X109290000Y-108741422D01*
X117110000Y-114258578D02*
X117110000Y-113741422D01*
X115690000Y-114258578D02*
X115690000Y-113741422D01*
D11*
X109666666Y-115852380D02*
X109666666Y-116566666D01*
X109619047Y-116709523D01*
X109523809Y-116804761D01*
X109380952Y-116852380D01*
X109285714Y-116852380D01*
X110666666Y-116852380D02*
X110095238Y-116852380D01*
X110380952Y-116852380D02*
X110380952Y-115852380D01*
X110285714Y-115995238D01*
X110190476Y-116090476D01*
X110095238Y-116138095D01*
D13*
X108760238Y-111974523D02*
X108760238Y-110704523D01*
X110090714Y-111853571D02*
X110030238Y-111914047D01*
X109848809Y-111974523D01*
X109727857Y-111974523D01*
X109546428Y-111914047D01*
X109425476Y-111793095D01*
X109365000Y-111672142D01*
X109304523Y-111430238D01*
X109304523Y-111248809D01*
X109365000Y-111006904D01*
X109425476Y-110885952D01*
X109546428Y-110765000D01*
X109727857Y-110704523D01*
X109848809Y-110704523D01*
X110030238Y-110765000D01*
X110090714Y-110825476D01*
X111300238Y-111974523D02*
X110574523Y-111974523D01*
X110937380Y-111974523D02*
X110937380Y-110704523D01*
X110816428Y-110885952D01*
X110695476Y-111006904D01*
X110574523Y-111067380D01*
D11*
X103833333Y-116652380D02*
X103500000Y-116176190D01*
X103261904Y-116652380D02*
X103261904Y-115652380D01*
X103642857Y-115652380D01*
X103738095Y-115700000D01*
X103785714Y-115747619D01*
X103833333Y-115842857D01*
X103833333Y-115985714D01*
X103785714Y-116080952D01*
X103738095Y-116128571D01*
X103642857Y-116176190D01*
X103261904Y-116176190D01*
X104166666Y-115652380D02*
X104785714Y-115652380D01*
X104452380Y-116033333D01*
X104595238Y-116033333D01*
X104690476Y-116080952D01*
X104738095Y-116128571D01*
X104785714Y-116223809D01*
X104785714Y-116461904D01*
X104738095Y-116557142D01*
X104690476Y-116604761D01*
X104595238Y-116652380D01*
X104309523Y-116652380D01*
X104214285Y-116604761D01*
X104166666Y-116557142D01*
X100833333Y-116652380D02*
X100500000Y-116176190D01*
X100261904Y-116652380D02*
X100261904Y-115652380D01*
X100642857Y-115652380D01*
X100738095Y-115700000D01*
X100785714Y-115747619D01*
X100833333Y-115842857D01*
X100833333Y-115985714D01*
X100785714Y-116080952D01*
X100738095Y-116128571D01*
X100642857Y-116176190D01*
X100261904Y-116176190D01*
X101214285Y-115747619D02*
X101261904Y-115700000D01*
X101357142Y-115652380D01*
X101595238Y-115652380D01*
X101690476Y-115700000D01*
X101738095Y-115747619D01*
X101785714Y-115842857D01*
X101785714Y-115938095D01*
X101738095Y-116080952D01*
X101166666Y-116652380D01*
X101785714Y-116652380D01*
X109833333Y-107652380D02*
X109500000Y-107176190D01*
X109261904Y-107652380D02*
X109261904Y-106652380D01*
X109642857Y-106652380D01*
X109738095Y-106700000D01*
X109785714Y-106747619D01*
X109833333Y-106842857D01*
X109833333Y-106985714D01*
X109785714Y-107080952D01*
X109738095Y-107128571D01*
X109642857Y-107176190D01*
X109261904Y-107176190D01*
X110785714Y-107652380D02*
X110214285Y-107652380D01*
X110500000Y-107652380D02*
X110500000Y-106652380D01*
X110404761Y-106795238D01*
X110309523Y-106890476D01*
X110214285Y-106938095D01*
X116233333Y-116557142D02*
X116185714Y-116604761D01*
X116042857Y-116652380D01*
X115947619Y-116652380D01*
X115804761Y-116604761D01*
X115709523Y-116509523D01*
X115661904Y-116414285D01*
X115614285Y-116223809D01*
X115614285Y-116080952D01*
X115661904Y-115890476D01*
X115709523Y-115795238D01*
X115804761Y-115700000D01*
X115947619Y-115652380D01*
X116042857Y-115652380D01*
X116185714Y-115700000D01*
X116233333Y-115747619D01*
X117185714Y-116652380D02*
X116614285Y-116652380D01*
X116900000Y-116652380D02*
X116900000Y-115652380D01*
X116804761Y-115795238D01*
X116709523Y-115890476D01*
X116614285Y-115938095D01*
M02*
