G04 #@! TF.GenerationSoftware,KiCad,Pcbnew,(5.1.2)-2*
G04 #@! TF.CreationDate,2019-12-09T19:24:06+00:00*
G04 #@! TF.ProjectId,encoder_pcb,656e636f-6465-4725-9f70-63622e6b6963,rev?*
G04 #@! TF.SameCoordinates,Original*
G04 #@! TF.FileFunction,Soldermask,Bot*
G04 #@! TF.FilePolarity,Negative*
%FSLAX46Y46*%
G04 Gerber Fmt 4.6, Leading zero omitted, Abs format (unit mm)*
G04 Created by KiCad (PCBNEW (5.1.2)-2) date 2019-12-09 19:24:06*
%MOMM*%
%LPD*%
G04 APERTURE LIST*
%ADD10C,0.100000*%
G04 APERTURE END LIST*
D10*
G36*
X112956000Y-119651000D02*
G01*
X110854000Y-119651000D01*
X110854000Y-117549000D01*
X112956000Y-117549000D01*
X112956000Y-119651000D01*
X112956000Y-119651000D01*
G37*
G36*
X105336000Y-119651000D02*
G01*
X103234000Y-119651000D01*
X103234000Y-117549000D01*
X105336000Y-117549000D01*
X105336000Y-119651000D01*
X105336000Y-119651000D01*
G37*
G36*
X109146000Y-119651000D02*
G01*
X107044000Y-119651000D01*
X107044000Y-117549000D01*
X109146000Y-117549000D01*
X109146000Y-119651000D01*
X109146000Y-119651000D01*
G37*
G36*
X116766000Y-119651000D02*
G01*
X114664000Y-119651000D01*
X114664000Y-117549000D01*
X116766000Y-117549000D01*
X116766000Y-119651000D01*
X116766000Y-119651000D01*
G37*
G36*
X107850500Y-116226000D02*
G01*
X106273500Y-116226000D01*
X106273500Y-111774000D01*
X107850500Y-111774000D01*
X107850500Y-116226000D01*
X107850500Y-116226000D01*
G37*
G36*
X113726500Y-116226000D02*
G01*
X112149500Y-116226000D01*
X112149500Y-111774000D01*
X113726500Y-111774000D01*
X113726500Y-116226000D01*
X113726500Y-116226000D01*
G37*
G36*
X103984468Y-114403565D02*
G01*
X104023138Y-114415296D01*
X104058777Y-114434346D01*
X104090017Y-114459983D01*
X104115654Y-114491223D01*
X104134704Y-114526862D01*
X104146435Y-114565532D01*
X104151000Y-114611888D01*
X104151000Y-115263112D01*
X104146435Y-115309468D01*
X104134704Y-115348138D01*
X104115654Y-115383777D01*
X104090017Y-115415017D01*
X104058777Y-115440654D01*
X104023138Y-115459704D01*
X103984468Y-115471435D01*
X103938112Y-115476000D01*
X102861888Y-115476000D01*
X102815532Y-115471435D01*
X102776862Y-115459704D01*
X102741223Y-115440654D01*
X102709983Y-115415017D01*
X102684346Y-115383777D01*
X102665296Y-115348138D01*
X102653565Y-115309468D01*
X102649000Y-115263112D01*
X102649000Y-114611888D01*
X102653565Y-114565532D01*
X102665296Y-114526862D01*
X102684346Y-114491223D01*
X102709983Y-114459983D01*
X102741223Y-114434346D01*
X102776862Y-114415296D01*
X102815532Y-114403565D01*
X102861888Y-114399000D01*
X103938112Y-114399000D01*
X103984468Y-114403565D01*
X103984468Y-114403565D01*
G37*
G36*
X116384468Y-114403565D02*
G01*
X116423138Y-114415296D01*
X116458777Y-114434346D01*
X116490017Y-114459983D01*
X116515654Y-114491223D01*
X116534704Y-114526862D01*
X116546435Y-114565532D01*
X116551000Y-114611888D01*
X116551000Y-115263112D01*
X116546435Y-115309468D01*
X116534704Y-115348138D01*
X116515654Y-115383777D01*
X116490017Y-115415017D01*
X116458777Y-115440654D01*
X116423138Y-115459704D01*
X116384468Y-115471435D01*
X116338112Y-115476000D01*
X115261888Y-115476000D01*
X115215532Y-115471435D01*
X115176862Y-115459704D01*
X115141223Y-115440654D01*
X115109983Y-115415017D01*
X115084346Y-115383777D01*
X115065296Y-115348138D01*
X115053565Y-115309468D01*
X115049000Y-115263112D01*
X115049000Y-114611888D01*
X115053565Y-114565532D01*
X115065296Y-114526862D01*
X115084346Y-114491223D01*
X115109983Y-114459983D01*
X115141223Y-114434346D01*
X115176862Y-114415296D01*
X115215532Y-114403565D01*
X115261888Y-114399000D01*
X116338112Y-114399000D01*
X116384468Y-114403565D01*
X116384468Y-114403565D01*
G37*
G36*
X119384468Y-114341065D02*
G01*
X119423138Y-114352796D01*
X119458777Y-114371846D01*
X119490017Y-114397483D01*
X119515654Y-114428723D01*
X119534704Y-114464362D01*
X119546435Y-114503032D01*
X119551000Y-114549388D01*
X119551000Y-115200612D01*
X119546435Y-115246968D01*
X119534704Y-115285638D01*
X119515654Y-115321277D01*
X119490017Y-115352517D01*
X119458777Y-115378154D01*
X119423138Y-115397204D01*
X119384468Y-115408935D01*
X119338112Y-115413500D01*
X118261888Y-115413500D01*
X118215532Y-115408935D01*
X118176862Y-115397204D01*
X118141223Y-115378154D01*
X118109983Y-115352517D01*
X118084346Y-115321277D01*
X118065296Y-115285638D01*
X118053565Y-115246968D01*
X118049000Y-115200612D01*
X118049000Y-114549388D01*
X118053565Y-114503032D01*
X118065296Y-114464362D01*
X118084346Y-114428723D01*
X118109983Y-114397483D01*
X118141223Y-114371846D01*
X118176862Y-114352796D01*
X118215532Y-114341065D01*
X118261888Y-114336500D01*
X119338112Y-114336500D01*
X119384468Y-114341065D01*
X119384468Y-114341065D01*
G37*
G36*
X116384468Y-112528565D02*
G01*
X116423138Y-112540296D01*
X116458777Y-112559346D01*
X116490017Y-112584983D01*
X116515654Y-112616223D01*
X116534704Y-112651862D01*
X116546435Y-112690532D01*
X116551000Y-112736888D01*
X116551000Y-113388112D01*
X116546435Y-113434468D01*
X116534704Y-113473138D01*
X116515654Y-113508777D01*
X116490017Y-113540017D01*
X116458777Y-113565654D01*
X116423138Y-113584704D01*
X116384468Y-113596435D01*
X116338112Y-113601000D01*
X115261888Y-113601000D01*
X115215532Y-113596435D01*
X115176862Y-113584704D01*
X115141223Y-113565654D01*
X115109983Y-113540017D01*
X115084346Y-113508777D01*
X115065296Y-113473138D01*
X115053565Y-113434468D01*
X115049000Y-113388112D01*
X115049000Y-112736888D01*
X115053565Y-112690532D01*
X115065296Y-112651862D01*
X115084346Y-112616223D01*
X115109983Y-112584983D01*
X115141223Y-112559346D01*
X115176862Y-112540296D01*
X115215532Y-112528565D01*
X115261888Y-112524000D01*
X116338112Y-112524000D01*
X116384468Y-112528565D01*
X116384468Y-112528565D01*
G37*
G36*
X103984468Y-112528565D02*
G01*
X104023138Y-112540296D01*
X104058777Y-112559346D01*
X104090017Y-112584983D01*
X104115654Y-112616223D01*
X104134704Y-112651862D01*
X104146435Y-112690532D01*
X104151000Y-112736888D01*
X104151000Y-113388112D01*
X104146435Y-113434468D01*
X104134704Y-113473138D01*
X104115654Y-113508777D01*
X104090017Y-113540017D01*
X104058777Y-113565654D01*
X104023138Y-113584704D01*
X103984468Y-113596435D01*
X103938112Y-113601000D01*
X102861888Y-113601000D01*
X102815532Y-113596435D01*
X102776862Y-113584704D01*
X102741223Y-113565654D01*
X102709983Y-113540017D01*
X102684346Y-113508777D01*
X102665296Y-113473138D01*
X102653565Y-113434468D01*
X102649000Y-113388112D01*
X102649000Y-112736888D01*
X102653565Y-112690532D01*
X102665296Y-112651862D01*
X102684346Y-112616223D01*
X102709983Y-112584983D01*
X102741223Y-112559346D01*
X102776862Y-112540296D01*
X102815532Y-112528565D01*
X102861888Y-112524000D01*
X103938112Y-112524000D01*
X103984468Y-112528565D01*
X103984468Y-112528565D01*
G37*
G36*
X119384468Y-112466065D02*
G01*
X119423138Y-112477796D01*
X119458777Y-112496846D01*
X119490017Y-112522483D01*
X119515654Y-112553723D01*
X119534704Y-112589362D01*
X119546435Y-112628032D01*
X119551000Y-112674388D01*
X119551000Y-113325612D01*
X119546435Y-113371968D01*
X119534704Y-113410638D01*
X119515654Y-113446277D01*
X119490017Y-113477517D01*
X119458777Y-113503154D01*
X119423138Y-113522204D01*
X119384468Y-113533935D01*
X119338112Y-113538500D01*
X118261888Y-113538500D01*
X118215532Y-113533935D01*
X118176862Y-113522204D01*
X118141223Y-113503154D01*
X118109983Y-113477517D01*
X118084346Y-113446277D01*
X118065296Y-113410638D01*
X118053565Y-113371968D01*
X118049000Y-113325612D01*
X118049000Y-112674388D01*
X118053565Y-112628032D01*
X118065296Y-112589362D01*
X118084346Y-112553723D01*
X118109983Y-112522483D01*
X118141223Y-112496846D01*
X118176862Y-112477796D01*
X118215532Y-112466065D01*
X118261888Y-112461500D01*
X119338112Y-112461500D01*
X119384468Y-112466065D01*
X119384468Y-112466065D01*
G37*
G36*
X110584468Y-109403565D02*
G01*
X110623138Y-109415296D01*
X110658777Y-109434346D01*
X110690017Y-109459983D01*
X110715654Y-109491223D01*
X110734704Y-109526862D01*
X110746435Y-109565532D01*
X110751000Y-109611888D01*
X110751000Y-110263112D01*
X110746435Y-110309468D01*
X110734704Y-110348138D01*
X110715654Y-110383777D01*
X110690017Y-110415017D01*
X110658777Y-110440654D01*
X110623138Y-110459704D01*
X110584468Y-110471435D01*
X110538112Y-110476000D01*
X109461888Y-110476000D01*
X109415532Y-110471435D01*
X109376862Y-110459704D01*
X109341223Y-110440654D01*
X109309983Y-110415017D01*
X109284346Y-110383777D01*
X109265296Y-110348138D01*
X109253565Y-110309468D01*
X109249000Y-110263112D01*
X109249000Y-109611888D01*
X109253565Y-109565532D01*
X109265296Y-109526862D01*
X109284346Y-109491223D01*
X109309983Y-109459983D01*
X109341223Y-109434346D01*
X109376862Y-109415296D01*
X109415532Y-109403565D01*
X109461888Y-109399000D01*
X110538112Y-109399000D01*
X110584468Y-109403565D01*
X110584468Y-109403565D01*
G37*
G36*
X110584468Y-107528565D02*
G01*
X110623138Y-107540296D01*
X110658777Y-107559346D01*
X110690017Y-107584983D01*
X110715654Y-107616223D01*
X110734704Y-107651862D01*
X110746435Y-107690532D01*
X110751000Y-107736888D01*
X110751000Y-108388112D01*
X110746435Y-108434468D01*
X110734704Y-108473138D01*
X110715654Y-108508777D01*
X110690017Y-108540017D01*
X110658777Y-108565654D01*
X110623138Y-108584704D01*
X110584468Y-108596435D01*
X110538112Y-108601000D01*
X109461888Y-108601000D01*
X109415532Y-108596435D01*
X109376862Y-108584704D01*
X109341223Y-108565654D01*
X109309983Y-108540017D01*
X109284346Y-108508777D01*
X109265296Y-108473138D01*
X109253565Y-108434468D01*
X109249000Y-108388112D01*
X109249000Y-107736888D01*
X109253565Y-107690532D01*
X109265296Y-107651862D01*
X109284346Y-107616223D01*
X109309983Y-107584983D01*
X109341223Y-107559346D01*
X109376862Y-107540296D01*
X109415532Y-107528565D01*
X109461888Y-107524000D01*
X110538112Y-107524000D01*
X110584468Y-107528565D01*
X110584468Y-107528565D01*
G37*
M02*
