G04 #@! TF.GenerationSoftware,KiCad,Pcbnew,(5.1.2)-2*
G04 #@! TF.CreationDate,2019-12-09T19:24:06+00:00*
G04 #@! TF.ProjectId,encoder_pcb,656e636f-6465-4725-9f70-63622e6b6963,rev?*
G04 #@! TF.SameCoordinates,Original*
G04 #@! TF.FileFunction,Copper,L1,Top*
G04 #@! TF.FilePolarity,Positive*
%FSLAX46Y46*%
G04 Gerber Fmt 4.6, Leading zero omitted, Abs format (unit mm)*
G04 Created by KiCad (PCBNEW (5.1.2)-2) date 2019-12-09 19:24:06*
%MOMM*%
%LPD*%
G04 APERTURE LIST*
%ADD10R,2.000000X2.000000*%
%ADD11R,1.475000X0.450000*%
%ADD12C,0.100000*%
%ADD13C,0.975000*%
%ADD14C,0.375000*%
%ADD15C,0.250000*%
%ADD16C,0.254000*%
G04 APERTURE END LIST*
D10*
X104285000Y-118600000D03*
X108095000Y-118600000D03*
X111905000Y-118600000D03*
X115715000Y-118600000D03*
D11*
X112938000Y-112050000D03*
X112938000Y-112700000D03*
X112938000Y-113350000D03*
X112938000Y-114000000D03*
X112938000Y-114650000D03*
X112938000Y-115300000D03*
X112938000Y-115950000D03*
X107062000Y-115950000D03*
X107062000Y-115300000D03*
X107062000Y-114650000D03*
X107062000Y-114000000D03*
X107062000Y-113350000D03*
X107062000Y-112700000D03*
X107062000Y-112050000D03*
D12*
G36*
X104480142Y-114451174D02*
G01*
X104503803Y-114454684D01*
X104527007Y-114460496D01*
X104549529Y-114468554D01*
X104571153Y-114478782D01*
X104591670Y-114491079D01*
X104610883Y-114505329D01*
X104628607Y-114521393D01*
X104644671Y-114539117D01*
X104658921Y-114558330D01*
X104671218Y-114578847D01*
X104681446Y-114600471D01*
X104689504Y-114622993D01*
X104695316Y-114646197D01*
X104698826Y-114669858D01*
X104700000Y-114693750D01*
X104700000Y-115181250D01*
X104698826Y-115205142D01*
X104695316Y-115228803D01*
X104689504Y-115252007D01*
X104681446Y-115274529D01*
X104671218Y-115296153D01*
X104658921Y-115316670D01*
X104644671Y-115335883D01*
X104628607Y-115353607D01*
X104610883Y-115369671D01*
X104591670Y-115383921D01*
X104571153Y-115396218D01*
X104549529Y-115406446D01*
X104527007Y-115414504D01*
X104503803Y-115420316D01*
X104480142Y-115423826D01*
X104456250Y-115425000D01*
X103543750Y-115425000D01*
X103519858Y-115423826D01*
X103496197Y-115420316D01*
X103472993Y-115414504D01*
X103450471Y-115406446D01*
X103428847Y-115396218D01*
X103408330Y-115383921D01*
X103389117Y-115369671D01*
X103371393Y-115353607D01*
X103355329Y-115335883D01*
X103341079Y-115316670D01*
X103328782Y-115296153D01*
X103318554Y-115274529D01*
X103310496Y-115252007D01*
X103304684Y-115228803D01*
X103301174Y-115205142D01*
X103300000Y-115181250D01*
X103300000Y-114693750D01*
X103301174Y-114669858D01*
X103304684Y-114646197D01*
X103310496Y-114622993D01*
X103318554Y-114600471D01*
X103328782Y-114578847D01*
X103341079Y-114558330D01*
X103355329Y-114539117D01*
X103371393Y-114521393D01*
X103389117Y-114505329D01*
X103408330Y-114491079D01*
X103428847Y-114478782D01*
X103450471Y-114468554D01*
X103472993Y-114460496D01*
X103496197Y-114454684D01*
X103519858Y-114451174D01*
X103543750Y-114450000D01*
X104456250Y-114450000D01*
X104480142Y-114451174D01*
X104480142Y-114451174D01*
G37*
D13*
X104000000Y-114937500D03*
D12*
G36*
X104480142Y-112576174D02*
G01*
X104503803Y-112579684D01*
X104527007Y-112585496D01*
X104549529Y-112593554D01*
X104571153Y-112603782D01*
X104591670Y-112616079D01*
X104610883Y-112630329D01*
X104628607Y-112646393D01*
X104644671Y-112664117D01*
X104658921Y-112683330D01*
X104671218Y-112703847D01*
X104681446Y-112725471D01*
X104689504Y-112747993D01*
X104695316Y-112771197D01*
X104698826Y-112794858D01*
X104700000Y-112818750D01*
X104700000Y-113306250D01*
X104698826Y-113330142D01*
X104695316Y-113353803D01*
X104689504Y-113377007D01*
X104681446Y-113399529D01*
X104671218Y-113421153D01*
X104658921Y-113441670D01*
X104644671Y-113460883D01*
X104628607Y-113478607D01*
X104610883Y-113494671D01*
X104591670Y-113508921D01*
X104571153Y-113521218D01*
X104549529Y-113531446D01*
X104527007Y-113539504D01*
X104503803Y-113545316D01*
X104480142Y-113548826D01*
X104456250Y-113550000D01*
X103543750Y-113550000D01*
X103519858Y-113548826D01*
X103496197Y-113545316D01*
X103472993Y-113539504D01*
X103450471Y-113531446D01*
X103428847Y-113521218D01*
X103408330Y-113508921D01*
X103389117Y-113494671D01*
X103371393Y-113478607D01*
X103355329Y-113460883D01*
X103341079Y-113441670D01*
X103328782Y-113421153D01*
X103318554Y-113399529D01*
X103310496Y-113377007D01*
X103304684Y-113353803D01*
X103301174Y-113330142D01*
X103300000Y-113306250D01*
X103300000Y-112818750D01*
X103301174Y-112794858D01*
X103304684Y-112771197D01*
X103310496Y-112747993D01*
X103318554Y-112725471D01*
X103328782Y-112703847D01*
X103341079Y-112683330D01*
X103355329Y-112664117D01*
X103371393Y-112646393D01*
X103389117Y-112630329D01*
X103408330Y-112616079D01*
X103428847Y-112603782D01*
X103450471Y-112593554D01*
X103472993Y-112585496D01*
X103496197Y-112579684D01*
X103519858Y-112576174D01*
X103543750Y-112575000D01*
X104456250Y-112575000D01*
X104480142Y-112576174D01*
X104480142Y-112576174D01*
G37*
D13*
X104000000Y-113062500D03*
D12*
G36*
X101480142Y-114451174D02*
G01*
X101503803Y-114454684D01*
X101527007Y-114460496D01*
X101549529Y-114468554D01*
X101571153Y-114478782D01*
X101591670Y-114491079D01*
X101610883Y-114505329D01*
X101628607Y-114521393D01*
X101644671Y-114539117D01*
X101658921Y-114558330D01*
X101671218Y-114578847D01*
X101681446Y-114600471D01*
X101689504Y-114622993D01*
X101695316Y-114646197D01*
X101698826Y-114669858D01*
X101700000Y-114693750D01*
X101700000Y-115181250D01*
X101698826Y-115205142D01*
X101695316Y-115228803D01*
X101689504Y-115252007D01*
X101681446Y-115274529D01*
X101671218Y-115296153D01*
X101658921Y-115316670D01*
X101644671Y-115335883D01*
X101628607Y-115353607D01*
X101610883Y-115369671D01*
X101591670Y-115383921D01*
X101571153Y-115396218D01*
X101549529Y-115406446D01*
X101527007Y-115414504D01*
X101503803Y-115420316D01*
X101480142Y-115423826D01*
X101456250Y-115425000D01*
X100543750Y-115425000D01*
X100519858Y-115423826D01*
X100496197Y-115420316D01*
X100472993Y-115414504D01*
X100450471Y-115406446D01*
X100428847Y-115396218D01*
X100408330Y-115383921D01*
X100389117Y-115369671D01*
X100371393Y-115353607D01*
X100355329Y-115335883D01*
X100341079Y-115316670D01*
X100328782Y-115296153D01*
X100318554Y-115274529D01*
X100310496Y-115252007D01*
X100304684Y-115228803D01*
X100301174Y-115205142D01*
X100300000Y-115181250D01*
X100300000Y-114693750D01*
X100301174Y-114669858D01*
X100304684Y-114646197D01*
X100310496Y-114622993D01*
X100318554Y-114600471D01*
X100328782Y-114578847D01*
X100341079Y-114558330D01*
X100355329Y-114539117D01*
X100371393Y-114521393D01*
X100389117Y-114505329D01*
X100408330Y-114491079D01*
X100428847Y-114478782D01*
X100450471Y-114468554D01*
X100472993Y-114460496D01*
X100496197Y-114454684D01*
X100519858Y-114451174D01*
X100543750Y-114450000D01*
X101456250Y-114450000D01*
X101480142Y-114451174D01*
X101480142Y-114451174D01*
G37*
D13*
X101000000Y-114937500D03*
D12*
G36*
X101480142Y-112576174D02*
G01*
X101503803Y-112579684D01*
X101527007Y-112585496D01*
X101549529Y-112593554D01*
X101571153Y-112603782D01*
X101591670Y-112616079D01*
X101610883Y-112630329D01*
X101628607Y-112646393D01*
X101644671Y-112664117D01*
X101658921Y-112683330D01*
X101671218Y-112703847D01*
X101681446Y-112725471D01*
X101689504Y-112747993D01*
X101695316Y-112771197D01*
X101698826Y-112794858D01*
X101700000Y-112818750D01*
X101700000Y-113306250D01*
X101698826Y-113330142D01*
X101695316Y-113353803D01*
X101689504Y-113377007D01*
X101681446Y-113399529D01*
X101671218Y-113421153D01*
X101658921Y-113441670D01*
X101644671Y-113460883D01*
X101628607Y-113478607D01*
X101610883Y-113494671D01*
X101591670Y-113508921D01*
X101571153Y-113521218D01*
X101549529Y-113531446D01*
X101527007Y-113539504D01*
X101503803Y-113545316D01*
X101480142Y-113548826D01*
X101456250Y-113550000D01*
X100543750Y-113550000D01*
X100519858Y-113548826D01*
X100496197Y-113545316D01*
X100472993Y-113539504D01*
X100450471Y-113531446D01*
X100428847Y-113521218D01*
X100408330Y-113508921D01*
X100389117Y-113494671D01*
X100371393Y-113478607D01*
X100355329Y-113460883D01*
X100341079Y-113441670D01*
X100328782Y-113421153D01*
X100318554Y-113399529D01*
X100310496Y-113377007D01*
X100304684Y-113353803D01*
X100301174Y-113330142D01*
X100300000Y-113306250D01*
X100300000Y-112818750D01*
X100301174Y-112794858D01*
X100304684Y-112771197D01*
X100310496Y-112747993D01*
X100318554Y-112725471D01*
X100328782Y-112703847D01*
X100341079Y-112683330D01*
X100355329Y-112664117D01*
X100371393Y-112646393D01*
X100389117Y-112630329D01*
X100408330Y-112616079D01*
X100428847Y-112603782D01*
X100450471Y-112593554D01*
X100472993Y-112585496D01*
X100496197Y-112579684D01*
X100519858Y-112576174D01*
X100543750Y-112575000D01*
X101456250Y-112575000D01*
X101480142Y-112576174D01*
X101480142Y-112576174D01*
G37*
D13*
X101000000Y-113062500D03*
D12*
G36*
X110480142Y-107576174D02*
G01*
X110503803Y-107579684D01*
X110527007Y-107585496D01*
X110549529Y-107593554D01*
X110571153Y-107603782D01*
X110591670Y-107616079D01*
X110610883Y-107630329D01*
X110628607Y-107646393D01*
X110644671Y-107664117D01*
X110658921Y-107683330D01*
X110671218Y-107703847D01*
X110681446Y-107725471D01*
X110689504Y-107747993D01*
X110695316Y-107771197D01*
X110698826Y-107794858D01*
X110700000Y-107818750D01*
X110700000Y-108306250D01*
X110698826Y-108330142D01*
X110695316Y-108353803D01*
X110689504Y-108377007D01*
X110681446Y-108399529D01*
X110671218Y-108421153D01*
X110658921Y-108441670D01*
X110644671Y-108460883D01*
X110628607Y-108478607D01*
X110610883Y-108494671D01*
X110591670Y-108508921D01*
X110571153Y-108521218D01*
X110549529Y-108531446D01*
X110527007Y-108539504D01*
X110503803Y-108545316D01*
X110480142Y-108548826D01*
X110456250Y-108550000D01*
X109543750Y-108550000D01*
X109519858Y-108548826D01*
X109496197Y-108545316D01*
X109472993Y-108539504D01*
X109450471Y-108531446D01*
X109428847Y-108521218D01*
X109408330Y-108508921D01*
X109389117Y-108494671D01*
X109371393Y-108478607D01*
X109355329Y-108460883D01*
X109341079Y-108441670D01*
X109328782Y-108421153D01*
X109318554Y-108399529D01*
X109310496Y-108377007D01*
X109304684Y-108353803D01*
X109301174Y-108330142D01*
X109300000Y-108306250D01*
X109300000Y-107818750D01*
X109301174Y-107794858D01*
X109304684Y-107771197D01*
X109310496Y-107747993D01*
X109318554Y-107725471D01*
X109328782Y-107703847D01*
X109341079Y-107683330D01*
X109355329Y-107664117D01*
X109371393Y-107646393D01*
X109389117Y-107630329D01*
X109408330Y-107616079D01*
X109428847Y-107603782D01*
X109450471Y-107593554D01*
X109472993Y-107585496D01*
X109496197Y-107579684D01*
X109519858Y-107576174D01*
X109543750Y-107575000D01*
X110456250Y-107575000D01*
X110480142Y-107576174D01*
X110480142Y-107576174D01*
G37*
D13*
X110000000Y-108062500D03*
D12*
G36*
X110480142Y-109451174D02*
G01*
X110503803Y-109454684D01*
X110527007Y-109460496D01*
X110549529Y-109468554D01*
X110571153Y-109478782D01*
X110591670Y-109491079D01*
X110610883Y-109505329D01*
X110628607Y-109521393D01*
X110644671Y-109539117D01*
X110658921Y-109558330D01*
X110671218Y-109578847D01*
X110681446Y-109600471D01*
X110689504Y-109622993D01*
X110695316Y-109646197D01*
X110698826Y-109669858D01*
X110700000Y-109693750D01*
X110700000Y-110181250D01*
X110698826Y-110205142D01*
X110695316Y-110228803D01*
X110689504Y-110252007D01*
X110681446Y-110274529D01*
X110671218Y-110296153D01*
X110658921Y-110316670D01*
X110644671Y-110335883D01*
X110628607Y-110353607D01*
X110610883Y-110369671D01*
X110591670Y-110383921D01*
X110571153Y-110396218D01*
X110549529Y-110406446D01*
X110527007Y-110414504D01*
X110503803Y-110420316D01*
X110480142Y-110423826D01*
X110456250Y-110425000D01*
X109543750Y-110425000D01*
X109519858Y-110423826D01*
X109496197Y-110420316D01*
X109472993Y-110414504D01*
X109450471Y-110406446D01*
X109428847Y-110396218D01*
X109408330Y-110383921D01*
X109389117Y-110369671D01*
X109371393Y-110353607D01*
X109355329Y-110335883D01*
X109341079Y-110316670D01*
X109328782Y-110296153D01*
X109318554Y-110274529D01*
X109310496Y-110252007D01*
X109304684Y-110228803D01*
X109301174Y-110205142D01*
X109300000Y-110181250D01*
X109300000Y-109693750D01*
X109301174Y-109669858D01*
X109304684Y-109646197D01*
X109310496Y-109622993D01*
X109318554Y-109600471D01*
X109328782Y-109578847D01*
X109341079Y-109558330D01*
X109355329Y-109539117D01*
X109371393Y-109521393D01*
X109389117Y-109505329D01*
X109408330Y-109491079D01*
X109428847Y-109478782D01*
X109450471Y-109468554D01*
X109472993Y-109460496D01*
X109496197Y-109454684D01*
X109519858Y-109451174D01*
X109543750Y-109450000D01*
X110456250Y-109450000D01*
X110480142Y-109451174D01*
X110480142Y-109451174D01*
G37*
D13*
X110000000Y-109937500D03*
D12*
G36*
X116880142Y-112576174D02*
G01*
X116903803Y-112579684D01*
X116927007Y-112585496D01*
X116949529Y-112593554D01*
X116971153Y-112603782D01*
X116991670Y-112616079D01*
X117010883Y-112630329D01*
X117028607Y-112646393D01*
X117044671Y-112664117D01*
X117058921Y-112683330D01*
X117071218Y-112703847D01*
X117081446Y-112725471D01*
X117089504Y-112747993D01*
X117095316Y-112771197D01*
X117098826Y-112794858D01*
X117100000Y-112818750D01*
X117100000Y-113306250D01*
X117098826Y-113330142D01*
X117095316Y-113353803D01*
X117089504Y-113377007D01*
X117081446Y-113399529D01*
X117071218Y-113421153D01*
X117058921Y-113441670D01*
X117044671Y-113460883D01*
X117028607Y-113478607D01*
X117010883Y-113494671D01*
X116991670Y-113508921D01*
X116971153Y-113521218D01*
X116949529Y-113531446D01*
X116927007Y-113539504D01*
X116903803Y-113545316D01*
X116880142Y-113548826D01*
X116856250Y-113550000D01*
X115943750Y-113550000D01*
X115919858Y-113548826D01*
X115896197Y-113545316D01*
X115872993Y-113539504D01*
X115850471Y-113531446D01*
X115828847Y-113521218D01*
X115808330Y-113508921D01*
X115789117Y-113494671D01*
X115771393Y-113478607D01*
X115755329Y-113460883D01*
X115741079Y-113441670D01*
X115728782Y-113421153D01*
X115718554Y-113399529D01*
X115710496Y-113377007D01*
X115704684Y-113353803D01*
X115701174Y-113330142D01*
X115700000Y-113306250D01*
X115700000Y-112818750D01*
X115701174Y-112794858D01*
X115704684Y-112771197D01*
X115710496Y-112747993D01*
X115718554Y-112725471D01*
X115728782Y-112703847D01*
X115741079Y-112683330D01*
X115755329Y-112664117D01*
X115771393Y-112646393D01*
X115789117Y-112630329D01*
X115808330Y-112616079D01*
X115828847Y-112603782D01*
X115850471Y-112593554D01*
X115872993Y-112585496D01*
X115896197Y-112579684D01*
X115919858Y-112576174D01*
X115943750Y-112575000D01*
X116856250Y-112575000D01*
X116880142Y-112576174D01*
X116880142Y-112576174D01*
G37*
D13*
X116400000Y-113062500D03*
D12*
G36*
X116880142Y-114451174D02*
G01*
X116903803Y-114454684D01*
X116927007Y-114460496D01*
X116949529Y-114468554D01*
X116971153Y-114478782D01*
X116991670Y-114491079D01*
X117010883Y-114505329D01*
X117028607Y-114521393D01*
X117044671Y-114539117D01*
X117058921Y-114558330D01*
X117071218Y-114578847D01*
X117081446Y-114600471D01*
X117089504Y-114622993D01*
X117095316Y-114646197D01*
X117098826Y-114669858D01*
X117100000Y-114693750D01*
X117100000Y-115181250D01*
X117098826Y-115205142D01*
X117095316Y-115228803D01*
X117089504Y-115252007D01*
X117081446Y-115274529D01*
X117071218Y-115296153D01*
X117058921Y-115316670D01*
X117044671Y-115335883D01*
X117028607Y-115353607D01*
X117010883Y-115369671D01*
X116991670Y-115383921D01*
X116971153Y-115396218D01*
X116949529Y-115406446D01*
X116927007Y-115414504D01*
X116903803Y-115420316D01*
X116880142Y-115423826D01*
X116856250Y-115425000D01*
X115943750Y-115425000D01*
X115919858Y-115423826D01*
X115896197Y-115420316D01*
X115872993Y-115414504D01*
X115850471Y-115406446D01*
X115828847Y-115396218D01*
X115808330Y-115383921D01*
X115789117Y-115369671D01*
X115771393Y-115353607D01*
X115755329Y-115335883D01*
X115741079Y-115316670D01*
X115728782Y-115296153D01*
X115718554Y-115274529D01*
X115710496Y-115252007D01*
X115704684Y-115228803D01*
X115701174Y-115205142D01*
X115700000Y-115181250D01*
X115700000Y-114693750D01*
X115701174Y-114669858D01*
X115704684Y-114646197D01*
X115710496Y-114622993D01*
X115718554Y-114600471D01*
X115728782Y-114578847D01*
X115741079Y-114558330D01*
X115755329Y-114539117D01*
X115771393Y-114521393D01*
X115789117Y-114505329D01*
X115808330Y-114491079D01*
X115828847Y-114478782D01*
X115850471Y-114468554D01*
X115872993Y-114460496D01*
X115896197Y-114454684D01*
X115919858Y-114451174D01*
X115943750Y-114450000D01*
X116856250Y-114450000D01*
X116880142Y-114451174D01*
X116880142Y-114451174D01*
G37*
D13*
X116400000Y-114937500D03*
D14*
X112938000Y-113350000D02*
X112938000Y-114000000D01*
X112938000Y-114000000D02*
X114200000Y-114000000D01*
X114200000Y-114000000D02*
X114600000Y-114400000D01*
X114600000Y-114400000D02*
X114600000Y-116000000D01*
X115715000Y-117115000D02*
X115715000Y-118600000D01*
X114600000Y-116000000D02*
X115715000Y-117115000D01*
X115715000Y-117115000D02*
X115715000Y-116485000D01*
X115715000Y-116485000D02*
X116400000Y-115800000D01*
X116400000Y-115800000D02*
X116400000Y-114937500D01*
X111825500Y-113350000D02*
X112938000Y-113350000D01*
X110000000Y-111524500D02*
X111825500Y-113350000D01*
X110000000Y-109937500D02*
X110000000Y-111524500D01*
D15*
X107062000Y-115950000D02*
X107550000Y-115950000D01*
X108095000Y-116495000D02*
X108095000Y-118600000D01*
X107550000Y-115950000D02*
X108095000Y-116495000D01*
X104285000Y-117350000D02*
X104285000Y-118600000D01*
X104285000Y-117089500D02*
X104285000Y-117350000D01*
X106074500Y-115300000D02*
X104285000Y-117089500D01*
X107062000Y-115300000D02*
X106074500Y-115300000D01*
X104937500Y-114000000D02*
X107062000Y-114000000D01*
X104000000Y-113062500D02*
X104937500Y-114000000D01*
X110000000Y-108062500D02*
X108600000Y-109462500D01*
X108600000Y-109462500D02*
X108600000Y-111024500D01*
X107574500Y-112050000D02*
X107062000Y-112050000D01*
X108600000Y-111024500D02*
X107574500Y-112050000D01*
X106074500Y-112700000D02*
X105174500Y-111800000D01*
X107062000Y-112700000D02*
X106074500Y-112700000D01*
X102262500Y-111800000D02*
X101000000Y-113062500D01*
X105174500Y-111800000D02*
X102262500Y-111800000D01*
D16*
G36*
X111594001Y-107768171D02*
G01*
X111594000Y-110180059D01*
X111592036Y-110200000D01*
X111599875Y-110279590D01*
X111623090Y-110356121D01*
X111660790Y-110426653D01*
X111711526Y-110488474D01*
X111773347Y-110539210D01*
X111843879Y-110576910D01*
X111920410Y-110600125D01*
X111936828Y-110601742D01*
X112000000Y-110607964D01*
X112019940Y-110606000D01*
X113831831Y-110606000D01*
X114698813Y-111472984D01*
X114711526Y-111488474D01*
X114727013Y-111501184D01*
X114727015Y-111501186D01*
X114773347Y-111539210D01*
X114843878Y-111576910D01*
X114920410Y-111600125D01*
X115000000Y-111607964D01*
X115019941Y-111606000D01*
X120631831Y-111606000D01*
X120994001Y-111968172D01*
X120994000Y-115231830D01*
X119631831Y-116594000D01*
X118819941Y-116594000D01*
X118800000Y-116592036D01*
X118780060Y-116594000D01*
X118780059Y-116594000D01*
X118720410Y-116599875D01*
X118643879Y-116623090D01*
X118573347Y-116660790D01*
X118511526Y-116711526D01*
X118460790Y-116773347D01*
X118423090Y-116843879D01*
X118399875Y-116920410D01*
X118392036Y-117000000D01*
X118394001Y-117019951D01*
X118394000Y-119594000D01*
X117619941Y-119594000D01*
X117600000Y-119592036D01*
X117580060Y-119594000D01*
X117580059Y-119594000D01*
X117520410Y-119599875D01*
X117443879Y-119623090D01*
X117373347Y-119660790D01*
X117311526Y-119711526D01*
X117260790Y-119773347D01*
X117223090Y-119843879D01*
X117199875Y-119920410D01*
X117192036Y-120000000D01*
X117194001Y-120019951D01*
X117194000Y-121394000D01*
X112406000Y-121394000D01*
X112406000Y-120235926D01*
X112905000Y-120238072D01*
X113029482Y-120225812D01*
X113149180Y-120189502D01*
X113259494Y-120130537D01*
X113356185Y-120051185D01*
X113435537Y-119954494D01*
X113494502Y-119844180D01*
X113530812Y-119724482D01*
X113543072Y-119600000D01*
X113540000Y-118885750D01*
X113381250Y-118727000D01*
X112032000Y-118727000D01*
X112032000Y-118747000D01*
X111778000Y-118747000D01*
X111778000Y-118727000D01*
X110428750Y-118727000D01*
X110270000Y-118885750D01*
X110266954Y-119594000D01*
X109477843Y-119594000D01*
X109477843Y-117600000D01*
X110266928Y-117600000D01*
X110270000Y-118314250D01*
X110428750Y-118473000D01*
X111778000Y-118473000D01*
X111778000Y-117123750D01*
X112032000Y-117123750D01*
X112032000Y-118473000D01*
X113381250Y-118473000D01*
X113540000Y-118314250D01*
X113543072Y-117600000D01*
X113530812Y-117475518D01*
X113494502Y-117355820D01*
X113435537Y-117245506D01*
X113356185Y-117148815D01*
X113259494Y-117069463D01*
X113149180Y-117010498D01*
X113029482Y-116974188D01*
X112905000Y-116961928D01*
X112190750Y-116965000D01*
X112032000Y-117123750D01*
X111778000Y-117123750D01*
X111619250Y-116965000D01*
X110905000Y-116961928D01*
X110780518Y-116974188D01*
X110660820Y-117010498D01*
X110550506Y-117069463D01*
X110453815Y-117148815D01*
X110374463Y-117245506D01*
X110315498Y-117355820D01*
X110279188Y-117475518D01*
X110266928Y-117600000D01*
X109477843Y-117600000D01*
X109470487Y-117525311D01*
X109448701Y-117453492D01*
X109413322Y-117387304D01*
X109365711Y-117329289D01*
X109307696Y-117281678D01*
X109241508Y-117246299D01*
X109169689Y-117224513D01*
X109095000Y-117217157D01*
X108601000Y-117217157D01*
X108601000Y-116519845D01*
X108603447Y-116494999D01*
X108601000Y-116470153D01*
X108601000Y-116470146D01*
X108593678Y-116395807D01*
X108589565Y-116382246D01*
X108582899Y-116360274D01*
X108564745Y-116300425D01*
X108517759Y-116212521D01*
X108454527Y-116135473D01*
X108435220Y-116119628D01*
X108182343Y-115866751D01*
X108182343Y-115725000D01*
X108174987Y-115650311D01*
X108167309Y-115625000D01*
X108174987Y-115599689D01*
X108182343Y-115525000D01*
X108182343Y-115381866D01*
X108243846Y-115332922D01*
X108324644Y-115237436D01*
X108385261Y-115128021D01*
X108423368Y-115008883D01*
X108434500Y-114906750D01*
X108275750Y-114748000D01*
X107995961Y-114748000D01*
X107946008Y-114721299D01*
X107874189Y-114699513D01*
X107799500Y-114692157D01*
X106324500Y-114692157D01*
X106249811Y-114699513D01*
X106177992Y-114721299D01*
X106128039Y-114748000D01*
X105848250Y-114748000D01*
X105689500Y-114906750D01*
X105695658Y-114963250D01*
X105336510Y-115322399D01*
X105335000Y-115223250D01*
X105176250Y-115064500D01*
X104127000Y-115064500D01*
X104127000Y-115901250D01*
X104285750Y-116060000D01*
X104596603Y-116062305D01*
X103944785Y-116714124D01*
X103925473Y-116729973D01*
X103862241Y-116807021D01*
X103815255Y-116894926D01*
X103786322Y-116990308D01*
X103779000Y-117064647D01*
X103779000Y-117064654D01*
X103776553Y-117089500D01*
X103779000Y-117114346D01*
X103779000Y-117217157D01*
X103285000Y-117217157D01*
X103210311Y-117224513D01*
X103138492Y-117246299D01*
X103072304Y-117281678D01*
X103014289Y-117329289D01*
X102966678Y-117387304D01*
X102931299Y-117453492D01*
X102909513Y-117525311D01*
X102902157Y-117600000D01*
X102902157Y-119600000D01*
X102909513Y-119674689D01*
X102931299Y-119746508D01*
X102966678Y-119812696D01*
X103014289Y-119870711D01*
X103072304Y-119918322D01*
X103138492Y-119953701D01*
X103210311Y-119975487D01*
X103285000Y-119982843D01*
X105285000Y-119982843D01*
X105359689Y-119975487D01*
X105431508Y-119953701D01*
X105497696Y-119918322D01*
X105555711Y-119870711D01*
X105603322Y-119812696D01*
X105638701Y-119746508D01*
X105660487Y-119674689D01*
X105667843Y-119600000D01*
X105667843Y-117600000D01*
X105660487Y-117525311D01*
X105638701Y-117453492D01*
X105603322Y-117387304D01*
X105555711Y-117329289D01*
X105497696Y-117281678D01*
X105431508Y-117246299D01*
X105359689Y-117224513D01*
X105285000Y-117217157D01*
X104872934Y-117217157D01*
X105941657Y-116148435D01*
X105941657Y-116175000D01*
X105949013Y-116249689D01*
X105970799Y-116321508D01*
X106006178Y-116387696D01*
X106053789Y-116445711D01*
X106111804Y-116493322D01*
X106177992Y-116528701D01*
X106249811Y-116550487D01*
X106324500Y-116557843D01*
X107442252Y-116557843D01*
X107589000Y-116704592D01*
X107589000Y-117217157D01*
X107095000Y-117217157D01*
X107020311Y-117224513D01*
X106948492Y-117246299D01*
X106882304Y-117281678D01*
X106824289Y-117329289D01*
X106776678Y-117387304D01*
X106741299Y-117453492D01*
X106719513Y-117525311D01*
X106712157Y-117600000D01*
X106712157Y-119600000D01*
X106719513Y-119674689D01*
X106741299Y-119746508D01*
X106776678Y-119812696D01*
X106824289Y-119870711D01*
X106882304Y-119918322D01*
X106948492Y-119953701D01*
X107020311Y-119975487D01*
X107095000Y-119982843D01*
X107593726Y-119982843D01*
X107592036Y-120000000D01*
X107594000Y-120019940D01*
X107594001Y-121394000D01*
X102806000Y-121394000D01*
X102806000Y-120019940D01*
X102807964Y-120000000D01*
X102800125Y-119920410D01*
X102776910Y-119843879D01*
X102739210Y-119773347D01*
X102688474Y-119711526D01*
X102626653Y-119660790D01*
X102556121Y-119623090D01*
X102479590Y-119599875D01*
X102419941Y-119594000D01*
X102419940Y-119594000D01*
X102400000Y-119592036D01*
X102380059Y-119594000D01*
X101606000Y-119594000D01*
X101606000Y-117019941D01*
X101607964Y-117000000D01*
X101600125Y-116920410D01*
X101576910Y-116843879D01*
X101539210Y-116773347D01*
X101488474Y-116711526D01*
X101426653Y-116660790D01*
X101356121Y-116623090D01*
X101279590Y-116599875D01*
X101219941Y-116594000D01*
X101200000Y-116592036D01*
X101180060Y-116594000D01*
X100368170Y-116594000D01*
X99199170Y-115425000D01*
X99661928Y-115425000D01*
X99674188Y-115549482D01*
X99710498Y-115669180D01*
X99769463Y-115779494D01*
X99848815Y-115876185D01*
X99945506Y-115955537D01*
X100055820Y-116014502D01*
X100175518Y-116050812D01*
X100300000Y-116063072D01*
X100714250Y-116060000D01*
X100873000Y-115901250D01*
X100873000Y-115064500D01*
X101127000Y-115064500D01*
X101127000Y-115901250D01*
X101285750Y-116060000D01*
X101700000Y-116063072D01*
X101824482Y-116050812D01*
X101944180Y-116014502D01*
X102054494Y-115955537D01*
X102151185Y-115876185D01*
X102230537Y-115779494D01*
X102289502Y-115669180D01*
X102325812Y-115549482D01*
X102338072Y-115425000D01*
X102661928Y-115425000D01*
X102674188Y-115549482D01*
X102710498Y-115669180D01*
X102769463Y-115779494D01*
X102848815Y-115876185D01*
X102945506Y-115955537D01*
X103055820Y-116014502D01*
X103175518Y-116050812D01*
X103300000Y-116063072D01*
X103714250Y-116060000D01*
X103873000Y-115901250D01*
X103873000Y-115064500D01*
X102823750Y-115064500D01*
X102665000Y-115223250D01*
X102661928Y-115425000D01*
X102338072Y-115425000D01*
X102335000Y-115223250D01*
X102176250Y-115064500D01*
X101127000Y-115064500D01*
X100873000Y-115064500D01*
X99823750Y-115064500D01*
X99665000Y-115223250D01*
X99661928Y-115425000D01*
X99199170Y-115425000D01*
X99006000Y-115231831D01*
X99006000Y-111968169D01*
X99368171Y-111606000D01*
X101740908Y-111606000D01*
X101154752Y-112192157D01*
X100543750Y-112192157D01*
X100421508Y-112204197D01*
X100303963Y-112239854D01*
X100195634Y-112297757D01*
X100100682Y-112375682D01*
X100022757Y-112470634D01*
X99964854Y-112578963D01*
X99929197Y-112696508D01*
X99917157Y-112818750D01*
X99917157Y-113306250D01*
X99929197Y-113428492D01*
X99964854Y-113546037D01*
X100022757Y-113654366D01*
X100100682Y-113749318D01*
X100190155Y-113822746D01*
X100175518Y-113824188D01*
X100055820Y-113860498D01*
X99945506Y-113919463D01*
X99848815Y-113998815D01*
X99769463Y-114095506D01*
X99710498Y-114205820D01*
X99674188Y-114325518D01*
X99661928Y-114450000D01*
X99665000Y-114651750D01*
X99823750Y-114810500D01*
X100873000Y-114810500D01*
X100873000Y-114790500D01*
X101127000Y-114790500D01*
X101127000Y-114810500D01*
X102176250Y-114810500D01*
X102335000Y-114651750D01*
X102338072Y-114450000D01*
X102325812Y-114325518D01*
X102289502Y-114205820D01*
X102230537Y-114095506D01*
X102151185Y-113998815D01*
X102054494Y-113919463D01*
X101944180Y-113860498D01*
X101824482Y-113824188D01*
X101809845Y-113822746D01*
X101899318Y-113749318D01*
X101977243Y-113654366D01*
X102035146Y-113546037D01*
X102070803Y-113428492D01*
X102082843Y-113306250D01*
X102082843Y-112818750D01*
X102071770Y-112706322D01*
X102472092Y-112306000D01*
X103185590Y-112306000D01*
X103100682Y-112375682D01*
X103022757Y-112470634D01*
X102964854Y-112578963D01*
X102929197Y-112696508D01*
X102917157Y-112818750D01*
X102917157Y-113306250D01*
X102929197Y-113428492D01*
X102964854Y-113546037D01*
X103022757Y-113654366D01*
X103100682Y-113749318D01*
X103190155Y-113822746D01*
X103175518Y-113824188D01*
X103055820Y-113860498D01*
X102945506Y-113919463D01*
X102848815Y-113998815D01*
X102769463Y-114095506D01*
X102710498Y-114205820D01*
X102674188Y-114325518D01*
X102661928Y-114450000D01*
X102665000Y-114651750D01*
X102823750Y-114810500D01*
X103873000Y-114810500D01*
X103873000Y-114790500D01*
X104127000Y-114790500D01*
X104127000Y-114810500D01*
X105176250Y-114810500D01*
X105335000Y-114651750D01*
X105337219Y-114506000D01*
X105802250Y-114506000D01*
X105848250Y-114552000D01*
X106128039Y-114552000D01*
X106177992Y-114578701D01*
X106249811Y-114600487D01*
X106324500Y-114607843D01*
X107799500Y-114607843D01*
X107874189Y-114600487D01*
X107946008Y-114578701D01*
X107995961Y-114552000D01*
X108275750Y-114552000D01*
X108434500Y-114393250D01*
X108423368Y-114291117D01*
X108385261Y-114171979D01*
X108324644Y-114062564D01*
X108243846Y-113967078D01*
X108182343Y-113918134D01*
X108182343Y-113775000D01*
X108174987Y-113700311D01*
X108167309Y-113675000D01*
X108174987Y-113649689D01*
X108182343Y-113575000D01*
X108182343Y-113125000D01*
X108174987Y-113050311D01*
X108167309Y-113025000D01*
X108174987Y-112999689D01*
X108182343Y-112925000D01*
X108182343Y-112475000D01*
X108174987Y-112400311D01*
X108167309Y-112375000D01*
X108174987Y-112349689D01*
X108182343Y-112275000D01*
X108182343Y-112157748D01*
X108940220Y-111399872D01*
X108959527Y-111384027D01*
X109022759Y-111306979D01*
X109069745Y-111219075D01*
X109098678Y-111123693D01*
X109106000Y-111049354D01*
X109106000Y-111049347D01*
X109108447Y-111024501D01*
X109106000Y-110999655D01*
X109106000Y-110628682D01*
X109195634Y-110702243D01*
X109303963Y-110760146D01*
X109421508Y-110795803D01*
X109431501Y-110796787D01*
X109431501Y-111496571D01*
X109428750Y-111524500D01*
X109439727Y-111635945D01*
X109472234Y-111743107D01*
X109525023Y-111841870D01*
X109578266Y-111906746D01*
X109578269Y-111906749D01*
X109596066Y-111928435D01*
X109617752Y-111946232D01*
X111403768Y-113732249D01*
X111421565Y-113753935D01*
X111443251Y-113771732D01*
X111443253Y-113771734D01*
X111508130Y-113824977D01*
X111535724Y-113839726D01*
X111606892Y-113877766D01*
X111714055Y-113910274D01*
X111797578Y-113918500D01*
X111797580Y-113918500D01*
X111817657Y-113920477D01*
X111817657Y-114225000D01*
X111825013Y-114299689D01*
X111832691Y-114325000D01*
X111825013Y-114350311D01*
X111817657Y-114425000D01*
X111817657Y-114875000D01*
X111825013Y-114949689D01*
X111832691Y-114975000D01*
X111825013Y-115000311D01*
X111817657Y-115075000D01*
X111817657Y-115525000D01*
X111825013Y-115599689D01*
X111832691Y-115625000D01*
X111825013Y-115650311D01*
X111817657Y-115725000D01*
X111817657Y-116175000D01*
X111825013Y-116249689D01*
X111846799Y-116321508D01*
X111882178Y-116387696D01*
X111929789Y-116445711D01*
X111987804Y-116493322D01*
X112053992Y-116528701D01*
X112125811Y-116550487D01*
X112200500Y-116557843D01*
X113675500Y-116557843D01*
X113750189Y-116550487D01*
X113822008Y-116528701D01*
X113888196Y-116493322D01*
X113946211Y-116445711D01*
X113993822Y-116387696D01*
X114029201Y-116321508D01*
X114050987Y-116249689D01*
X114058343Y-116175000D01*
X114058343Y-116172814D01*
X114072234Y-116218607D01*
X114125023Y-116317370D01*
X114178266Y-116382246D01*
X114178269Y-116382249D01*
X114196066Y-116403935D01*
X114217752Y-116421732D01*
X115013177Y-117217157D01*
X114715000Y-117217157D01*
X114640311Y-117224513D01*
X114568492Y-117246299D01*
X114502304Y-117281678D01*
X114444289Y-117329289D01*
X114396678Y-117387304D01*
X114361299Y-117453492D01*
X114339513Y-117525311D01*
X114332157Y-117600000D01*
X114332157Y-119600000D01*
X114339513Y-119674689D01*
X114361299Y-119746508D01*
X114396678Y-119812696D01*
X114444289Y-119870711D01*
X114502304Y-119918322D01*
X114568492Y-119953701D01*
X114640311Y-119975487D01*
X114715000Y-119982843D01*
X116715000Y-119982843D01*
X116789689Y-119975487D01*
X116861508Y-119953701D01*
X116927696Y-119918322D01*
X116985711Y-119870711D01*
X117033322Y-119812696D01*
X117068701Y-119746508D01*
X117090487Y-119674689D01*
X117097843Y-119600000D01*
X117097843Y-117600000D01*
X117090487Y-117525311D01*
X117068701Y-117453492D01*
X117033322Y-117387304D01*
X116985711Y-117329289D01*
X116927696Y-117281678D01*
X116861508Y-117246299D01*
X116789689Y-117224513D01*
X116715000Y-117217157D01*
X116283500Y-117217157D01*
X116283500Y-117142919D01*
X116286250Y-117114999D01*
X116283500Y-117087078D01*
X116283500Y-116720480D01*
X116782243Y-116221737D01*
X116803935Y-116203935D01*
X116860120Y-116135473D01*
X116874976Y-116117371D01*
X116905641Y-116060000D01*
X116927766Y-116018608D01*
X116960274Y-115911445D01*
X116968500Y-115827922D01*
X116968500Y-115827921D01*
X116971250Y-115800001D01*
X116970910Y-115796550D01*
X116978492Y-115795803D01*
X117096037Y-115760146D01*
X117204366Y-115702243D01*
X117299318Y-115624318D01*
X117377243Y-115529366D01*
X117435146Y-115421037D01*
X117470803Y-115303492D01*
X117482843Y-115181250D01*
X117482843Y-114693750D01*
X117470803Y-114571508D01*
X117435146Y-114453963D01*
X117377243Y-114345634D01*
X117299318Y-114250682D01*
X117204366Y-114172757D01*
X117096037Y-114114854D01*
X116978492Y-114079197D01*
X116856250Y-114067157D01*
X115943750Y-114067157D01*
X115821508Y-114079197D01*
X115703963Y-114114854D01*
X115595634Y-114172757D01*
X115500682Y-114250682D01*
X115422757Y-114345634D01*
X115364854Y-114453963D01*
X115329197Y-114571508D01*
X115317157Y-114693750D01*
X115317157Y-115181250D01*
X115329197Y-115303492D01*
X115364854Y-115421037D01*
X115422757Y-115529366D01*
X115500682Y-115624318D01*
X115595634Y-115702243D01*
X115659591Y-115736429D01*
X115400000Y-115996020D01*
X115168500Y-115764520D01*
X115168500Y-114427916D01*
X115171250Y-114399999D01*
X115168500Y-114372078D01*
X115160274Y-114288555D01*
X115127766Y-114181392D01*
X115074977Y-114082631D01*
X115074976Y-114082629D01*
X115030079Y-114027922D01*
X115003935Y-113996065D01*
X114982243Y-113978263D01*
X114621737Y-113617757D01*
X114603935Y-113596065D01*
X114542975Y-113546037D01*
X114517370Y-113525023D01*
X114442974Y-113485258D01*
X114418608Y-113472234D01*
X114311445Y-113439726D01*
X114227922Y-113431500D01*
X114227920Y-113431500D01*
X114200000Y-113428750D01*
X114172080Y-113431500D01*
X114058803Y-113431500D01*
X114119846Y-113382922D01*
X114200644Y-113287436D01*
X114261261Y-113178021D01*
X114299368Y-113058883D01*
X114310500Y-112956750D01*
X114172500Y-112818750D01*
X115317157Y-112818750D01*
X115317157Y-113306250D01*
X115329197Y-113428492D01*
X115364854Y-113546037D01*
X115422757Y-113654366D01*
X115500682Y-113749318D01*
X115595634Y-113827243D01*
X115703963Y-113885146D01*
X115821508Y-113920803D01*
X115943750Y-113932843D01*
X116856250Y-113932843D01*
X116978492Y-113920803D01*
X117096037Y-113885146D01*
X117204366Y-113827243D01*
X117299318Y-113749318D01*
X117377243Y-113654366D01*
X117435146Y-113546037D01*
X117470803Y-113428492D01*
X117482843Y-113306250D01*
X117482843Y-112818750D01*
X117470803Y-112696508D01*
X117435146Y-112578963D01*
X117377243Y-112470634D01*
X117299318Y-112375682D01*
X117204366Y-112297757D01*
X117096037Y-112239854D01*
X116978492Y-112204197D01*
X116856250Y-112192157D01*
X115943750Y-112192157D01*
X115821508Y-112204197D01*
X115703963Y-112239854D01*
X115595634Y-112297757D01*
X115500682Y-112375682D01*
X115422757Y-112470634D01*
X115364854Y-112578963D01*
X115329197Y-112696508D01*
X115317157Y-112818750D01*
X114172500Y-112818750D01*
X114151750Y-112798000D01*
X113871961Y-112798000D01*
X113822008Y-112771299D01*
X113750189Y-112749513D01*
X113675500Y-112742157D01*
X112791000Y-112742157D01*
X112791000Y-112657843D01*
X113675500Y-112657843D01*
X113750189Y-112650487D01*
X113822008Y-112628701D01*
X113871961Y-112602000D01*
X114151750Y-112602000D01*
X114310500Y-112443250D01*
X114299368Y-112341117D01*
X114261261Y-112221979D01*
X114200644Y-112112564D01*
X114119846Y-112017078D01*
X114058343Y-111968134D01*
X114058343Y-111825000D01*
X114050987Y-111750311D01*
X114029201Y-111678492D01*
X113993822Y-111612304D01*
X113946211Y-111554289D01*
X113888196Y-111506678D01*
X113822008Y-111471299D01*
X113750189Y-111449513D01*
X113675500Y-111442157D01*
X112200500Y-111442157D01*
X112125811Y-111449513D01*
X112053992Y-111471299D01*
X111987804Y-111506678D01*
X111929789Y-111554289D01*
X111882178Y-111612304D01*
X111846799Y-111678492D01*
X111825013Y-111750311D01*
X111817657Y-111825000D01*
X111817657Y-111968134D01*
X111756154Y-112017078D01*
X111675356Y-112112564D01*
X111614739Y-112221979D01*
X111587287Y-112307806D01*
X110568500Y-111289020D01*
X110568500Y-110796787D01*
X110578492Y-110795803D01*
X110696037Y-110760146D01*
X110804366Y-110702243D01*
X110899318Y-110624318D01*
X110977243Y-110529366D01*
X111035146Y-110421037D01*
X111070803Y-110303492D01*
X111082843Y-110181250D01*
X111082843Y-109693750D01*
X111070803Y-109571508D01*
X111035146Y-109453963D01*
X110977243Y-109345634D01*
X110899318Y-109250682D01*
X110804366Y-109172757D01*
X110696037Y-109114854D01*
X110578492Y-109079197D01*
X110456250Y-109067157D01*
X109710935Y-109067157D01*
X109845249Y-108932843D01*
X110456250Y-108932843D01*
X110578492Y-108920803D01*
X110696037Y-108885146D01*
X110804366Y-108827243D01*
X110899318Y-108749318D01*
X110977243Y-108654366D01*
X111035146Y-108546037D01*
X111070803Y-108428492D01*
X111082843Y-108306250D01*
X111082843Y-107818750D01*
X111070803Y-107696508D01*
X111035146Y-107578963D01*
X110977243Y-107470634D01*
X110899318Y-107375682D01*
X110804366Y-107297757D01*
X110696037Y-107239854D01*
X110578492Y-107204197D01*
X110456250Y-107192157D01*
X109543750Y-107192157D01*
X109421508Y-107204197D01*
X109303963Y-107239854D01*
X109195634Y-107297757D01*
X109100682Y-107375682D01*
X109022757Y-107470634D01*
X108964854Y-107578963D01*
X108929197Y-107696508D01*
X108917157Y-107818750D01*
X108917157Y-108306250D01*
X108928230Y-108418678D01*
X108406000Y-108940909D01*
X108406000Y-107768169D01*
X109568170Y-106606000D01*
X110431831Y-106606000D01*
X111594001Y-107768171D01*
X111594001Y-107768171D01*
G37*
X111594001Y-107768171D02*
X111594000Y-110180059D01*
X111592036Y-110200000D01*
X111599875Y-110279590D01*
X111623090Y-110356121D01*
X111660790Y-110426653D01*
X111711526Y-110488474D01*
X111773347Y-110539210D01*
X111843879Y-110576910D01*
X111920410Y-110600125D01*
X111936828Y-110601742D01*
X112000000Y-110607964D01*
X112019940Y-110606000D01*
X113831831Y-110606000D01*
X114698813Y-111472984D01*
X114711526Y-111488474D01*
X114727013Y-111501184D01*
X114727015Y-111501186D01*
X114773347Y-111539210D01*
X114843878Y-111576910D01*
X114920410Y-111600125D01*
X115000000Y-111607964D01*
X115019941Y-111606000D01*
X120631831Y-111606000D01*
X120994001Y-111968172D01*
X120994000Y-115231830D01*
X119631831Y-116594000D01*
X118819941Y-116594000D01*
X118800000Y-116592036D01*
X118780060Y-116594000D01*
X118780059Y-116594000D01*
X118720410Y-116599875D01*
X118643879Y-116623090D01*
X118573347Y-116660790D01*
X118511526Y-116711526D01*
X118460790Y-116773347D01*
X118423090Y-116843879D01*
X118399875Y-116920410D01*
X118392036Y-117000000D01*
X118394001Y-117019951D01*
X118394000Y-119594000D01*
X117619941Y-119594000D01*
X117600000Y-119592036D01*
X117580060Y-119594000D01*
X117580059Y-119594000D01*
X117520410Y-119599875D01*
X117443879Y-119623090D01*
X117373347Y-119660790D01*
X117311526Y-119711526D01*
X117260790Y-119773347D01*
X117223090Y-119843879D01*
X117199875Y-119920410D01*
X117192036Y-120000000D01*
X117194001Y-120019951D01*
X117194000Y-121394000D01*
X112406000Y-121394000D01*
X112406000Y-120235926D01*
X112905000Y-120238072D01*
X113029482Y-120225812D01*
X113149180Y-120189502D01*
X113259494Y-120130537D01*
X113356185Y-120051185D01*
X113435537Y-119954494D01*
X113494502Y-119844180D01*
X113530812Y-119724482D01*
X113543072Y-119600000D01*
X113540000Y-118885750D01*
X113381250Y-118727000D01*
X112032000Y-118727000D01*
X112032000Y-118747000D01*
X111778000Y-118747000D01*
X111778000Y-118727000D01*
X110428750Y-118727000D01*
X110270000Y-118885750D01*
X110266954Y-119594000D01*
X109477843Y-119594000D01*
X109477843Y-117600000D01*
X110266928Y-117600000D01*
X110270000Y-118314250D01*
X110428750Y-118473000D01*
X111778000Y-118473000D01*
X111778000Y-117123750D01*
X112032000Y-117123750D01*
X112032000Y-118473000D01*
X113381250Y-118473000D01*
X113540000Y-118314250D01*
X113543072Y-117600000D01*
X113530812Y-117475518D01*
X113494502Y-117355820D01*
X113435537Y-117245506D01*
X113356185Y-117148815D01*
X113259494Y-117069463D01*
X113149180Y-117010498D01*
X113029482Y-116974188D01*
X112905000Y-116961928D01*
X112190750Y-116965000D01*
X112032000Y-117123750D01*
X111778000Y-117123750D01*
X111619250Y-116965000D01*
X110905000Y-116961928D01*
X110780518Y-116974188D01*
X110660820Y-117010498D01*
X110550506Y-117069463D01*
X110453815Y-117148815D01*
X110374463Y-117245506D01*
X110315498Y-117355820D01*
X110279188Y-117475518D01*
X110266928Y-117600000D01*
X109477843Y-117600000D01*
X109470487Y-117525311D01*
X109448701Y-117453492D01*
X109413322Y-117387304D01*
X109365711Y-117329289D01*
X109307696Y-117281678D01*
X109241508Y-117246299D01*
X109169689Y-117224513D01*
X109095000Y-117217157D01*
X108601000Y-117217157D01*
X108601000Y-116519845D01*
X108603447Y-116494999D01*
X108601000Y-116470153D01*
X108601000Y-116470146D01*
X108593678Y-116395807D01*
X108589565Y-116382246D01*
X108582899Y-116360274D01*
X108564745Y-116300425D01*
X108517759Y-116212521D01*
X108454527Y-116135473D01*
X108435220Y-116119628D01*
X108182343Y-115866751D01*
X108182343Y-115725000D01*
X108174987Y-115650311D01*
X108167309Y-115625000D01*
X108174987Y-115599689D01*
X108182343Y-115525000D01*
X108182343Y-115381866D01*
X108243846Y-115332922D01*
X108324644Y-115237436D01*
X108385261Y-115128021D01*
X108423368Y-115008883D01*
X108434500Y-114906750D01*
X108275750Y-114748000D01*
X107995961Y-114748000D01*
X107946008Y-114721299D01*
X107874189Y-114699513D01*
X107799500Y-114692157D01*
X106324500Y-114692157D01*
X106249811Y-114699513D01*
X106177992Y-114721299D01*
X106128039Y-114748000D01*
X105848250Y-114748000D01*
X105689500Y-114906750D01*
X105695658Y-114963250D01*
X105336510Y-115322399D01*
X105335000Y-115223250D01*
X105176250Y-115064500D01*
X104127000Y-115064500D01*
X104127000Y-115901250D01*
X104285750Y-116060000D01*
X104596603Y-116062305D01*
X103944785Y-116714124D01*
X103925473Y-116729973D01*
X103862241Y-116807021D01*
X103815255Y-116894926D01*
X103786322Y-116990308D01*
X103779000Y-117064647D01*
X103779000Y-117064654D01*
X103776553Y-117089500D01*
X103779000Y-117114346D01*
X103779000Y-117217157D01*
X103285000Y-117217157D01*
X103210311Y-117224513D01*
X103138492Y-117246299D01*
X103072304Y-117281678D01*
X103014289Y-117329289D01*
X102966678Y-117387304D01*
X102931299Y-117453492D01*
X102909513Y-117525311D01*
X102902157Y-117600000D01*
X102902157Y-119600000D01*
X102909513Y-119674689D01*
X102931299Y-119746508D01*
X102966678Y-119812696D01*
X103014289Y-119870711D01*
X103072304Y-119918322D01*
X103138492Y-119953701D01*
X103210311Y-119975487D01*
X103285000Y-119982843D01*
X105285000Y-119982843D01*
X105359689Y-119975487D01*
X105431508Y-119953701D01*
X105497696Y-119918322D01*
X105555711Y-119870711D01*
X105603322Y-119812696D01*
X105638701Y-119746508D01*
X105660487Y-119674689D01*
X105667843Y-119600000D01*
X105667843Y-117600000D01*
X105660487Y-117525311D01*
X105638701Y-117453492D01*
X105603322Y-117387304D01*
X105555711Y-117329289D01*
X105497696Y-117281678D01*
X105431508Y-117246299D01*
X105359689Y-117224513D01*
X105285000Y-117217157D01*
X104872934Y-117217157D01*
X105941657Y-116148435D01*
X105941657Y-116175000D01*
X105949013Y-116249689D01*
X105970799Y-116321508D01*
X106006178Y-116387696D01*
X106053789Y-116445711D01*
X106111804Y-116493322D01*
X106177992Y-116528701D01*
X106249811Y-116550487D01*
X106324500Y-116557843D01*
X107442252Y-116557843D01*
X107589000Y-116704592D01*
X107589000Y-117217157D01*
X107095000Y-117217157D01*
X107020311Y-117224513D01*
X106948492Y-117246299D01*
X106882304Y-117281678D01*
X106824289Y-117329289D01*
X106776678Y-117387304D01*
X106741299Y-117453492D01*
X106719513Y-117525311D01*
X106712157Y-117600000D01*
X106712157Y-119600000D01*
X106719513Y-119674689D01*
X106741299Y-119746508D01*
X106776678Y-119812696D01*
X106824289Y-119870711D01*
X106882304Y-119918322D01*
X106948492Y-119953701D01*
X107020311Y-119975487D01*
X107095000Y-119982843D01*
X107593726Y-119982843D01*
X107592036Y-120000000D01*
X107594000Y-120019940D01*
X107594001Y-121394000D01*
X102806000Y-121394000D01*
X102806000Y-120019940D01*
X102807964Y-120000000D01*
X102800125Y-119920410D01*
X102776910Y-119843879D01*
X102739210Y-119773347D01*
X102688474Y-119711526D01*
X102626653Y-119660790D01*
X102556121Y-119623090D01*
X102479590Y-119599875D01*
X102419941Y-119594000D01*
X102419940Y-119594000D01*
X102400000Y-119592036D01*
X102380059Y-119594000D01*
X101606000Y-119594000D01*
X101606000Y-117019941D01*
X101607964Y-117000000D01*
X101600125Y-116920410D01*
X101576910Y-116843879D01*
X101539210Y-116773347D01*
X101488474Y-116711526D01*
X101426653Y-116660790D01*
X101356121Y-116623090D01*
X101279590Y-116599875D01*
X101219941Y-116594000D01*
X101200000Y-116592036D01*
X101180060Y-116594000D01*
X100368170Y-116594000D01*
X99199170Y-115425000D01*
X99661928Y-115425000D01*
X99674188Y-115549482D01*
X99710498Y-115669180D01*
X99769463Y-115779494D01*
X99848815Y-115876185D01*
X99945506Y-115955537D01*
X100055820Y-116014502D01*
X100175518Y-116050812D01*
X100300000Y-116063072D01*
X100714250Y-116060000D01*
X100873000Y-115901250D01*
X100873000Y-115064500D01*
X101127000Y-115064500D01*
X101127000Y-115901250D01*
X101285750Y-116060000D01*
X101700000Y-116063072D01*
X101824482Y-116050812D01*
X101944180Y-116014502D01*
X102054494Y-115955537D01*
X102151185Y-115876185D01*
X102230537Y-115779494D01*
X102289502Y-115669180D01*
X102325812Y-115549482D01*
X102338072Y-115425000D01*
X102661928Y-115425000D01*
X102674188Y-115549482D01*
X102710498Y-115669180D01*
X102769463Y-115779494D01*
X102848815Y-115876185D01*
X102945506Y-115955537D01*
X103055820Y-116014502D01*
X103175518Y-116050812D01*
X103300000Y-116063072D01*
X103714250Y-116060000D01*
X103873000Y-115901250D01*
X103873000Y-115064500D01*
X102823750Y-115064500D01*
X102665000Y-115223250D01*
X102661928Y-115425000D01*
X102338072Y-115425000D01*
X102335000Y-115223250D01*
X102176250Y-115064500D01*
X101127000Y-115064500D01*
X100873000Y-115064500D01*
X99823750Y-115064500D01*
X99665000Y-115223250D01*
X99661928Y-115425000D01*
X99199170Y-115425000D01*
X99006000Y-115231831D01*
X99006000Y-111968169D01*
X99368171Y-111606000D01*
X101740908Y-111606000D01*
X101154752Y-112192157D01*
X100543750Y-112192157D01*
X100421508Y-112204197D01*
X100303963Y-112239854D01*
X100195634Y-112297757D01*
X100100682Y-112375682D01*
X100022757Y-112470634D01*
X99964854Y-112578963D01*
X99929197Y-112696508D01*
X99917157Y-112818750D01*
X99917157Y-113306250D01*
X99929197Y-113428492D01*
X99964854Y-113546037D01*
X100022757Y-113654366D01*
X100100682Y-113749318D01*
X100190155Y-113822746D01*
X100175518Y-113824188D01*
X100055820Y-113860498D01*
X99945506Y-113919463D01*
X99848815Y-113998815D01*
X99769463Y-114095506D01*
X99710498Y-114205820D01*
X99674188Y-114325518D01*
X99661928Y-114450000D01*
X99665000Y-114651750D01*
X99823750Y-114810500D01*
X100873000Y-114810500D01*
X100873000Y-114790500D01*
X101127000Y-114790500D01*
X101127000Y-114810500D01*
X102176250Y-114810500D01*
X102335000Y-114651750D01*
X102338072Y-114450000D01*
X102325812Y-114325518D01*
X102289502Y-114205820D01*
X102230537Y-114095506D01*
X102151185Y-113998815D01*
X102054494Y-113919463D01*
X101944180Y-113860498D01*
X101824482Y-113824188D01*
X101809845Y-113822746D01*
X101899318Y-113749318D01*
X101977243Y-113654366D01*
X102035146Y-113546037D01*
X102070803Y-113428492D01*
X102082843Y-113306250D01*
X102082843Y-112818750D01*
X102071770Y-112706322D01*
X102472092Y-112306000D01*
X103185590Y-112306000D01*
X103100682Y-112375682D01*
X103022757Y-112470634D01*
X102964854Y-112578963D01*
X102929197Y-112696508D01*
X102917157Y-112818750D01*
X102917157Y-113306250D01*
X102929197Y-113428492D01*
X102964854Y-113546037D01*
X103022757Y-113654366D01*
X103100682Y-113749318D01*
X103190155Y-113822746D01*
X103175518Y-113824188D01*
X103055820Y-113860498D01*
X102945506Y-113919463D01*
X102848815Y-113998815D01*
X102769463Y-114095506D01*
X102710498Y-114205820D01*
X102674188Y-114325518D01*
X102661928Y-114450000D01*
X102665000Y-114651750D01*
X102823750Y-114810500D01*
X103873000Y-114810500D01*
X103873000Y-114790500D01*
X104127000Y-114790500D01*
X104127000Y-114810500D01*
X105176250Y-114810500D01*
X105335000Y-114651750D01*
X105337219Y-114506000D01*
X105802250Y-114506000D01*
X105848250Y-114552000D01*
X106128039Y-114552000D01*
X106177992Y-114578701D01*
X106249811Y-114600487D01*
X106324500Y-114607843D01*
X107799500Y-114607843D01*
X107874189Y-114600487D01*
X107946008Y-114578701D01*
X107995961Y-114552000D01*
X108275750Y-114552000D01*
X108434500Y-114393250D01*
X108423368Y-114291117D01*
X108385261Y-114171979D01*
X108324644Y-114062564D01*
X108243846Y-113967078D01*
X108182343Y-113918134D01*
X108182343Y-113775000D01*
X108174987Y-113700311D01*
X108167309Y-113675000D01*
X108174987Y-113649689D01*
X108182343Y-113575000D01*
X108182343Y-113125000D01*
X108174987Y-113050311D01*
X108167309Y-113025000D01*
X108174987Y-112999689D01*
X108182343Y-112925000D01*
X108182343Y-112475000D01*
X108174987Y-112400311D01*
X108167309Y-112375000D01*
X108174987Y-112349689D01*
X108182343Y-112275000D01*
X108182343Y-112157748D01*
X108940220Y-111399872D01*
X108959527Y-111384027D01*
X109022759Y-111306979D01*
X109069745Y-111219075D01*
X109098678Y-111123693D01*
X109106000Y-111049354D01*
X109106000Y-111049347D01*
X109108447Y-111024501D01*
X109106000Y-110999655D01*
X109106000Y-110628682D01*
X109195634Y-110702243D01*
X109303963Y-110760146D01*
X109421508Y-110795803D01*
X109431501Y-110796787D01*
X109431501Y-111496571D01*
X109428750Y-111524500D01*
X109439727Y-111635945D01*
X109472234Y-111743107D01*
X109525023Y-111841870D01*
X109578266Y-111906746D01*
X109578269Y-111906749D01*
X109596066Y-111928435D01*
X109617752Y-111946232D01*
X111403768Y-113732249D01*
X111421565Y-113753935D01*
X111443251Y-113771732D01*
X111443253Y-113771734D01*
X111508130Y-113824977D01*
X111535724Y-113839726D01*
X111606892Y-113877766D01*
X111714055Y-113910274D01*
X111797578Y-113918500D01*
X111797580Y-113918500D01*
X111817657Y-113920477D01*
X111817657Y-114225000D01*
X111825013Y-114299689D01*
X111832691Y-114325000D01*
X111825013Y-114350311D01*
X111817657Y-114425000D01*
X111817657Y-114875000D01*
X111825013Y-114949689D01*
X111832691Y-114975000D01*
X111825013Y-115000311D01*
X111817657Y-115075000D01*
X111817657Y-115525000D01*
X111825013Y-115599689D01*
X111832691Y-115625000D01*
X111825013Y-115650311D01*
X111817657Y-115725000D01*
X111817657Y-116175000D01*
X111825013Y-116249689D01*
X111846799Y-116321508D01*
X111882178Y-116387696D01*
X111929789Y-116445711D01*
X111987804Y-116493322D01*
X112053992Y-116528701D01*
X112125811Y-116550487D01*
X112200500Y-116557843D01*
X113675500Y-116557843D01*
X113750189Y-116550487D01*
X113822008Y-116528701D01*
X113888196Y-116493322D01*
X113946211Y-116445711D01*
X113993822Y-116387696D01*
X114029201Y-116321508D01*
X114050987Y-116249689D01*
X114058343Y-116175000D01*
X114058343Y-116172814D01*
X114072234Y-116218607D01*
X114125023Y-116317370D01*
X114178266Y-116382246D01*
X114178269Y-116382249D01*
X114196066Y-116403935D01*
X114217752Y-116421732D01*
X115013177Y-117217157D01*
X114715000Y-117217157D01*
X114640311Y-117224513D01*
X114568492Y-117246299D01*
X114502304Y-117281678D01*
X114444289Y-117329289D01*
X114396678Y-117387304D01*
X114361299Y-117453492D01*
X114339513Y-117525311D01*
X114332157Y-117600000D01*
X114332157Y-119600000D01*
X114339513Y-119674689D01*
X114361299Y-119746508D01*
X114396678Y-119812696D01*
X114444289Y-119870711D01*
X114502304Y-119918322D01*
X114568492Y-119953701D01*
X114640311Y-119975487D01*
X114715000Y-119982843D01*
X116715000Y-119982843D01*
X116789689Y-119975487D01*
X116861508Y-119953701D01*
X116927696Y-119918322D01*
X116985711Y-119870711D01*
X117033322Y-119812696D01*
X117068701Y-119746508D01*
X117090487Y-119674689D01*
X117097843Y-119600000D01*
X117097843Y-117600000D01*
X117090487Y-117525311D01*
X117068701Y-117453492D01*
X117033322Y-117387304D01*
X116985711Y-117329289D01*
X116927696Y-117281678D01*
X116861508Y-117246299D01*
X116789689Y-117224513D01*
X116715000Y-117217157D01*
X116283500Y-117217157D01*
X116283500Y-117142919D01*
X116286250Y-117114999D01*
X116283500Y-117087078D01*
X116283500Y-116720480D01*
X116782243Y-116221737D01*
X116803935Y-116203935D01*
X116860120Y-116135473D01*
X116874976Y-116117371D01*
X116905641Y-116060000D01*
X116927766Y-116018608D01*
X116960274Y-115911445D01*
X116968500Y-115827922D01*
X116968500Y-115827921D01*
X116971250Y-115800001D01*
X116970910Y-115796550D01*
X116978492Y-115795803D01*
X117096037Y-115760146D01*
X117204366Y-115702243D01*
X117299318Y-115624318D01*
X117377243Y-115529366D01*
X117435146Y-115421037D01*
X117470803Y-115303492D01*
X117482843Y-115181250D01*
X117482843Y-114693750D01*
X117470803Y-114571508D01*
X117435146Y-114453963D01*
X117377243Y-114345634D01*
X117299318Y-114250682D01*
X117204366Y-114172757D01*
X117096037Y-114114854D01*
X116978492Y-114079197D01*
X116856250Y-114067157D01*
X115943750Y-114067157D01*
X115821508Y-114079197D01*
X115703963Y-114114854D01*
X115595634Y-114172757D01*
X115500682Y-114250682D01*
X115422757Y-114345634D01*
X115364854Y-114453963D01*
X115329197Y-114571508D01*
X115317157Y-114693750D01*
X115317157Y-115181250D01*
X115329197Y-115303492D01*
X115364854Y-115421037D01*
X115422757Y-115529366D01*
X115500682Y-115624318D01*
X115595634Y-115702243D01*
X115659591Y-115736429D01*
X115400000Y-115996020D01*
X115168500Y-115764520D01*
X115168500Y-114427916D01*
X115171250Y-114399999D01*
X115168500Y-114372078D01*
X115160274Y-114288555D01*
X115127766Y-114181392D01*
X115074977Y-114082631D01*
X115074976Y-114082629D01*
X115030079Y-114027922D01*
X115003935Y-113996065D01*
X114982243Y-113978263D01*
X114621737Y-113617757D01*
X114603935Y-113596065D01*
X114542975Y-113546037D01*
X114517370Y-113525023D01*
X114442974Y-113485258D01*
X114418608Y-113472234D01*
X114311445Y-113439726D01*
X114227922Y-113431500D01*
X114227920Y-113431500D01*
X114200000Y-113428750D01*
X114172080Y-113431500D01*
X114058803Y-113431500D01*
X114119846Y-113382922D01*
X114200644Y-113287436D01*
X114261261Y-113178021D01*
X114299368Y-113058883D01*
X114310500Y-112956750D01*
X114172500Y-112818750D01*
X115317157Y-112818750D01*
X115317157Y-113306250D01*
X115329197Y-113428492D01*
X115364854Y-113546037D01*
X115422757Y-113654366D01*
X115500682Y-113749318D01*
X115595634Y-113827243D01*
X115703963Y-113885146D01*
X115821508Y-113920803D01*
X115943750Y-113932843D01*
X116856250Y-113932843D01*
X116978492Y-113920803D01*
X117096037Y-113885146D01*
X117204366Y-113827243D01*
X117299318Y-113749318D01*
X117377243Y-113654366D01*
X117435146Y-113546037D01*
X117470803Y-113428492D01*
X117482843Y-113306250D01*
X117482843Y-112818750D01*
X117470803Y-112696508D01*
X117435146Y-112578963D01*
X117377243Y-112470634D01*
X117299318Y-112375682D01*
X117204366Y-112297757D01*
X117096037Y-112239854D01*
X116978492Y-112204197D01*
X116856250Y-112192157D01*
X115943750Y-112192157D01*
X115821508Y-112204197D01*
X115703963Y-112239854D01*
X115595634Y-112297757D01*
X115500682Y-112375682D01*
X115422757Y-112470634D01*
X115364854Y-112578963D01*
X115329197Y-112696508D01*
X115317157Y-112818750D01*
X114172500Y-112818750D01*
X114151750Y-112798000D01*
X113871961Y-112798000D01*
X113822008Y-112771299D01*
X113750189Y-112749513D01*
X113675500Y-112742157D01*
X112791000Y-112742157D01*
X112791000Y-112657843D01*
X113675500Y-112657843D01*
X113750189Y-112650487D01*
X113822008Y-112628701D01*
X113871961Y-112602000D01*
X114151750Y-112602000D01*
X114310500Y-112443250D01*
X114299368Y-112341117D01*
X114261261Y-112221979D01*
X114200644Y-112112564D01*
X114119846Y-112017078D01*
X114058343Y-111968134D01*
X114058343Y-111825000D01*
X114050987Y-111750311D01*
X114029201Y-111678492D01*
X113993822Y-111612304D01*
X113946211Y-111554289D01*
X113888196Y-111506678D01*
X113822008Y-111471299D01*
X113750189Y-111449513D01*
X113675500Y-111442157D01*
X112200500Y-111442157D01*
X112125811Y-111449513D01*
X112053992Y-111471299D01*
X111987804Y-111506678D01*
X111929789Y-111554289D01*
X111882178Y-111612304D01*
X111846799Y-111678492D01*
X111825013Y-111750311D01*
X111817657Y-111825000D01*
X111817657Y-111968134D01*
X111756154Y-112017078D01*
X111675356Y-112112564D01*
X111614739Y-112221979D01*
X111587287Y-112307806D01*
X110568500Y-111289020D01*
X110568500Y-110796787D01*
X110578492Y-110795803D01*
X110696037Y-110760146D01*
X110804366Y-110702243D01*
X110899318Y-110624318D01*
X110977243Y-110529366D01*
X111035146Y-110421037D01*
X111070803Y-110303492D01*
X111082843Y-110181250D01*
X111082843Y-109693750D01*
X111070803Y-109571508D01*
X111035146Y-109453963D01*
X110977243Y-109345634D01*
X110899318Y-109250682D01*
X110804366Y-109172757D01*
X110696037Y-109114854D01*
X110578492Y-109079197D01*
X110456250Y-109067157D01*
X109710935Y-109067157D01*
X109845249Y-108932843D01*
X110456250Y-108932843D01*
X110578492Y-108920803D01*
X110696037Y-108885146D01*
X110804366Y-108827243D01*
X110899318Y-108749318D01*
X110977243Y-108654366D01*
X111035146Y-108546037D01*
X111070803Y-108428492D01*
X111082843Y-108306250D01*
X111082843Y-107818750D01*
X111070803Y-107696508D01*
X111035146Y-107578963D01*
X110977243Y-107470634D01*
X110899318Y-107375682D01*
X110804366Y-107297757D01*
X110696037Y-107239854D01*
X110578492Y-107204197D01*
X110456250Y-107192157D01*
X109543750Y-107192157D01*
X109421508Y-107204197D01*
X109303963Y-107239854D01*
X109195634Y-107297757D01*
X109100682Y-107375682D01*
X109022757Y-107470634D01*
X108964854Y-107578963D01*
X108929197Y-107696508D01*
X108917157Y-107818750D01*
X108917157Y-108306250D01*
X108928230Y-108418678D01*
X108406000Y-108940909D01*
X108406000Y-107768169D01*
X109568170Y-106606000D01*
X110431831Y-106606000D01*
X111594001Y-107768171D01*
M02*
