G04 #@! TF.GenerationSoftware,KiCad,Pcbnew,(5.1.2)-2*
G04 #@! TF.CreationDate,2019-12-09T19:24:06+00:00*
G04 #@! TF.ProjectId,encoder_pcb,656e636f-6465-4725-9f70-63622e6b6963,rev?*
G04 #@! TF.SameCoordinates,Original*
G04 #@! TF.FileFunction,Paste,Bot*
G04 #@! TF.FilePolarity,Positive*
%FSLAX46Y46*%
G04 Gerber Fmt 4.6, Leading zero omitted, Abs format (unit mm)*
G04 Created by KiCad (PCBNEW (5.1.2)-2) date 2019-12-09 19:24:06*
%MOMM*%
%LPD*%
G04 APERTURE LIST*
%ADD10C,0.100000*%
%ADD11C,0.975000*%
%ADD12R,1.475000X0.450000*%
G04 APERTURE END LIST*
D10*
G36*
X116280142Y-114451174D02*
G01*
X116303803Y-114454684D01*
X116327007Y-114460496D01*
X116349529Y-114468554D01*
X116371153Y-114478782D01*
X116391670Y-114491079D01*
X116410883Y-114505329D01*
X116428607Y-114521393D01*
X116444671Y-114539117D01*
X116458921Y-114558330D01*
X116471218Y-114578847D01*
X116481446Y-114600471D01*
X116489504Y-114622993D01*
X116495316Y-114646197D01*
X116498826Y-114669858D01*
X116500000Y-114693750D01*
X116500000Y-115181250D01*
X116498826Y-115205142D01*
X116495316Y-115228803D01*
X116489504Y-115252007D01*
X116481446Y-115274529D01*
X116471218Y-115296153D01*
X116458921Y-115316670D01*
X116444671Y-115335883D01*
X116428607Y-115353607D01*
X116410883Y-115369671D01*
X116391670Y-115383921D01*
X116371153Y-115396218D01*
X116349529Y-115406446D01*
X116327007Y-115414504D01*
X116303803Y-115420316D01*
X116280142Y-115423826D01*
X116256250Y-115425000D01*
X115343750Y-115425000D01*
X115319858Y-115423826D01*
X115296197Y-115420316D01*
X115272993Y-115414504D01*
X115250471Y-115406446D01*
X115228847Y-115396218D01*
X115208330Y-115383921D01*
X115189117Y-115369671D01*
X115171393Y-115353607D01*
X115155329Y-115335883D01*
X115141079Y-115316670D01*
X115128782Y-115296153D01*
X115118554Y-115274529D01*
X115110496Y-115252007D01*
X115104684Y-115228803D01*
X115101174Y-115205142D01*
X115100000Y-115181250D01*
X115100000Y-114693750D01*
X115101174Y-114669858D01*
X115104684Y-114646197D01*
X115110496Y-114622993D01*
X115118554Y-114600471D01*
X115128782Y-114578847D01*
X115141079Y-114558330D01*
X115155329Y-114539117D01*
X115171393Y-114521393D01*
X115189117Y-114505329D01*
X115208330Y-114491079D01*
X115228847Y-114478782D01*
X115250471Y-114468554D01*
X115272993Y-114460496D01*
X115296197Y-114454684D01*
X115319858Y-114451174D01*
X115343750Y-114450000D01*
X116256250Y-114450000D01*
X116280142Y-114451174D01*
X116280142Y-114451174D01*
G37*
D11*
X115800000Y-114937500D03*
D10*
G36*
X116280142Y-112576174D02*
G01*
X116303803Y-112579684D01*
X116327007Y-112585496D01*
X116349529Y-112593554D01*
X116371153Y-112603782D01*
X116391670Y-112616079D01*
X116410883Y-112630329D01*
X116428607Y-112646393D01*
X116444671Y-112664117D01*
X116458921Y-112683330D01*
X116471218Y-112703847D01*
X116481446Y-112725471D01*
X116489504Y-112747993D01*
X116495316Y-112771197D01*
X116498826Y-112794858D01*
X116500000Y-112818750D01*
X116500000Y-113306250D01*
X116498826Y-113330142D01*
X116495316Y-113353803D01*
X116489504Y-113377007D01*
X116481446Y-113399529D01*
X116471218Y-113421153D01*
X116458921Y-113441670D01*
X116444671Y-113460883D01*
X116428607Y-113478607D01*
X116410883Y-113494671D01*
X116391670Y-113508921D01*
X116371153Y-113521218D01*
X116349529Y-113531446D01*
X116327007Y-113539504D01*
X116303803Y-113545316D01*
X116280142Y-113548826D01*
X116256250Y-113550000D01*
X115343750Y-113550000D01*
X115319858Y-113548826D01*
X115296197Y-113545316D01*
X115272993Y-113539504D01*
X115250471Y-113531446D01*
X115228847Y-113521218D01*
X115208330Y-113508921D01*
X115189117Y-113494671D01*
X115171393Y-113478607D01*
X115155329Y-113460883D01*
X115141079Y-113441670D01*
X115128782Y-113421153D01*
X115118554Y-113399529D01*
X115110496Y-113377007D01*
X115104684Y-113353803D01*
X115101174Y-113330142D01*
X115100000Y-113306250D01*
X115100000Y-112818750D01*
X115101174Y-112794858D01*
X115104684Y-112771197D01*
X115110496Y-112747993D01*
X115118554Y-112725471D01*
X115128782Y-112703847D01*
X115141079Y-112683330D01*
X115155329Y-112664117D01*
X115171393Y-112646393D01*
X115189117Y-112630329D01*
X115208330Y-112616079D01*
X115228847Y-112603782D01*
X115250471Y-112593554D01*
X115272993Y-112585496D01*
X115296197Y-112579684D01*
X115319858Y-112576174D01*
X115343750Y-112575000D01*
X116256250Y-112575000D01*
X116280142Y-112576174D01*
X116280142Y-112576174D01*
G37*
D11*
X115800000Y-113062500D03*
D10*
G36*
X119280142Y-114388674D02*
G01*
X119303803Y-114392184D01*
X119327007Y-114397996D01*
X119349529Y-114406054D01*
X119371153Y-114416282D01*
X119391670Y-114428579D01*
X119410883Y-114442829D01*
X119428607Y-114458893D01*
X119444671Y-114476617D01*
X119458921Y-114495830D01*
X119471218Y-114516347D01*
X119481446Y-114537971D01*
X119489504Y-114560493D01*
X119495316Y-114583697D01*
X119498826Y-114607358D01*
X119500000Y-114631250D01*
X119500000Y-115118750D01*
X119498826Y-115142642D01*
X119495316Y-115166303D01*
X119489504Y-115189507D01*
X119481446Y-115212029D01*
X119471218Y-115233653D01*
X119458921Y-115254170D01*
X119444671Y-115273383D01*
X119428607Y-115291107D01*
X119410883Y-115307171D01*
X119391670Y-115321421D01*
X119371153Y-115333718D01*
X119349529Y-115343946D01*
X119327007Y-115352004D01*
X119303803Y-115357816D01*
X119280142Y-115361326D01*
X119256250Y-115362500D01*
X118343750Y-115362500D01*
X118319858Y-115361326D01*
X118296197Y-115357816D01*
X118272993Y-115352004D01*
X118250471Y-115343946D01*
X118228847Y-115333718D01*
X118208330Y-115321421D01*
X118189117Y-115307171D01*
X118171393Y-115291107D01*
X118155329Y-115273383D01*
X118141079Y-115254170D01*
X118128782Y-115233653D01*
X118118554Y-115212029D01*
X118110496Y-115189507D01*
X118104684Y-115166303D01*
X118101174Y-115142642D01*
X118100000Y-115118750D01*
X118100000Y-114631250D01*
X118101174Y-114607358D01*
X118104684Y-114583697D01*
X118110496Y-114560493D01*
X118118554Y-114537971D01*
X118128782Y-114516347D01*
X118141079Y-114495830D01*
X118155329Y-114476617D01*
X118171393Y-114458893D01*
X118189117Y-114442829D01*
X118208330Y-114428579D01*
X118228847Y-114416282D01*
X118250471Y-114406054D01*
X118272993Y-114397996D01*
X118296197Y-114392184D01*
X118319858Y-114388674D01*
X118343750Y-114387500D01*
X119256250Y-114387500D01*
X119280142Y-114388674D01*
X119280142Y-114388674D01*
G37*
D11*
X118800000Y-114875000D03*
D10*
G36*
X119280142Y-112513674D02*
G01*
X119303803Y-112517184D01*
X119327007Y-112522996D01*
X119349529Y-112531054D01*
X119371153Y-112541282D01*
X119391670Y-112553579D01*
X119410883Y-112567829D01*
X119428607Y-112583893D01*
X119444671Y-112601617D01*
X119458921Y-112620830D01*
X119471218Y-112641347D01*
X119481446Y-112662971D01*
X119489504Y-112685493D01*
X119495316Y-112708697D01*
X119498826Y-112732358D01*
X119500000Y-112756250D01*
X119500000Y-113243750D01*
X119498826Y-113267642D01*
X119495316Y-113291303D01*
X119489504Y-113314507D01*
X119481446Y-113337029D01*
X119471218Y-113358653D01*
X119458921Y-113379170D01*
X119444671Y-113398383D01*
X119428607Y-113416107D01*
X119410883Y-113432171D01*
X119391670Y-113446421D01*
X119371153Y-113458718D01*
X119349529Y-113468946D01*
X119327007Y-113477004D01*
X119303803Y-113482816D01*
X119280142Y-113486326D01*
X119256250Y-113487500D01*
X118343750Y-113487500D01*
X118319858Y-113486326D01*
X118296197Y-113482816D01*
X118272993Y-113477004D01*
X118250471Y-113468946D01*
X118228847Y-113458718D01*
X118208330Y-113446421D01*
X118189117Y-113432171D01*
X118171393Y-113416107D01*
X118155329Y-113398383D01*
X118141079Y-113379170D01*
X118128782Y-113358653D01*
X118118554Y-113337029D01*
X118110496Y-113314507D01*
X118104684Y-113291303D01*
X118101174Y-113267642D01*
X118100000Y-113243750D01*
X118100000Y-112756250D01*
X118101174Y-112732358D01*
X118104684Y-112708697D01*
X118110496Y-112685493D01*
X118118554Y-112662971D01*
X118128782Y-112641347D01*
X118141079Y-112620830D01*
X118155329Y-112601617D01*
X118171393Y-112583893D01*
X118189117Y-112567829D01*
X118208330Y-112553579D01*
X118228847Y-112541282D01*
X118250471Y-112531054D01*
X118272993Y-112522996D01*
X118296197Y-112517184D01*
X118319858Y-112513674D01*
X118343750Y-112512500D01*
X119256250Y-112512500D01*
X119280142Y-112513674D01*
X119280142Y-112513674D01*
G37*
D11*
X118800000Y-113000000D03*
D10*
G36*
X110480142Y-107576174D02*
G01*
X110503803Y-107579684D01*
X110527007Y-107585496D01*
X110549529Y-107593554D01*
X110571153Y-107603782D01*
X110591670Y-107616079D01*
X110610883Y-107630329D01*
X110628607Y-107646393D01*
X110644671Y-107664117D01*
X110658921Y-107683330D01*
X110671218Y-107703847D01*
X110681446Y-107725471D01*
X110689504Y-107747993D01*
X110695316Y-107771197D01*
X110698826Y-107794858D01*
X110700000Y-107818750D01*
X110700000Y-108306250D01*
X110698826Y-108330142D01*
X110695316Y-108353803D01*
X110689504Y-108377007D01*
X110681446Y-108399529D01*
X110671218Y-108421153D01*
X110658921Y-108441670D01*
X110644671Y-108460883D01*
X110628607Y-108478607D01*
X110610883Y-108494671D01*
X110591670Y-108508921D01*
X110571153Y-108521218D01*
X110549529Y-108531446D01*
X110527007Y-108539504D01*
X110503803Y-108545316D01*
X110480142Y-108548826D01*
X110456250Y-108550000D01*
X109543750Y-108550000D01*
X109519858Y-108548826D01*
X109496197Y-108545316D01*
X109472993Y-108539504D01*
X109450471Y-108531446D01*
X109428847Y-108521218D01*
X109408330Y-108508921D01*
X109389117Y-108494671D01*
X109371393Y-108478607D01*
X109355329Y-108460883D01*
X109341079Y-108441670D01*
X109328782Y-108421153D01*
X109318554Y-108399529D01*
X109310496Y-108377007D01*
X109304684Y-108353803D01*
X109301174Y-108330142D01*
X109300000Y-108306250D01*
X109300000Y-107818750D01*
X109301174Y-107794858D01*
X109304684Y-107771197D01*
X109310496Y-107747993D01*
X109318554Y-107725471D01*
X109328782Y-107703847D01*
X109341079Y-107683330D01*
X109355329Y-107664117D01*
X109371393Y-107646393D01*
X109389117Y-107630329D01*
X109408330Y-107616079D01*
X109428847Y-107603782D01*
X109450471Y-107593554D01*
X109472993Y-107585496D01*
X109496197Y-107579684D01*
X109519858Y-107576174D01*
X109543750Y-107575000D01*
X110456250Y-107575000D01*
X110480142Y-107576174D01*
X110480142Y-107576174D01*
G37*
D11*
X110000000Y-108062500D03*
D10*
G36*
X110480142Y-109451174D02*
G01*
X110503803Y-109454684D01*
X110527007Y-109460496D01*
X110549529Y-109468554D01*
X110571153Y-109478782D01*
X110591670Y-109491079D01*
X110610883Y-109505329D01*
X110628607Y-109521393D01*
X110644671Y-109539117D01*
X110658921Y-109558330D01*
X110671218Y-109578847D01*
X110681446Y-109600471D01*
X110689504Y-109622993D01*
X110695316Y-109646197D01*
X110698826Y-109669858D01*
X110700000Y-109693750D01*
X110700000Y-110181250D01*
X110698826Y-110205142D01*
X110695316Y-110228803D01*
X110689504Y-110252007D01*
X110681446Y-110274529D01*
X110671218Y-110296153D01*
X110658921Y-110316670D01*
X110644671Y-110335883D01*
X110628607Y-110353607D01*
X110610883Y-110369671D01*
X110591670Y-110383921D01*
X110571153Y-110396218D01*
X110549529Y-110406446D01*
X110527007Y-110414504D01*
X110503803Y-110420316D01*
X110480142Y-110423826D01*
X110456250Y-110425000D01*
X109543750Y-110425000D01*
X109519858Y-110423826D01*
X109496197Y-110420316D01*
X109472993Y-110414504D01*
X109450471Y-110406446D01*
X109428847Y-110396218D01*
X109408330Y-110383921D01*
X109389117Y-110369671D01*
X109371393Y-110353607D01*
X109355329Y-110335883D01*
X109341079Y-110316670D01*
X109328782Y-110296153D01*
X109318554Y-110274529D01*
X109310496Y-110252007D01*
X109304684Y-110228803D01*
X109301174Y-110205142D01*
X109300000Y-110181250D01*
X109300000Y-109693750D01*
X109301174Y-109669858D01*
X109304684Y-109646197D01*
X109310496Y-109622993D01*
X109318554Y-109600471D01*
X109328782Y-109578847D01*
X109341079Y-109558330D01*
X109355329Y-109539117D01*
X109371393Y-109521393D01*
X109389117Y-109505329D01*
X109408330Y-109491079D01*
X109428847Y-109478782D01*
X109450471Y-109468554D01*
X109472993Y-109460496D01*
X109496197Y-109454684D01*
X109519858Y-109451174D01*
X109543750Y-109450000D01*
X110456250Y-109450000D01*
X110480142Y-109451174D01*
X110480142Y-109451174D01*
G37*
D11*
X110000000Y-109937500D03*
D12*
X107062000Y-112050000D03*
X107062000Y-112700000D03*
X107062000Y-113350000D03*
X107062000Y-114000000D03*
X107062000Y-114650000D03*
X107062000Y-115300000D03*
X107062000Y-115950000D03*
X112938000Y-115950000D03*
X112938000Y-115300000D03*
X112938000Y-114650000D03*
X112938000Y-114000000D03*
X112938000Y-113350000D03*
X112938000Y-112700000D03*
X112938000Y-112050000D03*
D10*
G36*
X103880142Y-112576174D02*
G01*
X103903803Y-112579684D01*
X103927007Y-112585496D01*
X103949529Y-112593554D01*
X103971153Y-112603782D01*
X103991670Y-112616079D01*
X104010883Y-112630329D01*
X104028607Y-112646393D01*
X104044671Y-112664117D01*
X104058921Y-112683330D01*
X104071218Y-112703847D01*
X104081446Y-112725471D01*
X104089504Y-112747993D01*
X104095316Y-112771197D01*
X104098826Y-112794858D01*
X104100000Y-112818750D01*
X104100000Y-113306250D01*
X104098826Y-113330142D01*
X104095316Y-113353803D01*
X104089504Y-113377007D01*
X104081446Y-113399529D01*
X104071218Y-113421153D01*
X104058921Y-113441670D01*
X104044671Y-113460883D01*
X104028607Y-113478607D01*
X104010883Y-113494671D01*
X103991670Y-113508921D01*
X103971153Y-113521218D01*
X103949529Y-113531446D01*
X103927007Y-113539504D01*
X103903803Y-113545316D01*
X103880142Y-113548826D01*
X103856250Y-113550000D01*
X102943750Y-113550000D01*
X102919858Y-113548826D01*
X102896197Y-113545316D01*
X102872993Y-113539504D01*
X102850471Y-113531446D01*
X102828847Y-113521218D01*
X102808330Y-113508921D01*
X102789117Y-113494671D01*
X102771393Y-113478607D01*
X102755329Y-113460883D01*
X102741079Y-113441670D01*
X102728782Y-113421153D01*
X102718554Y-113399529D01*
X102710496Y-113377007D01*
X102704684Y-113353803D01*
X102701174Y-113330142D01*
X102700000Y-113306250D01*
X102700000Y-112818750D01*
X102701174Y-112794858D01*
X102704684Y-112771197D01*
X102710496Y-112747993D01*
X102718554Y-112725471D01*
X102728782Y-112703847D01*
X102741079Y-112683330D01*
X102755329Y-112664117D01*
X102771393Y-112646393D01*
X102789117Y-112630329D01*
X102808330Y-112616079D01*
X102828847Y-112603782D01*
X102850471Y-112593554D01*
X102872993Y-112585496D01*
X102896197Y-112579684D01*
X102919858Y-112576174D01*
X102943750Y-112575000D01*
X103856250Y-112575000D01*
X103880142Y-112576174D01*
X103880142Y-112576174D01*
G37*
D11*
X103400000Y-113062500D03*
D10*
G36*
X103880142Y-114451174D02*
G01*
X103903803Y-114454684D01*
X103927007Y-114460496D01*
X103949529Y-114468554D01*
X103971153Y-114478782D01*
X103991670Y-114491079D01*
X104010883Y-114505329D01*
X104028607Y-114521393D01*
X104044671Y-114539117D01*
X104058921Y-114558330D01*
X104071218Y-114578847D01*
X104081446Y-114600471D01*
X104089504Y-114622993D01*
X104095316Y-114646197D01*
X104098826Y-114669858D01*
X104100000Y-114693750D01*
X104100000Y-115181250D01*
X104098826Y-115205142D01*
X104095316Y-115228803D01*
X104089504Y-115252007D01*
X104081446Y-115274529D01*
X104071218Y-115296153D01*
X104058921Y-115316670D01*
X104044671Y-115335883D01*
X104028607Y-115353607D01*
X104010883Y-115369671D01*
X103991670Y-115383921D01*
X103971153Y-115396218D01*
X103949529Y-115406446D01*
X103927007Y-115414504D01*
X103903803Y-115420316D01*
X103880142Y-115423826D01*
X103856250Y-115425000D01*
X102943750Y-115425000D01*
X102919858Y-115423826D01*
X102896197Y-115420316D01*
X102872993Y-115414504D01*
X102850471Y-115406446D01*
X102828847Y-115396218D01*
X102808330Y-115383921D01*
X102789117Y-115369671D01*
X102771393Y-115353607D01*
X102755329Y-115335883D01*
X102741079Y-115316670D01*
X102728782Y-115296153D01*
X102718554Y-115274529D01*
X102710496Y-115252007D01*
X102704684Y-115228803D01*
X102701174Y-115205142D01*
X102700000Y-115181250D01*
X102700000Y-114693750D01*
X102701174Y-114669858D01*
X102704684Y-114646197D01*
X102710496Y-114622993D01*
X102718554Y-114600471D01*
X102728782Y-114578847D01*
X102741079Y-114558330D01*
X102755329Y-114539117D01*
X102771393Y-114521393D01*
X102789117Y-114505329D01*
X102808330Y-114491079D01*
X102828847Y-114478782D01*
X102850471Y-114468554D01*
X102872993Y-114460496D01*
X102896197Y-114454684D01*
X102919858Y-114451174D01*
X102943750Y-114450000D01*
X103856250Y-114450000D01*
X103880142Y-114451174D01*
X103880142Y-114451174D01*
G37*
D11*
X103400000Y-114937500D03*
M02*
